<svg width="432" height="466" viewBox="0 0 432 466" fill="none" xmlns="http://www.w3.org/2000/svg">
<path d="M260.52 437.85C259.63 437.95 259.33 436.76 259.84 436.21C278.94 415.44 303.46 401.06 321.73 378.73C341.41 354.66 357.89 328.16 375.38 302.5C376.12 301.42 378.02 302.07 377.58 303.43C367.55 334.19 350.1 361.59 329.16 386.15C312.23 406 288.29 434.72 260.52 437.85ZM281.69 175.99C282.12 174.95 283.21 174.62 284.1 175.36C286.15 177.06 286.79 179.88 287.46 182.35C288.15 184.93 288.31 186.78 287.03 189.2C286.79 189.66 286.09 189.86 285.65 189.56C283.42 188.04 282.67 186.41 282.07 183.84C281.49 181.32 280.69 178.48 281.69 175.99ZM286.4 168.98C286.55 168.57 286.95 168.28 287.4 168.41C289.8 169.09 291.29 172.12 292.66 173.99C294.48 176.46 296.63 178.93 298.08 181.64C299.39 184.09 296.19 186.74 294.16 184.66C291.88 182.32 290.17 179.2 288.62 176.35C287.53 174.33 285.54 171.38 286.4 168.98ZM315.7 265.82C318.94 268.36 320.05 271.98 321.72 275.61C323.09 278.59 318.62 281.16 317.32 278.17C315.71 274.48 314.59 270.87 313.77 266.94C313.52 265.74 314.8 265.11 315.7 265.82ZM331.83 150.85C333.81 152.38 348.65 162.13 343.28 165.27C340.08 167.15 336.11 162.58 334.32 160.49C331.86 157.62 330.52 155.48 330.23 151.76C330.18 151.02 331.2 150.37 331.83 150.85ZM331.29 84.38C346.84 83.81 360.59 98.77 369.05 110.24C379.51 124.43 386.27 139.28 387.93 156.89C388.05 158.19 386.21 158.51 385.6 157.52C377.75 144.77 371.2 131.07 362.69 118.73C353.6 105.55 340.79 97.54 330.78 85.61C330.38 85.13 330.63 84.4 331.29 84.38ZM390.13 279.37C391.52 282.93 388.95 287.41 387.44 290.64C386.29 293.1 384.63 295.69 381.82 296.32C381.41 296.41 380.86 296.28 380.68 295.86C379.53 293.25 380.38 290.61 381.37 288.08C382.61 284.9 383.01 280.54 385.55 278.16C387.16 276.65 389.38 277.45 390.13 279.37ZM243.7 391.69C243.57 388.92 241.19 383.31 243.57 381.01C245 379.64 247.06 381.51 247.92 382.59C249.88 385.06 250.27 388.67 250.61 391.69C251.11 396.05 243.9 396.2 243.7 391.69ZM238.93 321.1C238.67 318.84 238.07 316.38 237.04 314.35C236.59 313.45 237.54 312.3 238.49 312.9C241.57 314.85 242.76 317.52 243.08 321.1C243.31 323.79 239.22 323.71 238.93 321.1ZM231.06 327.28C229.94 329.05 227.12 328.81 226.55 326.69C225.77 323.76 226.69 320.56 226.63 317.54C226.58 314.74 226.46 312.01 227.06 309.25C227.37 307.77 229.51 307.58 230.22 308.84C231.97 311.91 232.35 315.32 232.37 318.82C232.38 321.65 232.61 324.81 231.06 327.28ZM223.58 183.39C223.21 181.09 223.21 178.7 223.1 176.38C222.99 174.24 222.44 171.78 223.15 169.71C223.63 168.34 225.22 167.88 226.31 168.87C228.1 170.51 228.41 173.35 228.86 175.6C229.31 177.82 229.87 180.27 229.81 182.54C229.78 183.61 229.24 184.79 228.24 185.28C227.46 185.67 226.65 185.93 225.79 185.6C224.82 185.24 223.76 184.52 223.58 183.39ZM163.86 247.93C163.48 248.36 162.69 248.36 162.3 247.93C160.5 245.93 160.81 244.12 160.69 241.55C160.58 239.06 160.78 237.03 161.27 234.62C161.43 233.85 162.38 233.92 162.76 234.42C165.34 237.85 167.06 244.38 163.86 247.93ZM156.46 242.62C155.71 245.98 155.41 250.15 152.31 252.12C151.87 252.4 151.16 252.24 150.93 251.76C149.32 248.41 151.27 244.81 152.1 241.42C153.06 237.45 153.51 233.27 155.02 229.47C155.36 228.63 156.47 228.58 156.78 229.47C158.29 233.72 157.42 238.32 156.46 242.62ZM151.04 350.61C149.98 354.44 143.82 352.7 145.12 348.97C145.97 346.52 146.31 343.92 146.82 341.38C147.31 338.92 150.68 339.33 151.38 341.38C152.41 344.38 151.87 347.61 151.04 350.61ZM137.6 352.37C137.25 356.43 130.92 356.5 131.21 352.37C131.66 346.04 133.25 337.43 137.96 332.79C138.26 332.49 138.89 332.5 139.09 332.93C141.73 338.81 138.12 346.31 137.6 352.37ZM123.66 169.35C123.14 170.04 122.36 170.75 121.41 170.64C120.92 170.58 120.55 170.52 120.1 170.28C119.31 169.86 118.82 168.93 118.82 168.04C118.82 164.98 120.52 160.28 123.52 158.97C124.1 158.72 124.76 158.79 125.1 159.38C126.72 162.18 125.48 166.91 123.66 169.35ZM117.92 157.84C117.68 158.78 117.42 159.7 117.12 160.62C116.48 162.6 115.33 164.77 114.08 166.43C112.08 169.09 107.82 166.83 109.51 163.76C110.62 161.77 111.91 159.79 113.18 157.9C114.17 156.45 115.35 155.64 116.42 154.33C116.83 153.82 117.64 154.26 117.65 154.84C117.66 155.82 118.17 156.85 117.92 157.84ZM92.4601 262.85C91.6101 265.58 91.48 268.2 88.84 269.77C88.22 270.13 87.5201 269.87 87.1301 269.32C85.1701 266.52 86.7701 263.29 87.9601 260.45C89.1101 257.71 90.5404 255.42 92.9704 253.7C93.4504 253.37 94.0302 253.82 94.0602 254.33C94.2002 257.32 93.3601 260.01 92.4601 262.85ZM50.6003 289.46C18.2903 242.68 13.81 162.2 51.11 116.59C51.72 115.84 53.2002 116.43 53.0802 117.41C49.6002 145.89 38.7503 172.65 39.6803 201.9C40.6103 231.58 48.5103 259.22 53.4103 288.28C53.7003 290 51.6203 290.94 50.6003 289.46ZM367.59 359.82C405.8 304.63 429.41 232.69 413.79 165.94C404.02 124.21 373.66 66.53 325.33 61.91C297.5 59.25 277.34 71.86 255.77 88.01C241.32 98.82 227.84 108.23 210.81 109.88C211.11 93.69 212.91 77.6801 217.03 61.8001C223.85 35.4801 236.35 21.475 263.03 16.935C270.77 15.615 269.59 4.49498 263.03 2.47498C208.86 -14.225 192.56 62.29 194.75 109.09C173.64 105.28 155.04 91.12 135.34 83.41C81.27 62.24 38.31 83.95 18.3 137.23C-14.59 224.81 29.89 332.63 79.59 397.98C93.32 416.03 112.68 439.53 135.48 446.26C148.49 450.08 159.34 450.7 172.15 445.38C175.67 443.92 178.76 441.69 181.72 439.3C197.51 426.55 213.98 434.26 226.68 445.57C276.08 489.58 344.39 393.32 367.59 359.82Z" fill="#2D2D2C"/>
<path d="M431.68 215.56C431.67 215.17 431.04 215.05 430.97 215.46C423.7 262.63 412.6 305.25 389.45 347.48C368.57 385.57 340.56 418.49 307.31 446.29C306.54 446.94 307.56 448.25 308.39 447.69C344.31 423.45 371.71 386.77 392.62 349.33C414.58 310 433.1 261.26 431.68 215.56Z" fill="#2D2D2C"/>
<path d="M78.0896 62.5301C78.5796 62.4201 78.6196 61.58 78.0896 61.5C37.9996 55.96 6.55967 100.55 0.629668 135.75C0.559668 136.18 1.15967 136.51 1.37967 136.07C9.61967 119.82 16.0197 103.64 27.6697 89.3001C40.8197 73.1301 58.3096 66.5901 78.0896 62.5301Z" fill="#2D2D2C"/>
<path d="M87.1802 63.43C89.2902 63.6 91.2098 64.26 93.3398 64.27C93.9898 64.27 94.2601 63.5 93.8501 63.04C91.8801 60.87 86.1099 59.24 83.8799 61.79C83.7699 61.93 83.7699 62.1 83.8799 62.24C84.7999 63.29 85.8202 63.33 87.1802 63.43Z" fill="#2D2D2C"/>
<path d="M167.95 462.75C95.8904 463.16 53.1604 399.86 30.4704 338.88C30.3704 338.62 30 338.72 30.05 339C40.36 396.7 101.95 477.27 168.13 464.08C168.89 463.93 168.7 462.75 167.95 462.75Z" fill="#2D2D2C"/>
<path d="M314.03 50.75C324.53 52.63 335.06 53.21 345.42 56.01C358.42 59.52 369.1 67.27 380.02 74.74C380.5 75.06 380.95 74.37 380.6 73.98C364.96 56.35 337.38 46.71 314.03 50.2C313.75 50.24 313.76 50.7 314.03 50.75Z" fill="#2D2D2C"/>
</svg>
