<svg width="413" height="577" viewBox="0 0 413 577" fill="none" xmlns="http://www.w3.org/2000/svg">
<path d="M318.94 412.65C284.32 452.23 243.23 457.65 212.77 443.67C174.76 426.23 160.45 382.04 181.68 329.41C206.67 267.457 284.27 234.477 325.47 272.637C365.7 309.89 350.09 377.02 318.94 412.65ZM135.61 406.21C124.76 424.57 108.04 432 91.39 431.03C65.37 429.51 44.5001 411.72 36.1901 384.57C31.2501 368.4 31.57 347.16 36.43 327.2C43.95 296.341 62.33 268.574 88.9 267.487C104.64 266.837 121.14 276.677 134.83 299.437C153.87 331.11 154.27 374.66 135.61 406.21ZM378.92 439.73C428.44 380.11 423.14 294.677 361.94 246.087C332.9 223.047 296.9 205.837 261.51 197.857C263.92 190.377 267.05 183.387 271.89 177.667C286.02 160.977 317.7 160.717 337.65 157.467C340.31 157.027 342.65 154.307 343.3 151.827C343.43 151.307 343.56 150.777 343.7 150.257C344.86 145.757 342.25 141.807 338.06 140.317C330.39 137.597 322.81 135.047 315.4 132.047C329.45 127.717 343.75 124.227 357.47 118.797C364.03 116.187 365.64 105.757 357.47 103.837C349.14 101.887 340.9 100.377 332.89 98.137C357.82 92.127 382.77 82.987 400.95 65.227C405.74 60.547 402.24 51.817 395.45 51.967C361.11 52.737 323.38 51.427 289.58 57.657C268.36 61.577 262.13 84.287 258.26 102.377C252.1 131.117 248.53 163.527 241.64 194.387C240.74 194.267 239.84 194.127 238.94 194.027C192.67 188.907 146.03 193.537 105.56 206.747C105.1 204.017 104.77 201.277 104.63 198.487C103.54 176.037 134.12 155.657 148.74 142.327C150.75 140.487 151.69 137.057 150.82 134.457C150.64 133.957 150.47 133.437 150.3 132.927C148.87 128.667 144.82 126.197 140.36 127.287C132.26 129.267 124.42 131.267 116.44 132.817C126.12 121.067 136.6 109.997 145.41 97.527C149.25 92.077 142.87 83.867 136.65 86.127C128.46 89.107 120.64 92.427 112.6 94.967C130.09 76.397 145.96 55.187 151.51 30.587C152.9 24.427 146.09 17.707 140.1 21.817C123.54 33.167 107.73 45.517 91.4701 57.307C78.7101 66.557 64.6501 74.207 53.5101 85.507C38.8601 100.367 45.91 122.127 52.4 138.977C61.83 163.467 72.23 187.587 81.66 212.097C82.06 213.167 82.5 214.267 82.92 215.347C44.77 231.947 5.22019 270.997 1.33019 333.62C-1.44981 378.35 10.8501 426.84 45.2801 454.53C72.0301 476.05 104.98 491.46 138.23 498.1C243.76 519.15 319.08 496.24 363.74 455.62C376.65 463.17 373.75 485.55 368.96 496.78C358.32 521.69 326.67 529.65 302.37 529.76C271.41 529.91 239.49 536.21 246.11 574.23C246.8 578.22 252.19 576.73 252.59 573.35C257 536.3 301.04 551 327.75 547.14C354.33 543.3 378.78 526.49 389.98 502.05C398.87 482.67 397.21 453.5 378.92 439.73Z" fill="#2D2D2C"/>
<path d="M202.03 40.687C192.61 27.507 207.73 12.327 221.25 15.597C224.46 16.377 226.89 17.777 228.69 19.567C230.48 21.587 231.78 24.087 232.41 26.997C233.1 31.007 232.36 35.477 230.58 39.527C224.83 49.237 209.58 51.237 202.03 40.687ZM245.68 22.827C245.46 22.107 245.27 21.377 244.99 20.687C242.48 12.977 236.88 6.23699 227.8 2.80699C202.74 -6.67301 173.34 20.197 187.01 45.947C201.28 72.817 240.16 67.707 246.39 37.957C247.5 32.647 247.12 27.587 245.72 22.967C245.71 22.927 245.69 22.877 245.68 22.827Z" fill="#2D2D2C"/>
</svg>
