<svg width="357" height="230" viewBox="0 0 357 230" fill="none" xmlns="http://www.w3.org/2000/svg">
<path d="M310.92 25.2799C278.88 48.4599 246.43 71.0299 214.09 93.7899C182.85 115.77 184.34 115.16 183.4 94.18C182.72 78.97 178.62 49.3299 139.05 85.1999C105.41 115.7 73.56 148.22 41.43 180.41C-6.43003 228.36 -22.9399 252.54 47.5301 201.09C69.1901 185.27 92.2399 171.46 113.64 155.83C152.14 127.73 141.39 150.81 140.43 170.33C138.5 209.8 137.89 214.18 171.73 185.89C213.86 150.66 278.27 87.4099 325.96 40.5699C373.36 -5.98015 363.21 -12.5401 310.92 25.2799Z" fill="#2D2D2C"/>
</svg>
