<svg width="795" height="554" viewBox="0 0 795 554" fill="none" xmlns="http://www.w3.org/2000/svg">
<path d="M560.12 550.29C511.11 550.39 461.91 549.12 412.93 550.9C412.56 550.91 412.56 551.45 412.93 551.47C461.79 554.57 511.2 552.83 560.12 552.72C607.49 552.6 654.93 553.11 702.3 551.75C702.85 551.73 702.85 550.9 702.3 550.88C654.96 549.09 607.47 550.18 560.12 550.29Z" fill="#2D2D2C"/>
<path d="M67.2401 528.29C83.8201 525.94 97.2702 509.77 100.04 493.9C103.28 475.35 92.2901 456.67 75.6301 448.67C58.0702 440.23 36.5681 447.18 25.2221 462.56C18.0741 472.25 17.7521 483.15 21.6441 492.64C23.3611 499.6 26.7261 506.49 31.6341 512.5C40.3101 523.14 53.2801 530.26 67.2401 528.29Z" fill="#2D2D2C"/>
<path d="M596.55 100.05C591.32 100.45 586.66 103.03 584.1 107.73C581.19 113.06 581.61 119.14 582.62 124.9C583.06 127.41 584.82 129.34 587.02 130.49C589.11 132.94 591.95 134.73 595.11 135.21C606.7 136.98 619.14 125.36 615.41 113.45C613.02 105.78 604.78 99.4301 596.55 100.05Z" fill="#2D2D2C"/>
<path d="M585.34 74.6099C595.19 61.6499 595.28 43.53 585.87 30.3C575.23 15.36 557.25 14.0499 541.69 21.5699C519.9 32.0999 518.8 56.8099 531.13 72.5799C533.68 76.2799 537 79.5799 540.52 82.0699C555.37 92.5699 574.63 88.7099 585.34 74.6099Z" fill="#2D2D2C"/>
<path d="M27.725 350.1C37.713 369.08 64.15 369.35 79.32 357.34C95.67 344.4 104.3 319.41 90.4101 301.56C78.1401 285.79 56.99 284.29 40.51 294.23C24.15 304.08 19.5281 324.48 24.3221 340.5C24.9951 343.82 26.127 347.06 27.725 350.1Z" fill="#2D2D2C"/>
<path d="M118 384.5C116.51 379.28 111.85 375.45 106.67 374.25C94.28 371.37 83.02 382.09 87.53 394.63C90.35 402.47 96.7799 407.16 105.19 405.96C111.66 405.03 116.9 399.11 118.9 393.25C119.56 391.31 119.32 389.21 118.49 387.36C118.42 386.39 118.26 385.43 118 384.5Z" fill="#2D2D2C"/>
<path d="M170.08 347.93C122.5 297.96 75.2101 247.66 28.5961 196.79C28.4281 196.6 28.1701 196.87 28.3261 197.06C71.8101 248.99 119.37 297.69 165.99 346.77C205.21 388.06 243.43 433.22 287.46 469.59C287.81 469.88 288.32 469.39 287.97 469.08C246.19 431.79 208.66 388.44 170.08 347.93Z" fill="#2D2D2C"/>
<path d="M287.18 3.65001C287.64 3.63001 287.65 2.92998 287.18 2.92998C212.77 1.69998 137.53 -1.87003 63.26 4.10997C62.71 4.14997 62.7 4.98996 63.26 4.96996C137.88 3.54996 212.61 6.24001 287.18 3.65001Z" fill="#2D2D2C"/>
<path d="M308.44 3.20004C308.81 3.02004 308.74 2.35006 308.31 2.28006C306.08 1.95006 303.83 2.17005 301.59 2.21005C299.42 2.25005 297.18 2.06005 295.1 2.71005C294.65 2.84005 294.71 3.38 295.1 3.54C298.85 5.1 304.77 4.98004 308.44 3.20004Z" fill="#2D2D2C"/>
<path d="M731.69 330.29C732.01 330.58 732.47 330.12 732.16 329.82C658.32 256.28 587.12 180.43 515.13 105.12C515.02 105 514.86 105.17 514.96 105.29C554.45 151.56 596.78 195.57 639.15 239.2C669.3 270.23 699.49 301.36 731.69 330.29Z" fill="#2D2D2C"/>
<path d="M470.25 179.56C402.91 182.86 334.04 186.49 266.63 186.03C266.16 186.02 266.02 185.25 266.52 185.18C332.47 175.7 403.89 171.07 470.25 177.73C471.41 177.85 471.44 179.5 470.25 179.56ZM240.02 157.9C305.97 148.43 377.39 143.8 443.75 150.46C444.91 150.58 444.95 152.23 443.75 152.29C376.41 155.59 307.53 159.22 240.13 158.75C239.66 158.75 239.52 157.98 240.02 157.9ZM221.68 129.29C221.21 129.29 221.07 128.51 221.57 128.44C287.52 118.96 358.94 114.34 425.3 121C426.46 121.12 426.5 122.77 425.3 122.83C357.96 126.13 289.08 129.76 221.68 129.29ZM405.6 47.73C326.75 49.39 246.8 49.42 169.41 49.46C143.49 49.47 117.57 49.48 91.6501 49.54C133.67 98.31 178.7 145.45 222.49 191.28L229.89 199.04C299.56 271.98 359.06 332.81 421.56 391.22C523.79 392.91 624.94 392.03 727.56 390.59C599.33 268.88 493.7 156.37 405.6 47.73Z" fill="#2D2D2C"/>
<path d="M414.62 408.56C346.42 345.14 281.4 278.22 217.09 210.89C161.58 152.77 105.41 94.36 54.2301 32.25C174.07 31.61 293.98 32.83 413.79 30.11C521.66 164.04 645.07 289.95 770.77 407.42C651.88 409.21 533.56 410.73 414.62 408.56ZM763.44 431.14C647.16 435.54 530.2 435.26 413.93 431.24C414.82 428.3 415.71 425.37 416.6 422.43C533.84 431.84 653.28 427.27 770.72 421.11C768.14 424.26 765.7 427.59 763.44 431.14ZM757.85 440.92C642.45 445.21 526.38 444.92 410.99 440.93C411.63 438.81 412.28 436.7 412.92 434.58C528.89 438.95 645.86 440.3 761.8 433.81C760.41 436.11 759.09 438.48 757.85 440.92ZM753.39 450.66C638.49 454.9 522.93 454.59 408.06 450.62C408.7 448.5 409.34 446.39 409.98 444.27C525.18 448.61 641.36 449.96 756.54 443.61C755.43 445.92 754.37 448.26 753.39 450.66ZM749.79 460.37C635.11 464.58 519.77 464.27 405.12 460.31C405.76 458.19 406.4 456.08 407.04 453.96C521.8 458.28 637.54 459.63 752.28 453.37C751.38 455.67 750.56 458.01 749.79 460.37ZM746.95 470.06C632.24 474.27 516.87 473.97 402.18 470C402.82 467.88 403.46 465.77 404.1 463.65C518.71 467.97 634.28 469.31 748.87 463.08C748.16 465.39 747.54 467.72 746.95 470.06ZM744.83 479.72C629.85 483.96 514.21 483.66 399.25 479.69C399.89 477.57 400.53 475.46 401.17 473.34C515.89 477.66 631.57 479.01 746.27 472.76C745.73 475.07 745.25 477.39 744.83 479.72ZM743.43 489.36C627.94 493.66 511.78 493.37 396.31 489.38C396.95 487.26 397.59 485.15 398.23 483.03C513.3 487.37 629.36 488.71 744.4 482.39C744.03 484.72 743.68 487.04 743.43 489.36ZM386.33 522.31C387.36 518.9 388.39 515.5 389.42 512.1C506.97 516.54 625.55 517.89 743.03 511.09C743.28 514.45 743.65 517.76 744.21 520.96C624.72 522.76 505.83 524.36 386.33 522.31ZM742.87 508.56C625.64 513.08 507.68 512.81 390.44 508.76C391.08 506.64 391.72 504.53 392.36 502.41C508.83 506.8 626.32 508.15 742.75 501.56C742.72 503.92 742.76 506.25 742.87 508.56ZM742.77 498.97C626.54 503.37 509.61 503.09 393.37 499.07C394.01 496.96 394.65 494.84 395.29 492.73C510.95 497.08 627.6 498.42 743.22 492C743.02 494.34 742.85 496.66 742.77 498.97ZM373.31 515.73C284.84 432.82 200.99 344.76 118.56 255.85C118.79 255.57 119.06 255.38 119.25 255.04C133.71 229 146.74 196.79 155.23 167.02C199.8 214.74 245.73 261.24 291.23 307.52C313.46 330.12 335.89 352.52 358.54 374.71C368.4 384.38 378.36 393.96 388.36 403.5C392.86 407.79 397.4 412.06 401.94 416.31C402.88 417.2 405.06 411.26 402.62 419.26C392.84 451.41 383.08 483.57 373.31 515.73ZM102.96 239.03C96.6501 232.21 90.5201 225.22 84.2601 218.35C84.2701 218.33 84.3002 218.32 84.3102 218.29C98.9402 191.95 112.08 159.31 120.58 129.25C128.38 137.89 136.24 146.48 144.15 155.03C138.43 167.32 134.23 180.43 129.42 193.07C122.79 210.5 114.66 227.7 108.92 245.46C106.94 243.31 104.94 241.17 102.96 239.03ZM74.4001 207.46C64.8101 196.85 55.1001 186.34 45.6201 175.64C35.7781 164.53 12.0401 142.8 14.3051 135.28C23.9901 103.18 33.6441 71.06 43.3601 38.97C64.7501 65.57 86.9601 91.57 109.74 117.13C103.73 129.75 99.4401 143.29 94.4801 156.33C88.0101 173.34 80.1201 190.14 74.4001 207.46ZM792.23 407.88C723.43 343.92 657.81 276.47 592.94 208.57C534.45 147.34 474.76 86.0199 421.83 19.82C421.51 19.31 421.11 18.87 420.64 18.47C419.21 16.98 417.55 16.55 415.98 16.87C291.65 13.41 166.33 15.51 42.0201 19.25C40.8901 19.02 39.7471 19.23 38.7111 19.75C36.6551 20.46 35.3241 21.99 34.7771 23.86C34.7411 23.96 34.6691 24.01 34.6361 24.12C23.4851 60.87 12.2111 97.58 1.00009 134.32C-2.77791 146.69 13.2771 158.56 20.5251 167.26C38.9181 189.34 58.0101 210.82 77.2401 232.17C171.14 336.41 268.93 438.48 371.74 534C373.7 535.83 376.26 536.36 378.53 535.8C502.31 546.05 628.6 540.54 752.44 533.91C752.71 533.89 752.9 533.77 753.16 533.73C756.34 533.48 759.28 531.31 759.05 527.37C756.48 485.01 766.93 452.41 791.38 418.39C794.54 415.99 795.97 411.36 792.23 407.88Z" fill="#2D2D2C"/>
</svg>
