<svg width="609" height="500" viewBox="0 0 609 500" fill="none" xmlns="http://www.w3.org/2000/svg">
<path d="M428.954 458.99C391.442 459.067 353.786 458.095 316.297 459.457C316.014 459.465 316.014 459.878 316.297 459.893C353.694 462.266 391.511 460.934 428.954 460.85C465.21 460.758 501.52 461.149 537.776 460.108C538.197 460.092 538.197 459.457 537.776 459.442C501.542 458.072 465.194 458.906 428.954 458.99Z" fill="#2D2D2C"/>
<path d="M51.713 442.152C64.4031 440.353 74.6975 427.977 76.8176 415.83C79.2974 401.633 70.8858 387.335 58.1346 381.212C44.6945 374.752 28.2373 380.072 19.5533 391.843C14.0823 399.26 13.8359 407.603 16.8147 414.866C18.1289 420.193 20.7044 425.467 24.4609 430.066C31.1013 438.21 41.0283 443.66 51.713 442.152Z" fill="#2D2D2C"/>
<path d="M456.837 114.385C452.834 114.691 449.267 116.666 447.308 120.263C445.08 124.343 445.402 128.996 446.175 133.405C446.512 135.326 447.859 136.803 449.543 137.683C451.142 139.559 453.316 140.929 455.735 141.296C464.605 142.651 474.127 133.757 471.272 124.641C469.443 118.771 463.136 113.911 456.837 114.385Z" fill="#2D2D2C"/>
<path d="M448.257 94.9138C455.796 84.9945 455.865 71.1258 448.662 60.9999C440.519 49.5651 426.757 48.5623 414.848 54.318C398.17 62.3775 397.328 81.29 406.765 93.3601C408.717 96.192 411.258 98.7177 413.952 100.624C425.318 108.66 440.059 105.706 448.257 94.9138Z" fill="#2D2D2C"/>
<path d="M21.4688 305.769C29.1135 320.296 49.3478 320.502 60.9587 311.31C73.4726 301.406 80.0779 282.279 69.4468 268.617C60.0556 256.547 43.8677 255.399 31.2543 263.007C18.7326 270.546 15.1951 286.16 18.8643 298.421C19.3794 300.962 20.2458 303.442 21.4688 305.769Z" fill="#2D2D2C"/>
<path d="M90.5636 332.098C89.4232 328.103 85.8566 325.171 81.8919 324.253C72.4088 322.048 63.7906 330.253 67.2425 339.851C69.4009 345.852 74.3222 349.441 80.7591 348.523C85.7111 347.811 89.7217 343.28 91.2525 338.795C91.7576 337.31 91.5739 335.703 90.9387 334.287C90.8851 333.544 90.7626 332.81 90.5636 332.098Z" fill="#2D2D2C"/>
<path d="M130.425 304.108C94.0079 265.862 57.8131 227.363 22.1357 188.428C22.0071 188.283 21.8096 188.489 21.929 188.635C55.2108 228.381 91.6123 265.655 127.294 303.22C157.313 334.822 186.565 369.387 220.265 397.224C220.533 397.446 220.923 397.071 220.656 396.834C188.678 368.293 159.953 335.113 130.425 304.108Z" fill="#2D2D2C"/>
<path d="M220.051 40.6025C220.403 40.5872 220.411 40.0514 220.051 40.0514C163.099 39.1099 105.512 36.3775 48.6667 40.9545C48.2458 40.9851 48.2381 41.628 48.6667 41.6127C105.779 40.5259 162.976 42.5848 220.051 40.6025Z" fill="#2D2D2C"/>
<path d="M236.323 40.2581C236.606 40.1203 236.552 39.6075 236.223 39.5539C234.516 39.3014 232.794 39.4697 231.08 39.5004C229.419 39.531 227.704 39.3855 226.112 39.883C225.768 39.9825 225.814 40.3958 226.112 40.5183C228.983 41.7123 233.514 41.6204 236.323 40.2581Z" fill="#2D2D2C"/>
<path d="M560.27 290.606C560.515 290.828 560.867 290.476 560.63 290.247C504.114 233.961 449.619 175.906 394.519 118.266C394.435 118.174 394.313 118.304 394.389 118.396C424.614 153.81 457.013 187.494 489.442 220.888C512.518 244.638 535.625 268.464 560.27 290.606Z" fill="#2D2D2C"/>
<path d="M360.169 175.241C308.628 177.766 255.917 180.545 204.322 180.193C203.963 180.185 203.855 179.596 204.238 179.542C254.715 172.286 309.378 168.743 360.169 173.84C361.057 173.932 361.08 175.195 360.169 175.241ZM183.956 158.662C234.432 151.414 289.096 147.871 339.887 152.968C340.774 153.06 340.805 154.323 339.887 154.369C288.346 156.894 235.626 159.673 184.04 159.313C183.68 159.313 183.573 158.724 183.956 158.662ZM169.918 136.765C169.559 136.765 169.452 136.168 169.834 136.114C220.311 128.858 274.975 125.322 325.765 130.42C326.653 130.512 326.684 131.775 325.765 131.821C274.225 134.346 221.505 137.125 169.918 136.765ZM310.687 74.3404C250.337 75.611 189.145 75.6339 129.912 75.6645C110.073 75.6722 90.2347 75.6799 70.396 75.7258C102.557 113.053 137.022 149.133 170.538 184.211L176.202 190.15C229.526 245.977 275.067 292.535 322.903 337.241C401.148 338.535 478.566 337.861 557.109 336.759C458.965 243.604 378.117 157.491 310.687 74.3404Z" fill="#2D2D2C"/>
<path d="M317.591 350.513C265.392 301.972 215.627 250.753 166.405 199.22C123.919 154.736 80.9276 110.03 41.7554 62.4924C133.479 62.0025 225.256 62.9363 316.956 60.8544C399.517 163.362 493.973 259.731 590.181 349.64C499.185 351.01 408.625 352.174 317.591 350.513ZM584.571 367.795C495.573 371.163 406.054 370.949 317.063 367.872C317.744 365.621 318.425 363.379 319.106 361.129C408.84 368.331 500.257 364.833 590.143 360.118C588.168 362.529 586.301 365.078 584.571 367.795ZM580.293 375.281C491.968 378.564 403.13 378.342 314.813 375.288C315.303 373.666 315.8 372.051 316.29 370.428C405.051 373.773 494.578 374.806 583.316 369.839C582.252 371.599 581.242 373.413 580.293 375.281ZM576.879 382.735C488.937 385.981 400.489 385.743 312.57 382.705C313.06 381.082 313.55 379.467 314.04 377.845C402.212 381.166 491.133 382.2 579.29 377.339C578.441 379.107 577.629 380.898 576.879 382.735ZM574.124 390.167C486.35 393.389 398.071 393.152 310.32 390.121C310.81 388.499 311.3 386.884 311.789 385.261C399.625 388.568 488.21 389.601 576.03 384.81C575.341 386.57 574.713 388.361 574.124 390.167ZM571.95 397.584C484.153 400.806 395.851 400.576 308.07 397.538C308.56 395.915 309.049 394.3 309.539 392.678C397.26 395.984 485.715 397.01 573.42 392.241C572.876 394.009 572.402 395.793 571.95 397.584ZM570.327 404.977C482.324 408.223 393.815 407.993 305.827 404.954C306.317 403.332 306.807 401.717 307.297 400.094C395.101 403.401 483.64 404.434 571.43 399.65C571.016 401.418 570.649 403.194 570.327 404.977ZM569.256 412.356C480.862 415.647 391.955 415.425 303.577 412.371C304.067 410.748 304.557 409.133 305.046 407.511C393.119 410.833 481.949 411.858 569.998 407.021C569.715 408.804 569.447 410.58 569.256 412.356ZM295.938 437.575C296.727 434.965 297.515 432.363 298.303 429.76C388.274 433.159 479.033 434.192 568.95 428.987C569.141 431.559 569.424 434.092 569.853 436.542C478.398 437.919 387.401 439.144 295.938 437.575ZM568.827 427.051C479.102 430.51 388.817 430.304 299.084 427.204C299.574 425.581 300.064 423.966 300.554 422.344C389.698 425.704 479.622 426.737 568.735 421.693C568.712 423.5 568.743 425.283 568.827 427.051ZM568.751 419.711C479.791 423.079 390.295 422.864 301.327 419.787C301.817 418.172 302.306 416.55 302.796 414.935C391.32 418.264 480.602 419.29 569.095 414.376C568.942 416.167 568.812 417.943 568.751 419.711ZM285.973 432.539C218.26 369.081 154.083 301.682 90.9924 233.632C91.1684 233.417 91.375 233.272 91.5205 233.012C102.588 213.081 112.561 188.428 119.059 165.643C153.172 202.167 188.326 237.757 223.151 273.179C240.165 290.476 257.333 307.621 274.668 324.605C282.215 332.006 289.838 339.338 297.492 346.64C300.936 349.923 304.411 353.192 307.886 356.445C308.605 357.126 310.274 352.579 308.406 358.702C300.921 383.309 293.451 407.924 285.973 432.539ZM79.0524 220.758C74.2228 215.538 69.5311 210.188 64.7398 204.93C64.7474 204.914 64.7704 204.907 64.7781 204.884C75.9756 184.724 86.0326 159.742 92.5384 136.734C98.5084 143.347 104.524 149.922 110.578 156.466C106.2 165.872 102.986 175.906 99.3044 185.581C94.2299 198.921 88.0074 212.086 83.6141 225.679C82.0987 224.034 80.5678 222.396 79.0524 220.758ZM57.1931 196.595C49.8531 188.474 42.4213 180.43 35.1655 172.24C27.6326 163.737 9.46397 147.105 11.1976 141.35C18.6103 116.781 25.9993 92.1968 33.4357 67.6357C49.8072 87.9948 66.8063 107.895 84.2417 127.458C79.6417 137.117 76.3583 147.48 72.562 157.461C67.6099 170.48 61.5711 183.338 57.1931 196.595ZM606.606 349.992C553.948 301.039 503.724 249.414 454.074 197.444C409.307 150.58 363.621 103.647 323.109 52.9786C322.864 52.5883 322.558 52.2515 322.199 51.9454C321.104 50.805 319.834 50.4759 318.632 50.7208C223.472 48.0726 127.555 49.6799 32.4101 52.5424C31.5452 52.3664 30.6704 52.5271 29.8774 52.9251C28.3038 53.4685 27.2851 54.6395 26.8664 56.0708C26.8389 56.1473 26.7838 56.1856 26.7585 56.2698C18.2237 84.3975 9.59485 112.495 1.01417 140.615C-1.87744 150.083 10.4108 159.168 15.9582 165.826C30.0359 182.726 44.6485 199.166 59.3668 215.507C131.236 295.291 206.083 373.413 284.771 446.522C286.272 447.923 288.231 448.329 289.968 447.9C384.707 455.745 481.367 451.528 576.152 446.453C576.359 446.438 576.504 446.346 576.703 446.316C579.137 446.124 581.387 444.463 581.211 441.448C579.244 409.026 587.242 384.075 605.956 358.037C608.375 356.2 609.469 352.656 606.606 349.992Z" fill="#2D2D2C"/>
</svg>
