<svg width="685" height="746" viewBox="0 0 685 746" fill="none" xmlns="http://www.w3.org/2000/svg">
<mask id="path-1-outside-1_20_92" maskUnits="userSpaceOnUse" x="-0.480469" y="0.18927" width="686" height="746" fill="black">
<rect fill="white" x="-0.480469" y="0.18927" width="686" height="746"/>
<path d="M132.332 304.52C144.832 299.84 161.422 302.75 174.322 304.01C190.632 305.95 197.372 306.79 198.032 324.12C198.412 334.04 199.882 342.45 205.352 350.86C217.432 369.45 247.862 366.52 266.132 364.23C278.132 362.72 296.312 362.84 303.582 351.04C310.222 340.27 309.852 301.4 324.142 299.94C341.362 298.18 359.552 298.83 376.862 298.86C394.672 298.9 396.412 323.79 398.372 335.79C401.762 356.46 416.612 362.65 435.752 364.01C453.762 365.29 485.432 369.95 500.142 357.13C518.132 341.43 492.402 300.76 528.672 299.85C549.302 299.32 594.272 285.02 598.092 314.42C601.512 340.7 595.962 370.99 588.812 397.77C581.712 409.98 571.042 419.68 554.102 425.14C536.962 430.65 516.192 431.69 498.392 432.59C467.832 434.13 437.222 432.68 406.632 433.14C345.832 434.06 284.982 433.96 224.192 432.35C187.812 431.39 146.632 431.57 127.382 402.61C126.082 398.99 124.942 395.17 124.152 390.96C120.752 372.92 122.262 353.68 122.412 335.45C122.522 323.92 118.712 309.63 132.332 304.52ZM111.002 226.44C109.882 223.5 109.102 220.38 108.502 217.17C116.782 222.37 127.932 223.99 137.482 222.37C137.542 227.69 137.672 233.01 137.782 238.32C127.522 237.76 114.682 236.14 111.002 226.44ZM138.972 112.03C138.502 124.55 138.632 136.89 138.242 147.74C137.392 171.36 137.172 195.02 137.412 218.67C127.522 220.47 115.452 218.55 107.752 212.17C106.592 202.45 106.952 192.17 106.762 183.01C106.502 170.59 105.052 158.28 105.452 145.85C106.172 122.72 119.742 115.45 138.972 112.03ZM159.182 75.9798C166.322 40.2898 208.992 31.9999 239.462 27.5299C241.592 27.2199 243.732 26.9698 245.862 26.6898C245.932 47.6298 246.252 68.5699 247.022 89.4999C247.542 103.6 245.182 129.03 251.222 145.01C247.632 145.08 244.042 145.09 240.462 145.17C224.142 145.5 185.452 138.62 178.342 158.63C172.412 175.37 168.022 218.21 186.632 230.49C187.492 231.51 188.792 232.25 190.602 232.5C191.802 232.94 192.902 233.05 193.892 232.92C267.842 242.74 345.332 239.41 419.672 239.15C454.362 239.03 489.432 239.29 524.002 235.98C553.122 233.18 552.192 191.22 549.282 169.06C545.672 141.56 519.182 146.43 497.352 145.61C484.152 145.11 470.952 144.8 457.742 144.55C462.942 129.82 461.022 107.46 461.612 94.6499C462.712 70.9599 462.992 47.2299 463.022 23.5099C463.352 23.5399 463.692 23.5498 464.022 23.5798C496.592 26.1998 542.072 27.5698 561.512 58.4298C579.862 87.5598 572.532 136.07 572.382 168.8C572.202 206.23 571.282 243.66 570.122 281.07C559.382 281.81 548.452 283.99 540.702 284.57C525.932 285.66 502.952 282.48 497.282 300.81C495.002 308.18 493.672 315.95 492.902 323.62C490.812 344.34 489.172 348.66 467.112 349.38C452.792 349.84 437.842 350.75 423.692 347.92C410.622 345.32 411.352 322.13 408.612 312.38C405.182 300.24 395.692 286.81 382.312 285.02C365.992 282.82 348.892 284.8 332.472 285.26C324.202 285.49 317.652 285.06 310.652 289.65C300.452 296.34 299.142 311.97 297.412 322.73C296.192 330.34 295.322 342.81 286.942 346.3C277.292 350.34 262.512 350.22 252.502 351.08C232.922 352.75 213.502 347.44 212.612 324.12C212.372 317.82 212.622 310.66 209.972 304.78C203.892 291.32 187.102 290.95 174.322 289.43C168.342 288.85 161.162 287.96 153.782 287.61C150.952 218.63 145.572 144 159.182 75.9798ZM534.642 199.35C517.552 212.33 477.592 208.35 461.262 208.45C425.532 208.67 389.792 208.28 354.072 207.88C320.212 207.49 286.342 206.98 252.482 206.49C233.002 206.2 200.702 209.89 188.122 194.03C188.282 183.58 189.672 172.96 190.372 169.22C192.602 157.33 203.972 160.76 214.032 160.43C249.472 159.24 284.932 158.96 320.382 158.7C390.052 158.19 461.342 155.28 530.782 162.16C538.252 162.9 536.442 185.92 534.642 199.35ZM194.472 218.45C190.072 216.82 188.462 208.7 188.152 199.42C198.162 208.25 214.952 209.65 230.172 209.83C267.852 210.26 305.532 210.93 343.222 211.39C386.652 211.92 430.112 212.43 473.552 211.99C489.742 211.83 517.632 214.13 533.922 204.32C533.662 205.99 533.432 207.29 533.272 208.06C530.252 223.32 523.442 221.63 509.952 222.48C474.442 224.7 438.732 224.59 403.162 224.61C334.532 224.66 262.662 227.88 194.472 218.45ZM459.362 23.2699C459.332 41.8899 459.082 60.5199 458.542 79.1299C458.062 95.4199 461.382 126.9 453.942 144.49C426.332 144.03 398.712 143.96 371.112 143.95C332.452 143.93 293.782 144.27 255.132 144.95C248.052 128.58 251.042 99.6598 250.472 84.3098C249.762 64.9598 249.552 45.5798 249.502 26.2098C280.752 22.3198 312.572 21.3898 343.962 20.5998C382.432 19.6198 420.982 20.3499 459.362 23.2699ZM614.112 164.78C614.222 175.74 613.292 186.98 612.602 197.93C612.432 200.7 612.132 203.18 611.722 205.41C604.482 209.01 594.962 209.35 586.442 209.07C586.752 190.74 586.972 172.41 587.012 154.08C587.032 145.49 587.282 136.49 587.382 127.36C610.302 129.23 613.872 141.01 614.112 164.78ZM586.122 226.41C586.222 221.83 586.302 217.25 586.382 212.67C594.512 212.88 603.292 212.48 610.642 209.72C607.172 220.8 599.342 223.86 586.122 226.41ZM488.362 447.8C396.402 453.27 302.642 457.56 210.742 449.26C179.272 446.41 149.192 439.38 133.572 415.24C148.612 428.59 170.462 433.55 194.712 434.88C268.212 438.92 342.272 437.76 415.832 436.64C463.402 435.92 520.552 441.69 566.122 424.9C573.752 422.08 579.802 417.63 584.752 412.16C584.742 412.22 584.722 412.28 584.702 412.34C573.772 449.12 518.842 445.98 488.362 447.8Z"/>
</mask>
<path d="M539.882 458.04L538.243 448.175C535.547 448.623 533.152 450.155 531.614 452.415C530.077 454.674 529.531 457.464 530.104 460.136L539.882 458.04ZM550.252 455.89L559.623 452.398C557.846 447.63 552.771 444.956 547.834 446.187L550.252 455.89ZM247.542 466.52L247.737 456.522C243.131 456.432 239.06 459.5 237.877 463.952L247.542 466.52ZM262.392 466.9L262.034 476.893L262.045 476.894L262.392 466.9ZM287.422 467.44L297.416 467.102C297.236 461.779 292.916 457.531 287.59 457.441L287.422 467.44ZM432.722 465.13L432.334 455.137C429.652 455.241 427.124 456.419 425.319 458.406C423.515 460.394 422.585 463.023 422.738 465.703L432.722 465.13ZM467.542 463.59L477.187 460.947C475.946 456.419 471.723 453.364 467.035 453.603L467.542 463.59ZM175.762 460.01L178.113 450.29C173.519 449.179 168.775 451.436 166.738 455.701L175.762 460.01ZM185.082 461.94L194.727 464.581C195.468 461.876 195.039 458.984 193.544 456.611C192.05 454.238 189.628 452.601 186.868 452.101L185.082 461.94ZM150.162 450.62L154.824 441.773C151.078 439.799 146.493 440.398 143.38 443.271L150.162 450.62ZM161.742 455.77L170.933 459.71C172.016 457.184 172.011 454.324 170.921 451.802C169.831 449.28 167.75 447.317 165.169 446.375L161.742 455.77ZM188.632 462.53L190.237 452.66C185.245 451.848 180.433 454.891 179.027 459.749L188.632 462.53ZM232.582 466.16L242.254 468.703C243.029 465.755 242.417 462.614 240.592 460.173C238.767 457.731 235.928 456.255 232.881 456.164L232.582 466.16ZM314.562 467.7L314.576 457.7C311.717 457.696 308.993 458.916 307.093 461.051C305.192 463.187 304.296 466.033 304.631 468.872L314.562 467.7ZM405.022 466.12L415.013 466.539C415.13 463.76 414.084 461.058 412.127 459.082C410.169 457.106 407.477 456.035 404.697 456.125L405.022 466.12ZM291.082 467.52L291.25 457.521C288.505 457.475 285.862 458.56 283.941 460.52C282.019 462.481 280.988 465.145 281.089 467.888L291.082 467.52ZM300.052 467.71L309.952 466.299C309.255 461.409 305.092 457.76 300.152 457.71L300.052 467.71ZM419.602 465.62L419.251 455.626C414.128 455.806 409.971 459.83 409.625 464.945L419.602 465.62ZM428.982 465.27L438.978 464.973C438.899 462.307 437.758 459.783 435.808 457.962C433.859 456.141 431.263 455.175 428.598 455.277L428.982 465.27ZM482.432 462.73L481.861 452.746C478.846 452.918 476.071 454.444 474.309 456.897C472.548 459.35 471.989 462.467 472.789 465.379L482.432 462.73ZM523.852 459.98L524.633 469.949L524.643 469.949L523.852 459.98ZM536.382 458.59L546.134 456.378C544.982 451.296 540.12 447.951 534.961 448.691L536.382 458.59ZM563.922 451.49L560.135 442.235C555.273 444.224 552.779 449.637 554.427 454.626L563.922 451.49ZM576.242 445.03L581.065 436.27C577.823 434.485 573.861 434.636 570.765 436.663L576.242 445.03ZM541.521 467.905C545.273 467.281 549.003 466.507 552.671 465.593L547.834 446.187C544.681 446.973 541.471 447.639 538.243 448.175L541.521 467.905ZM247.348 476.518C252.479 476.618 257.381 476.727 262.034 476.893L262.751 456.906C257.924 456.733 252.885 456.622 247.737 456.522L247.348 476.518ZM262.045 476.894C270.499 477.188 278.968 477.299 287.254 477.438L287.59 457.441C279.196 457.3 270.965 457.192 262.74 456.906L262.045 476.894ZM433.11 475.122C444.737 474.671 456.389 474.169 468.05 473.577L467.035 453.603C455.475 454.19 443.907 454.688 432.334 455.137L433.11 475.122ZM173.411 469.73C176.731 470.532 180.058 471.191 183.296 471.779L186.868 452.101C183.827 451.548 180.913 450.967 178.113 450.29L173.411 469.73ZM145.5 459.466C149.574 461.614 153.836 463.531 158.315 465.164L165.169 446.375C161.588 445.069 158.15 443.526 154.824 441.773L145.5 459.466ZM187.027 472.4C202.131 474.857 217.74 475.721 232.284 476.155L232.881 456.164C218.604 455.738 204.033 454.903 190.237 452.66L187.027 472.4ZM314.549 477.7C344.866 477.74 375.145 477.097 405.347 476.115L404.697 456.125C374.639 457.103 344.598 457.74 314.576 457.7L314.549 477.7ZM290.915 477.518C293.499 477.562 297.056 477.68 299.952 477.709L300.152 457.71C297.068 457.679 294.646 457.578 291.25 457.521L290.915 477.518ZM419.954 475.614C423.102 475.503 426.248 475.382 429.367 475.262L428.598 455.277C425.476 455.397 422.362 455.517 419.251 455.626L419.954 475.614ZM483.003 472.714C496.864 471.921 510.749 471.037 524.633 469.949L523.072 450.01C509.376 451.083 495.64 451.958 481.861 452.746L483.003 472.714ZM524.643 469.949C529.005 469.603 533.405 469.12 537.803 468.488L534.961 448.691C530.999 449.26 527.02 449.697 523.062 450.011L524.643 469.949ZM567.709 460.745C572.636 458.729 577.323 456.274 581.719 453.397L570.765 436.663C567.461 438.826 563.908 440.691 560.135 442.235L567.709 460.745ZM540.882 459.381C540.858 459.318 540.998 459.726 541.248 460.897C541.473 461.95 541.725 463.319 541.991 464.966C542.523 468.251 543.072 472.379 543.562 476.795C544.555 485.748 545.235 495.237 545.143 500.908C545.12 502.311 545.053 503.228 544.986 503.73C544.952 503.983 544.944 503.938 545.01 503.701C545.033 503.617 545.305 502.566 546.199 501.336C546.687 500.664 547.567 499.653 548.976 498.819C550.494 497.92 552.361 497.391 554.368 497.5C558.053 497.7 560.134 499.861 560.53 500.281C561.14 500.928 561.381 501.411 561.317 501.296C561.297 501.259 561.18 501.036 560.974 500.543C560.09 498.425 558.706 494.124 556.766 486.644C554.862 479.298 552.517 469.269 549.66 455.943L530.104 460.136C535.803 486.714 539.741 501.594 542.517 508.246C543.125 509.703 544.198 512.114 545.979 514.002C546.795 514.868 549.258 517.253 553.286 517.471C558.101 517.732 561.121 514.823 562.377 513.095C563.542 511.492 564.05 509.88 564.276 509.069C564.545 508.103 564.706 507.16 564.812 506.366C565.024 504.771 565.112 502.988 565.14 501.231C565.253 494.266 564.458 483.768 563.44 474.59C562.924 469.941 562.333 465.469 561.735 461.77C561.193 458.422 560.506 454.769 559.623 452.398L540.882 459.381ZM457.898 466.233C476.108 532.677 466.89 582.008 445.714 614.675C424.483 647.426 390.537 664.593 356.717 665.709C322.942 666.823 289.422 651.951 268.576 620.45C247.702 588.906 238.589 539.171 257.207 469.087L237.877 463.952C218.283 537.714 226.951 593.79 251.897 631.487C276.871 669.226 317.211 687.023 357.377 685.698C397.498 684.374 437.577 663.995 462.496 625.554C487.47 587.028 496.529 531.522 477.187 460.947L457.898 466.233ZM277.428 467.778C278.284 493.099 289.551 512.368 306.02 525.008C322.248 537.463 343.098 543.197 363.281 542.84C383.45 542.483 403.873 536.022 419.107 522.909C434.618 509.557 444.152 489.776 442.706 464.557L422.738 465.703C423.829 484.716 416.845 498.467 406.059 507.751C394.996 517.274 379.341 522.553 362.927 522.843C346.527 523.133 330.289 518.422 318.197 509.142C306.347 500.047 298.065 486.291 297.416 467.102L277.428 467.778ZM175.437 459.299C166.637 491.436 161.117 508.146 158.041 515.084C157.254 516.859 156.89 517.378 156.964 517.276C157.014 517.208 157.168 517.004 157.431 516.733C157.678 516.479 158.173 516.006 158.93 515.532C159.679 515.062 160.971 514.413 162.727 514.202C164.626 513.974 166.608 514.321 168.374 515.27C171.487 516.943 172.455 519.625 172.6 520.017C172.871 520.752 172.904 521.211 172.888 521.074C172.863 520.864 172.821 520.109 172.887 518.623C173.152 512.713 174.781 501.846 177.155 490.696C178.326 485.199 179.641 479.806 180.992 475.111C182.373 470.317 183.687 466.621 184.786 464.319L166.738 455.701C163.272 462.959 160.013 475.17 157.594 486.531C155.14 498.054 153.246 510.179 152.907 517.728C152.823 519.607 152.813 521.622 153.027 523.431C153.131 524.304 153.336 525.584 153.834 526.934C154.205 527.942 155.456 531.033 158.909 532.888C163.325 535.261 167.484 533.775 169.552 532.478C171.367 531.34 172.519 529.885 173.084 529.114C174.331 527.417 175.397 525.282 176.324 523.191C180.103 514.668 185.978 496.531 194.727 464.581L175.437 459.299ZM152.551 451.83C139.983 481.148 125.765 501.933 113.645 514.92C107.563 521.437 102.197 525.79 98.0313 528.311C95.9486 529.571 94.3654 530.252 93.3028 530.573C92.1589 530.918 92.1292 530.695 92.8418 530.839C93.2561 530.922 93.8804 531.126 94.5536 531.582C95.2423 532.049 95.7772 532.642 96.1396 533.244C96.8175 534.369 96.5853 534.965 96.6386 534.102C96.6883 533.297 96.962 531.773 97.8366 529.41C98.6949 527.091 100.038 524.216 102.002 520.774C109.951 506.846 126.858 485.73 156.943 457.969L143.38 443.271C112.583 471.688 94.0216 494.408 84.6321 510.86C80.036 518.914 77.0747 526.424 76.6767 532.869C76.473 536.166 76.8894 540.047 79.0077 543.563C81.31 547.385 84.9485 549.65 88.8883 550.444C95.6788 551.813 102.771 548.819 108.385 545.422C114.554 541.69 121.323 536.007 128.267 528.565C142.201 513.634 157.602 490.809 170.933 459.71L152.551 451.83ZM222.911 463.617C218.375 480.866 212.603 492.181 207.338 498.706C204.714 501.958 202.444 503.739 200.804 504.611C199.211 505.458 198.505 505.316 198.481 505.311C198.439 505.303 198.367 505.286 198.233 505.199C198.086 505.103 197.795 504.875 197.417 504.384C196.627 503.359 195.602 501.358 194.924 497.944C193.56 491.078 193.942 480.147 198.238 465.311L179.027 459.749C174.186 476.465 173.116 490.807 175.307 501.84C177.42 512.477 183.407 522.813 194.762 524.962C205.669 527.027 215.626 520.283 222.903 511.265C230.517 501.828 237.278 487.624 242.254 468.703L222.911 463.617ZM395.031 465.7C394.304 483.02 379.548 493.512 361.003 493.904C342.512 494.294 326.605 484.418 324.493 466.527L304.631 468.872C308.371 500.551 336.664 514.422 361.425 513.899C386.132 513.378 413.68 498.295 415.013 466.539L395.031 465.7ZM418.987 465.566C419.517 483.436 412.709 496.171 402.502 504.678C392.023 513.411 377.359 518.139 362.011 518.254C346.673 518.368 331.55 513.862 320.313 505.273C309.306 496.859 301.708 484.336 301.076 467.152L281.089 467.888C281.952 491.33 292.65 509.302 308.168 521.163C323.455 532.848 343.086 538.395 362.16 538.253C381.223 538.111 400.629 532.274 415.306 520.042C430.254 507.584 439.689 488.955 438.978 464.973L418.987 465.566ZM290.152 469.121C295.947 509.781 329.774 529.907 361.809 529.626C394.04 529.344 426.734 508.349 429.58 466.295L409.625 464.945C407.617 494.615 385.489 509.418 361.634 509.627C337.584 509.838 314.063 495.146 309.952 466.299L290.152 469.121ZM526.63 460.802C529.378 472.917 528.184 480.745 526.115 485.108C524.212 489.12 521.504 490.562 518.736 490.76C512.495 491.208 498.793 484.532 492.075 460.08L472.789 465.379C480.654 494.004 500.028 512.153 520.166 510.709C530.587 509.962 539.395 503.778 544.185 493.679C548.809 483.929 549.487 471.158 546.134 456.378L526.63 460.802ZM571.419 453.79C586.836 462.277 598.394 469.844 606.814 476.382C615.31 482.977 620.271 488.264 622.856 492.095C624.135 493.991 624.657 495.274 624.847 495.963C625.028 496.623 624.83 496.44 625.03 495.757C625.258 494.981 625.747 494.421 626.09 494.167C626.33 493.989 626.2 494.176 625.334 494.339C623.517 494.681 620.137 494.595 615.467 493.196C610.93 491.837 605.701 489.39 600.398 485.683C589.834 478.297 579.287 466.128 573.418 448.354L554.427 454.626C561.727 476.732 575.046 492.361 588.937 502.074C602.348 511.45 617.608 516.142 629.029 513.995C634.959 512.88 641.893 509.333 644.223 501.382C646.346 494.139 643.451 486.861 639.435 480.909C631.23 468.748 612.816 453.75 581.065 436.27L571.419 453.79ZM130.8 435.119C61.5292 499.76 22.3843 553.225 7.53064 597.024C0.0444271 619.099 -1.40852 639.128 2.98675 656.966C7.39903 674.873 17.5 689.732 31.6707 701.72C59.6059 725.351 103.707 738.175 154.414 743.229C205.476 748.318 264.793 745.675 324.663 737.012C443.944 719.752 567.986 678.197 634.461 623.653C667.654 596.419 688.742 563.99 683.888 528.151C679.088 492.707 649.432 458.527 592.946 426.229L583.018 443.591C637.949 475 660.558 504.909 664.069 530.836C667.527 556.368 652.975 582.592 621.775 608.192C559.465 659.317 439.714 700.156 321.799 717.218C263.069 725.716 205.437 728.215 156.398 723.327C107.005 718.404 67.8543 706.133 44.5877 686.45C33.1574 676.781 25.6698 665.428 22.406 652.181C19.1251 638.866 19.9085 622.798 26.4711 603.447C39.715 564.395 75.9177 513.689 144.445 449.741L130.8 435.119ZM132.332 304.52L125.32 285.79L125.307 285.794L132.332 304.52ZM174.322 304.01L176.684 284.15C176.545 284.133 176.406 284.118 176.266 284.105L174.322 304.01ZM198.032 324.12L178.047 324.881L178.047 324.885L198.032 324.12ZM205.352 350.86L222.123 339.962L222.118 339.955L205.352 350.86ZM266.132 364.23L268.619 384.075L268.629 384.073L266.132 364.23ZM303.582 351.04L286.558 340.544L286.555 340.549L303.582 351.04ZM324.142 299.94L326.175 319.836L326.176 319.836L324.142 299.94ZM376.862 298.86L376.907 278.86L376.897 278.86L376.862 298.86ZM398.372 335.79L378.634 339.014L378.636 339.027L398.372 335.79ZM435.752 364.01L437.17 344.06L437.17 344.06L435.752 364.01ZM500.142 357.13L513.283 372.207L513.293 372.198L500.142 357.13ZM528.672 299.85L529.174 319.844L529.186 319.843L528.672 299.85ZM598.092 314.42L578.259 316.997L578.259 317.001L598.092 314.42ZM588.812 397.77L606.102 407.824C606.994 406.289 607.678 404.643 608.135 402.929L588.812 397.77ZM554.102 425.14L560.223 444.18C560.228 444.179 560.233 444.177 560.238 444.176L554.102 425.14ZM498.392 432.59L499.399 452.564L499.402 452.564L498.392 432.59ZM406.632 433.14L406.331 413.142L406.33 413.142L406.632 433.14ZM224.192 432.35L224.722 412.357L224.72 412.357L224.192 432.35ZM127.382 402.61L108.559 409.369C109.105 410.889 109.832 412.337 110.726 413.681L127.382 402.61ZM124.152 390.96L143.809 387.271C143.808 387.266 143.807 387.261 143.806 387.256L124.152 390.96ZM122.412 335.45L102.413 335.259C102.413 335.268 102.413 335.276 102.413 335.285L122.412 335.45ZM111.002 226.44L129.702 219.346C129.698 219.337 129.695 219.328 129.692 219.32L111.002 226.44ZM108.502 217.17L119.139 200.233C112.411 196.008 103.821 196.165 97.2522 200.634C90.6838 205.103 87.383 213.035 88.8427 220.845L108.502 217.17ZM137.482 222.37L157.481 222.144C157.415 216.295 154.791 210.768 150.301 207.018C145.811 203.269 139.905 201.673 134.137 202.652L137.482 222.37ZM137.782 238.32L136.692 258.29C142.249 258.593 147.682 256.567 151.683 252.699C155.684 248.831 157.893 243.47 157.778 237.906L137.782 238.32ZM138.972 112.03L158.958 112.78C159.185 106.736 156.664 100.914 152.102 96.9432C147.539 92.9725 141.425 91.2798 135.47 92.3389L138.972 112.03ZM138.242 147.74L158.229 148.459L158.229 148.458L138.242 147.74ZM137.412 218.67L140.993 238.347C150.577 236.602 157.51 228.207 157.411 218.467L137.412 218.67ZM107.752 212.17L87.8931 214.54C88.501 219.633 91.0423 224.298 94.9919 227.57L107.752 212.17ZM106.762 183.01L126.758 182.595L126.758 182.591L106.762 183.01ZM105.452 145.85L125.442 146.493C125.442 146.486 125.442 146.479 125.442 146.472L105.452 145.85ZM159.182 75.9798L178.793 79.9038L178.793 79.9032L159.182 75.9798ZM239.462 27.5299L236.582 7.73839C236.574 7.73949 236.567 7.74058 236.559 7.74168L239.462 27.5299ZM245.862 26.6898L265.862 26.6229C265.843 20.8759 263.352 15.4148 259.025 11.6323C254.698 7.84973 248.953 6.11135 243.255 6.86039L245.862 26.6898ZM247.022 89.4999L227.036 90.2351L227.036 90.2369L247.022 89.4999ZM251.222 145.01L251.612 165.006C258.111 164.879 264.142 161.602 267.785 156.219C271.428 150.836 272.228 144.019 269.93 137.939L251.222 145.01ZM240.462 145.17L240.867 165.166C240.881 165.166 240.895 165.165 240.909 165.165L240.462 145.17ZM178.342 158.63L159.496 151.934C159.494 151.94 159.492 151.946 159.49 151.952L178.342 158.63ZM186.632 230.49L201.923 217.598C200.687 216.132 199.247 214.852 197.647 213.797L186.632 230.49ZM190.602 232.5L197.487 213.722C196.145 213.23 194.755 212.883 193.339 212.688L190.602 232.5ZM193.892 232.92L196.525 213.094C194.787 212.863 193.027 212.862 191.288 213.09L193.892 232.92ZM419.672 239.15L419.603 219.15L419.602 219.15L419.672 239.15ZM524.002 235.98L525.908 255.889L525.916 255.888L524.002 235.98ZM549.282 169.06L529.452 171.663L529.452 171.664L549.282 169.06ZM497.352 145.61L496.595 165.596L496.602 165.596L497.352 145.61ZM457.742 144.55L438.883 137.892C436.744 143.95 437.646 150.666 441.306 155.946C444.967 161.225 450.94 164.425 457.364 164.546L457.742 144.55ZM461.612 94.6499L441.634 93.7222L441.633 93.7297L461.612 94.6499ZM463.022 23.5099L464.833 3.592C459.241 3.08366 453.693 4.94923 449.545 8.73288C445.396 12.5165 443.029 17.8698 443.022 23.4846L463.022 23.5099ZM464.022 23.5798L462.212 43.4977C462.281 43.5039 462.35 43.5099 462.419 43.5154L464.022 23.5798ZM561.512 58.4298L578.434 47.7698L578.434 47.7697L561.512 58.4298ZM572.382 168.8L592.382 168.896L592.382 168.892L572.382 168.8ZM570.122 281.07L571.497 301.022C581.747 300.316 589.794 291.959 590.113 281.69L570.122 281.07ZM540.702 284.57L542.174 304.516C542.181 304.515 542.188 304.515 542.195 304.514L540.702 284.57ZM497.282 300.81L516.389 306.721L516.389 306.72L497.282 300.81ZM492.902 323.62L512.801 325.627L512.802 325.618L492.902 323.62ZM467.112 349.38L467.754 369.37L467.765 369.369L467.112 349.38ZM423.692 347.92L427.614 328.308C427.608 328.307 427.601 328.306 427.594 328.304L423.692 347.92ZM408.612 312.38L427.866 306.969C427.864 306.96 427.861 306.951 427.859 306.942L408.612 312.38ZM382.312 285.02L379.64 304.841C379.647 304.841 379.654 304.842 379.66 304.843L382.312 285.02ZM332.472 285.26L333.028 305.252L333.032 305.252L332.472 285.26ZM310.652 289.65L299.685 272.925L299.683 272.926L310.652 289.65ZM297.412 322.73L277.665 319.555L277.664 319.564L297.412 322.73ZM286.942 346.3L279.253 327.837C279.242 327.842 279.23 327.847 279.219 327.851L286.942 346.3ZM252.502 351.08L254.202 371.007L254.214 371.006L252.502 351.08ZM212.612 324.12L192.627 324.881L192.627 324.883L212.612 324.12ZM209.972 304.78L228.206 296.562C228.203 296.557 228.201 296.552 228.199 296.547L209.972 304.78ZM174.322 289.43L176.684 269.57C176.541 269.553 176.397 269.537 176.253 269.523L174.322 289.43ZM153.782 287.61L133.799 288.43C134.224 298.782 142.485 307.097 152.835 307.587L153.782 287.61ZM534.642 199.35L546.739 215.277C550.978 212.058 553.758 207.282 554.465 202.007L534.642 199.35ZM461.262 208.45L461.14 188.45L461.139 188.45L461.262 208.45ZM354.072 207.88L353.842 227.879L353.848 227.879L354.072 207.88ZM252.482 206.49L252.184 226.488L252.193 226.488L252.482 206.49ZM188.122 194.03L168.125 193.724C168.054 198.341 169.583 202.841 172.453 206.459L188.122 194.03ZM190.372 169.22L170.715 165.533L170.714 165.54L190.372 169.22ZM214.032 160.43L214.688 180.419C214.693 180.419 214.698 180.419 214.703 180.419L214.032 160.43ZM320.382 158.7L320.236 138.7L320.235 138.7L320.382 158.7ZM530.782 162.16L528.81 182.062L528.81 182.062L530.782 162.16ZM194.472 218.45L187.524 237.204C188.884 237.708 190.295 238.063 191.732 238.261L194.472 218.45ZM188.152 199.42L201.383 184.421C195.396 179.14 186.842 177.925 179.621 181.331C172.401 184.736 167.897 192.109 168.163 200.088L188.152 199.42ZM230.172 209.83L229.936 229.828L229.944 229.829L230.172 209.83ZM343.222 211.39L342.978 231.388L342.978 231.388L343.222 211.39ZM473.552 211.99L473.354 191.991L473.349 191.991L473.552 211.99ZM533.922 204.32L553.684 207.397C554.879 199.722 551.523 192.05 545.076 187.719C538.629 183.387 530.258 183.18 523.604 187.187L533.922 204.32ZM533.272 208.06L513.69 203.991C513.678 204.053 513.665 204.115 513.653 204.177L533.272 208.06ZM509.952 222.48L511.2 242.441L511.21 242.44L509.952 222.48ZM403.162 224.61L403.151 204.61L403.147 204.61L403.162 224.61ZM459.362 23.2699L479.362 23.3021C479.379 12.8326 471.319 4.12175 460.879 3.3275L459.362 23.2699ZM458.542 79.1299L478.534 79.7189L478.534 79.7099L458.542 79.1299ZM453.942 144.49L453.609 164.487C461.764 164.623 469.185 159.793 472.362 152.281L453.942 144.49ZM371.112 143.95L371.102 163.95L371.105 163.95L371.112 143.95ZM255.132 144.95L236.775 152.889C239.993 160.328 247.381 165.089 255.484 164.947L255.132 144.95ZM250.472 84.3098L230.485 85.0431L230.486 85.052L250.472 84.3098ZM249.502 26.2098L247.032 6.36299C236.999 7.61185 229.476 16.1514 229.502 26.2614L249.502 26.2098ZM343.962 20.5998L344.465 40.5935L344.472 40.5933L343.962 20.5998ZM614.112 164.78L634.111 164.579L634.111 164.578L614.112 164.78ZM612.602 197.93L592.642 196.672C592.641 196.683 592.641 196.694 592.64 196.705L612.602 197.93ZM611.722 205.41L620.627 223.318C626.265 220.515 630.254 215.219 631.392 209.026L611.722 205.41ZM586.442 209.07L566.445 208.732C566.26 219.651 574.87 228.7 585.785 229.059L586.442 209.07ZM587.012 154.08L567.012 154.033L567.012 154.036L587.012 154.08ZM587.382 127.36L589.008 107.426C583.478 106.975 578.008 108.842 573.908 112.58C569.807 116.318 567.444 121.592 567.383 127.141L587.382 127.36ZM586.122 226.41L566.127 225.973C565.995 232.016 568.603 237.795 573.222 241.693C577.841 245.592 583.975 247.193 589.91 246.048L586.122 226.41ZM586.382 212.67L586.899 192.677C581.567 192.539 576.401 194.536 572.549 198.225C568.697 201.914 566.478 206.988 566.385 212.321L586.382 212.67ZM610.642 209.72L629.728 215.697C632.013 208.402 629.939 200.442 624.385 195.189C618.831 189.936 610.768 188.309 603.611 190.996L610.642 209.72ZM488.362 447.8L489.55 467.765L489.554 467.764L488.362 447.8ZM210.742 449.26L208.938 469.178L208.943 469.179L210.742 449.26ZM133.572 415.24L146.849 400.282C139.368 393.642 128.131 393.55 120.542 400.067C112.953 406.584 111.346 417.706 116.781 426.105L133.572 415.24ZM194.712 434.88L195.81 414.91L195.807 414.91L194.712 434.88ZM415.832 436.64L415.53 416.642L415.528 416.642L415.832 436.64ZM566.122 424.9L573.037 443.667C573.043 443.664 573.049 443.662 573.056 443.66L566.122 424.9ZM584.752 412.16L604.48 415.448C605.94 406.69 601.451 398.019 593.458 394.154C585.464 390.289 575.88 392.157 569.923 398.74L584.752 412.16ZM584.702 412.34L565.728 406.015C565.659 406.223 565.593 406.432 565.531 406.643L584.702 412.34ZM139.345 323.25C141.884 322.299 146.007 321.76 152.358 322.021C158.959 322.291 164.726 323.168 172.378 323.915L176.266 284.105C171.018 283.592 162.04 282.384 153.996 282.054C145.703 281.714 135.28 282.06 125.32 285.79L139.345 323.25ZM171.96 323.87C174.039 324.117 175.728 324.319 177.246 324.53C178.756 324.74 179.845 324.924 180.667 325.099C182.484 325.484 181.935 325.614 180.709 324.77C180.01 324.29 179.292 323.634 178.678 322.834C178.081 322.057 177.788 321.411 177.676 321.121C177.536 320.757 177.921 321.589 178.047 324.881L218.018 323.359C217.622 312.969 215.268 299.995 203.382 291.817C198.35 288.354 193.017 286.828 188.962 285.968C184.956 285.119 180.487 284.602 176.684 284.15L171.96 323.87ZM178.047 324.885C178.491 336.494 180.313 349.045 188.587 361.765L222.118 339.955C219.451 335.855 218.333 331.585 218.017 323.354L178.047 324.885ZM188.582 361.757C199.428 378.448 217.399 383.672 231.147 385.245C245.173 386.851 259.482 385.22 268.619 384.075L263.645 344.385C254.512 345.53 244.471 346.509 235.695 345.505C226.64 344.468 223.357 341.862 222.123 339.962L188.582 361.757ZM268.629 384.073C272.341 383.606 282.94 382.905 291.205 380.963C300.06 378.883 312.809 374.192 320.61 361.531L286.555 340.549C287.085 339.688 287.11 340.837 282.057 342.024C279.752 342.565 277.063 342.956 273.838 343.311C271.316 343.588 266.643 344.008 263.635 344.386L268.629 384.073ZM320.607 361.536C324.332 355.494 326.103 347.709 327.133 342.951C327.747 340.116 328.329 337.103 328.865 334.365C329.42 331.531 329.944 328.891 330.508 326.378C331.717 320.993 332.777 317.804 333.598 316.216C334.621 314.24 332.785 319.161 326.175 319.836L322.11 280.043C308.355 281.449 301.206 291.776 298.072 297.835C294.736 304.283 292.794 311.758 291.479 317.619C290.781 320.729 290.163 323.858 289.61 326.682C289.039 329.602 288.548 332.137 288.04 334.483C286.826 340.088 286.153 341.201 286.558 340.544L320.607 361.536ZM326.176 319.836C342.036 318.215 358.535 318.828 376.827 318.86L376.897 278.86C360.569 278.832 340.688 278.144 322.109 280.043L326.176 319.836ZM376.817 318.86C376.043 318.858 374.665 318.377 373.791 317.559C373.402 317.194 373.969 317.561 374.841 319.88C375.672 322.089 376.373 324.962 377 328.473C377.304 330.182 377.568 331.902 377.83 333.679C378.075 335.34 378.356 337.312 378.634 339.014L418.111 332.566C417.437 328.44 416.109 315.977 412.281 305.799C410.247 300.392 406.917 293.778 401.131 288.36C394.86 282.489 386.586 278.882 376.907 278.86L376.817 318.86ZM378.636 339.027C381.129 354.228 388.442 366.127 400.153 373.842C410.907 380.928 423.458 383.187 434.335 383.96L437.17 344.06C428.907 343.473 424.462 341.957 422.159 340.44C420.812 339.553 419.006 338.022 418.109 332.553L378.636 339.027ZM434.334 383.96C442.002 384.504 456.385 386.158 469.647 385.852C482.287 385.56 500.242 383.573 513.283 372.207L487.002 342.052C485.333 343.507 480.098 345.6 468.723 345.863C457.969 346.111 447.513 344.795 437.17 344.06L434.334 383.96ZM513.293 372.198C523.243 363.515 526.033 352.129 526.962 343.938C527.749 336.997 527.447 326.917 527.544 323.515C527.711 317.67 528.536 317.447 527.756 318.547C525.867 321.21 523.975 319.974 529.174 319.844L528.17 279.856C515.234 280.181 502.958 284.37 495.13 295.405C488.411 304.878 487.743 315.973 487.56 322.372C487.308 331.214 487.798 334.302 487.217 339.431C486.777 343.31 486.037 342.894 486.992 342.061L513.293 372.198ZM529.186 319.843C535.723 319.675 543.901 318.449 550.325 317.593C557.516 316.636 563.985 315.898 569.639 315.911C575.609 315.925 578.218 316.818 578.912 317.199C579.003 317.248 578.635 317.044 578.285 316.525C577.945 316.022 578.125 315.968 578.259 316.997L617.925 311.843C616.167 298.314 608.959 288.061 598.157 282.133C588.701 276.943 578.061 275.931 569.733 275.911C561.088 275.891 552.208 276.99 545.045 277.943C537.116 278.999 531.936 279.759 528.158 279.856L529.186 319.843ZM578.259 317.001C581.154 339.247 576.487 366.401 569.489 392.611L608.135 402.929C615.438 375.579 621.87 342.153 617.925 311.839L578.259 317.001ZM571.523 387.716C566.803 395.833 560.019 402.22 547.967 406.104L560.238 444.176C582.066 437.14 596.621 424.127 606.102 407.824L571.523 387.716ZM547.981 406.1C533.812 410.655 515.835 411.682 497.382 412.615L499.402 452.564C516.549 451.697 540.113 450.645 560.223 444.18L547.981 406.1ZM497.386 412.615C466.918 414.151 438.965 412.651 406.331 413.142L406.933 453.138C435.48 452.708 468.747 454.109 499.399 452.564L497.386 412.615ZM406.33 413.142C345.751 414.059 285.183 413.958 224.722 412.357L223.663 452.343C284.781 453.962 345.914 454.061 406.935 453.138L406.33 413.142ZM224.72 412.357C205.755 411.856 188.562 411.639 173.553 408.424C158.963 405.298 149.636 399.959 144.038 391.538L110.726 413.681C124.379 434.22 145.266 443.271 165.174 447.536C184.663 451.711 206.25 451.883 223.665 452.343L224.72 412.357ZM146.205 395.85C145.166 392.958 144.356 390.187 143.809 387.271L104.495 394.648C105.528 400.153 106.998 405.022 108.559 409.369L146.205 395.85ZM143.806 387.256C140.885 371.755 142.245 355.86 142.411 335.614L102.413 335.285C102.279 351.5 100.62 374.085 104.498 394.664L143.806 387.256ZM142.411 335.641C142.445 332.069 142.17 327.855 142.075 325.625C141.954 322.769 141.994 321.227 142.126 320.256C142.241 319.4 142.293 320.128 141.461 321.322C140.46 322.757 139.328 323.257 139.358 323.245L125.307 285.794C118.527 288.338 112.763 292.54 108.643 298.452C104.691 304.123 103.134 310.103 102.486 314.899C101.853 319.58 101.974 324.092 102.111 327.318C102.274 331.17 102.434 333.066 102.413 335.259L142.411 335.641ZM129.692 219.32C129.133 217.853 128.625 215.976 128.162 213.495L88.8427 220.845C89.579 224.784 90.6313 229.146 92.3125 233.56L129.692 219.32ZM97.8655 234.107C110.959 242.33 127.251 244.391 140.827 242.088L134.137 202.652C128.614 203.589 122.606 202.41 119.139 200.233L97.8655 234.107ZM117.483 222.595C117.545 228.04 117.678 233.523 117.786 238.734L157.778 237.906C157.666 232.497 157.54 227.339 157.481 222.144L117.483 222.595ZM138.872 218.35C136.564 218.224 134.479 218.056 132.586 217.788C130.669 217.517 129.297 217.19 128.375 216.876C127.438 216.557 127.445 216.412 127.888 216.771C128.474 217.245 129.246 218.145 129.702 219.346L92.3027 233.534C97.0842 246.137 107.536 252.034 115.474 254.738C123.217 257.377 131.362 257.999 136.692 258.29L138.872 218.35ZM118.986 111.28C118.74 117.822 118.653 124.27 118.579 130.261C118.503 136.347 118.44 141.882 118.255 147.021L158.229 148.458C158.434 142.748 158.501 136.688 158.575 130.761C158.651 124.74 158.733 118.758 158.958 112.78L118.986 111.28ZM118.255 147.021C117.392 170.994 117.17 194.966 117.413 218.873L157.411 218.467C157.173 195.074 157.392 171.725 158.229 148.459L118.255 147.021ZM133.831 198.993C128.007 200.053 122.456 198.38 120.513 196.769L94.9919 227.57C108.449 238.72 127.036 240.887 140.993 238.347L133.831 198.993ZM127.611 209.8C126.606 201.373 126.98 193.323 126.758 182.595L86.7663 183.425C86.9238 191.017 86.5788 203.527 87.8931 214.54L127.611 209.8ZM126.758 182.591C126.618 175.921 126.154 169.147 125.828 163.319C125.489 157.244 125.271 151.786 125.442 146.493L85.4623 145.207C85.2326 152.344 85.5395 159.256 85.8905 165.548C86.2554 172.088 86.646 177.679 86.7664 183.428L126.758 182.591ZM125.442 146.472C125.672 139.096 127.654 137.286 128.42 136.618C130.119 135.136 133.883 133.249 142.474 131.721L135.47 92.3389C124.83 94.2311 112.195 97.6886 102.121 106.479C91.1146 116.083 85.952 129.474 85.4616 145.228L125.442 146.472ZM178.793 79.9032C180.66 70.5713 186.937 63.7526 198.954 58.2069C211.432 52.4483 227.12 49.5546 242.365 47.3181L236.559 7.74168C221.335 9.97515 200.452 13.4614 182.193 21.8878C163.472 30.5271 144.844 45.6983 139.571 72.0565L178.793 79.9032ZM242.343 47.3214C244.317 47.034 245.932 46.8527 248.469 46.5192L243.255 6.86039C241.532 7.08691 238.867 7.40573 236.582 7.73839L242.343 47.3214ZM225.862 26.7567C225.933 47.8514 226.255 69.0234 227.036 90.2351L267.009 88.7646C266.249 68.1163 265.931 47.4082 265.862 26.6229L225.862 26.7567ZM227.036 90.2369C227.144 93.1728 227.105 96.8655 227.05 101.642C226.997 106.213 226.933 111.549 227.057 117.004C227.294 127.417 228.211 140.696 232.514 152.081L269.93 137.939C268.193 133.344 267.27 125.918 267.047 116.095C266.941 111.433 266.993 106.769 267.047 102.108C267.099 97.6504 267.16 92.8769 267.009 88.7628L227.036 90.2369ZM250.832 125.014C248.235 125.064 243.086 125.106 240.015 125.175L240.909 165.165C244.998 165.074 247.029 165.095 251.612 165.006L250.832 125.014ZM240.058 125.174C236.876 125.238 232.606 124.942 225.818 124.621C219.662 124.329 212.133 124.074 204.646 124.562C197.349 125.039 188.629 126.293 180.617 129.861C172.162 133.626 163.574 140.459 159.496 151.934L197.188 165.326C196.665 166.796 195.58 166.985 196.889 166.402C198.641 165.622 201.947 164.824 207.251 164.477C212.365 164.144 218.013 164.296 223.924 164.576C229.202 164.826 235.888 165.266 240.867 165.166L240.058 125.174ZM159.49 151.952C155.611 162.9 152.732 180.316 153.296 196.912C153.582 205.328 154.779 214.529 157.786 223.073C160.773 231.564 166.1 240.903 175.617 247.183L197.647 213.797C197.859 213.936 196.756 213.315 195.518 209.797C194.299 206.331 193.474 201.474 193.273 195.553C192.862 183.474 195.143 171.099 197.194 165.308L159.49 151.952ZM171.342 243.382C175.796 248.665 181.826 251.477 187.866 252.312L193.339 212.688C195.759 213.022 199.188 214.355 201.923 217.598L171.342 243.382ZM183.717 251.277C187.693 252.735 192.045 253.334 196.496 252.75L191.288 213.09C193.76 212.766 195.911 213.144 197.487 213.722L183.717 251.277ZM191.26 252.746C266.97 262.8 346.549 259.406 419.742 259.15L419.602 219.15C344.116 219.414 268.715 222.68 196.525 213.094L191.26 252.746ZM419.741 259.15C454.045 259.031 490.204 259.307 525.908 255.889L522.096 216.071C488.66 219.272 454.679 219.029 419.603 219.15L419.741 259.15ZM525.916 255.888C538.527 254.675 548.666 248.927 555.902 240.392C562.702 232.371 566.246 222.752 568.171 214.145C571.982 197.103 570.668 178.308 569.112 166.456L529.452 171.664C530.806 181.971 531.412 195.237 529.135 205.415C528.017 210.418 526.515 213.199 525.391 214.525C524.702 215.337 524.038 215.884 522.088 216.072L525.916 255.888ZM569.112 166.457C567.773 156.257 563.994 147.097 557.047 139.96C550.241 132.967 542.014 129.587 534.761 127.869C527.673 126.189 520.428 125.849 514.483 125.755C507.407 125.644 503.588 125.83 498.103 125.624L496.602 165.596C502.032 165.8 509.71 165.685 513.853 165.75C519.128 165.833 522.824 166.148 525.539 166.791C528.088 167.395 528.525 168.005 528.383 167.859C528.1 167.569 528.986 168.112 529.452 171.663L569.112 166.457ZM498.109 125.624C484.726 125.117 471.383 124.804 458.12 124.553L457.364 164.546C470.521 164.795 483.578 165.102 496.595 165.596L498.109 125.624ZM476.601 151.208C480.307 140.711 481.146 128.775 481.399 119.419C481.53 114.539 481.505 109.765 481.49 105.703C481.473 101.449 481.471 98.1779 481.591 95.5701L441.633 93.7297C441.458 97.5269 441.475 101.855 441.49 105.856C441.506 110.05 441.525 114.188 441.413 118.34C441.178 127.049 440.377 133.659 438.883 137.892L476.601 151.208ZM481.591 95.5775C482.711 71.448 482.992 47.3742 483.022 23.5352L443.022 23.4846C442.992 47.0855 442.713 70.4718 441.634 93.7222L481.591 95.5775ZM461.212 43.4277C461.498 43.4538 461.746 43.4718 461.927 43.484C462.1 43.4957 462.261 43.5052 462.332 43.5094C462.429 43.5152 462.435 43.5157 462.429 43.5152C462.415 43.5143 462.333 43.5087 462.212 43.4977L465.833 3.66194C465.546 3.63589 465.298 3.61786 465.117 3.60565C464.944 3.59399 464.783 3.58451 464.713 3.58029C464.616 3.57452 464.609 3.57402 464.615 3.57444C464.63 3.57541 464.711 3.58095 464.833 3.592L461.212 43.4277ZM462.419 43.5154C479.648 44.9014 496.975 45.7985 512.779 49.8023C528.373 53.7529 538.796 59.8923 544.59 69.0898L578.434 47.7697C564.788 26.1073 542.751 16.1317 522.602 11.0273C502.664 5.9761 480.967 4.87825 465.626 3.6442L462.419 43.5154ZM544.59 69.0897C550.739 78.8522 553.464 93.633 553.889 112.71C554.095 121.933 553.766 131.413 553.347 140.966C552.939 150.263 552.422 160.014 552.382 168.708L592.382 168.892C592.417 161.221 592.873 152.634 593.308 142.72C593.732 133.062 594.117 122.457 593.88 111.819C593.42 91.1766 590.635 67.1373 578.434 47.7698L544.59 69.0897ZM552.382 168.704C552.204 205.882 551.29 243.114 550.132 280.45L590.113 281.69C591.275 244.205 592.201 206.578 592.382 168.896L552.382 168.704ZM568.748 261.117C562.595 261.541 556.549 262.365 551.503 263.075C546.097 263.836 542.261 264.397 539.209 264.626L542.195 304.514C546.893 304.162 552.397 303.344 557.079 302.685C562.12 301.975 566.909 301.339 571.497 301.022L568.748 261.117ZM539.23 264.624C536.051 264.859 533.091 264.828 527.829 265C523.255 265.15 517.507 265.462 511.72 266.601C499.763 268.952 484.079 275.813 478.175 294.9L516.389 306.72C516.52 306.295 516.416 306.672 516.085 306.911C516.071 306.921 516.269 306.775 516.829 306.558C517.399 306.338 518.243 306.084 519.439 305.849C521.952 305.355 525.072 305.112 529.139 304.979C532.517 304.868 537.968 304.826 542.174 304.516L539.23 264.624ZM478.175 294.899C475.388 303.909 473.861 313.068 473.002 321.622L512.802 325.618C513.483 318.831 514.616 312.451 516.389 306.721L478.175 294.899ZM473.003 321.613C472.467 326.924 472.076 329.806 471.636 331.655C471.229 333.365 471.215 332.171 472.718 330.524C474.424 328.653 476.044 328.375 475.26 328.573C474.122 328.86 471.634 329.222 466.46 329.39L467.765 369.369C473.62 369.178 479.61 368.73 485.049 367.357C490.842 365.894 497.139 363.107 502.274 357.476C507.205 352.068 509.372 345.865 510.55 340.914C511.694 336.103 512.292 330.676 512.801 325.627L473.003 321.613ZM466.47 329.39C451.094 329.884 438.949 330.575 427.614 328.308L419.77 367.532C436.736 370.925 454.49 369.796 467.754 369.37L466.47 329.39ZM427.594 328.304C430.658 328.914 432.39 330.866 432.798 331.472C432.905 331.63 432.375 330.818 431.707 328.084C431.072 325.484 430.618 322.517 430.078 318.804C429.637 315.765 428.986 310.955 427.866 306.969L389.358 317.791C389.608 318.68 389.894 320.425 390.494 324.557C390.997 328.016 391.691 332.837 392.85 337.578C394.622 344.829 400.143 363.627 419.79 367.536L427.594 328.304ZM427.859 306.942C425.425 298.329 420.874 289.204 414.227 281.628C407.567 274.037 397.766 266.909 384.964 265.196L379.66 304.843C380.238 304.921 381.873 305.403 384.16 308.009C386.46 310.631 388.369 314.291 389.366 317.818L427.859 306.942ZM384.984 265.199C366.523 262.711 345.889 264.876 331.912 265.268L333.032 305.252C351.895 304.724 365.461 302.929 379.64 304.841L384.984 265.199ZM331.916 265.268C325.836 265.437 312.486 264.531 299.685 272.925L321.619 306.375C322.194 305.998 322.645 305.796 323.851 305.628C324.628 305.519 325.653 305.439 327.234 305.386C328.019 305.359 328.852 305.342 329.838 305.322C330.785 305.304 331.891 305.284 333.028 305.252L331.916 265.268ZM299.683 272.926C288.795 280.067 284.055 291.032 281.692 298.939C279.379 306.685 278.33 315.422 277.665 319.555L317.158 325.905C318.224 319.277 318.695 314.82 320.019 310.388C321.295 306.118 322.309 305.922 321.621 306.374L299.683 272.926ZM277.664 319.564C277.483 320.694 277.309 321.912 277.165 322.899C277.01 323.958 276.869 324.906 276.714 325.83C276.397 327.722 276.093 329.075 275.784 330.057C275.462 331.081 275.33 331.059 275.704 330.539C276.194 329.858 277.347 328.631 279.253 327.837L294.631 364.763C307.043 359.594 311.912 348.507 313.94 342.062C315.94 335.707 316.801 328.133 317.16 325.896L277.664 319.564ZM279.219 327.851C277.314 328.649 273.721 329.427 267.972 329.971C265.284 330.226 262.51 330.4 259.578 330.573C256.787 330.736 253.635 330.909 250.79 331.153L254.214 371.006C256.375 370.821 258.824 370.686 261.921 370.504C264.877 370.33 268.277 370.121 271.742 369.793C278.298 369.173 286.92 367.991 294.666 364.748L279.219 327.851ZM250.803 331.152C242.724 331.841 237.556 330.735 235.107 329.403C234.172 328.894 233.83 328.471 233.615 328.112C233.373 327.71 232.714 326.405 232.598 323.357L192.627 324.883C193.323 343.135 201.989 356.922 215.99 364.539C228.369 371.274 242.7 371.988 254.202 371.007L250.803 331.152ZM232.598 323.358C232.518 321.281 232.474 316.474 232.115 312.496C231.722 308.139 230.83 302.385 228.206 296.562L191.738 312.997C191.73 312.98 191.822 313.181 191.94 313.714C192.06 314.256 192.18 315.017 192.277 316.089C192.374 317.17 192.434 318.389 192.481 319.894C192.518 321.082 192.567 323.318 192.627 324.881L232.598 323.358ZM228.199 296.547C221.892 282.585 210.052 276.362 200.403 273.47C191.66 270.849 181.453 270.137 176.684 269.57L171.96 309.29C176.197 309.794 178.252 309.934 181.805 310.404C184.808 310.801 187.105 311.242 188.916 311.785C190.711 312.323 191.482 312.804 191.713 312.976C191.789 313.032 191.717 312.95 191.745 313.013L228.199 296.547ZM176.253 269.523C170.968 269.011 162.766 268.013 154.729 267.632L152.835 307.587C159.558 307.906 165.716 308.689 172.391 309.336L176.253 269.523ZM173.765 286.79C170.886 216.621 165.773 144.978 178.793 79.9038L139.571 72.0558C125.371 143.022 131.018 220.639 133.799 288.43L173.765 286.79ZM522.546 183.423C521.45 184.255 518.834 185.595 513.836 186.73C509.023 187.822 503.208 188.459 496.765 188.75C482.466 189.396 472.123 188.383 461.14 188.45L461.384 228.449C466.731 228.417 484.534 229.343 498.57 228.709C506.294 228.361 514.694 227.552 522.69 225.737C530.502 223.964 539.29 220.935 546.739 215.277L522.546 183.423ZM461.139 188.45C425.609 188.669 390.039 188.281 354.296 187.881L353.848 227.879C389.545 228.278 425.455 228.671 461.385 228.449L461.139 188.45ZM354.302 187.881C320.48 187.492 286.649 186.982 252.772 186.492L252.193 226.488C286.035 226.977 319.944 227.488 353.842 227.879L354.302 187.881ZM252.78 186.492C240.514 186.309 230.811 187.205 219.522 186.18C208.171 185.151 204.567 182.579 203.792 181.601L172.453 206.459C184.257 221.341 203.094 224.854 215.908 226.017C228.783 227.185 244.971 226.38 252.184 226.488L252.78 186.492ZM208.12 194.336C208.262 185.076 209.528 175.585 210.031 172.899L170.714 165.54C169.816 170.334 168.303 182.083 168.125 193.724L208.12 194.336ZM210.03 172.907C209.966 173.246 209.365 175.635 206.826 177.875C204.49 179.936 202.315 180.256 202.291 180.26C202.252 180.266 202.48 180.23 203.116 180.217C203.755 180.204 204.556 180.217 205.695 180.258C207.557 180.324 211.272 180.531 214.688 180.419L213.376 140.441C211.762 140.493 210.283 140.396 207.115 140.283C204.572 140.193 200.468 140.073 196.241 140.72C191.839 141.394 185.774 143.106 180.364 147.879C174.752 152.83 171.894 159.248 170.715 165.533L210.03 172.907ZM214.703 180.419C249.841 179.239 285.046 178.959 320.529 178.699L320.235 138.7C284.818 138.96 249.103 139.241 213.361 140.441L214.703 180.419ZM320.529 178.699C391.141 178.182 460.757 175.32 528.81 182.062L532.754 142.257C461.927 135.24 388.963 138.197 320.236 138.7L320.529 178.699ZM528.81 182.062C524.096 181.595 520.521 179.236 518.382 176.889C516.559 174.887 515.961 173.142 515.883 172.916C515.757 172.55 516.093 173.547 516.2 176.677C516.399 182.506 515.677 190.299 514.82 196.693L554.465 202.007C555.408 194.971 556.491 184.538 556.177 175.315C556.027 170.919 555.528 165.183 553.697 159.873C552.189 155.501 546.863 143.655 532.754 142.257L528.81 182.062ZM201.42 199.695C205.225 201.105 207.325 203.55 208.194 204.824C209 206.005 209.119 206.687 208.976 206.196C208.861 205.803 208.669 204.964 208.495 203.582C208.326 202.235 208.203 200.617 208.141 198.752L168.163 200.088C168.34 205.379 168.901 211.659 170.58 217.411C171.892 221.902 175.805 232.863 187.524 237.204L201.42 199.695ZM174.922 214.418C183.614 222.086 194.166 225.649 203.271 227.477C212.485 229.328 221.982 229.734 229.936 229.828L230.409 189.831C223.143 189.745 216.634 189.362 211.146 188.26C205.549 187.136 202.7 185.584 201.383 184.421L174.922 214.418ZM229.944 229.829C267.839 230.261 304.914 230.924 342.978 231.388L343.466 191.391C306.15 190.936 267.865 190.259 230.4 189.831L229.944 229.829ZM342.978 231.388C386.38 231.918 430.057 232.431 473.755 231.989L473.349 191.991C430.167 192.428 386.924 191.922 343.466 191.391L342.978 231.388ZM473.75 231.989C480.064 231.926 493.367 232.439 504.914 231.737C516.653 231.022 531.775 228.959 544.24 221.453L523.604 187.187C519.779 189.49 512.812 191.182 502.485 191.81C491.967 192.45 483.23 191.893 473.354 191.991L473.75 231.989ZM514.16 201.243C514.046 201.977 513.943 202.597 513.858 203.088C513.768 203.601 513.711 203.891 513.69 203.991L552.854 212.129C553.114 210.875 553.404 209.194 553.684 207.397L514.16 201.243ZM513.653 204.177C513.415 205.377 513.21 206.05 513.104 206.347C513.002 206.638 513.051 206.407 513.381 205.889C513.737 205.331 514.335 204.57 515.228 203.817C516.124 203.061 517.025 202.559 517.755 202.25C518.431 201.965 518.834 201.899 518.735 201.918C518.616 201.94 518.214 202.004 517.322 202.073C516.412 202.144 515.351 202.195 513.828 202.261C512.399 202.324 510.61 202.399 508.694 202.519L511.21 242.44C512.684 242.347 518.32 242.115 520.403 241.955C523.548 241.712 528.384 241.183 533.322 239.097C546.073 233.709 550.847 222.272 552.892 211.943L513.653 204.177ZM508.704 202.519C473.938 204.692 438.9 204.59 403.151 204.61L403.173 244.61C438.564 244.59 474.946 244.707 511.2 242.441L508.704 202.519ZM403.147 204.61C333.246 204.661 263.598 207.819 197.212 198.638L191.732 238.261C261.726 247.941 335.818 244.659 403.176 244.61L403.147 204.61ZM439.362 23.2376C439.332 41.7012 439.085 60.1468 438.551 78.5498L478.534 79.7099C479.08 60.8929 479.332 42.0785 479.362 23.3021L439.362 23.2376ZM438.551 78.5408C438.412 83.2553 438.549 88.8723 438.673 94.2032C438.801 99.7664 438.928 105.424 438.854 111.058C438.695 123.065 437.582 131.829 435.522 136.699L472.362 152.281C477.742 139.561 478.689 123.79 478.85 111.587C478.936 105.115 478.788 98.7496 478.662 93.279C478.53 87.5762 478.433 83.1494 478.534 79.7189L438.551 78.5408ZM454.275 124.493C426.492 124.03 398.734 123.96 371.119 123.95L371.105 163.95C398.69 163.96 426.173 164.03 453.609 164.487L454.275 124.493ZM371.122 123.95C332.338 123.93 293.548 124.271 254.78 124.953L255.484 164.947C294.017 164.269 332.566 163.93 371.102 163.95L371.122 123.95ZM273.489 137.011C271.647 132.752 270.564 124.941 270.357 113.874C270.261 108.697 270.351 103.492 270.442 98.3078C270.528 93.3559 270.625 88.0665 270.458 83.5676L230.486 85.052C230.604 88.2281 230.541 92.3099 230.448 97.6093C230.359 102.677 230.252 108.602 230.364 114.62C230.575 125.943 231.537 140.777 236.775 152.889L273.489 137.011ZM270.459 83.5764C269.761 64.5559 269.552 45.4336 269.502 26.1582L229.502 26.2614C229.553 45.726 229.763 65.3637 230.485 85.0431L270.459 83.5764ZM251.973 46.0566C282.106 42.3057 312.986 41.3858 344.465 40.5935L343.459 0.606158C312.159 1.3939 279.399 2.33395 247.032 6.36299L251.973 46.0566ZM344.472 40.5933C382.352 39.6284 420.22 40.3497 457.845 43.2122L460.879 3.3275C421.744 0.350025 382.512 -0.388697 343.453 0.606314L344.472 40.5933ZM594.113 164.981C594.214 174.991 593.368 185.154 592.642 196.672L632.563 199.188C633.217 188.805 634.231 176.489 634.111 164.579L594.113 164.981ZM592.64 196.705C592.513 198.77 592.3 200.445 592.052 201.793L631.392 209.026C631.964 205.915 632.352 202.629 632.565 199.155L592.64 196.705ZM602.817 187.502C600.512 188.648 595.592 189.36 587.099 189.081L585.785 229.059C594.333 229.34 608.452 229.372 620.627 223.318L602.817 187.502ZM606.439 209.408C606.75 191.015 606.972 172.582 607.012 154.123L567.012 154.036C566.972 172.238 566.754 190.464 566.445 208.732L606.439 209.408ZM607.012 154.126C607.032 145.524 607.274 137.293 607.381 127.579L567.383 127.141C567.29 135.687 567.032 145.455 567.012 154.033L607.012 154.126ZM585.756 147.294C589.981 147.638 591.838 148.341 592.42 148.626C592.655 148.74 592.62 148.756 592.469 148.619C592.402 148.56 592.34 148.494 592.288 148.432C592.238 148.37 592.217 148.336 592.222 148.345C592.27 148.423 592.834 149.403 593.316 152.372C593.801 155.359 594.056 159.371 594.113 164.982L634.111 164.578C633.995 153.093 633.338 138.828 626.282 127.37C617.797 113.592 603.689 108.624 589.008 107.426L585.756 147.294ZM606.118 226.846C606.219 222.215 606.299 217.591 606.379 213.019L566.385 212.321C566.305 216.909 566.226 221.445 566.127 225.973L606.118 226.846ZM585.866 232.663C594.488 232.886 606.525 232.629 617.673 228.443L603.611 190.996C600.059 192.33 594.536 192.874 586.899 192.677L585.866 232.663ZM591.556 203.743C591.259 204.692 591.081 204.808 591.267 204.563C591.485 204.276 591.704 204.141 591.617 204.193C591.426 204.31 590.745 204.679 589.134 205.177C587.501 205.682 585.348 206.191 582.334 206.772L589.91 246.048C596.666 244.745 605.08 242.839 612.46 238.334C620.987 233.128 626.671 225.46 629.728 215.697L591.556 203.743ZM487.175 427.835C395.218 433.305 302.796 437.492 212.541 429.341L208.943 469.179C302.488 477.627 397.586 473.235 489.55 467.765L487.175 427.835ZM212.546 429.341C181.015 426.486 160.316 419.756 150.363 404.375L116.781 426.105C138.068 459.004 177.529 466.334 208.938 469.178L212.546 429.341ZM120.295 430.197C140.552 448.178 168.156 453.453 193.617 454.85L195.807 414.91C172.769 413.646 156.672 409.002 146.849 400.282L120.295 430.197ZM193.615 454.85C267.935 458.935 342.705 457.756 416.137 456.638L415.528 416.642C341.84 417.764 268.489 418.905 195.81 414.91L193.615 454.85ZM416.135 456.638C427.662 456.463 439.789 456.681 452.697 456.861C465.464 457.038 478.87 457.174 492.303 456.788C518.998 456.02 547.226 453.176 573.037 443.667L559.208 406.133C539.449 413.413 516.317 416.08 491.152 416.804C478.655 417.164 466.005 417.042 453.253 416.865C440.644 416.689 427.788 416.457 415.53 416.642L416.135 456.638ZM573.056 443.66C584.054 439.595 592.729 433.152 599.582 425.58L569.923 398.74C566.876 402.108 563.451 404.565 559.189 406.14L573.056 443.66ZM565.024 408.872C565.197 407.836 565.418 407.031 565.544 406.604C565.657 406.221 565.773 405.88 565.728 406.015L603.676 418.664C603.676 418.664 603.676 418.664 603.677 418.661C603.677 418.66 603.678 418.656 603.68 418.653C603.682 418.645 603.686 418.632 603.691 418.617C603.701 418.587 603.718 418.536 603.738 418.475C603.777 418.354 603.843 418.15 603.917 417.896C604.061 417.408 604.297 416.544 604.48 415.448L565.024 408.872ZM565.531 406.643C563.275 414.233 556.379 420.054 539.684 423.621C522.744 427.241 504.631 426.793 487.17 427.835L489.554 467.764C502.574 466.987 527.165 467.199 548.042 462.738C569.165 458.225 595.199 447.227 603.873 418.037L565.531 406.643Z" fill="url(#paint0_linear_20_92)" mask="url(#path-1-outside-1_20_92)"/>
<defs>
<linearGradient id="paint0_linear_20_92" x1="342.547" y1="20.1893" x2="342.547" y2="735.805" gradientUnits="userSpaceOnUse">
<stop stop-color="#4E81FF"/>
<stop offset="1" stop-color="#E2C8FF"/>
</linearGradient>
</defs>
</svg>
