<svg width="401" height="542" viewBox="0 0 401 542" fill="none" xmlns="http://www.w3.org/2000/svg">
<path d="M376.73 253.401C372.96 256.521 369.27 259.041 367.24 263.671C366.9 264.451 367.77 265.231 368.44 264.601C370.12 263.051 371.97 261.741 373.6 260.121C375.57 258.171 376.47 256.551 377.63 254.101C377.92 253.501 377.24 252.981 376.73 253.401Z" fill="#2D2D2C"/>
<path d="M26.9199 272.751C-4.65213 283.001 -8.55213 333.441 21.3599 348.281C27.8799 351.511 34.2899 352.421 40.2499 351.591C44.4099 351.891 48.7298 351.461 53.0698 350.141C73.8598 343.821 81.6699 318.921 78.1599 299.571C73.9499 276.481 47.5299 266.051 26.9199 272.751Z" fill="#2D2D2C"/>
<path d="M373.61 197.191C362.15 231.031 332.49 244.421 306.83 265.021C284.08 283.301 273.67 305.931 273.1 334.741C261.17 349.181 249.98 359.911 232.85 363.781C231.64 332.051 225.47 279.921 245.45 260.341C272.31 234.011 310.84 202.801 296.77 159.761C288.57 134.681 251.09 126.921 228.14 135.961C213.7 126.041 195.53 122.521 179.62 131.681C143.61 152.411 148.92 196.561 167.89 227.411C174.62 238.371 182.36 248.681 189.01 259.701C196.61 272.321 196.61 292.691 198.33 306.711C200.65 325.701 202.09 344.821 203.79 363.881C189.13 360.891 175.05 353.541 164.36 343.541C164.44 343.331 164.52 343.121 164.59 342.901C174.56 312.311 162.59 289.811 141.44 267.611C110.56 235.201 84.5199 205.481 81.8799 158.591C77.5099 80.921 151.28 27.471 221.97 22.991C315.33 17.071 405.96 101.641 373.61 197.191ZM222.5 482.631C195.07 482.251 168.53 471.831 158.79 445.281C158.34 444.071 157.9 442.801 157.47 441.521C172.07 451.451 192.06 456.781 205.87 458.581C231.15 461.881 257.95 460.191 278.76 446.651C269.87 470.881 251.82 483.031 222.5 482.631ZM213.99 517.491C200.99 516.911 198.49 505.731 195.97 495.181C201.05 496.431 206.32 497.351 211.72 497.971C220.41 498.961 229.24 499.041 237.77 498.011C234.39 509.481 229.24 518.181 213.99 517.491ZM282.73 432.231C250.76 464.221 187.95 455.161 153.35 427.491C150.45 415.941 148.37 402.981 148.29 390.431C170.75 427.731 249.97 429.271 287.11 403.701C286.24 413.581 284.57 423.281 282.73 432.231ZM280.87 353.011C286.01 364.451 287.82 377.411 287.75 390.521C256.29 425.301 168.05 418.531 149.58 373.481C150.69 367.091 152.56 361.101 155.36 355.771C186.28 390.921 255.58 393.681 280.87 353.011ZM228 193.331C200.06 194.911 208.88 161.871 223.61 150.751C224.35 150.201 225.09 149.691 225.84 149.201C242.78 164.771 255.13 191.801 228 193.331ZM208.91 315.351C206.46 289.001 204.67 265.111 190.04 242.661C180.19 227.541 169.78 213.971 164.48 196.441C155.51 166.781 173.43 133.531 207.2 138.541C210.23 138.991 213.57 140.381 216.96 142.431C198.49 156.621 188.54 183.031 210.84 199.031C225.52 209.561 253.81 202.731 254.3 182.031C254.63 168.321 247.89 154.391 237.58 143.901C263.33 137.011 292.01 157.011 287.49 185.841C282.03 220.681 249.59 233.081 232.18 258.981C214.23 285.691 220.89 332.131 225.59 364.961C223.61 365.171 221.56 365.311 219.42 365.351C217.03 365.401 214.63 365.301 212.24 365.091C213.83 348.801 210.36 330.871 208.91 315.351ZM238.06 3.67098C165.47 -1.35902 95.7699 42.021 70.0699 109.861C57.8499 142.071 61.2499 178.221 73.7199 209.661C80.3699 226.441 90.6499 241.031 101.9 254.981C124.2 282.641 156.47 296.901 150.82 338.001C150.38 338.271 149.93 338.611 149.5 339.001C121.65 363.971 133.38 419.031 143.12 449.591C149.48 469.541 162.93 482.291 180.03 489.831C179.68 511.631 191.67 530.101 213.99 533.021C235.68 535.861 254.74 515.391 254.26 494.411C271.1 488.841 285.18 477.571 292.2 458.521C305.41 422.621 312.63 370.821 290.94 336.821C290.35 335.901 289.67 335.171 288.93 334.591C293.54 314.281 299.95 296.731 316.01 282.311C327.84 271.691 342.64 264.751 354.83 254.541C384.78 229.451 399.51 194.611 400.72 155.801C403.41 68.521 316.47 9.10098 238.06 3.67098Z" fill="#2D2D2C"/>
<path d="M270.85 38.211C270.31 38.081 270.02 38.801 270.48 39.091C293.78 53.661 315.43 67.141 333.8 88.161C356.86 114.551 359.98 143.781 360.48 177.141C360.5 178.341 362.07 178.441 362.46 177.411C384.34 120.311 323.38 51.621 270.85 38.211Z" fill="#2D2D2C"/>
<path d="M359.44 185.461C358.69 187.861 358.35 190.371 357.36 192.691C356.17 195.461 355.04 197.771 354.55 200.771C354.44 201.421 355.08 202.121 355.75 201.691C360.16 198.831 365.22 189.671 360.33 185.231C360.03 184.961 359.57 185.071 359.44 185.461Z" fill="#2D2D2C"/>
<path d="M105.92 186.701C99.0599 168.681 98.5199 149.551 95.2999 130.781C95.1699 130.041 93.9498 130.041 93.8198 130.781C87.8998 163.971 100.24 211.201 127.06 233.101C127.62 233.561 128.76 233.151 128.43 232.311C122.16 216.471 112.04 202.781 105.92 186.701Z" fill="#2D2D2C"/>
<path d="M362.47 267.661C339.49 280.431 308.16 302.401 301.52 329.511C301.3 330.381 302.43 330.811 302.92 330.101C311.59 317.671 319.51 306.021 330.79 295.671C341.18 286.151 352.98 278.351 363.2 268.601C363.7 268.121 363.06 267.321 362.47 267.661Z" fill="#2D2D2C"/>
<path d="M135.36 336.031C135.57 335.681 135.12 335.401 134.83 335.621C111.91 353.591 114.55 396.961 124.12 421.181C124.41 421.881 125.59 421.861 125.54 420.991C123.77 389.951 119.14 364.511 135.36 336.031Z" fill="#2D2D2C"/>
<path d="M148.71 8.171C149.34 7.861 148.9 6.91099 148.25 7.07099C91.2499 21.661 48.7898 84.301 47.5798 142.011C47.5798 142.371 48.0898 142.431 48.1998 142.101C56.5798 114.921 62.8599 88.991 78.5999 64.741C95.6899 38.401 121.16 21.901 148.71 8.171Z" fill="#2D2D2C"/>
<path d="M162.25 4.75099C165.49 4.03099 168.26 3.40099 171.23 1.93099C171.73 1.68099 171.42 1.05098 170.98 0.990983C167.54 0.570983 164.82 0.930989 161.44 1.84099C159.15 2.45099 155.5 3.19099 154.39 5.50099C154.34 5.62099 154.39 5.74099 154.51 5.79099C156.8 6.71099 159.93 5.27099 162.25 4.75099Z" fill="#2D2D2C"/>
<path d="M263.66 502.861C260.74 512.721 259.63 521.261 252.08 529.021C245.54 535.751 236.13 538.491 227.27 540.571C226.87 540.661 226.84 541.331 227.27 541.401C246.57 544.861 271.84 523.511 264.96 502.861C264.74 502.241 263.85 502.201 263.66 502.861Z" fill="#2D2D2C"/>
</svg>
