<svg width="431" height="805" viewBox="0 0 431 805" fill="none" xmlns="http://www.w3.org/2000/svg">
<path d="M66.2902 61.388C72.6362 63.878 82.6852 60.758 85.5102 54.338C85.7642 53.758 85.9812 53.168 86.1652 52.578C89.1492 47.178 86.3852 40.788 82.7992 36.398C78.5202 31.158 71.3262 29.788 65.4432 32.958C60.3592 35.698 57.8592 41.628 57.3122 47.078C56.6632 53.528 60.4012 59.078 66.2902 61.388Z" fill="#2D2D2C"/>
<path d="M379.471 58.628C357.681 69.158 356.581 93.868 368.911 109.648C371.461 113.338 374.781 116.638 378.301 119.138C393.151 129.628 412.411 125.778 423.121 111.668C432.971 98.708 433.061 80.588 423.651 67.358C413.011 52.418 395.031 51.108 379.471 58.628Z" fill="#2D2D2C"/>
<path d="M244.621 767.25C227.001 761.97 208.061 765.19 190.281 760.05C164.271 752.52 162.271 721.92 151.651 701.8C151.411 701.36 150.831 701.53 150.681 701.93C143.551 720.42 157.961 753.42 174.521 763.73C194.651 776.26 222.461 776.46 244.621 769.38C245.661 769.05 245.691 767.57 244.621 767.25Z" fill="#2D2D2C"/>
<path d="M271.651 763.73C268.361 761.8 265.171 762.74 261.621 763.34C259.741 763.66 257.871 763.96 256.001 764.33C254.151 764.69 252.821 766.15 251.331 767.16C250.331 767.83 250.571 769.81 252.011 769.66C253.601 769.5 255.161 769.97 256.761 769.93C259.001 769.88 261.351 769.37 263.581 769.11C266.971 768.72 270.331 768.32 271.971 764.91C272.171 764.49 272.091 763.98 271.651 763.73Z" fill="#2D2D2C"/>
<path d="M396.801 273.888C378.631 310.248 342.641 332.428 309.741 354.228C309.521 345.288 309.271 336.358 308.971 327.418C327.591 320.028 346.451 300.698 360.681 288.358C374.821 276.108 392.071 259.718 402.631 241.808C403.601 252.798 401.181 265.118 396.801 273.888ZM266.141 498.08C264.641 343.518 250.551 189.848 239.321 35.868C258.591 46.608 266.621 89.998 270.221 105.258C281.461 152.888 285.511 202.318 288.771 251.078C288.251 252.778 288.431 254.508 289.101 256.058C289.121 256.268 289.131 256.478 289.141 256.688C294.381 336.288 291.051 416.398 297.011 495.87C286.731 496.27 276.431 497.06 266.141 498.08ZM354.491 515.39C366.571 517.3 368.761 525.52 370.641 534.98C351.401 528.95 332.091 528.83 312.721 536.8C291.911 545.37 280.141 555.75 255.121 550.68C242.131 548.05 230.791 543.78 217.441 543.14C188.431 541.75 174.431 572.17 142.281 567.16C122.8 564.12 109.452 562.01 95.4281 573.05C95.5731 564.33 96.3181 556.33 97.1721 550.47C100.195 529.73 180.661 526.12 197.031 523.72C232.091 518.59 267.381 514.62 302.791 513.08C320.021 512.32 337.441 512.68 354.491 515.39ZM332.621 610.41C305.241 613.91 277.831 617.12 250.411 620.24C209.391 624.92 168.151 630.67 126.932 633.21C111.385 634.17 103.086 622.72 98.9691 607.57C120.148 603.36 140.401 609.08 161.881 607.02C185.921 604.72 205.241 585.33 229.931 582.4C253.531 579.6 275.781 593.54 299.731 587.71C312.561 584.59 324.941 580.21 337.601 576.5C350.711 572.64 363.131 574.34 376.061 574.78C376.191 576.91 376.301 579.04 376.321 581.18C376.671 606.24 351.031 608.06 332.621 610.41ZM359.751 747.73C350.011 770.36 300.761 775.85 280.271 779.26C248.661 784.52 213.071 786.46 182.011 777.36C136.081 763.9 139.351 688.15 135.181 649.04C137.621 648.85 140.031 648.62 142.341 648.4C180.901 644.6 219.411 640.17 257.911 635.71C290.311 631.96 325.851 630.94 357.731 622.46C361.381 661.97 375.831 710.36 359.751 747.73ZM375.251 565.65C355.031 561.27 336.281 565.79 315.941 572.54C282.481 583.65 253.741 569.27 220.431 573.2C192.771 576.46 173.571 598.09 144.081 597.22C126.599 596.7 111.386 592.22 97.5651 601.49C96.2711 594.79 95.6451 587.64 95.4611 580.68C109.975 574.63 123.243 573.53 139.471 577.37C145.881 578.88 153.791 579.85 160.291 578.54C188.261 572.92 202.881 549.44 234.501 555.81C255.961 560.13 269.541 566.12 291.171 558.97C302.431 555.25 313.081 547.89 324.001 543.38C339.421 537.01 356.631 542.02 372.451 545.43C373.421 552.17 374.481 558.89 375.251 565.65ZM140.341 258.558C138.311 197.238 134.901 61.668 210.061 37.128C197.351 52.158 192.931 75.188 189.301 93.288C181.901 130.308 180.311 169.638 178.441 207.198C175.821 259.838 179.611 312.798 183.971 365.228C187.901 412.448 190.081 460.018 197.171 506.91C189.611 507.78 180.961 508.45 171.841 509.25C158.141 425.768 143.161 343.428 140.341 258.558ZM75.9541 272.398C54.0781 254.988 33.3181 233.238 22.5571 207.088C18.0141 196.048 17.8051 184.358 20.9571 174.518C25.5391 197.348 42.7111 218.708 57.3151 234.938C72.0391 251.298 99.0391 277.768 123.858 285.398C124.232 291.468 124.665 297.538 125.156 303.598C109.114 292.958 90.9611 284.348 75.9541 272.398ZM66.8701 155.068C87.3111 164.518 105.276 179.318 123.861 191.908C123.24 200.518 122.805 209.148 122.558 217.798C109.996 204.398 93.6521 192.488 80.5031 182.098C66.7071 171.198 50.7121 160.908 33.3931 156.558C41.8031 150.438 53.3811 148.828 66.8701 155.068ZM29.2961 160.148C50.2331 169.948 68.4751 180.058 86.6551 195.368C98.6951 205.508 109.552 219.548 122.341 229.438C122.176 244.688 122.524 259.988 123.291 275.298C119.479 273.348 115.604 271.488 111.941 269.348C97.9111 261.158 85.1731 250.808 73.0091 240.108C49.0381 219.018 33.6611 195.058 25.1341 165.498C26.3601 163.558 27.7521 161.768 29.2961 160.148ZM228.871 33.498C230.541 33.378 232.141 33.478 233.681 33.778C240.011 188.958 255.771 343.488 257.021 499.05C239.601 501.01 222.281 503.53 205.311 505.85C191.161 416.458 185.581 321.808 185.851 231.508C186.031 170.628 183.461 87.028 219.741 34.668C222.681 34.128 225.721 33.728 228.871 33.498ZM391.511 219.428C376.651 223.588 361.861 235.828 351.261 243.878C336.841 254.828 319.751 267.678 307.041 282.168C306.611 273.868 306.131 265.578 305.611 257.288C324.721 240.618 345.541 224.858 370.251 217.888C379.481 215.288 386.441 216.228 391.511 219.428ZM307.461 290.838C321.101 281.198 332.771 267.448 345.241 256.798C362.081 242.428 378.721 234.258 397.291 225.078C398.691 227.118 399.801 229.438 400.651 231.948C385.651 248.988 372.991 267.748 355.471 283.148C341.961 295.028 321.831 305.218 308.651 318.778C308.311 309.468 307.911 300.148 307.461 290.838ZM383.981 198.328C353.771 197.348 326.791 216.048 304.161 235.708C300.991 192.168 296.261 148.538 287.211 105.828C281.531 79.028 273.531 42.088 250.271 24.348C228.621 7.848 196.921 21.668 178.141 36.328C148.921 59.138 137.561 100.778 131.057 135.348C128.796 147.378 127.021 159.518 125.678 171.738C103.05 154.458 75.1981 129.448 47.3121 129.948C22.6931 130.388 2.1421 156.288 0.315096 179.968C-2.2239 212.928 17.6801 240.608 39.0121 263.698C59.7831 286.178 95.3891 318.188 127.22 326.098C130.823 361.458 136.011 396.518 141.501 430.618C145.811 457.358 150.091 484.498 157.391 510.64C130.433 513.55 102.182 518.89 86.8831 534.25C76.8801 544.28 79.9781 563.34 80.5961 575.63C81.4591 592.79 81.1771 616.74 89.2931 632.62C95.6561 645.07 107.773 648.81 120.593 649.41C123.945 695.33 122.003 758.15 164.651 787.03C193.701 806.69 243.621 800.11 275.781 796.08C306.331 792.25 349.721 785.73 370.801 760.27C381.491 747.37 381.571 725.18 381.981 709.39C382.741 679.26 377.831 647.23 371.501 617.68C399.571 603.19 391.081 563.69 384.401 538C384.361 537.85 384.311 537.7 384.261 537.55C379.971 509.33 372.011 500.38 342.261 497.16C331.791 496.02 321.211 495.56 310.571 495.58C310.941 453.908 310.921 412.268 310.111 370.648C358.711 353.308 420.971 300.378 422.961 246.508C423.771 224.618 407.461 199.098 383.981 198.328Z" fill="#2D2D2C"/>
<path d="M403.801 315.268C394.331 326.948 385.291 338.188 373.731 347.898C362.611 357.248 349.681 363.908 338.391 372.948C338.201 373.088 338.401 373.438 338.621 373.348C363.751 363.138 393.731 341.448 404.701 315.968C404.941 315.428 404.251 314.718 403.801 315.268Z" fill="#2D2D2C"/>
<path d="M9.5673 131.478C22.8793 121.408 35.5323 113.738 52.7813 113.328C70.4523 112.918 86.4263 124.688 99.2933 135.458C99.6233 135.728 100.231 135.358 99.9333 134.958C77.0663 104.388 33.8893 99.458 8.98429 130.728C8.67529 131.108 9.0953 131.838 9.5673 131.478Z" fill="#2D2D2C"/>
<path d="M139.111 497.06C134.781 470.138 127.193 443.778 122.839 416.768C118.785 391.618 116.355 366.548 113.227 341.318C113.178 340.918 112.644 340.918 112.602 341.318C110.051 364.958 114.828 389.248 118.167 412.618C122.196 440.808 125.135 471.778 138.061 497.51C138.371 498.14 139.211 497.67 139.111 497.06Z" fill="#2D2D2C"/>
<path d="M305.161 156.708C305.171 157.468 306.241 157.428 306.321 156.708C309.871 125.168 305.181 92.618 295.211 62.598C287.231 38.588 271.931 9.09799 246.441 0.137995C245.641 -0.142005 245.301 0.977984 245.901 1.40798C295.111 36.898 304.791 99.518 305.161 156.708Z" fill="#2D2D2C"/>
<path d="M394.591 712.61C393.211 738.11 390.451 760.47 368.781 776.89C345.571 794.46 314.931 798.05 287.461 803.65C287.241 803.7 287.221 804.08 287.461 804.12C314.421 808.31 353.081 795.77 374.101 778.21C393.731 761.8 400.971 737.32 395.821 712.44C395.671 711.72 394.631 711.93 394.591 712.61Z" fill="#2D2D2C"/>
<path d="M109.212 664.74C97.3851 659.26 87.4571 657.46 79.9691 645.58C73.4091 635.17 73.6492 623 69.2052 611.98C69.0762 611.66 68.4812 611.53 68.4182 611.98C65.2782 634.07 81.9462 670.97 109.023 666.19C109.681 666.07 109.819 665.02 109.212 664.74Z" fill="#2D2D2C"/>
</svg>
