<svg width="597" height="805" viewBox="0 0 597 805" fill="none" xmlns="http://www.w3.org/2000/svg">
<path d="M149.207 61.3009C155.553 63.7909 165.602 60.6709 168.427 54.2509C168.681 53.6709 168.898 53.0809 169.082 52.4909C172.066 47.0909 169.302 40.7009 165.716 36.3109C161.437 31.0709 154.243 29.7009 148.36 32.8709C143.276 35.6109 140.776 41.5409 140.229 46.9909C139.58 53.4409 143.318 58.9909 149.207 61.3009Z" fill="#2D2D2C"/>
<path d="M462.388 58.5409C440.598 69.0709 439.498 93.7809 451.828 109.561C454.378 113.251 457.698 116.551 461.218 119.051C476.068 129.541 495.328 125.691 506.038 111.581C515.888 98.6209 515.978 80.5009 506.568 67.2709C495.928 52.3309 477.948 51.0209 462.388 58.5409Z" fill="#2D2D2C"/>
<path d="M327.538 767.163C309.918 761.883 290.978 765.103 273.198 759.963C247.188 752.433 245.188 721.833 234.568 701.713C234.328 701.273 233.748 701.443 233.598 701.843C226.468 720.333 240.878 753.333 257.438 763.643C277.568 776.173 305.378 776.373 327.538 769.293C328.578 768.963 328.608 767.483 327.538 767.163Z" fill="#2D2D2C"/>
<path d="M354.568 763.643C351.278 761.713 348.088 762.653 344.538 763.253C342.658 763.573 340.788 763.873 338.918 764.243C337.068 764.603 335.738 766.063 334.248 767.073C333.248 767.743 333.488 769.723 334.928 769.573C336.518 769.413 338.078 769.883 339.678 769.843C341.918 769.793 344.268 769.283 346.498 769.023C349.888 768.633 353.248 768.233 354.888 764.823C355.088 764.403 355.008 763.893 354.568 763.643Z" fill="#2D2D2C"/>
<path d="M479.718 273.801C461.548 310.161 425.558 332.341 392.658 354.141C392.438 345.201 392.188 336.271 391.888 327.331C410.508 319.941 429.368 300.611 443.598 288.271C457.738 276.021 474.988 259.631 485.548 241.721C486.518 252.711 484.098 265.031 479.718 273.801ZM349.058 497.993C347.558 343.431 333.468 189.761 322.238 35.7809C341.508 46.5209 349.538 89.9109 353.138 105.171C364.378 152.801 368.428 202.231 371.688 250.991C371.168 252.691 371.348 254.421 372.018 255.971C372.038 256.181 372.048 256.391 372.058 256.601C377.298 336.201 373.968 416.311 379.928 495.783C369.648 496.183 359.348 496.973 349.058 497.993ZM437.408 515.303C449.488 517.213 451.678 525.433 453.558 534.893C434.318 528.863 415.008 528.743 395.638 536.713C374.828 545.283 363.058 555.663 338.038 550.593C325.048 547.963 313.708 543.693 300.358 543.053C271.348 541.663 257.348 572.083 225.198 567.073C205.717 564.033 192.369 561.923 178.345 572.963C178.49 564.243 179.235 556.243 180.089 550.383C183.112 529.643 263.578 526.033 279.948 523.633C315.008 518.503 350.298 514.533 385.708 512.993C402.938 512.233 420.358 512.593 437.408 515.303ZM415.538 610.323C388.158 613.823 360.748 617.033 333.328 620.153C292.308 624.833 251.068 630.583 209.849 633.123C194.302 634.083 186.003 622.633 181.886 607.483C203.065 603.273 223.318 608.993 244.798 606.933C268.838 604.633 288.158 585.243 312.848 582.313C336.448 579.513 358.698 593.453 382.648 587.623C395.478 584.503 407.858 580.123 420.518 576.413C433.628 572.553 446.048 574.253 458.978 574.693C459.108 576.823 459.218 578.953 459.238 581.093C459.588 606.153 433.948 607.973 415.538 610.323ZM442.668 747.643C432.928 770.273 383.678 775.763 363.188 779.173C331.578 784.433 295.988 786.373 264.928 777.273C218.998 763.813 222.268 688.063 218.098 648.953C220.538 648.763 222.948 648.533 225.258 648.313C263.818 644.513 302.328 640.083 340.828 635.623C373.228 631.873 408.768 630.853 440.648 622.373C444.298 661.883 458.748 710.273 442.668 747.643ZM458.168 565.563C437.948 561.183 419.198 565.703 398.858 572.453C365.398 583.563 336.658 569.183 303.348 573.113C275.688 576.373 256.488 598.003 226.998 597.133C209.516 596.613 194.303 592.133 180.482 601.403C179.188 594.703 178.562 587.553 178.378 580.593C192.892 574.543 206.16 573.443 222.388 577.283C228.798 578.793 236.708 579.763 243.208 578.453C271.178 572.833 285.798 549.353 317.418 555.723C338.878 560.043 352.458 566.033 374.088 558.883C385.348 555.163 395.998 547.803 406.918 543.293C422.338 536.923 439.548 541.933 455.368 545.343C456.338 552.083 457.398 558.803 458.168 565.563ZM223.258 258.471C221.228 197.151 217.818 61.5809 292.978 37.0409C280.268 52.0709 275.848 75.1009 272.218 93.2009C264.818 130.221 263.228 169.551 261.358 207.111C258.738 259.751 262.528 312.711 266.888 365.141C270.818 412.361 272.998 459.931 280.088 506.823C272.528 507.693 263.878 508.363 254.758 509.163C241.058 425.681 226.078 343.341 223.258 258.471ZM158.871 272.311C136.995 254.901 116.235 233.151 105.474 207.001C100.931 195.961 100.722 184.271 103.874 174.431C108.456 197.261 125.628 218.621 140.232 234.851C154.956 251.211 181.956 277.681 206.775 285.311C207.149 291.381 207.582 297.451 208.073 303.511C192.031 292.871 173.878 284.261 158.871 272.311ZM149.787 154.981C170.228 164.431 188.193 179.231 206.778 191.821C206.157 200.431 205.722 209.061 205.475 217.711C192.913 204.311 176.569 192.401 163.42 182.011C149.624 171.111 133.629 160.821 116.31 156.471C124.72 150.351 136.298 148.741 149.787 154.981ZM112.213 160.061C133.15 169.861 151.392 179.971 169.572 195.281C181.612 205.421 192.469 219.461 205.258 229.351C205.093 244.601 205.441 259.901 206.208 275.211C202.396 273.261 198.521 271.401 194.858 269.261C180.828 261.071 168.09 250.721 155.926 240.021C131.955 218.931 116.578 194.971 108.051 165.411C109.277 163.471 110.669 161.681 112.213 160.061ZM311.788 33.4109C313.458 33.2909 315.058 33.3909 316.598 33.6909C322.928 188.871 338.688 343.401 339.938 498.963C322.518 500.923 305.198 503.443 288.228 505.763C274.078 416.371 268.498 321.721 268.768 231.421C268.948 170.541 266.378 86.9409 302.658 34.5809C305.598 34.0409 308.638 33.6409 311.788 33.4109ZM474.428 219.341C459.568 223.501 444.778 235.741 434.178 243.791C419.758 254.741 402.668 267.591 389.958 282.081C389.528 273.781 389.048 265.491 388.528 257.201C407.638 240.531 428.458 224.771 453.168 217.801C462.398 215.201 469.358 216.141 474.428 219.341ZM390.378 290.751C404.018 281.111 415.688 267.361 428.158 256.711C444.998 242.341 461.638 234.171 480.208 224.991C481.608 227.031 482.718 229.351 483.568 231.861C468.568 248.901 455.908 267.661 438.388 283.061C424.878 294.941 404.748 305.131 391.568 318.691C391.228 309.381 390.828 300.061 390.378 290.751ZM466.898 198.241C436.688 197.261 409.708 215.961 387.078 235.621C383.908 192.081 379.178 148.451 370.128 105.741C364.448 78.9409 356.448 42.0009 333.188 24.2609C311.538 7.76091 279.838 21.5809 261.058 36.2409C231.838 59.0509 220.478 100.691 213.974 135.261C211.713 147.291 209.938 159.431 208.595 171.651C185.967 154.371 158.115 129.361 130.229 129.861C105.61 130.301 85.0591 156.201 83.2321 179.881C80.6931 212.841 100.597 240.521 121.929 263.611C142.7 286.091 178.306 318.101 210.137 326.011C213.74 361.371 218.928 396.431 224.418 430.531C228.728 457.271 233.008 484.411 240.308 510.553C213.35 513.463 185.099 518.803 169.8 534.163C159.797 544.193 162.895 563.253 163.513 575.543C164.376 592.703 164.094 616.653 172.21 632.533C178.573 644.983 190.69 648.723 203.51 649.323C206.862 695.243 204.92 758.063 247.568 786.943C276.618 806.603 326.538 800.023 358.698 795.993C389.248 792.163 432.638 785.643 453.718 760.183C464.408 747.283 464.488 725.093 464.898 709.303C465.658 679.173 460.748 647.143 454.418 617.593C482.488 603.103 473.998 563.603 467.318 537.913C467.278 537.763 467.228 537.613 467.178 537.463C462.888 509.243 454.928 500.293 425.178 497.073C414.708 495.933 404.128 495.473 393.488 495.493C393.858 453.821 393.838 412.181 393.028 370.561C441.628 353.221 503.888 300.291 505.878 246.421C506.688 224.531 490.378 199.011 466.898 198.241Z" fill="#2D2D2C"/>
<path d="M486.718 315.181C477.248 326.861 468.208 338.101 456.648 347.811C445.528 357.161 432.598 363.821 421.308 372.861C421.118 373.001 421.318 373.351 421.538 373.261C446.668 363.051 476.648 341.361 487.618 315.881C487.858 315.341 487.168 314.631 486.718 315.181Z" fill="#2D2D2C"/>
<path d="M92.4843 131.391C105.796 121.321 118.449 113.651 135.698 113.241C153.369 112.831 169.343 124.601 182.21 135.371C182.54 135.641 183.148 135.271 182.85 134.871C159.983 104.301 116.806 99.3709 91.9013 130.641C91.5923 131.021 92.0123 131.751 92.4843 131.391Z" fill="#2D2D2C"/>
<path d="M222.028 496.973C217.698 470.051 210.11 443.691 205.756 416.681C201.702 391.531 199.272 366.461 196.144 341.231C196.095 340.831 195.561 340.831 195.519 341.231C192.968 364.871 197.745 389.161 201.084 412.531C205.113 440.721 208.052 471.691 220.978 497.423C221.288 498.053 222.128 497.583 222.028 496.973Z" fill="#2D2D2C"/>
<path d="M388.078 156.621C388.088 157.381 389.158 157.341 389.238 156.621C392.788 125.081 388.098 92.5309 378.128 62.5109C370.148 38.5009 354.848 9.0109 329.358 0.0508976C328.558 -0.229102 328.218 0.890887 328.818 1.32089C378.028 36.8109 387.708 99.4309 388.078 156.621Z" fill="#2D2D2C"/>
<path d="M477.508 712.523C476.128 738.023 473.368 760.383 451.698 776.803C428.488 794.373 397.848 797.963 370.378 803.563C370.158 803.613 370.138 803.993 370.378 804.033C397.338 808.223 435.998 795.683 457.018 778.123C476.648 761.713 483.888 737.233 478.738 712.353C478.588 711.633 477.548 711.843 477.508 712.523Z" fill="#2D2D2C"/>
<path d="M192.129 664.653C180.302 659.173 170.374 657.373 162.886 645.493C156.326 635.083 156.566 622.913 152.122 611.893C151.993 611.573 151.398 611.443 151.335 611.893C148.195 633.983 164.863 670.883 191.94 666.103C192.598 665.983 192.736 664.933 192.129 664.653Z" fill="#2D2D2C"/>
</svg>
