<svg width="502" height="519" viewBox="0 0 502 519" fill="none" xmlns="http://www.w3.org/2000/svg">
<path d="M379.013 43.6699C378.353 44.0299 378.193 44.8798 378.533 45.5098C380.103 48.4898 382.813 48.9798 385.933 49.5898C387.303 49.8598 390.993 49.2298 390.283 46.9998C389.033 43.0098 382.303 41.8599 379.013 43.6699Z" fill="#2D2D2C"/>
<path d="M299.073 40.93C309.223 30.83 318.123 20.9599 330.583 13.4599C345.223 4.63987 362.973 2.92997 379.693 3.42997C380.263 3.44997 380.373 2.58985 379.823 2.43985C348.893 -6.14015 311.913 10.8999 298.773 40.6899C298.683 40.8899 298.903 41.09 299.073 40.93Z" fill="#2D2D2C"/>
<path d="M441.62 432.32C442.29 441.98 429.37 440.94 423.82 438.37C419.61 436.42 416.03 433.5 412.27 430.87C418.94 424.93 425.21 418.61 431.05 411.96C435.3 418.47 441.07 424.4 441.62 432.32ZM360.363 446.12C275.013 493.98 177.503 466.29 121.523 388.94C52.0929 293.01 84.8829 168.16 181.713 106.43C272.363 48.6499 374.123 83.5398 434.56 165.48C434.67 165.63 434.79 165.77 434.91 165.91C462.96 220.6 478.3 271.66 459.33 332.32C443.88 381.7 404.59 421.31 360.363 446.12ZM236.103 503.09C228.983 505.7 229.603 491 229.753 481.85C236.273 483.19 242.873 484.19 249.523 484.85C246.173 491.95 243.683 500.31 236.103 503.09ZM58.4429 221.76C41.5829 206.49 31.1929 185.28 35.0529 162.36C38.5429 141.59 57.913 125.32 75.033 115.6C95.893 103.75 116.473 109.64 135.953 119.7C102.353 150.68 81.0729 190.54 72.8229 233.17C68.3029 229.01 62.6229 225.55 58.4429 221.76ZM350.653 34.0499C371.073 25.8399 394.313 34.1998 410.23 47.6198C437.01 70.2098 427.02 99.2998 420.8 127.15C391.383 95.7498 355.413 75.0198 316.623 66.6898C325.023 52.6098 334.223 40.6499 350.653 34.0499ZM446.34 159.76C446.2 159.47 446.04 159.17 445.84 158.88C441.57 152.45 437.06 146.32 432.36 140.48C458.35 110.69 446.74 52.1898 415.93 30.6498C374.993 2.01985 317.703 15.0799 302.093 64.1699C262.433 58.8999 220.393 66.3799 179.783 88.4299C167.683 94.9999 156.553 102.47 146.393 110.69C110.733 79.1498 55.2429 93.7399 30.5129 132.91C4.43294 174.24 23.623 232.22 70.153 251.14C64.913 300.5 76.7729 352.34 106.873 397.5C134.653 439.18 173.203 466.29 215.903 478.45C212.003 493.43 215.013 518.53 234.383 518.6C243.003 518.63 249.713 513.19 254.763 506.67C258.773 501.51 264.873 493.13 265.853 485.82C300.263 486.41 335.623 478.14 368.943 460.8C380.473 454.81 391.273 447.82 401.29 440.02C414.33 453.3 438.54 463.15 451.84 445.42C462.43 431.32 451.88 411.36 441.07 399.65C493.1 330.82 502.56 233.64 446.34 159.76Z" fill="#2D2D2C"/>
<path d="M416.57 110.57C425.6 95.2798 414.95 53.0898 394.453 50.5798C394.083 50.5298 393.863 51.0199 394.033 51.2999C396.373 55.1999 399.92 58.0099 402.65 61.6699C406.17 66.3699 408.49 72.1299 410.47 77.5999C414.32 88.2799 413.12 99.0499 414.51 110.01C414.64 111.04 415.96 111.61 416.57 110.57Z" fill="#2D2D2C"/>
<path d="M94.5129 126.58C83.4229 121.58 71.3129 130.18 62.7629 137.07C53.5229 144.5 43.2629 157.42 46.0329 169.98C46.1829 170.65 47.1129 170.72 47.4429 170.17C53.1029 160.71 57.7129 151.8 66.0329 144.2C74.5129 136.47 85.4229 134.68 94.5129 128.49C95.1229 128.07 95.3229 126.95 94.5129 126.58Z" fill="#2D2D2C"/>
<path d="M270.773 275.89C269.893 277.66 270.413 279.54 270.843 281.43C272.263 282.34 273.763 282.92 275.633 282.24C277.433 281.58 279.793 279.67 279.613 277.41C279.213 272.34 272.883 271.63 270.773 275.89Z" fill="#2D2D2C"/>
<path d="M421.35 259.41C405.31 203.57 384.063 158.76 329.163 133.39C328.813 133.23 328.993 132.67 329.353 132.68C383.523 133.99 423.14 212.13 423.52 259.12C423.53 260.38 421.7 260.61 421.35 259.41ZM347.203 262.78C331.353 270.62 313.103 274.65 296.173 279.79C296.133 280.01 296.163 280.23 296.123 280.45C294.683 289.09 287.803 296.17 279.313 298.16C272.183 299.82 263.613 296.8 259.703 290.51C259.113 290.17 258.553 289.74 258.043 289.16C251.603 281.87 252.243 270.01 259.383 263.16C260.293 262.29 261.263 261.5 262.273 260.75C253.273 232.27 242.203 203.29 236.893 174.08C235.433 166.05 245.683 162.93 248.943 170.41C260.723 197.43 267.673 227.43 275.983 255.92C278.013 255.94 280.073 256.3 282.103 257.06C286.253 258.62 289.763 261.48 292.303 265.02C309.043 259.87 326.243 253.19 343.583 250.89C349.783 250.07 352.803 260.01 347.203 262.78ZM329.113 411.32C328.383 413.26 327.893 414 325.973 414.98C324.343 415.8 322.663 416.57 320.923 417.1C318.483 417.85 314.833 418.95 312.763 416.91C312.733 416.88 312.723 416.83 312.753 416.79C314.203 414.52 317.523 414.23 319.883 413.36C322.863 412.26 325.103 410.46 328.233 410.17C328.803 410.12 329.313 410.8 329.113 411.32ZM302.843 418.57C232.403 450.56 140.563 378.9 131.983 307.65C131.903 306.94 133.033 306.66 133.333 307.29C167.653 379.16 218.023 426.7 302.433 417.05C303.233 416.96 303.563 418.25 302.843 418.57ZM409.36 177.77C360.553 105.12 270.413 90.6499 196.483 132.18C115.413 177.71 79.233 291.84 141.333 367.74C141.413 367.88 141.413 368.01 141.503 368.15C190.603 442.88 277.563 466.21 355.803 421.85C444.83 371.38 464.64 260.07 409.36 177.77Z" fill="#2D2D2C"/>
<path d="M501.09 268.44C499.26 228.22 486.59 182.98 462.16 150.45C462.03 150.28 461.77 150.42 461.87 150.62C479.47 187.44 493.63 222.23 496.78 263.43C499.83 303.36 490.22 340.83 473.93 376.97C473.73 377.41 474.29 377.96 474.65 377.53C498.05 348.68 502.71 304.18 501.09 268.44Z" fill="#2D2D2C"/>
<path d="M8.4229 189.75C2.0729 166.79 6.34294 148.03 16.0229 127.04C16.1129 126.84 15.8829 126.65 15.7129 126.8C-13.1371 152.8 3.90294 211.71 26.8329 235.97C27.1129 236.26 27.7229 235.96 27.5529 235.55C21.1729 220.12 12.9229 205.99 8.4229 189.75Z" fill="#2D2D2C"/>
<path d="M198.823 486.26C174.123 475.28 151.173 465.48 131.003 446.89C120.303 437.03 111.333 425.45 103.173 413.46C94.3129 400.46 88.3229 385.21 78.5629 372.96C78.4229 372.8 78.1929 372.98 78.2329 373.15C84.8529 401.13 107.783 429.97 128.093 449.8C146.973 468.24 172.233 482.74 198.213 487.71C199.033 487.87 199.693 486.65 198.823 486.26Z" fill="#2D2D2C"/>
<path d="M451.5 457.77C437.04 467.19 420.76 467.56 405.74 460.05C405.51 459.93 405.25 460.17 405.38 460.41C413.87 476.45 442.45 468.88 452.14 458.6C452.54 458.18 452.01 457.44 451.5 457.77Z" fill="#2D2D2C"/>
<path d="M20.603 120.4C23.173 117.8 27.953 114.69 27.693 110.53C27.663 110.18 27.3529 109.89 26.9929 110C23.1629 111.16 20.7429 115.95 19.1729 119.3C18.7429 120.21 19.833 121.19 20.603 120.4Z" fill="#2D2D2C"/>
</svg>
