<svg width="890" height="664" viewBox="0 0 890 664" fill="none" xmlns="http://www.w3.org/2000/svg">
<path d="M853.599 167.753C848.509 170.493 846.01 176.413 845.47 181.873C844.82 188.313 848.56 193.863 854.44 196.183C860.79 198.663 870.84 195.543 873.66 189.123C873.92 188.543 874.13 187.953 874.32 187.363C877.31 181.973 874.54 175.583 870.95 171.193C866.67 165.953 859.479 164.573 853.599 167.753Z" fill="#2D2D2C"/>
<path d="M794.29 323.053C772.5 315.273 745.8 318.143 728.88 334.523C728.19 335.183 728.89 336.593 729.86 336.213C748.68 328.783 766.83 326.273 786.7 331.133C810.43 336.943 820.37 354.26 837.17 369.21C838.17 370.11 840.02 369.57 839.96 368.06C838.95 345.093 813.7 329.973 794.29 323.053Z" fill="#2D2D2C"/>
<path d="M846.759 376.03C845.449 374.95 843.27 375.93 843.79 377.76C844.87 381.61 846.11 385.3 846.79 389.28C847.34 392.56 852.46 391.69 852.46 388.51C852.46 383.69 850.419 379.07 846.759 376.03Z" fill="#2D2D2C"/>
<path d="M468.39 460.81C462.1 456.88 454.38 457.67 448.71 462.17C443.75 466.11 440.77 474.08 441.38 480.34C442.04 487.17 445.88 491.66 452.1 494.22C461.46 498.06 474.13 492.55 477.71 483.32C478.81 480.47 478.72 477.49 477.82 474.7C477.3 468.93 473.14 463.77 468.39 460.81Z" fill="#2D2D2C"/>
<path d="M475.93 427.76C485.77 414.82 485.87 396.69 476.45 383.46C465.82 368.52 447.84 367.2 432.27 374.72C410.49 385.25 409.39 409.94 421.7 425.72C424.25 429.43 427.58 432.74 431.11 435.24C445.95 445.73 465.21 441.87 475.93 427.76Z" fill="#2D2D2C"/>
<path d="M18.7502 401.48C-3.02979 412 -4.13987 436.69 8.17013 452.47C10.7201 456.18 14.0503 459.49 17.5803 461.99C32.4203 472.49 51.6901 468.63 62.4001 454.52C72.2401 441.56 72.3401 423.44 62.9201 410.21C52.2901 395.27 34.3102 393.95 18.7502 401.48Z" fill="#2D2D2C"/>
<path d="M752.45 510.42C755.18 501.97 755.49 492.59 752.45 482.54C750.27 475.35 738.52 476.41 739 484.36C740.78 513.88 723.11 528.68 696.66 536.87C665.57 546.5 645.16 533.78 622.62 515.92C646.23 503.03 663.46 479.02 651.96 451.36C636.82 414.91 574.29 428.02 585.46 470.82C587.53 478.78 600.28 477.25 599.91 468.87C598.81 444.34 637.561 441.82 638.481 467.7C638.941 480.77 627.61 494.28 617.95 501.51C591.35 521.42 553.95 505.39 538.78 479.81C514.2 438.35 553.05 378.96 597.92 379.85C599.33 379.88 600.54 379.49 601.52 378.84C605.8 378.09 609.26 372.88 606.88 368.07C593.39 340.773 608.3 310.183 634.54 297.253C646.64 291.273 660.38 289.553 673.34 293.143C689.6 297.643 694.19 314.843 699.76 328.413C699.81 328.503 699.861 328.583 699.901 328.683C701.161 331.863 705.05 334.043 708.49 333.003C710.14 332.643 711.59 331.683 712.45 330.103C763.1 280.503 842.06 313.183 866.54 373.89C894.96 444.34 826.67 532.12 752.45 510.42ZM445.32 303.843C395.58 308.293 352.39 345.363 340.29 392.79C326.63 377.84 308.91 366.26 290.63 361.16C284.21 359.37 277.92 358.23 271.8 357.69C301.01 211.923 547.971 135.933 615.361 290.213C593.201 307.823 576.141 339.533 587.731 364.93C578.621 364.57 570.27 366.29 562.76 369.63C547.38 320.593 493.94 299.503 445.32 303.843ZM417.51 551.65C417.64 601.63 362.47 621.6 321.39 615.12C327.37 590.28 307.21 567.26 282.14 565.61C257.06 563.95 226.29 595.35 251.74 615.69C257.82 620.56 267.72 614.44 263.14 606.9C248.5 582.81 289.88 576.73 302.21 594.07C313.17 609.49 297.51 630.02 284.91 637.88C247.73 661.08 205.04 642.05 187.58 606.14C188.46 599.58 179.13 595.19 174.86 601.78C147.96 643.24 86 618.13 73.07 577.79C65.29 553.53 81.5501 524.43 97.1701 507.16C119.9 482.05 147.31 484.54 174.96 497.64C179.46 503.3 190.08 499.51 187.98 491.15C171.53 425.93 214.99 363.97 286.02 377.88C341.04 388.65 361.27 447.39 332.62 491.57C328.18 498.41 337.85 504.99 343.46 499.93C350.16 493.88 355.21 487.4 358.81 480.65C400.99 480.44 417.4 511.59 417.51 551.65ZM710.78 310.443C700.87 278.813 663.09 267.083 631.57 280.383C631.05 280.603 630.52 280.833 629.99 281.073C610.26 207.963 506.61 179.643 440.81 191.173C356.24 205.993 266.33 266.593 256.51 357.58C226.57 359.83 201.69 376.61 186.01 400.34C175.28 369.19 178.58 330.333 183.81 299.193C190.74 257.983 217.6 222.683 246.86 194.363C300.78 142.163 375.83 109.883 449.9 101.583C512.29 94.603 577.24 106.163 631 139.133C688.46 174.373 717.48 235.463 722.28 300.793C718.25 303.543 714.39 306.743 710.78 310.443ZM145.62 198.703C191.63 123.743 271.45 73.943 352.77 45.263C431.53 17.483 524.63 5.893 605.77 29.903C715.91 62.503 818.67 175.383 805.14 294.913C782.31 286.553 758.01 284.923 736.89 293.133C724.67 140.803 578.85 68.153 435.64 87.123C352.9 98.083 272.24 140.663 216.32 202.463C190.8 230.673 171.57 266.483 166.49 304.413C161.86 339.023 157.72 385.47 176.26 417.08C176.39 417.31 176.54 417.53 176.69 417.74C168.96 436 166.04 456.72 169.27 477.4C155.57 470.71 140.95 469.6 126.86 472.67C96.04 379.71 92.8403 284.693 145.62 198.703ZM885.27 377.22C877.65 345.593 851.211 317.203 819.691 301.243C820.141 300.383 820.47 299.413 820.62 298.313C836.61 176.733 740.55 69.603 635.29 23.873C548.6 -13.787 442.22 -0.596987 354.82 27.663C267.75 55.813 186.77 108.623 135.2 185.183C76.8004 271.903 76.0902 381.9 113.04 477.06C75.6402 492.71 46.1201 536.34 55.4401 577.84C67.2301 630.32 141.55 662.48 178.03 621.34C200.95 674.37 288.1 679.13 316.08 628.21C316.36 628.37 316.66 628.51 316.97 628.65C364.97 648.7 431.95 610.36 434.6 557.03C436.75 513.55 413.49 458.04 364.6 464.9C368.6 446.25 363.49 426.71 352.93 409.53C371.91 311.163 505.58 285.123 550.49 377.01C503.27 413.76 502.87 521.57 582.29 525.91C590.88 526.38 600.211 524.9 609.231 521.82C631.981 551.33 664.81 560.83 700.89 552.23C718.17 548.11 734.87 538.37 744.95 524.78C785.86 542.62 826.32 522.51 856.67 492.64C887.06 462.74 894.91 417.3 885.27 377.22Z" fill="#2D2D2C"/>
<path d="M109.39 516.89C94.9602 529.05 81.8601 549.27 88.0401 568.48C88.4301 569.67 90.3402 570.2 90.9502 568.86C97.3502 554.82 100.6 540.05 111.13 528.15C116.58 521.98 123.74 517.57 131.43 514.79C139.42 511.92 147.58 513.9 155.58 511.92C156.48 511.69 156.99 510.3 156.17 509.67C143.18 499.62 120.72 507.35 109.39 516.89Z" fill="#2D2D2C"/>
<path d="M204.71 437.8C204.78 438.44 205.51 438.86 206.03 438.34C218.91 425.49 227.93 413.84 245.78 407.15C259.19 402.13 275.35 401.52 289.58 401.58C291.01 401.58 291.98 399.64 290.81 398.62C266.72 377.83 200.96 402.35 204.71 437.8Z" fill="#2D2D2C"/>
<path d="M307.68 405.3C305.96 404.17 303.73 403.44 301.76 402.85C299.77 402.26 298.48 402.85 296.56 403.21C295.95 403.32 295.87 404.1 296.22 404.49C297.4 405.86 297.88 407.13 299.55 408.1C301.3 409.12 303.46 410.26 305.47 410.55C308.61 411.01 310.56 407.19 307.68 405.3Z" fill="#2D2D2C"/>
<path d="M347.75 600.91C361.68 604.19 376.89 593.75 387.13 585.34C396.6 577.55 408.96 559.53 402.42 546.93C402.01 546.15 400.75 546.15 400.34 546.93C397.54 552.35 397.18 558.59 394.54 564.18C391.6 570.39 386.6 575.27 381.53 579.75C371.37 588.74 357.64 590.84 347.26 599.07C346.61 599.59 347 600.74 347.75 600.91Z" fill="#2D2D2C"/>
<path d="M713.8 509.56C701.73 512.82 691.48 517.46 678.68 517.82C667.66 518.12 657.38 513.62 646.51 513.5C645.98 513.49 645.671 514.19 646.071 514.57C662.401 529.97 700.73 529.73 715.29 512.13C716.23 511 715.39 509.13 713.8 509.56Z" fill="#2D2D2C"/>
<path d="M548.99 454.93C546.13 441.51 552.86 431.04 555.04 418.54C555.16 417.8 554.48 417.19 553.76 417.56C532.74 428.74 536.23 484.69 564.46 483.39C565.47 483.35 566.47 482.11 565.75 481.15C558.89 472.04 551.53 466.84 548.99 454.93Z" fill="#2D2D2C"/>
<path d="M668.32 307.283C658.53 295.973 633.209 307.473 627.349 318.413C626.999 319.053 627.559 319.783 628.269 319.613C634.499 318.173 640.09 314.943 646.19 313.103C653.23 310.973 660.709 312.783 667.519 310.333C668.849 309.853 669.26 308.363 668.32 307.283Z" fill="#2D2D2C"/>
<path d="M429.07 175.853C383.47 178.183 340.14 202.493 305.95 231.473C275.45 257.333 239.2 305.443 241.88 347.543C241.91 348.06 242.58 348.27 242.86 347.803C252.95 331.023 257.85 311.443 267.07 293.983C277.11 274.983 291.16 258.423 306.42 243.463C341.24 209.313 385.43 196.093 429.46 178.683C430.87 178.123 430.82 175.763 429.07 175.853Z" fill="#2D2D2C"/>
<path d="M459.08 173.283C455.09 171.703 450.9 172.083 446.7 172.143C443.08 172.203 439.81 172.383 437.36 175.303C436.69 176.093 436.93 177.223 437.94 177.553C441.74 178.813 445.73 178.323 449.67 178.363C453.38 178.413 456.96 177.843 459.5 174.893C460 174.313 459.76 173.563 459.08 173.283Z" fill="#2D2D2C"/>
<path d="M482.41 68.413C535.85 68.323 581.49 74.413 629.49 99.853C674.82 123.893 710.369 161.573 729.099 209.373C729.529 210.443 731.4 210.423 731.28 209.083C727.03 161.893 685.49 126.103 648.49 101.563C603.51 71.743 535.49 47.923 482.18 66.713C481.28 67.023 481.4 68.413 482.41 68.413Z" fill="#2D2D2C"/>
<path d="M416.46 297.203C385.7 302.973 351.9 325.733 342.27 356.59C342.07 357.23 342.94 357.74 343.39 357.25C354.47 345.173 364.32 332.423 377.52 322.493C389.8 313.263 404.05 306.883 417.35 299.313C418.55 298.633 417.7 296.963 416.46 297.203Z" fill="#2D2D2C"/>
<path d="M160.09 416.88C155.02 385.79 148.36 356.01 149.28 324.273C150.22 292.023 162.63 264.863 172.7 235.023C173.13 233.743 171.38 233.233 170.68 234.163C134.01 283.683 132.02 363.44 157.89 417.8C158.52 419.13 160.29 418.12 160.09 416.88Z" fill="#2D2D2C"/>
</svg>
