<svg width="464" height="609" viewBox="0 0 464 609" fill="none" xmlns="http://www.w3.org/2000/svg">
<path d="M33.6498 366.94C21.6798 364.68 8.97997 370.54 3.06997 381.23C-1.58003 389.63 -0.530147 399.1 4.19985 406.56C4.42985 407.35 4.68992 408.13 5.01992 408.91C8.10992 416.2 15.8499 419.29 23.1999 420C39.3099 421.57 55.2998 407.56 53.1598 391.01C51.6898 379.68 45.6298 369.21 33.6498 366.94Z" fill="#2D2D2C"/>
<path d="M82.2301 369.31C82.4801 368.73 82.69 368.14 82.88 367.55C85.87 362.15 83.1001 355.76 79.5101 351.36C75.2401 346.13 68.04 344.75 62.16 347.92C57.07 350.68 54.5701 356.59 54.0301 362.05C53.3801 368.49 57.1201 374.04 63.0101 376.35C69.3501 378.85 79.4001 375.72 82.2301 369.31Z" fill="#2D2D2C"/>
<path d="M85.7 397.5C79.27 391.07 66.0601 396.29 67.0901 405.86C67.6801 411.4 71.85 416.11 77.73 416.11C82.52 416.11 87.62 412.53 88.43 407.65C88.62 406.51 88.6401 405.4 88.5301 404.32C88.4701 401.84 87.58 399.39 85.7 397.5Z" fill="#2D2D2C"/>
<path d="M354.14 562.12C348.63 562.64 344.16 565.07 341.13 569.78C337.86 574.85 338.37 581.47 339.54 587.06C340.11 589.83 342.16 591.92 344.67 593C347.29 595.54 350.84 597.07 354.73 597.59C365.7 599.04 379.64 586.93 375.02 575.39C371.8 567.34 363.05 561.29 354.14 562.12Z" fill="#2D2D2C"/>
<path d="M359 443.45C356.9 441.29 354.17 439.46 352.19 437.88C350.57 436.59 348.98 435.26 347.39 433.93C351.76 433.24 356.13 432.44 360.5 431.53C360.32 435.54 359.81 439.52 359 443.45ZM303.95 523.89C301.26 519.77 297.45 515.89 295 512.7C290.87 507.33 288 500.3 283.06 495.53C287.55 491.21 291.9 486.76 296.11 482.2C298.46 485.83 301.36 489.23 303.69 492.21C307.95 497.68 313.16 505.08 319.42 509.01C314.43 514.18 309.22 519.15 303.95 523.89ZM259.54 559.1C257.67 554.63 254.42 550.36 252.1 546.56C248.79 541.13 245.15 535.18 240.89 530.1C246.75 526.02 252.53 521.73 258.19 517.25C261.24 523.31 264.96 528.86 268.82 534.66C271.02 537.96 273.24 542.83 275.99 546.92C272.05 549.94 268.23 552.78 264.61 555.44C262.94 556.67 261.25 557.89 259.54 559.1ZM139.25 570.76C145.61 571.26 152.04 570.83 158.45 569.72C161.12 574.81 164.88 579.72 167.65 584.01C169.28 586.53 171.48 590.66 174.17 593.84C160.49 592.39 149.16 582.28 139.25 570.76ZM224.16 558.47C221.54 554.35 218.8 549.95 215.53 546.14C215.67 546.06 215.83 545.97 215.97 545.89C223.19 541.74 230.36 537.26 237.43 532.47C239.55 537.55 242.65 542.31 245.29 547.06C247.9 551.76 250.34 558.23 253.71 563.14C247.47 567.37 241 571.43 234.33 575.15C232.59 569.14 227.35 563.48 224.16 558.47ZM197.54 574.51C194.36 569.81 191.27 564.98 187.95 560.36C196.23 556.73 204.17 552.54 211.55 548.4C213.76 552.92 216.58 557.25 219.14 561.4C222.18 566.32 225.13 573.54 229.84 577.59C221.77 581.83 213.44 585.52 204.9 588.37C204.34 583.43 200.05 578.2 197.54 574.51ZM180.61 592.2C177.18 588.05 174.08 583.65 171.09 579.18C168.97 576.02 166.86 572.06 164.39 568.49C171.48 566.8 178.5 564.36 185.33 561.49C186.94 566.25 189.74 570.55 192.35 574.92C194.27 578.15 196.24 581.36 198.07 584.65C199.08 586.46 199.73 588.19 200.74 589.69C194.52 591.54 188.19 592.93 181.78 593.74C181.48 593.29 181.1 592.8 180.61 592.2ZM280.27 498.2C282.88 504.32 286.19 510.27 289.77 515.76C292.46 519.89 295.5 523.8 298.31 527.85C298.46 528.07 298.61 528.28 298.74 528.48C293.03 533.43 287.3 538.11 281.75 542.47C279.66 539.55 277.14 536.81 275.32 534.33C270.54 527.82 265.86 521.37 260.67 515.27C267.4 509.84 273.95 504.15 280.27 498.2ZM120.6 511.26C132.68 476.38 164.58 446.32 191.79 422.42C219.85 436.88 254.67 439.97 287.9 439.06C257.39 477.22 218.22 500.45 179.93 530.41C179.52 530.73 179.96 531.47 180.44 531.29C226.24 513.98 267.42 477.85 296.45 438.74C301.6 438.49 306.7 438.17 311.71 437.79C290.63 469.62 261.36 495.5 230.81 518.06C205.34 536.89 173.76 555.63 141.16 555.83C113.95 556 113.81 530.87 120.6 511.26ZM170.44 361.89C174.52 365.69 179.14 368.95 184.14 371.78C183.35 375.77 183.5 380.09 183.52 384.01C183.54 388.94 183.47 394.2 183.75 399.36C179.63 395.43 176.31 390.73 174.3 385.08C171.86 378.25 170.88 370.19 170.44 361.89ZM202.99 295.97C226.6 308.72 251.87 318.67 276.87 325.89C304.13 333.78 338.76 338.13 365.07 324.88C379.68 317.52 388.16 299.61 394.7 282.64C418.84 290.98 448.57 309.73 424.64 335.95C395.32 368.1 334.36 371.11 294.84 373.08C258.3 374.89 216.47 372.81 184.54 352.99C152.4 333.05 180.71 307.52 202.99 295.97ZM145.53 235.92C150.6 233.1 154.82 227.51 158.27 223.62C161.18 220.36 165.47 216.03 168.71 211.46C171.12 213.58 173.57 215.65 176.05 217.68C172.64 221.44 169.67 226.03 167.11 229.19C164.03 233.02 161.01 236.91 157.91 240.72C156.75 242.13 155.59 243.36 154.62 244.67C151.45 241.87 148.39 238.95 145.53 235.92ZM133.39 219.98C134.1 219.62 134.78 219.08 135.54 218.46C138.42 216.12 140.5 212.63 143.35 210.14C145.3 208.44 149.32 205.54 151.63 202.37C154.45 202.86 157.3 203.27 160.18 203.59C160.28 203.7 160.38 203.82 160.5 203.93C161.53 204.93 162.6 205.88 163.65 206.86C163.62 206.9 163.59 206.94 163.57 206.98C160.55 211.23 157.37 215.38 154.06 219.41C150.63 223.58 145.49 227.5 142.12 232.13C138.78 228.23 135.81 224.18 133.39 219.98ZM126.61 195.08C129.06 196.18 131.66 197.2 134.46 198.12C137.78 199.22 141.18 200.14 144.63 200.94C142.9 202.7 141.01 204.33 139.28 206.07C137.11 208.26 135.32 210.62 133.58 213.15C132.88 214.17 132.04 215.16 131.37 216.23C128.07 209.47 126.25 202.38 126.61 195.08ZM102.96 140.77C107.74 143.57 112.91 145.81 117.95 147.58C118.49 153.03 120.4 158.56 121.7 163.7C122.82 168.12 123.62 173.45 125.4 178.09C121.92 176.1 118.64 173.76 115.65 170.96C109.09 164.81 105.47 152.99 102.96 140.77ZM123.42 72.54C149.64 53.31 182.03 43.68 212.73 34.36C243.71 28.347 275.26 23.477 306.86 26.357C323.66 27.887 349.37 33.3 355.82 51.55C361.67 68.13 343.03 84.33 331.61 92.84C305.36 112.42 272.21 122.16 240.86 129.83C210.6 137.25 179.17 141.28 148.03 138.69C131.67 137.33 105.53 132.39 98.51 114.91C98.41 114.65 98.33 114.39 98.24 114.13C97.94 112.62 97.6301 111.19 97.3101 109.88C97.2901 109.79 97.26 109.7 97.23 109.61C95.79 94.5 112.94 80.23 123.42 72.54ZM362.68 120.31C360.56 123.53 358.18 126.56 355.58 129.44C354.86 127.08 354.09 124.76 353.47 122.48C351.63 115.7 350.14 108.37 347.78 101.56C355.1 95.5201 361.18 88.8 365.4 81.36C368.91 95.12 370.02 109.14 362.68 120.31ZM321.42 172.93C340.02 184.49 398.49 230.52 388.13 256.95C387.97 257.25 387.82 257.56 387.69 257.89C387.62 258.06 387.55 258.24 387.48 258.41C384.24 264.84 376.58 269.98 362.76 272.98C334.32 279.15 301.63 266.95 275.5 257.06C242.97 244.76 210.71 227.14 183.75 204.56C214.38 203.89 246.14 196.45 273.21 189.18C288.51 185.07 304.85 179.52 320.32 172.12C320.65 172.41 321.01 172.68 321.42 172.93ZM355.6 306.65C357.75 301.41 360.96 295.09 362.12 289.05C366.9 288.34 371.54 287.21 375.94 285.58C373.28 291.05 370.35 296.42 366.96 301.66C363.39 307.17 358.52 310.99 352.88 313.58C353.89 311.29 354.7 308.86 355.6 306.65ZM334.54 305.05C336.34 300.47 339.03 295.01 339.99 289.7C345.78 290.11 351.52 290.13 357.1 289.64C355.11 293.76 353.74 298.41 352.02 302.26C350.04 306.69 346.59 311.37 345.29 316.23C340.3 317.52 334.95 318.11 329.49 318.23C331.83 314.16 333.07 308.79 334.54 305.05ZM311.26 301.89C312.78 297.13 315.65 291.47 316.36 286.1C322.15 287.4 328.07 288.45 333.98 289.13C332.21 292.93 331.04 297.23 329.63 300.78C327.69 305.63 323.46 312.32 322.79 318.17C317.31 317.94 311.83 317.33 306.61 316.55C309.21 312.38 309.93 306.03 311.26 301.89ZM291 299.07C293.03 293.73 296.12 286.96 297.05 280.87C301.7 282.34 306.54 283.73 311.51 284.97C309.15 288.85 307.87 293.79 306.36 297.72C304.58 302.36 300.67 309.88 301.14 315.66C296.96 314.93 293.03 314.14 289.49 313.41C288.08 313.12 286.69 312.78 285.29 312.46C287.55 308.09 289.4 303.29 291 299.07ZM271.69 293.81C274.07 287.59 277.42 281.2 279.46 274.69C280.01 274.9 280.57 275.12 281.12 275.33C284.74 276.7 288.59 278.09 292.63 279.44C289.32 283.79 288.22 290.68 286.63 295.37C284.93 300.39 280.96 305.59 279.15 310.95C274.77 309.81 270.43 308.52 266.12 307.11C268.95 303.42 270.09 297.96 271.69 293.81ZM253.91 285.69C256.61 280.17 260.11 273.93 261.99 267.67C266.28 269.48 270.59 271.24 274.92 272.93C272.4 277.32 270.71 282.3 268.78 286.91C266.54 292.26 261.9 299.16 261.26 305.46C256.5 303.78 251.78 301.96 247.11 300.02C250.14 295.77 251.93 289.74 253.91 285.69ZM234.04 271.89C236.43 267.96 240.47 263.62 242.75 259.05C247.7 261.41 252.69 263.68 257.72 265.86C254.01 270.94 251.39 277.32 248.66 282.62C246.52 286.81 242.43 292.1 240.71 297.26C235.47 294.94 230.28 292.47 225.16 289.88C228.23 284.01 230.62 277.52 234.04 271.89ZM201 276.66C204.08 271.51 206.15 264.85 208.62 260.23C210.93 255.91 215.04 251.01 217.72 246.04C224.34 249.81 231.1 253.35 237.94 256.72C234.49 260.43 231.76 265.64 229.43 269.19C226.08 274.29 221.69 280.53 219.38 286.9C213.16 283.62 207.03 280.19 201 276.66ZM187.34 249.94C190.74 245.93 196.66 240.79 200.14 235.29C204.1 237.89 208.13 240.39 212.2 242.81C209.34 246.62 207.19 251.45 205.2 254.94C202.44 259.76 197.51 266.66 195.1 273.16C193.65 272.29 192.19 271.41 190.75 270.53C186.87 268.16 182.51 265.42 177.93 262.36C181.67 258.77 184.54 253.23 187.34 249.94ZM181.6 222.1C185.88 225.41 190.24 228.61 194.7 231.67C193.98 232.71 193.25 233.77 192.43 234.78C189.43 238.5 186.09 241.95 182.99 245.59C179.96 249.14 175.83 254.19 173.23 259.16C168.54 255.88 163.71 252.29 159.03 248.43C163.47 245.14 167.12 239.39 170.13 235.67C173.21 231.84 176.3 228.03 179.51 224.31C180.18 223.54 180.88 222.82 181.6 222.1ZM198.76 152.92C199.45 157.23 199.51 161.78 199.92 166.04C200.41 171.22 202.17 176.39 203.31 181.46C203.77 183.47 203.9 185.29 204.16 187C197.06 187.6 189.96 187.97 182.87 188.09C182.31 182.81 180.15 177.17 179.23 172.64C178.25 167.86 178.77 160.47 177.06 154.86C184.3 154.52 191.56 153.84 198.76 152.92ZM224.36 148.77C225.46 154.77 227.52 161.03 228.16 166.36C228.77 171.4 228.78 177.95 229.87 183.8C223.54 184.85 217.18 185.7 210.8 186.38C210.97 179.08 206.6 170.01 205.79 163.86C205.45 161.27 205.38 156.35 204.44 152.14C211.16 151.17 217.82 150.02 224.36 148.77ZM248.64 143.64C249.52 149.15 251.03 154.66 252.13 159.89C253.46 166.22 253.47 172.53 254.52 178.7C248.87 180.1 243.18 181.37 237.44 182.46C236.92 175.6 235 168.31 233.98 162.19C233.29 158.02 232.67 152.39 231.05 147.46C233.29 147 235.53 146.54 237.74 146.07C241.02 145.38 244.68 144.57 248.64 143.64ZM272.63 137.28C273.6 143.09 275.19 148.95 276.08 154.56C276.92 159.8 276.69 166.21 277.42 172.12C271.76 173.98 266.03 175.69 260.25 177.23C257.99 165.65 257.18 153.69 253.8 142.39C259.65 140.94 266 139.25 272.63 137.28ZM296.04 129.47C296.6 135.09 298.35 141 299.01 146.02C299.71 151.42 299.31 158.1 300.8 163.71C295.52 165.81 290.27 167.72 285.17 169.5C284.74 164.96 283.64 160.34 283.02 156.32C282.03 149.86 280.76 142.25 278.08 135.62C283.96 133.79 290 131.74 296.04 129.47ZM319.14 119.55C319.79 124.75 320.99 129.97 321.75 134.99C322.59 140.47 322.61 147.21 324.44 152.83C318.79 155.88 312.95 158.63 307.08 161.12C306.91 155.76 305.4 149.97 304.73 145.25C303.99 140.02 303.53 133.04 301.38 127.41C307.4 125.02 313.37 122.4 319.14 119.55ZM343.54 104.88C344.07 108.9 345.04 112.9 345.87 116.89C346.98 122.27 347.93 129.14 349.72 135.32C344.03 140.53 337.61 145.13 330.79 149.23C330.25 145.01 328.96 140.72 328.3 136.78C327.25 130.47 326.29 123.37 323.87 117.14C330.89 113.44 337.54 109.36 343.54 104.88ZM156.5 187.28C156.04 182.37 153.81 177.41 152.51 172.73C150.94 167.08 150.25 160.09 148.12 154.17C155.6 154.96 163.17 155.23 170.78 155.08C170.58 160.44 172.01 166.68 172.69 171.1C173.44 176 173.85 182.44 175.26 188.13C172.12 188.11 168.98 188.06 165.84 187.94C162.75 187.83 159.63 187.61 156.5 187.28ZM132.57 181.6C132.33 176.06 129.72 170.62 128.22 165.28C126.86 160.43 126.02 154.81 124.44 149.64C124.72 149.73 125 149.81 125.28 149.89C130.99 151.49 136.81 152.68 142.71 153.51C142.35 158.34 143.8 163.5 144.88 168.08C146.15 173.47 147.05 180.44 149.25 186.27C143.52 185.27 137.89 183.77 132.57 181.6ZM438.51 343.47C439.76 356.28 439.22 369.21 432.73 378.89C432.66 376 432.44 373.09 432.39 370.27C432.29 364.12 432.26 357.61 430.96 351.49C433.68 348.99 436.22 346.33 438.51 343.47ZM390.77 385.66C390.42 392.97 389.48 400.39 389.63 407.73C383.47 410.01 377.12 411.93 370.71 413.56C370.74 402.32 371.92 390.7 370.17 379.67C377.16 378.07 384.08 376.16 390.77 373.87C390.72 377.81 390.96 381.8 390.77 385.66ZM411.3 365.11C411.31 371.77 411.65 378.47 411.01 385.17C410.64 389.02 409.8 393.78 409.84 398.29C405.42 400.88 400.78 403.17 395.98 405.21C396.4 398.7 396.48 392.15 396.58 385.66C396.65 381.48 396.52 376.6 395.44 372.2C400.95 370.13 406.27 367.78 411.3 365.11ZM427.5 370.27C427.51 375.14 426.85 380.21 427.42 385.03C424.46 387.95 421.26 390.62 417.87 393.07C417.78 389.07 417.55 385.12 417.75 381.76C418.11 375.75 418.62 368.27 416.56 362.14C420.38 359.84 423.99 357.33 427.36 354.6C427.19 359.82 427.49 365.11 427.5 370.27ZM342.53 402.87C342.34 396.91 342.43 390.68 341.79 384.62C349.5 383.64 357.41 382.37 365.29 380.74C364.86 385.82 365.05 391 365.03 396.04C365.02 402.43 364.09 408.77 364.32 415.1C357.17 416.72 350.02 418.03 343.08 419.12C343.28 413.72 342.69 408.2 342.53 402.87ZM336.6 398.83C336.56 405.65 335.97 413.07 336.63 420.09C334.36 420.42 332.12 420.73 329.91 421.02C325.48 421.61 321.02 422.1 316.53 422.51C317.91 416.38 317.24 409.2 317.58 403.25C317.9 397.95 318.17 392.35 317.44 386.99C323.57 386.56 330.05 386 336.73 385.24C336.47 389.75 336.62 394.32 336.6 398.83ZM292.76 423.81C293.68 417.9 293.01 411.36 293.48 405.66C293.96 399.79 295.34 393.91 294.58 388.19C298.33 388.04 301.93 387.87 305.3 387.71C307.68 387.59 310.15 387.45 312.68 387.3C312.58 392.62 312.64 397.96 312.37 403.25C312.05 409.39 310.27 416.64 311.35 422.93C305.18 423.4 298.98 423.69 292.76 423.81ZM274.95 406.11C275.24 400.41 275.67 394.49 275.39 388.67C280.66 388.63 285.76 388.51 290.61 388.34C289.73 394.12 288.66 399.86 287.91 405.66C287.2 411.06 286.2 417.86 286.79 423.87C282.64 423.87 278.5 423.79 274.35 423.63C274.92 417.83 274.66 411.82 274.95 406.11ZM251.46 406.34C251.93 400.51 252.83 394.14 252.18 388.14C258.37 388.49 264.48 388.64 270.44 388.67C270.21 393.06 270.18 397.48 269.98 401.83C269.66 408.72 268.52 416.21 268.84 423.35C262.75 423 256.68 422.47 250.64 421.75C251.47 416.73 251.07 411.26 251.46 406.34ZM230.27 404.95C230.55 398.76 231.24 392.32 230.7 386.08C236.29 386.87 241.94 387.45 247.56 387.85C246.52 393.91 246.56 400.4 246.08 406.34C245.7 411.06 244.65 416.19 244.91 421.03C239.93 420.33 234.98 419.49 230.07 418.53C230.5 414.04 230.07 409.3 230.27 404.95ZM209.84 400.81C209.55 394.64 209.38 387.91 208.34 381.54C214.4 383.23 220.69 384.53 227.09 385.55C225.77 391.87 225.69 398.61 225.36 404.95C225.16 408.94 224.51 413.25 224.57 417.4C222.19 416.88 219.82 416.34 217.47 415.75C215.05 415.15 212.6 414.47 210.14 413.69C210.61 409.46 210.04 404.94 209.84 400.81ZM190.2 404.5C190.54 398.79 189.73 392.87 189.49 387.24C189.31 383.23 189.64 378.88 189.58 374.63C194.06 376.77 198.79 378.61 203.71 380.17C203.23 385.87 203.95 391.8 204.34 397.39C204.66 401.88 204.2 406.88 204.36 411.68C199.39 409.78 194.55 407.42 190.2 404.5ZM329.08 479.81C323.66 473.89 318.25 468.11 313.24 461.9C316.83 457.22 320.25 452.45 323.49 447.6C326.66 452.21 330.87 456.4 334.45 460.21C338.26 464.28 342.31 469.64 346.79 473.96C343.92 478.86 340.69 483.65 337.19 488.33C334.68 485.13 331.29 482.23 329.08 479.81ZM323.83 504.34C320.1 499.03 313.97 494.47 309.77 489.82C306.58 486.3 303.6 481.66 300.27 477.61C303.88 473.53 307.37 469.38 310.72 465.14C312.84 470.17 316.12 474.64 319.56 479.07C322.52 482.88 325.76 486.44 328.9 490.1C330.13 491.53 331.2 493.09 332.37 494.49C329.64 497.84 326.78 501.13 323.83 504.34ZM346.86 441.05C349.76 443.67 353.28 448.35 357.22 450.51C355.58 455.99 353.39 461.38 350.75 466.67C347.55 463.42 343.99 460.43 341.02 457.51C336.39 452.95 331.69 447.39 326.4 443.13C327.88 440.8 329.33 438.45 330.72 436.09C334 435.75 337.3 435.36 340.62 434.92C342.52 437.13 344.73 439.13 346.86 441.05ZM440.61 393.25C460.06 374.76 453.82 342.26 450.01 317.44C451.25 292.97 422.5 275.99 400.42 267.95C423.77 234.28 365.98 184.18 335.95 163.77C350.39 155.15 363.36 144.6 373.03 131.66C391.59 106.84 379.38 75.6 371.05 48.83C367.2 28.517 343.58 18.287 326 13.707C288.18 3.85697 246 11.277 209.31 21.977C171.95 30.077 77.4499 57.32 82.6599 111.59C82.6299 112.31 82.6999 113.06 82.8899 113.86C82.9399 114.02 82.97 114.19 83.01 114.36C83.14 115.14 83.27 115.93 83.44 116.73C83.69 117.96 84.0199 119.13 84.4099 120.28C90.5999 147.31 94.0099 171.14 112.65 186.54C106.93 217.06 128.88 240.82 150.4 259.8C161.92 269.96 174.56 279.1 187.92 287.29C172.36 296.66 157.64 310.33 155.16 326.46C154.69 327.46 154.45 328.66 154.55 330.08C157.18 364.33 154.13 394.92 180.28 415.18C148 442.77 114.89 475.19 103.12 517.16C99.6801 529.43 100.62 543.48 107.07 553.98C107.38 554.69 107.81 555.39 108.39 556.06C108.53 556.21 108.66 556.38 108.8 556.54C109.5 557.47 110.24 558.37 111.04 559.22C126.15 577.73 143.07 605.91 168.46 608.35C203.19 611.69 236.19 592.35 264.2 574.09C309.13 544.79 376.49 488.35 375.75 427.82C399.8 421.1 422.68 410.29 440.61 393.25Z" fill="#2D2D2C"/>
<path d="M168.28 130.19C203.27 131.66 245.37 125.34 275.62 107.43C276.5 106.91 275.89 105.66 274.95 105.84C222.12 116.1 159.82 139.57 109.29 108.79C108.84 108.51 108.3 109.06 108.57 109.51C119.81 128.32 148.7 129.37 168.28 130.19Z" fill="#2D2D2C"/>
<path d="M288.15 104.37C291.35 103.34 293.66 102.21 295.8 99.5999C296.25 99.0399 296 98.11 295.18 98.12C291.41 98.17 288.48 99.2299 284.96 100.57C284.14 100.89 279.79 102.98 281.41 104.56C283.26 106.38 286.08 105.03 288.15 104.37Z" fill="#2D2D2C"/>
<path d="M222.02 212.15C250.7 247.1 324.76 270.64 368.58 261.03C369.49 260.83 369.51 259.36 368.58 259.17C344.3 254.35 319.98 253.26 295.93 246.45C268.82 238.78 246.62 225.24 222.6 211.39C222.1 211.11 221.68 211.74 222.02 212.15Z" fill="#2D2D2C"/>
<path d="M307.23 359.92C308.37 359.68 307.98 358.13 306.98 358.03C264.06 353.61 222.11 358.32 185.65 330.92C185.27 330.64 184.89 331.17 185.06 331.51C202.22 366.78 276.22 366.2 307.23 359.92Z" fill="#2D2D2C"/>
<path d="M313.82 358.54C317.11 360.3 320.81 359.76 324.42 359.43C328.31 359.07 331.78 358.24 335.01 355.98C335.55 355.6 335.37 354.75 334.67 354.73C331.47 354.61 328.55 355.06 325.41 355.67C321.63 356.41 317.58 355.93 313.98 357.31C313.47 357.51 313.26 358.25 313.82 358.54Z" fill="#2D2D2C"/>
<path d="M397.9 342.11C407.84 339.59 426.22 331.08 425.14 318.48C425.09 317.93 424.34 317.42 423.91 317.97C419.96 322.96 416.62 327.8 411.36 331.57C406.69 334.92 401.69 337.37 397.34 341.14C396.89 341.54 397.37 342.24 397.9 342.11Z" fill="#2D2D2C"/>
<path d="M162.4 539.62C166.24 540.85 174.53 538.05 174.6 533.35C174.61 532.9 174.3 532.57 173.89 532.42C171.79 531.68 170.47 532.55 168.64 533.55C166.5 534.7 164.03 535.15 161.98 536.4C160.65 537.21 160.95 539.16 162.4 539.62Z" fill="#2D2D2C"/>
<path d="M145.35 433.6C145.66 433.1 144.97 432.6 144.56 432.99C120.53 455.91 97.83 488.34 93.19 521.76C93.16 522 93.4801 522.1 93.5701 521.86C99.3801 504.89 106.5 488.97 116.15 473.83C125.07 459.83 136.62 447.7 145.35 433.6Z" fill="#2D2D2C"/>
<path d="M153.93 422.36C151.71 424.48 149.8 426.96 147.86 429.37C147.75 429.5 147.85 429.77 148.05 429.69C151.12 428.49 153.25 425.61 154.45 422.66C154.58 422.35 154.14 422.16 153.93 422.36Z" fill="#2D2D2C"/>
<path d="M358.57 164.32C370.44 177.41 383.77 188.64 394.58 202.77C405.91 217.57 409.15 232.73 413 250.38C413.08 250.77 413.7 250.77 413.78 250.38C421.36 217.24 382.96 180.59 358.92 163.87C358.64 163.67 358.36 164.09 358.57 164.32Z" fill="#2D2D2C"/>
<path d="M166.92 288.27C154.77 275.56 140.34 265.62 128.76 252.18C114.49 235.59 107.78 216.08 101.26 195.6C101.19 195.4 100.87 195.43 100.88 195.66C102.82 233.4 133.53 271.96 166.13 289.29C166.78 289.64 167.43 288.81 166.92 288.27Z" fill="#2D2D2C"/>
<path d="M85.0702 71.9599C130.85 18.5469 205.01 10.207 270.31 2.88699C270.79 2.82699 270.82 2.12697 270.31 2.11697C232.8 1.01697 193.81 6.81696 158.74 20.287C133.99 29.797 96.3301 46.0099 84.7301 71.6999C84.6401 71.9099 84.9002 72.1599 85.0702 71.9599Z" fill="#2D2D2C"/>
<path d="M277.23 1.99704C280.1 1.69704 282.85 2.20702 285.69 2.16702C286.03 2.15702 286.21 1.65704 285.88 1.49704C283.12 0.187037 279.87 0.347051 277.14 1.63705C276.97 1.71705 277.04 2.01704 277.23 1.99704Z" fill="#2D2D2C"/>
<path d="M352.28 512.24C316.01 550.14 272.68 586.4 224.06 607.03C223.84 607.12 224 607.41 224.2 607.38C251.31 602.74 275.25 581.62 296.88 565.87C317.61 550.77 338.45 534.15 353.03 512.82C353.35 512.36 352.65 511.85 352.28 512.24Z" fill="#2D2D2C"/>
<path d="M367.7 490.73C363.54 496 359.3 501.57 356.82 507.85C356.64 508.29 357.25 508.52 357.54 508.27C362.68 503.8 365.96 497.39 368.42 491.15C368.58 490.76 367.96 490.4 367.7 490.73Z" fill="#2D2D2C"/>
<path d="M458.31 324.8C458.21 324.47 457.67 324.53 457.69 324.89C458.41 338.74 461.03 352.26 460.13 366.19C458.78 387.31 444.61 400.57 427.79 411.44C427.31 411.74 427.72 412.4 428.22 412.18C465.03 395.95 468.31 360.09 458.31 324.8Z" fill="#2D2D2C"/>
</svg>
