<svg width="573" height="663" viewBox="0 0 573 663" fill="none" xmlns="http://www.w3.org/2000/svg">
<path d="M345.38 78.85C348.37 75.89 351.53 73.01 351.89 68.45C351.92 67.97 351.33 67.84 351.03 68.1C347.75 70.87 346.56 74.8801 345.02 78.6401C344.93 78.8501 345.24 79 345.38 78.85Z" fill="#2D2D2C"/>
<path d="M508.78 82.81C508.73 83.44 509.71 83.5499 509.86 82.9499C515.54 61.3699 512.39 4.81998 482.73 0.519983C482.47 0.489983 482.29 0.819934 482.54 0.969934C508.96 16.4999 510.83 55.3 508.78 82.81Z" fill="#2D2D2C"/>
<path d="M222.6 611.15C217.52 613.89 215.02 619.81 214.47 625.27C213.82 631.71 217.56 637.27 223.45 639.57C229.8 642.06 239.85 638.95 242.67 632.53C242.93 631.94 243.15 631.35 243.33 630.75C246.31 625.35 243.54 618.97 239.96 614.59C235.68 609.34 228.49 607.97 222.6 611.15Z" fill="#2D2D2C"/>
<path d="M81.1101 318.31C84.3401 299.77 73.3502 281.09 56.6902 273.08C39.1302 264.65 17.63 271.59 6.28001 286.98C-0.859994 296.67 -1.18982 307.57 2.71018 317.06C4.42018 324.02 7.79042 330.91 12.7004 336.92C21.3804 347.55 34.34 354.67 48.3 352.7C64.88 350.36 78.3301 334.19 81.1101 318.31Z" fill="#2D2D2C"/>
<path d="M164.43 586.98C158.01 580.56 144.78 585.76 145.82 595.33C146.43 600.86 150.58 605.58 156.46 605.58C161.25 605.58 166.35 602 167.16 597.12C167.35 595.98 167.38 594.86 167.26 593.79C167.2 591.31 166.32 588.86 164.43 586.98Z" fill="#2D2D2C"/>
<path d="M143.78 627.56C138.54 627.95 133.89 630.54 131.32 635.25C128.41 640.57 128.83 646.65 129.85 652.41C130.29 654.92 132.05 656.86 134.26 658C136.34 660.45 139.18 662.24 142.33 662.72C153.92 664.49 166.36 652.88 162.64 640.96C160.24 633.29 152 626.94 143.78 627.56Z" fill="#2D2D2C"/>
<path d="M67.8799 563.54C46.0999 574.07 44.9899 598.77 57.3199 614.55C59.8599 618.25 63.1903 621.56 66.7203 624.05C81.5603 634.55 100.82 630.69 111.54 616.58C121.38 603.63 121.47 585.51 112.06 572.28C101.42 557.34 83.4399 556.02 67.8799 563.54Z" fill="#2D2D2C"/>
<path d="M132.46 308.19C105.01 353.43 76.6597 399.58 54.5497 447.69C54.2897 448.25 55.0698 448.73 55.3798 448.17C81.5398 402.05 110.41 356.53 133.37 308.72C133.66 308.11 132.81 307.59 132.46 308.19Z" fill="#2D2D2C"/>
<path d="M569.47 413.16C569.55 413.45 569.92 413.52 570.12 413.33C572.71 410.87 572.9 404.88 570.26 402.4C569.95 402.11 569.4 402.22 569.29 402.65C568.89 404.29 569.16 405.79 569.25 407.45C569.37 409.38 569.02 411.25 569.47 413.16Z" fill="#2D2D2C"/>
<path d="M221.43 282.99C263.86 218.74 299.38 150.01 341.65 85.66C342.1 84.97 341.03 84.38 340.57 85.02C320.08 113.56 301.85 143.85 283.68 173.89C262.13 209.56 239.03 245.1 220.81 282.63C220.6 283.04 221.17 283.38 221.43 282.99Z" fill="#2D2D2C"/>
<path d="M510.99 125.78C504.32 164.44 503.99 204.67 501.3 243.75C498.71 281.28 497.47 319.26 493.34 356.65C493.27 357.33 494.39 357.47 494.52 356.82C501.26 322.28 501.72 286.13 504.05 251.13C506.83 209.48 511.01 167.63 511.79 125.88C511.8 125.43 511.07 125.31 510.99 125.78Z" fill="#2D2D2C"/>
<path d="M569.52 419.12C565.54 445.91 564.78 473.32 562.91 500.32C560.89 529.36 558.47 558.36 557.01 587.42C556.98 588.01 557.97 588.15 558.05 587.56C565.8 532.59 570.1 474.73 570.18 419.21C570.18 418.85 569.58 418.74 569.52 419.12Z" fill="#2D2D2C"/>
<path d="M496.75 641.36C365.22 603.54 230.83 575.4 98.1803 541.78C97.5203 541.61 97.2501 542.61 97.9001 542.8C164 562.33 231.52 577.45 298.41 593.95C364.4 610.23 430.5 626.05 496.52 642.19C497.06 642.33 497.28 641.52 496.75 641.36Z" fill="#2D2D2C"/>
<path d="M540.36 417.24C537.4 469.73 534.42 522.21 531.45 574.7C379.67 538.57 228.19 501.23 76.43 465.02C105.62 414.97 134.81 364.93 164 314.88C166.24 311.04 168.51 307.22 170.77 303.4C174.25 304.5 177.72 305.61 181.21 306.7C181.38 306.75 181.54 306.79 181.71 306.83C194.19 310.76 206.7 314.63 219.28 318.29C212.18 331.31 205.13 344.34 198.15 357.38C184.02 383.79 197.58 412.03 215.84 432.14C263.32 484.45 361.66 515.02 429.15 491.23C463.27 479.2 479.56 448.92 480.26 414.12C480.26 413.75 480.24 413.4 480.2 413.06C480.76 403.81 481.29 394.56 481.83 385.3C498.42 389.22 515.02 393.13 531.62 397.06C534.87 397.83 538.12 398.6 541.37 399.37C541.03 405.33 540.7 411.29 540.36 417.24ZM518.67 616.34C515.53 615.59 512.38 614.85 509.24 614.1C509.07 614.06 508.91 614.04 508.75 614.01C506.71 613.52 504.66 613.03 502.62 612.55C503.33 610.31 503.86 607.99 504.49 605.93C506.52 599.24 509.44 591.69 510.28 584.65C516.39 586.11 522.5 587.59 528.61 589.04C525.3 598.14 521.99 607.24 518.67 616.34ZM493.88 610.46C487.87 609.03 481.86 607.6 475.85 606.16C477.15 603 477.49 599.06 478.26 596.01C479.71 590.25 482.48 584.17 483.05 578.13C491.03 580.05 499.01 581.95 506.99 583.86C502.84 587.87 500.62 594.08 498.51 599.24C497.17 602.48 495.14 606.46 493.88 610.46ZM468.46 604.4C460 602.38 451.54 600.37 443.07 598.34C443.18 598.15 443.28 597.94 443.36 597.73C445.24 592.6 446.66 587.45 447.94 582.15C448.85 578.36 450.24 574.29 450.69 570.29C460.47 572.66 470.26 575.05 480.05 577.41C476.82 581.69 474.78 587.19 472.8 591.97C471.41 595.33 468.84 600.13 468.46 604.4ZM435.38 595.53C435.27 595.83 435.23 596.15 435.21 596.47C426.87 594.47 418.52 592.48 410.17 590.48C411.25 587.5 411.89 584.3 412.6 581.24C414.11 574.85 415.61 568.49 416.93 562.07C426.22 564.35 435.53 566.6 444.83 568.86C443.51 571.77 442.68 574.94 441.64 577.97C439.63 583.85 437.53 589.71 435.38 595.53ZM402.56 588.66C393.8 586.56 385.03 584.47 376.26 582.37C378.17 577.79 378.85 572.28 379.77 567.58C380.57 563.43 382.29 558.25 382.58 553.63C393.2 556.25 403.82 558.86 414.45 561.47C411.8 565.62 409.83 569.92 407.95 574.62C406.24 578.93 403.8 583.82 402.56 588.66ZM366.67 580.08C358.77 578.19 350.88 576.3 342.98 574.42C343.97 568.57 345.1 562.86 346.59 557.1C347.42 553.91 349.28 549.46 349.63 545.53C358.83 547.8 368.03 550.06 377.23 552.32C374.68 555.78 373.12 560.74 371.65 564.16C369.61 568.88 367.29 574.72 366.67 580.08ZM335.32 572.59C326.01 570.36 316.7 568.14 307.39 565.92C307.44 565.8 307.47 565.68 307.49 565.56C308.37 560.41 309.15 555.36 310.49 550.29C311.65 545.89 313.12 541.18 313.37 536.56C323.74 539.13 334.1 541.69 344.47 544.25C342.47 547.68 341.37 552.29 340.17 555.32C338.06 560.61 335.8 566.77 335.32 572.59ZM275.48 558.32C276.81 552.75 277.95 547.11 279.34 541.55C280.33 537.61 282.25 533.24 282.75 528.98C291.36 531.11 299.97 533.24 308.58 535.38C304.66 544.09 301 555.12 300.92 564.38C292.45 562.35 283.96 560.34 275.48 558.32ZM268.51 556.66C259.93 554.62 251.35 552.58 242.77 550.54C244.36 545.53 245.2 540.15 246.33 535.07C247.36 530.39 248.94 525.58 249.5 520.75C258.78 523.04 268.05 525.34 277.33 527.64C275.68 530.62 274.75 534.18 273.68 537.29C271.51 543.59 269.57 550.06 268.51 556.66ZM235.34 548.79C227.1 546.83 218.86 544.89 210.61 542.94C212.14 538.33 212.53 533.09 213.24 528.54C214.06 523.27 215.11 517.7 215.24 512.27C224.74 514.62 234.25 516.97 243.75 519.32C241.85 523.75 240.69 528.61 239.25 533.12C237.67 538.05 235.82 543.47 235.34 548.79ZM205.15 526.31C204.24 531.08 202.57 535.95 201.61 540.81C191.93 538.53 182.25 536.25 172.57 533.98C174.47 527.82 176.2 521.65 177.52 515.31C178.18 512.09 179.55 506.98 178.62 503.23C188.8 505.73 198.97 508.25 209.15 510.76C207 515.63 206.14 521.18 205.15 526.31ZM164.81 532.16C158.43 530.67 152.05 529.17 145.67 527.68C147.39 520.96 149.08 514.24 150.59 507.47C151.37 504 152.31 500.43 152.65 496.85C159.6 498.55 166.56 500.26 173.51 501.97C171.65 505.2 171.48 510.21 170.67 513.42C169.09 519.76 166.86 525.94 164.81 532.16ZM138.19 525.93C130.56 524.15 122.94 522.38 115.31 520.61C115.6 520.26 115.82 519.85 115.94 519.43C117.55 513.88 118.01 508.03 118.64 502.3C119.12 497.94 120.2 493.44 120.56 488.98C129.1 491.06 137.63 493.16 146.17 495.26C145.1 498.62 144.48 502.17 143.61 505.54C141.85 512.35 139.94 519.12 138.19 525.93ZM110.11 519.4C103.46 517.86 96.81 516.32 90.16 514.78C92.4 511.07 92.18 505.54 92.66 501.37C93.36 495.3 94.3497 488.65 93.6697 482.44C101.05 484.24 108.43 486.02 115.81 487.82C112.88 494.11 112.57 502.15 111.49 508.61C111.17 510.54 109.37 516.19 110.11 519.4ZM85.6497 500.42C85.0097 504.25 83.1001 509.21 83.7401 513.29C82.8001 513.08 81.8597 512.86 80.9197 512.64C80.4597 512.42 79.9399 512.24 79.3699 512.11C76.0199 511.38 72.6599 510.64 69.3099 509.91C70.1499 499.01 71.2101 488.13 72.2401 477.24C77.5401 478.52 82.8397 479.82 88.1497 481.1C86.8497 487.41 86.6997 494.08 85.6497 500.42ZM332.05 434.57C370.88 445.11 428.25 452.3 465.17 428.57C449.16 506.45 338.17 485.31 283.13 460.17C253.84 446.8 219.18 425.15 209 392.66C205.41 381.2 208.45 370.27 213.59 359.93C235.26 401.58 289.88 423.13 332.05 434.57ZM228.88 356.08C274.61 396.52 320.34 406.1 378.37 417.03C379.78 417.3 379.32 419.29 378.05 419.39C326.18 423.73 256.54 403.49 227.6 357.07C227.08 356.25 228.21 355.48 228.88 356.08ZM406.38 418.84C402.01 423.43 391.98 423.45 387.63 418.87C387 418.21 387.5 417.33 388.31 417.23C391.51 416.82 394.71 416.92 397.91 416.53C400.81 416.18 403.55 416.03 406.2 417.4C406.74 417.68 406.77 418.43 406.38 418.84ZM282.97 237.5C302.65 261.83 337.41 275.59 365.42 285.22C395.39 295.52 437.2 303.96 468.9 292.03C468.22 305.4 467.66 318.78 467.25 332.14C467.01 332.25 466.78 332.38 466.54 332.53C402.99 372.7 301.85 332.59 260.59 277.67C268.05 264.28 275.51 250.89 282.97 237.5ZM302.41 225.47C318.86 231.86 333.06 243.43 349.03 251.1C368.9 260.65 389.79 264.6 410.15 272.47C411.35 272.93 411.2 274.66 409.84 274.73C374.24 276.67 324.82 253.59 301.47 227.07C300.89 226.42 301.43 225.09 302.41 225.47ZM347.26 122.44C373.28 150.64 438.44 176.17 477.29 163.91C476.44 176.3 475.56 188.7 474.68 201.12C474.52 201.14 474.35 201.16 474.18 201.19C421.11 211.75 368.94 189.09 326.2 158.94C332.98 146.71 339.96 134.46 347.26 122.44ZM358.82 109.57C369.45 112.8 378.58 121.5 388.48 126.66C399.81 132.55 413.39 134.98 423.79 142.28C424.54 142.81 424.63 144.29 423.5 144.48C411.48 146.48 399.15 140.36 388.66 134.84C378.07 129.26 363.66 121.9 357.73 110.99C357.34 110.27 357.98 109.32 358.82 109.57ZM451.77 118.41C451.45 118.54 451.13 118.68 450.8 118.8C450.7 118.65 450.61 118.48 450.51 118.32C450.93 118.36 451.35 118.38 451.77 118.41ZM480.7 109.48C480.69 109.73 480.68 109.98 480.66 110.22C480.49 110.02 480.31 109.83 480.13 109.64C480.32 109.59 480.51 109.54 480.7 109.48ZM416.82 33.81C463.95 -8.56996 479.32 51.63 480.87 92.8C449.14 99.86 409.09 89.3 387.52 64.67C396.67 53.58 406.39 43.19 416.82 33.81ZM550.9 386.67C545.77 385.45 540.63 384.23 535.49 383.01C517.89 378.85 500.29 374.7 482.69 370.54C488 277.15 492.3 183.58 496.75 90.18C498.09 62.12 488.25 5.15003 450.67 4.43003C392.34 3.31003 352.16 89.22 326.9 130.74C292.06 188.02 258.5 246.69 226.16 305.69C212.5 301.82 198.84 297.93 185.21 293.92C185.07 293.87 184.92 293.81 184.77 293.76C179.68 292.25 174.59 290.73 169.51 289.2C166.71 288.36 163.51 289.72 162.07 292.22C159 297.6 155.91 302.98 152.79 308.33C122.19 360.89 91.5901 413.45 60.9901 466.01C60.5401 466.79 60.2798 467.64 60.1898 468.51C60.1498 468.75 60.1097 469 60.0897 469.25C58.7497 484.49 57.7099 499.78 56.0599 514.99C55.7599 517.76 58.2396 520.53 60.7796 521.18C65.7896 522.48 70.7899 523.79 75.7899 525.09C76.3699 525.24 76.9198 525.31 77.4398 525.32C219.64 560.68 362.29 594.29 504.87 628.06C505.03 628.1 505.19 628.16 505.36 628.2C510.68 629.45 516.01 630.72 521.34 631.98C525.45 632.95 528.93 630.72 530.32 626.88C535.3 613.17 540.29 599.47 545.27 585.77C545.74 584.47 545.83 583.28 545.65 582.23C548.74 527.23 551.82 472.23 554.92 417.24C555.37 409.39 555.81 401.54 556.25 393.69C556.43 390.57 553.91 387.38 550.9 386.67Z" fill="#2D2D2C"/>
</svg>
