<svg width="476" height="424" viewBox="0 0 476 424" fill="none" xmlns="http://www.w3.org/2000/svg">
<path d="M237.617 340.295C211.647 345.385 180.997 342.215 155.367 336.945C122.307 330.155 107.827 299.665 97.4472 270.695C76.1272 211.135 72.3472 144.945 65.0672 81.895C76.4572 86.625 90.0872 88.765 98.2072 88.775C98.2272 88.775 98.2472 88.775 98.2672 88.775C122.367 97.525 150.587 98.355 175.797 100.215C213.527 102.995 251.637 103.105 289.327 99.695C307.077 98.085 334.947 93.755 353.117 83.635C346.177 128.445 340.507 173.375 330.797 217.785C318.547 273.815 300.427 327.985 237.617 340.295ZM319.847 305.075C337.737 302.885 434.417 327.435 406.757 347.525C370.857 373.615 312.727 376.225 269.677 380.145C208.637 385.705 146.447 385.475 85.9572 374.955C67.1672 371.685 -2.31281 361.135 26.6772 332.375C43.2372 315.935 71.2472 306.215 94.3272 303.935C122.297 353.095 168.227 360.565 224.607 357.855C266.797 355.825 296.657 335.775 316.507 304.815C317.467 305.115 318.577 305.225 319.847 305.075ZM70.4772 49.725C82.4572 36.925 101.557 30.175 117.767 25.165C142.907 17.415 172.027 18.595 198.087 18.075C229.207 17.455 350.777 11.235 355.297 59.395C356.087 67.715 346.367 73.365 332.157 77.215C331.717 76.615 331.167 76.065 330.477 75.615C297.987 54.065 252.557 52.125 214.847 51.365C175.777 50.575 124.127 52.245 89.6172 72.935C89.4972 73.005 89.4072 73.095 89.2972 73.165C74.8172 70.135 56.5472 64.585 70.4772 49.725ZM434.887 84.955C452.067 100.565 457.817 126.635 458.747 148.805C459.777 173.335 452.777 198.965 436.447 217.615C412.237 245.295 376.147 239.695 345.197 229.575C347.487 220.675 349.607 211.695 351.547 202.645C385.807 229.445 436.387 193.235 439.957 154.085C443.317 117.175 395.567 88.085 366.497 106.195C367.277 98.775 367.997 91.375 368.637 84.005C390.757 72.895 414.477 66.405 434.887 84.955ZM364.057 127.475C375.217 119.735 385.107 115.115 399.417 118.535C416.107 122.535 424.237 138.025 424.047 154.085C423.857 170.305 411.627 183.505 398.137 190.625C382.717 198.765 368.727 193.265 354.987 185.555C358.657 166.325 361.637 146.885 364.057 127.475ZM340.967 245.175C413.387 277.965 476.167 224.605 475.397 148.805C474.777 88.145 426.257 35.725 370.027 66.665C370.057 66.355 370.077 66.045 370.097 65.735C372.757 57.305 370.247 46.895 359.707 34.075C338.817 8.65497 293.217 5.74497 263.357 2.88497C222.717 -1.00503 181.357 0.574971 140.707 3.66497C108.577 6.11497 70.9572 19.905 51.0772 46.475C43.5072 56.585 44.1272 64.665 49.0272 70.945C52.3772 107.415 56.2872 143.855 61.6672 180.085C67.0372 216.235 72.4672 256.355 87.5072 290.275C51.5972 294.345 -24.8228 325.915 9.31719 365.265C31.8672 391.245 89.4272 392.855 120.887 396.485C167.687 401.895 215.297 400.725 262.197 397.215C288.947 395.205 315.917 392.225 342.267 387.135C363.287 383.085 425.377 373.265 430.267 344.265C436.837 305.215 358.977 287.315 325.727 288.175C329.347 280.635 332.497 272.625 335.217 264.225C337.247 257.945 339.137 251.575 340.967 245.175Z" fill="#2D2D2C"/>
<path d="M294.527 280.175C284.257 293.125 272.427 304.245 257.867 312.225C241.087 321.415 222.527 319.785 205.477 326.525C204.857 326.775 204.817 327.585 205.477 327.825C220.727 333.265 242.877 327.225 257.097 320.705C275.517 312.255 289.137 300.425 296.297 281.205C296.657 280.235 295.177 279.345 294.527 280.175Z" fill="#2D2D2C"/>
<path d="M307.757 256.885C304.567 258.515 303.347 262.085 301.947 265.145C300.477 268.365 299.557 271.475 298.677 274.885C298.427 275.885 299.567 276.405 300.287 275.825C303.097 273.555 304.897 271.055 306.457 267.785C308.007 264.575 309.977 261.195 309.307 257.515C309.177 256.805 308.307 256.595 307.757 256.885Z" fill="#2D2D2C"/>
<path d="M181.217 219.785C164.337 221.025 147.077 182.935 160.677 171.645C162.847 169.845 165.527 171.115 165.857 173.795C167.047 183.185 165.857 190.945 171.037 199.695C174.627 205.765 180.787 210.835 182.797 217.725C183.117 218.795 182.257 219.715 181.217 219.785ZM246.727 164.305C252.727 162.855 258.907 167.075 261.537 172.465C264.527 178.575 265.787 184.825 260.877 190.115C260.377 190.655 259.477 190.355 259.277 189.695C257.827 184.825 257.357 179.285 254.817 174.835C252.717 171.155 249.547 168.095 246.497 165.195C246.207 164.925 246.347 164.395 246.727 164.305ZM213.207 259.545C246.197 245.445 295.817 198.785 265.857 159.935C248.487 137.415 218.817 156.775 203.077 175.525C189.337 155.785 162.657 144.185 148.327 172.235C130.177 207.765 175.087 246.175 204.707 258.405C206.877 260.165 209.967 260.925 213.207 259.545Z" fill="#2D2D2C"/>
<path d="M400.407 386.715C363.297 403.255 319.427 409.125 279.417 413.325C239.277 417.535 199.127 417.355 158.897 419.385C158.257 419.415 158.037 420.465 158.737 420.565C199.597 426.505 242.887 423.565 283.767 419.475C324.147 415.425 366.037 409.495 401.237 388.115C402.157 387.555 401.347 386.295 400.407 386.715Z" fill="#2D2D2C"/>
<path d="M39.5373 183.045C39.7773 184.065 41.4373 183.865 41.3773 182.795C39.6173 154.445 33.6173 126.725 30.3173 98.555C27.6673 75.955 23.8473 42.525 44.0573 26.415C44.7973 25.825 43.8573 24.895 43.1173 25.215C21.6773 34.535 21.3873 62.165 22.0473 82.235C23.1573 116.275 31.6873 150.095 39.5373 183.045Z" fill="#2D2D2C"/>
<path d="M388.257 47.855C414.537 38.765 446.057 49.705 459.777 73.955C460.137 74.575 461.317 74.355 461.217 73.565C457.297 42.915 411.067 30.645 387.907 47.025C387.517 47.305 387.737 48.035 388.257 47.855Z" fill="#2D2D2C"/>
<path d="M424.737 373.005C421.687 374.395 419.007 376.485 416.137 378.205C414.817 378.995 413.487 379.795 412.137 380.555C411.177 381.105 410.427 382.075 409.537 382.555C409.227 382.715 409.447 383.135 409.757 383.075C410.967 382.855 411.747 383.225 413.097 382.815C414.737 382.335 416.227 381.735 417.747 380.955C420.927 379.315 423.997 377.185 425.617 373.895C425.927 373.285 425.327 372.735 424.737 373.005Z" fill="#2D2D2C"/>
</svg>
