<svg width="408" height="361" viewBox="0 0 408 361" fill="none" xmlns="http://www.w3.org/2000/svg">
<path d="M57.5099 62.647C59.4899 57.497 61.4498 52.347 63.3898 47.187C78.3598 72.937 96.22 97.127 112.34 122.197C107.84 122.607 103.35 123.007 98.86 123.427C76.67 125.487 52.87 126.047 30.6 130.327C32.17 126.667 33.6799 122.977 35.2099 119.307C43.0199 100.567 50.2599 81.597 57.5099 62.647ZM119.94 29.377C133.15 27.757 146.39 26.307 159.63 24.927C152.72 39.147 146.76 54.027 140.26 68.347C134.08 81.937 127.19 95.907 122.14 110.227C105.76 84.307 88.6898 58.737 71.6698 33.257C81.2798 34.257 114.4 30.047 119.94 29.377ZM318.44 14.567C324.59 14.427 328.35 12.897 331.29 12.507C318.82 38.407 312.28 69.437 305.84 97.697C300.49 87.247 292.99 77.017 288.03 68.467C278.16 51.447 268.89 33.397 257.96 16.937C262.66 16.657 267.36 16.397 272.06 16.157C287.51 15.337 302.98 14.917 318.44 14.567ZM387.94 99.687C365.01 101.097 342.1 102.747 319.2 104.537C329.51 78.807 335.52 50.727 343.18 23.867C358.46 48.887 373.81 73.987 387.94 99.687ZM263.87 238.467C279.08 200.967 299.09 162.227 309.22 122.707C310.2 122.167 311.03 121.407 311.57 120.397C335.7 118.397 359.82 116.247 383.9 113.757C333.09 177.817 285.03 244.067 235.15 308.877C244.83 285.447 254.34 261.947 263.87 238.467ZM119.02 138.697C138.23 199.567 163.27 259.527 187.92 318.777C136.3 260.937 84.69 203.087 33.07 145.247C61.46 144.767 90.2599 141.997 119.02 138.697ZM189.63 78.437C194.38 89.687 198.36 102.897 204.43 114.117C181.09 116.097 157.75 118.117 134.42 120.197C141.92 103.567 148.42 86.407 155.98 69.807C160.81 59.197 166.42 48.557 171.12 37.667C176.99 51.367 183.89 64.837 189.63 78.437ZM214.84 98.617C210.49 88.827 205.58 79.137 201.54 69.557C195.15 54.387 189.53 37.137 180.81 22.797C200.18 20.907 219.59 19.377 239.01 18.097C232.82 45.267 220.54 71.427 214.84 98.617ZM226.61 112.237C235.07 87.007 244.38 61.057 250.72 34.987C256.85 46.217 264.51 57.037 270.64 67.517C278.01 80.127 284.32 93.807 291.36 106.777C269.77 108.557 248.18 110.397 226.61 112.237ZM220.62 238.927C221.59 201.947 223.96 164.577 223.29 127.517C247.69 125.517 272.11 123.617 296.52 121.637C285.69 157.927 266.87 193.837 252.69 228.607C241.76 255.387 230.38 282.077 219.56 308.957C220.38 285.517 220.01 261.867 220.62 238.927ZM204.87 323.677C181.04 261.377 157.47 198.947 132.45 137.127C158.17 134.077 183.8 130.837 209.01 128.697C206.51 193.497 208.51 258.907 204.87 323.677ZM403.67 108.677C404.37 107.637 404.64 106.537 404.57 105.487C404.7 103.447 403.99 101.437 402.43 100.217C391.24 77.707 378.37 56.047 365.73 34.337C361.89 27.747 351.7 -0.032997 341.4 -0.00299696C247.19 0.247003 153.54 9.65699 60.31 22.607C57.74 22.967 56.0399 25.507 55.2199 27.687C41.7299 63.967 28.9498 101.127 12.1698 136.037C10.6798 139.137 10.98 142.217 13.3 144.817C76.96 216.067 140.62 287.317 204.28 358.577C206.66 361.247 212.07 361.527 214.4 358.577C278.82 277.267 343.14 194.857 402.78 109.957C403.12 109.557 403.42 109.137 403.67 108.677Z" fill="#2D2D2C"/>
<path d="M389.98 153.567C340.66 212.617 296.01 275.627 248.87 336.407C248.5 336.887 249.13 337.567 249.54 337.087C299.86 279.237 347.65 217.627 391.34 154.617C391.9 153.807 390.61 152.817 389.98 153.567Z" fill="#2D2D2C"/>
<path d="M40.4699 28.717C22.5499 54.457 10.3499 88.917 0.929905 118.707C0.599905 119.767 2.13991 120.367 2.68991 119.447C19.0999 92.357 31.53 59.047 41.26 29.057C41.42 28.557 40.7299 28.337 40.4699 28.717Z" fill="#2D2D2C"/>
<path d="M44.36 199.777C43.78 199.197 42.9799 200.047 43.4799 200.667C84.5199 251.037 126.51 301.557 170.83 349.067C171.38 349.657 172.44 348.867 171.96 348.197C134.34 295.697 89.85 245.587 44.36 199.777Z" fill="#2D2D2C"/>
<path d="M406.76 132.677C400.46 134.707 397.28 142.257 393.9 147.457C393.41 148.207 394.4 149.217 395.15 148.707C400.3 145.167 406.08 139.917 407.88 133.797C408.07 133.147 407.42 132.467 406.76 132.677Z" fill="#2D2D2C"/>
</svg>
