<svg width="226" height="226" viewBox="0 0 226 226" fill="none" xmlns="http://www.w3.org/2000/svg">
<g clip-path="url(#clip0_17_72)">
<path fill-rule="evenodd" clip-rule="evenodd" d="M76.6193 28.2699C75.9916 28.1712 75.3537 28.1561 74.7221 28.2249C62.1041 29.5992 42.9026 36.4065 31.5689 42.5535C30.8176 42.9611 30.1448 43.4991 29.582 44.1425C24.8769 49.5222 20.6086 58.3077 17.2576 66.6102C13.8133 75.1437 10.961 84.1372 9.33569 90.6355C4.04512 111.788 1.13917 137.192 0.764057 161.27C0.745279 162.476 1.02946 163.666 1.59053 164.733C6.10682 173.322 15.804 181.288 25.5229 187.111C35.3515 192.999 46.8114 197.656 56.0594 198.549C58.3018 198.766 60.5164 197.92 62.0439 196.264C64.3596 193.754 68.2912 187.896 71.2634 183.347C72.6115 181.284 73.8735 179.315 74.8763 177.738C75.3646 177.826 75.8591 177.913 76.36 177.999C65.3577 175.219 60.3341 171.125 57.329 167.131C56.7292 166.334 56.9724 165.257 57.8721 164.726C58.7719 164.194 59.9876 164.41 60.5874 165.207C64.721 170.7 74.4084 177.965 113 177.965C151.592 177.965 161.278 170.7 165.413 165.207C166.012 164.41 167.228 164.194 168.128 164.726C169.028 165.257 169.271 166.334 168.671 167.131C165.663 171.128 160.635 175.225 149.616 178.005C150.117 177.92 150.611 177.833 151.098 177.744C152.1 179.321 153.361 181.287 154.707 183.347C157.679 187.896 161.611 193.754 163.926 196.264C165.454 197.92 167.668 198.766 169.911 198.549C179.159 197.656 190.619 192.999 200.447 187.111C210.166 181.288 219.863 173.322 224.38 164.733C224.941 163.666 225.225 162.476 225.206 161.27C224.831 137.192 221.925 111.788 216.635 90.6355C215.009 84.1372 212.157 75.1437 208.713 66.6102C205.362 58.3077 201.093 49.5222 196.388 44.1425C195.826 43.4991 195.153 42.9611 194.401 42.5535C183.068 36.4065 163.866 29.5992 151.248 28.2249C150.617 28.1561 149.979 28.1712 149.351 28.2699C146.257 28.7561 143.592 30.351 141.627 31.8356C139.552 33.4029 137.625 35.3324 135.961 37.2846C133.55 40.114 131.221 43.5557 129.719 46.8164C124.592 46.4078 119.026 46.1823 113 46.1823C106.963 46.1823 101.387 46.4086 96.252 46.8187C94.7508 43.5573 92.4204 40.1146 90.009 37.2846C88.3455 35.3324 86.4184 33.4029 84.3437 31.8356C82.3786 30.351 79.7137 28.7561 76.6193 28.2699ZM75.5029 99.8819C70.3233 99.9065 65.3636 102.13 61.7091 106.065C58.0546 110.001 56.0029 115.328 56.0029 120.882C56.0029 126.435 58.0546 131.763 61.7091 135.698C65.3636 139.634 70.3233 141.857 75.5029 141.882C80.6826 141.857 85.6423 139.634 89.2968 135.698C92.9512 131.763 95.0029 126.435 95.0029 120.882C95.0029 115.328 92.9512 110.001 89.2968 106.065C85.6423 102.13 80.6826 99.9065 75.5029 99.8819ZM136.694 106.065C140.349 102.13 145.309 99.9065 150.488 99.8819C155.668 99.9065 160.628 102.13 164.282 106.065C167.937 110.001 169.988 115.328 169.988 120.882C169.988 126.435 167.937 131.763 164.282 135.698C160.628 139.634 155.668 141.857 150.488 141.882C145.309 141.857 140.349 139.634 136.694 135.698C133.04 131.763 130.988 126.435 130.988 120.882C130.988 115.328 133.04 110.001 136.694 106.065Z" fill="white"/>
</g>
<defs>
<clipPath id="clip0_17_72">
<rect width="225" height="225" fill="white" transform="translate(0.5 0.882263)"/>
</clipPath>
</defs>
</svg>
