<svg width="325" height="320" viewBox="0 0 325 320" fill="none" xmlns="http://www.w3.org/2000/svg">
<path d="M255.65 273.345C183.71 326.675 61.0199 305.775 25.7599 218.845C7.39991 173.585 20.7799 122.715 47.2699 83.925C52.8999 75.685 59.1599 68.305 65.9499 61.725C73.4899 54.665 81.6599 48.355 90.2999 42.895C92.1199 41.775 93.9299 40.635 95.7899 39.595C95.8399 39.565 95.8898 39.535 95.9398 39.505C108.58 32.435 122.23 27.215 136.49 23.525C163.34 17.515 192.05 19.645 219.87 32.725C312.16 76.115 342.17 209.215 255.65 273.345ZM297.45 78.865C271.09 36.925 224.11 6.44498 174.77 1.49498C127.74 -3.24502 81.0999 22.185 48.6999 54.165C32.8599 69.805 20.5599 89.195 13.2599 110.235C2.45991 135.905 -2.14018 163.925 1.66982 191.535C15.7898 293.765 127.99 339.675 219.63 310.785C321.41 278.695 351.93 165.575 297.45 78.865Z" fill="#2D2D2C"/>
<path d="M186.7 182.565C172.58 197.435 145.04 193.085 134.37 176.795C127.87 166.875 131.61 154.195 137.03 144.965C137.59 144.005 138.25 143.205 138.88 142.365C146.71 133.635 157.19 127.885 169.72 130.685C192.3 135.735 202.46 165.975 186.7 182.565ZM185.04 118.005C174.12 111.345 160.7 111.075 148.69 115.185C144.26 116.405 140.14 118.505 136.42 121.295C127.59 127.285 120.85 135.945 118.54 146.205C114.92 155.905 113.71 166.425 115.56 175.675C122.51 210.395 169.63 215.985 194.29 198.675C224.58 177.415 212.77 134.935 185.04 118.005Z" fill="#2D2D2C"/>
<path d="M103.88 275.875C105.22 277.765 109.36 277.235 111.27 276.905C112.73 276.665 114.88 276.235 115.95 275.155C116.6 274.505 117.51 272.585 116.98 271.675C114.28 267.065 102.47 273.895 103.88 275.875Z" fill="#2D2D2C"/>
<path d="M141.85 277.315C140.97 277.095 138.85 277.325 138.35 278.255C135.83 282.965 147.82 289.475 148.77 287.235C149.68 285.105 147.07 281.845 145.79 280.395C144.83 279.275 143.33 277.665 141.85 277.315Z" fill="#2D2D2C"/>
<path d="M137.46 246.925C135.27 246.185 132.23 249.045 130.87 250.425C129.84 251.485 128.35 253.095 128.12 254.605C127.97 255.505 128.36 257.595 129.33 258.015C134.22 260.165 139.77 247.705 137.46 246.925Z" fill="#2D2D2C"/>
<path d="M159.57 252.985C158.19 252.435 156.13 251.685 154.65 252.055C153.77 252.265 151.99 253.435 151.97 254.485C151.88 259.825 165.52 260.135 165.34 257.695C165.18 255.395 161.36 253.695 159.57 252.985Z" fill="#2D2D2C"/>
<path d="M275.08 189.975C273.7 189.425 271.64 188.675 270.16 189.045C269.28 189.255 267.5 190.425 267.48 191.475C267.39 196.815 281.03 197.125 280.86 194.695C280.69 192.385 276.87 190.685 275.08 189.975Z" fill="#2D2D2C"/>
<path d="M173.87 225.375C171.7 224.575 168.59 227.345 167.19 228.695C166.12 229.725 164.6 231.285 164.32 232.785C164.14 233.675 164.47 235.785 165.42 236.235C170.25 238.515 176.16 226.215 173.87 225.375Z" fill="#2D2D2C"/>
<path d="M110.66 241.025C111.46 241.455 113.57 241.755 114.28 240.985C117.89 237.045 107.89 227.775 106.41 229.705C105 231.535 106.73 235.345 107.6 237.075C108.26 238.395 109.31 240.315 110.66 241.025Z" fill="#2D2D2C"/>
<path d="M135.8 216.415C133.54 216.885 132.38 220.895 131.91 222.775C131.56 224.215 131.1 226.355 131.66 227.775C132 228.625 133.39 230.225 134.44 230.095C139.75 229.455 138.19 215.915 135.8 216.415Z" fill="#2D2D2C"/>
<path d="M267.22 110.295C272.52 109.665 270.97 96.115 268.58 96.615C266.32 97.085 265.16 101.105 264.69 102.985C264.34 104.415 263.88 106.565 264.44 107.975C264.77 108.825 266.17 110.425 267.22 110.295Z" fill="#2D2D2C"/>
<path d="M193.38 265.725C191.12 266.195 189.96 270.205 189.49 272.085C189.14 273.515 188.68 275.665 189.24 277.085C189.58 277.925 190.97 279.525 192.02 279.405C197.33 278.765 195.77 265.215 193.38 265.725Z" fill="#2D2D2C"/>
<path d="M160.07 94.4849C161.53 94.2449 163.67 93.8049 164.75 92.7349C165.4 92.0849 166.31 90.165 165.78 89.255C163.08 84.645 151.27 91.4749 152.68 93.4549C154.02 95.3449 158.16 94.8149 160.07 94.4849Z" fill="#2D2D2C"/>
<path d="M197.57 104.805C198.48 102.685 195.86 99.425 194.59 97.975C193.62 96.855 192.13 95.245 190.65 94.895C189.77 94.675 187.65 94.905 187.15 95.835C184.63 100.535 196.61 107.055 197.57 104.805Z" fill="#2D2D2C"/>
<path d="M178.12 75.5949C183.02 77.7449 188.57 65.2749 186.26 64.5049C184.07 63.7649 181.03 66.6249 179.67 68.0049C178.64 69.0649 177.15 70.6749 176.92 72.1749C176.77 73.0849 177.16 75.1749 178.12 75.5949Z" fill="#2D2D2C"/>
<path d="M134.29 82.225C139.18 84.365 144.74 71.905 142.42 71.125C140.23 70.385 137.2 73.255 135.84 74.635C134.8 75.695 133.32 77.295 133.08 78.805C132.94 79.705 133.33 81.795 134.29 82.225Z" fill="#2D2D2C"/>
<path d="M176.35 273.795C174.15 273.055 171.12 275.915 169.76 277.295C168.72 278.355 167.24 279.965 167 281.475C166.86 282.375 167.25 284.465 168.21 284.885C173.1 287.035 178.66 274.575 176.35 273.795Z" fill="#2D2D2C"/>
<path d="M214.14 75.275C213.98 72.975 210.16 71.275 208.36 70.565C206.99 70.015 204.93 69.265 203.45 69.635C202.56 69.845 200.78 71.015 200.77 72.065C200.68 77.405 214.32 77.715 214.14 75.275Z" fill="#2D2D2C"/>
<path d="M159.46 58.605C160.26 59.035 162.36 59.3349 163.08 58.5549C166.69 54.6249 156.69 45.3449 155.2 47.2849C153.79 49.1149 155.53 52.9149 156.4 54.6449C157.06 55.9649 158.11 57.895 159.46 58.605Z" fill="#2D2D2C"/>
<path d="M125.43 56.9849C126.23 57.4149 128.33 57.7149 129.05 56.9349C132.66 52.9949 122.66 43.7249 121.17 45.6649C119.76 47.4949 121.5 51.2949 122.36 53.0249C123.03 54.3449 124.08 56.2749 125.43 56.9849Z" fill="#2D2D2C"/>
<path d="M183.24 47.675C188.54 47.035 186.99 33.485 184.6 33.995C182.34 34.465 181.18 38.475 180.71 40.355C180.36 41.795 179.9 43.935 180.46 45.355C180.8 46.205 182.19 47.805 183.24 47.675Z" fill="#2D2D2C"/>
<path d="M249.12 170.025C249.47 169.175 249.56 167.055 248.71 166.425C244.43 163.225 236.21 174.115 238.29 175.395C240.26 176.615 243.86 174.505 245.49 173.465C246.74 172.675 248.55 171.435 249.12 170.025Z" fill="#2D2D2C"/>
<path d="M278.65 163.225C277.32 162.575 275.32 161.675 273.82 161.925C272.92 162.075 271.06 163.105 270.96 164.155C270.47 169.475 284.05 170.805 284.06 168.365C284.07 166.045 280.39 164.075 278.65 163.225Z" fill="#2D2D2C"/>
<path d="M257.93 135.645C255.63 135.815 253.95 139.645 253.24 141.445C252.7 142.815 251.96 144.875 252.32 146.355C252.54 147.245 253.72 149.015 254.76 149.035C260.11 149.095 260.37 135.465 257.93 135.645Z" fill="#2D2D2C"/>
<path d="M39.15 147.355C44.5 147.425 44.7601 133.785 42.3201 133.975C40.0201 134.145 38.3402 137.965 37.6202 139.765C37.0802 141.145 36.34 143.205 36.71 144.685C36.93 145.565 38.1 147.345 39.15 147.355Z" fill="#2D2D2C"/>
<path d="M287.82 134.715C286.76 132.655 282.59 132.575 280.66 132.615C279.18 132.655 276.99 132.765 275.77 133.675C275.04 134.215 273.85 135.985 274.25 136.965C276.24 141.905 288.93 136.885 287.82 134.715Z" fill="#2D2D2C"/>
<path d="M222.63 131.885C222.04 134.115 225.12 136.945 226.6 138.205C227.72 139.155 229.44 140.525 230.96 140.655C231.86 140.735 233.92 140.195 234.27 139.195C236.06 134.175 223.24 129.525 222.63 131.885Z" fill="#2D2D2C"/>
<path d="M244.53 108.185C242.63 109.505 243.12 113.655 243.42 115.565C243.65 117.025 244.07 119.175 245.14 120.265C245.78 120.925 247.68 121.855 248.6 121.315C253.24 118.675 246.53 106.795 244.53 108.185Z" fill="#2D2D2C"/>
<path d="M111.52 106.105C108.22 110.305 118.91 118.785 120.24 116.745C121.5 114.795 119.48 111.145 118.48 109.495C117.71 108.225 116.52 106.385 115.13 105.775C114.29 105.415 112.17 105.275 111.52 106.105Z" fill="#2D2D2C"/>
<path d="M109.78 83.805C115.09 84.425 116.74 70.875 114.3 70.815C111.99 70.745 109.93 74.385 109.04 76.095C108.36 77.415 107.41 79.3949 107.62 80.8949C107.75 81.7949 108.73 83.685 109.78 83.805Z" fill="#2D2D2C"/>
<path d="M80.9699 96.145C81.0799 98.455 84.8698 100.235 86.6498 100.985C88.0098 101.555 90.05 102.345 91.54 102.015C92.44 101.825 94.24 100.685 94.28 99.635C94.47 94.295 80.8399 93.705 80.9699 96.145Z" fill="#2D2D2C"/>
<path d="M219.43 104.645C220.79 105.215 222.83 106.005 224.32 105.675C225.21 105.475 227.02 104.345 227.06 103.295C227.25 97.955 213.62 97.365 213.75 99.805C213.86 102.115 217.65 103.885 219.43 104.645Z" fill="#2D2D2C"/>
<path d="M82.6698 79.875C87.6698 77.995 82.9499 65.195 80.7499 66.255C78.6599 67.255 78.4899 71.425 78.4899 73.365C78.4799 74.845 78.5398 77.025 79.4198 78.275C79.9498 79.015 81.6898 80.245 82.6698 79.875Z" fill="#2D2D2C"/>
<path d="M263.34 223.925C261.26 224.925 261.09 229.095 261.08 231.035C261.08 232.515 261.13 234.695 262.02 235.945C262.54 236.685 264.28 237.915 265.27 237.545C270.26 235.665 265.54 222.865 263.34 223.925Z" fill="#2D2D2C"/>
<path d="M76.36 131.355C78.58 131.995 81.4799 128.985 82.7799 127.545C83.7599 126.445 85.17 124.755 85.34 123.235C85.43 122.335 84.9498 120.265 83.9598 119.895C78.9698 117.975 74.01 130.685 76.36 131.355Z" fill="#2D2D2C"/>
<path d="M60.5501 110.175C62.0101 109.975 64.1801 109.615 65.2901 108.575C65.9601 107.955 66.93 106.065 66.43 105.135C63.89 100.435 51.86 106.855 53.2 108.895C54.47 110.825 58.6301 110.425 60.5501 110.175Z" fill="#2D2D2C"/>
<path d="M191.27 234.775C191.18 237.085 194.81 239.165 196.52 240.065C197.83 240.745 199.8 241.715 201.31 241.505C202.22 241.385 204.11 240.405 204.23 239.365C204.88 234.055 191.35 232.335 191.27 234.775Z" fill="#2D2D2C"/>
<path d="M108.57 207.095C108.48 209.405 112.11 211.485 113.82 212.385C115.13 213.065 117.1 214.035 118.61 213.825C119.52 213.705 121.41 212.725 121.53 211.685C122.18 206.375 108.65 204.645 108.57 207.095Z" fill="#2D2D2C"/>
<path d="M220.37 255.525C219.8 254.825 217.98 253.705 217.02 254.155C212.16 256.365 217.75 268.815 219.87 267.605C221.88 266.475 221.77 262.285 221.64 260.365C221.55 258.885 221.33 256.695 220.37 255.525Z" fill="#2D2D2C"/>
<path d="M227.93 227.485C226.47 227.695 224.31 228.075 223.21 229.135C222.55 229.765 221.59 231.665 222.1 232.585C224.69 237.255 236.66 230.705 235.29 228.685C234 226.765 229.85 227.215 227.93 227.485Z" fill="#2D2D2C"/>
<path d="M245.86 243.185C245.03 242.825 242.91 242.665 242.25 243.495C238.95 247.685 249.61 256.205 250.95 254.155C252.21 252.215 250.21 248.555 249.2 246.905C248.44 245.635 247.26 243.795 245.86 243.185Z" fill="#2D2D2C"/>
<path d="M246.08 78.605C247.34 76.675 245.34 73.015 244.34 71.355C243.57 70.085 242.4 68.245 241 67.635C240.16 67.275 238.04 67.125 237.39 67.955C234.08 72.145 244.75 80.655 246.08 78.605Z" fill="#2D2D2C"/>
<path d="M221.02 196.175C218.79 196.775 217.86 200.845 217.51 202.755C217.24 204.205 216.9 206.375 217.54 207.755C217.92 208.585 219.42 210.105 220.45 209.905C225.71 208.965 223.38 195.525 221.02 196.175Z" fill="#2D2D2C"/>
<path d="M245.51 206.115C244.36 207.045 242.7 208.475 242.28 209.935C242.03 210.815 242.17 212.935 243.09 213.465C247.69 216.185 254.67 204.465 252.46 203.415C250.38 202.415 247.02 204.905 245.51 206.115Z" fill="#2D2D2C"/>
<path d="M33.71 184.255C33.63 186.575 37.2501 188.655 38.9701 189.545C40.2701 190.235 42.2501 191.205 43.7601 190.995C44.6601 190.875 46.55 189.895 46.67 188.855C47.32 183.545 33.79 181.825 33.71 184.255Z" fill="#2D2D2C"/>
<path d="M63.05 208.405C62.48 207.705 60.6499 206.595 59.6999 207.035C54.8399 209.245 60.42 221.695 62.55 220.495C64.56 219.355 64.45 215.175 64.32 213.245C64.22 211.765 64.01 209.585 63.05 208.405Z" fill="#2D2D2C"/>
<path d="M77.9701 181.565C76.6801 179.655 72.5202 180.095 70.6102 180.365C69.1402 180.585 66.99 180.965 65.88 182.015C65.22 182.645 64.2701 184.545 64.7701 185.465C67.3701 190.135 79.3401 183.595 77.9701 181.565Z" fill="#2D2D2C"/>
<path d="M83.5501 230.645C82.0901 230.855 79.9302 231.235 78.8302 232.285C78.1702 232.915 77.21 234.825 77.71 235.735C80.31 240.405 92.28 233.865 90.91 231.845C89.62 229.925 85.4601 230.365 83.5501 230.645Z" fill="#2D2D2C"/>
<path d="M79.8 252.305C78.34 252.525 76.1901 252.905 75.0801 253.955C74.4201 254.585 73.46 256.495 73.97 257.405C76.57 262.075 88.5299 255.535 87.1699 253.505C85.8699 251.595 81.72 252.035 79.8 252.305Z" fill="#2D2D2C"/>
<path d="M88.5399 196.065C87.6999 195.705 85.5798 195.545 84.9298 196.375C81.6198 200.565 92.29 209.085 93.62 207.035C94.88 205.105 92.8798 201.445 91.8798 199.785C91.1198 198.515 89.9399 196.675 88.5399 196.065Z" fill="#2D2D2C"/>
<path d="M63.7 149.055C61.47 149.655 60.54 153.735 60.19 155.635C59.91 157.085 59.58 159.255 60.22 160.645C60.6 161.465 62.0899 162.985 63.1299 162.795C68.3899 161.855 66.06 148.415 63.7 149.055Z" fill="#2D2D2C"/>
<path d="M88.19 158.995C87.04 159.925 85.37 161.355 84.96 162.815C84.71 163.705 84.8501 165.815 85.7701 166.345C90.3701 169.065 97.34 157.345 95.14 156.295C93.06 155.295 89.7 157.785 88.19 158.995Z" fill="#2D2D2C"/>
<path d="M38.19 212.855C37.04 213.785 35.38 215.215 34.96 216.675C34.71 217.565 34.8501 219.675 35.7701 220.215C40.3701 222.925 47.34 211.205 45.14 210.155C43.06 209.155 39.7 211.645 38.19 212.855Z" fill="#2D2D2C"/>
</svg>
