<svg width="683" height="1008" viewBox="0 0 683 1008" fill="none" xmlns="http://www.w3.org/2000/svg">
<path d="M650.81 537.58C621 536.67 591.68 529.68 561.95 527.48C567.93 520.94 572.65 513.42 575.68 505.31C605.29 509 637.5 517.58 662.2 534.59C660.46 536.61 656.91 537.77 650.81 537.58ZM509.4 530.05C534.41 523.93 557.98 499.45 552.48 473.8C555.97 473.22 559.44 472.5 562.85 471.65C574.84 503.83 542.42 534.87 511.5 537.5C510.8 535.02 510.1 532.54 509.4 530.05ZM508.4 653.84C503.79 639.17 495.28 625.9 481.47 615.52C436.3 581.53 398.41 638.13 390.34 676.54C388.05 690.01 386.69 703.68 385.88 717.41C339.38 720.15 279.39 695.04 244.8 666.42C242.95 664.88 241.3 663.3 239.81 661.69C239.43 661.06 239 660.51 238.47 660.1C220.64 639.12 230.06 612.38 235.94 585.99C239.49 587.46 243.1 588.38 247.17 587.25C255.62 584.91 257.96 569.4 259.83 562.8C261.8 555.83 263.23 548.7 264.65 541.6C265.52 537.24 268.13 530.5 267.1 525.95C265.43 518.61 258.3 517.26 251.61 515.92C254.35 504.68 257.17 493.46 260.14 482.28C265.28 482.38 270.25 482.49 274.99 482.66C283.33 482.95 291.68 483.06 300.02 483.2C300.63 501.24 299.78 520.4 312.39 534.54C325.63 549.37 359.56 542.29 376.65 543.26C397.27 544.43 423.27 544.87 438.35 528.29C448.71 516.9 446.2 496.23 445.32 480.89C456.92 480.44 468.53 479.94 480.14 479.35C483.67 492.23 487.25 505.1 490.86 517.96C485.17 519.87 479.43 522.87 479.84 529.28C480.32 536.57 482.11 543.67 483.8 550.77C486.08 560.4 488.09 571.01 492.71 579.86C495.33 584.88 502.74 583.92 509.03 582.09C511.2 589.73 513.37 597.37 515.56 605.01C517.4 611.42 519.24 617.82 521.09 624.22C524.4 635.7 516.56 645.62 508.4 653.84ZM480.46 756.38C470.53 778.83 459.24 800.75 446.58 821.81C443.95 818.56 440.56 815.82 436.66 813.69C454.14 774.96 471.17 735.79 481.47 694.45C485.45 678.49 489.67 657.37 485.91 639.6C510.89 671.69 495.01 723.49 480.46 756.38ZM412.51 860.6C408.01 858.67 406.14 850.41 405.04 844.1C413.48 842.84 421.02 845.23 428.67 849.23C423.18 856.19 416.8 862.45 412.51 860.6ZM430.91 846.27C422.34 841.73 413.85 839.04 404.43 840.49C404.32 839.83 404.22 839.18 404.11 838.66C403.53 835.71 403.12 832.62 402.62 829.6C414.99 825.31 427.5 828.11 437.29 836.95C435.75 839.36 433.5 842.76 430.91 846.27ZM439.26 833.83C428.71 824.51 415.25 821.62 402.01 825.95C401.42 822.13 400.88 818.3 400.41 814.39C414.23 808.41 435.63 812.92 444.55 825.14C442.79 828.03 441.09 830.97 439.26 833.83ZM478.25 631.5C479.18 632.31 480.05 633.14 480.9 633.98C490.14 658.56 478.11 694.96 471.62 716.32C461.64 749.22 447.52 780.82 433.4 812.1C422.86 807.46 409.92 806.73 400 810.62C395.31 767.83 397.51 720.86 404.4 680.42C411.37 647.19 440.68 598.94 478.25 631.5ZM370.73 936.75C360.9 933.83 349.98 934.85 340.44 938.95C327.42 903.14 314.72 867.22 303.44 830.81C290.84 790.16 277.03 746.28 276.21 703.17C287.96 708.55 300.06 713.1 311.67 717.19C325.15 721.94 339.85 726.64 354.71 729.48C362.84 798.12 369.96 867.55 370.73 936.75ZM349.03 982.86C347.7 981.07 346.47 979.17 345.3 977.23C351.9 971.78 362.18 969.22 370.05 972.13C368.24 986.08 362.53 1001 349.03 982.86ZM370.75 962.57C370.73 964.35 370.63 966.35 370.45 968.45C361.65 965.63 350.81 968.21 343.43 974.04C341.5 970.54 339.74 966.87 338.08 963.14C344.93 954.13 358.85 952.2 370.74 952.54C370.73 955.88 370.79 959.23 370.75 962.57ZM370.74 948.93C358.42 948.61 344.44 950.79 336.5 959.49C334.9 955.76 333.38 952.02 331.83 948.37C342.46 939.73 357.75 936.2 370.73 940.54C370.75 943.33 370.74 946.12 370.74 948.93ZM245.52 685.67C253.91 691.71 263.04 696.91 272.54 701.45C273.02 741.31 285.04 781.37 296.12 819.18C308.13 860.17 322.54 900.41 337.14 940.53C334.75 941.79 332.45 943.24 330.33 944.89C330.13 944.42 329.93 943.94 329.73 943.48C316.93 914.67 305.49 885.27 294.78 855.62C274.72 800.1 258.59 743.22 245.52 685.67ZM204.09 544.21C203.5 543.43 202.76 542.76 201.85 542.26C184.63 526.15 177.94 497.59 188.36 475.77C191.42 476.51 194.54 477.13 197.68 477.7C193.2 494.06 193.29 507.96 201.37 524.24C207.61 536.79 217.13 544.23 229.29 547.74C228.79 549.97 228.32 552.19 227.83 554.42C218.75 553.44 210.73 549.73 204.09 544.21ZM98.3499 577.49C95.1899 578.7 93.0699 579.05 91.6599 578.81C107.05 550.37 141.24 527.63 171.06 515.82C173.29 525.24 177.25 534.21 182.7 542.04C152.65 546.33 126.08 566.82 98.3499 577.49ZM114.38 519.19C127.34 499.09 145.29 482.5 162.76 466.38C166.46 468.33 170.31 470.06 174.34 471.53C168.84 484.36 167.74 498.63 170.29 512.22C140.08 524.08 105.58 546.74 89.3499 575.35C89.4899 572.07 91.6499 567.02 93.1199 562.36C97.9699 546.94 105.66 532.71 114.38 519.19ZM144.93 320.28C157.43 315.6 174.02 318.51 186.92 319.77C203.23 321.71 209.97 322.55 210.63 339.88C211.01 349.8 212.48 358.21 217.95 366.62C230.03 385.21 260.46 382.28 278.73 379.99C290.73 378.48 308.91 378.6 316.18 366.8C322.82 356.03 322.45 317.16 336.74 315.7C353.96 313.94 372.15 314.59 389.46 314.62C407.27 314.66 409.01 339.55 410.97 351.55C414.36 372.22 429.21 378.41 448.35 379.77C466.36 381.05 498.03 385.71 512.74 372.89C530.73 357.19 505 316.52 541.27 315.61C561.9 315.08 606.87 300.78 610.69 330.18C614.11 356.46 608.56 386.75 601.41 413.53C594.31 425.74 583.64 435.44 566.7 440.9C549.56 446.41 528.79 445.45 510.99 446.35C480.43 447.89 449.82 448.44 419.23 448.9C358.43 449.82 297.58 449.72 236.79 448.11C200.41 447.15 159.23 447.33 139.98 418.37C138.68 414.75 137.54 410.93 136.75 406.72C133.35 388.68 134.86 369.44 135.01 351.21C135.12 339.68 131.31 325.39 144.93 320.28ZM123.6 242.2C122.48 239.26 121.7 236.14 121.1 232.93C129.38 238.13 140.53 239.75 150.08 238.13C150.14 243.45 150.27 248.77 150.38 254.08C140.12 253.52 127.28 251.9 123.6 242.2ZM151.57 127.79C151.1 140.31 151.23 152.65 150.84 163.5C149.99 187.12 149.77 210.78 150.01 234.43C140.12 236.23 128.05 234.31 120.35 227.93C119.19 218.21 119.55 207.93 119.36 198.77C119.1 186.35 117.65 174.04 118.05 161.61C118.77 138.48 132.34 131.21 151.57 127.79ZM171.78 91.7399C178.92 56.0499 221.59 47.76 252.06 43.29C254.19 42.98 256.33 42.7299 258.46 42.4499C258.53 63.3899 258.85 84.3299 259.62 105.26C260.14 119.36 257.78 144.79 263.82 160.77C260.23 160.84 256.64 160.85 253.06 160.93C236.74 161.26 198.05 154.38 190.94 174.39C185.01 191.13 180.62 233.97 199.23 246.25C200.09 247.27 201.39 248.01 203.2 248.26C204.4 248.7 205.5 248.81 206.49 248.68C280.44 258.5 357.93 255.17 432.27 254.91C466.96 254.79 502.03 255.05 536.6 251.74C565.72 248.94 564.79 206.98 561.88 184.82C558.27 157.32 531.78 162.19 509.95 161.37C496.75 160.87 483.55 160.56 470.34 160.31C475.54 145.58 473.62 123.22 474.21 110.41C475.31 86.72 475.59 62.99 475.62 39.27C475.95 39.3 476.29 39.3099 476.62 39.3399C509.19 41.9599 554.67 43.3299 574.11 74.1899C592.46 103.32 585.13 151.83 584.98 184.56C584.8 221.99 583.88 259.42 582.72 296.83C571.98 297.57 561.05 299.75 553.3 300.33C538.53 301.42 515.55 298.24 509.88 316.57C507.6 323.94 506.27 331.71 505.5 339.38C503.41 360.1 501.77 364.42 479.71 365.14C465.39 365.6 450.44 366.51 436.29 363.68C423.22 361.08 423.95 337.89 421.21 328.14C417.78 316 408.29 302.57 394.91 300.78C378.59 298.58 361.49 300.56 345.07 301.02C336.8 301.25 330.25 300.82 323.25 305.41C313.05 312.1 311.74 327.73 310.01 338.49C308.79 346.1 307.92 358.57 299.54 362.06C289.89 366.1 275.11 365.98 265.1 366.84C245.52 368.51 226.1 363.2 225.21 339.88C224.97 333.58 225.22 326.42 222.57 320.54C216.49 307.08 199.7 306.71 186.92 305.19C180.94 304.61 173.76 303.72 166.38 303.37C163.55 234.39 158.17 159.76 171.78 91.7399ZM547.24 215.11C530.15 228.09 490.19 224.11 473.86 224.21C438.13 224.43 402.39 224.04 366.67 223.64C332.81 223.25 298.94 222.74 265.08 222.25C245.6 221.96 213.3 225.65 200.72 209.79C200.88 199.34 202.27 188.72 202.97 184.98C205.2 173.09 216.57 176.52 226.63 176.19C262.07 175 297.53 174.72 332.98 174.46C402.65 173.95 473.94 171.04 543.38 177.92C550.85 178.66 549.04 201.68 547.24 215.11ZM207.07 234.21C202.67 232.58 201.06 224.46 200.75 215.18C210.76 224.01 227.55 225.41 242.77 225.59C280.45 226.02 318.13 226.69 355.82 227.15C399.25 227.68 442.71 228.19 486.15 227.75C502.34 227.59 530.23 229.89 546.52 220.08C546.26 221.75 546.03 223.05 545.87 223.82C542.85 239.08 536.04 237.39 522.55 238.24C487.04 240.46 451.33 240.35 415.76 240.37C347.13 240.42 275.26 243.64 207.07 234.21ZM471.96 39.03C471.93 57.65 471.68 76.28 471.14 94.89C470.66 111.18 473.98 142.66 466.54 160.25C438.93 159.79 411.31 159.72 383.71 159.71C345.05 159.69 306.38 160.03 267.73 160.71C260.65 144.34 263.64 115.42 263.07 100.07C262.36 80.7199 262.15 61.3399 262.1 41.9699C293.35 38.0799 325.17 37.1499 356.56 36.3599C395.03 35.3799 433.58 36.11 471.96 39.03ZM626.71 180.54C626.82 191.5 625.89 202.74 625.2 213.69C625.03 216.46 624.73 218.94 624.32 221.17C617.08 224.77 607.56 225.11 599.04 224.83C599.35 206.5 599.57 188.17 599.61 169.84C599.63 161.25 599.88 152.25 599.98 143.12C622.9 144.99 626.47 156.77 626.71 180.54ZM598.72 242.17C598.82 237.59 598.9 233.01 598.98 228.43C607.11 228.64 615.89 228.24 623.24 225.48C619.77 236.56 611.94 239.62 598.72 242.17ZM230.07 544.19C216 539.91 207.28 529.72 201.18 515.11C195.96 502.63 197.68 490.55 201.23 478.29C215.68 480.64 230.77 481.49 245.18 481.92C239.75 502.57 234.73 523.34 230.07 544.19ZM250.76 519.42C257.56 520.74 264.61 522.38 262.63 532.83C261.34 539.62 260 546.38 258.49 553.12C256.56 561.74 254.19 570.44 250.74 578.58C247.55 586.1 241.79 584.75 236.7 582.49C236.76 582.17 236.83 581.86 236.9 581.55C241.14 560.77 245.78 540.06 250.76 519.42ZM327.16 483.46C357.33 483.5 387.49 482.86 417.62 481.88C417.19 492.12 417 515.2 403.7 515.09C393.88 515.01 384.02 515.75 374.21 516.12C362.94 516.54 351.29 517.44 340.07 515.93C330.88 514.69 328.54 495.15 327.16 483.46ZM440.44 515.32C435.84 539.62 403.6 540.04 384.55 539.93C368.4 539.84 352.1 539.44 335.96 539.02C304.05 538.19 304.55 506.91 303.68 483.28C306.67 483.33 309.66 483.44 312.65 483.47C314.46 496.17 315.99 520.41 327.69 527.27C341.33 535.26 364.47 531.06 379.29 530.5C389.28 530.13 412.32 533.46 420.25 525.65C431.09 514.98 431.21 496.01 432.2 481.38C435.33 481.27 438.46 481.15 441.58 481.03C441.92 492.49 442.59 504.01 440.44 515.32ZM500.96 463.56C409 469.03 315.24 473.32 223.34 465.02C191.87 462.17 161.79 455.14 146.17 431C161.21 444.35 183.06 449.31 207.31 450.64C280.81 454.68 354.87 453.52 428.43 452.4C476 451.68 533.15 457.45 578.72 440.66C586.35 437.84 592.4 433.39 597.35 427.92C597.34 427.98 597.32 428.04 597.3 428.1C586.37 464.88 531.44 461.74 500.96 463.56ZM503.27 561.89C504.83 567.41 506.42 572.92 507.98 578.42C505.61 579.05 503.2 579.51 500.65 579.64C495.02 579.91 494.45 575.07 493.12 571.1C490.78 564.13 489.05 556.94 487.31 549.8C485.97 544.26 484.46 538.6 483.77 532.93C482.94 526.24 486.73 523.47 491.87 521.56C495.65 535.01 499.46 548.45 503.27 561.89ZM508.43 526.59C503.92 510.57 499.44 494.54 495.03 478.49C508.85 477.7 522.66 476.82 536.45 475.74C540.61 475.41 544.8 474.95 548.98 474.35C554.36 498.07 531.44 521.02 508.43 526.59ZM663.5 531.12C638.51 514.21 606.66 505.62 576.87 501.81C580.19 490.93 580.44 479.12 576.52 467.25C580.87 465.47 584.99 463.31 588.84 460.79C606.75 470.65 622.91 482.68 638.01 496.46C645.2 503.02 663.94 521.28 663.5 531.12ZM664.12 502.83C647.35 481.69 624.12 464.13 600.58 450.67C605.1 445.51 608.81 439.39 611.36 431.97C620.39 405.66 623.08 376.23 625.21 348.66C626.54 331.38 625.88 313.26 611.18 302.12C607.42 299.27 602.6 297.77 597.29 297.08C597.7 283.69 598.06 270.29 598.38 256.9C598.74 256.88 599.11 256.88 599.49 256.81C613.58 254.27 624.37 254.27 633.03 241.92C644.11 226.11 640.18 198.53 641.29 180.54C643.29 147.91 630.54 130.78 599.91 128.56C599.39 105.42 596.4 82.2399 584.36 63.1199C567.52 36.3899 531.18 30.9899 502.65 27.5099C454.21 21.5799 405.3 20.78 356.56 21.78C320.39 22.52 284.06 24.3999 248.19 29.2399C216.4 33.5199 177.44 43.1099 161.86 74.6899C156.36 85.8399 153.77 99.2099 152.49 113C152.39 113 152.3 113 152.2 113.01C131.34 116.02 116.55 119.82 107.65 140.87C99.3897 160.38 104.47 183.79 104.9 204.29C105.21 219.34 103.73 244.86 115.01 257.01C123.48 266.14 137.99 267.84 150.65 268.61C150.96 280.29 151.36 291.97 151.82 303.65C143.68 304.48 136.04 306.7 130.29 311.59C115.8 323.9 120.51 345.42 120.33 362.37C119.95 398.09 120.8 434.57 150.22 458.19C129.12 477.88 109.56 498.28 94.7 523.3C87.1 536.09 64.2999 574.61 78.0999 588.86C89.5899 600.7 108.96 589.18 120.62 583.26C143.4 571.69 168.92 555.46 195.38 555.84C203.62 562.6 213.52 567.26 224.7 568.75C222.46 579.44 220.31 590.14 218.24 600.85C212.87 628.7 208.94 648.24 226.97 669.19C243.5 746.36 265.78 822.03 294.23 895.65C305.72 925.37 318 955.11 332.4 983.54C339.52 997.62 354.11 1014.29 370.82 1004.64C388.5 994.44 385.48 960.99 385.41 944.61C385.26 913.19 383.23 881.77 380.94 850.46C378.02 810.8 374.14 771.19 369.53 731.69C374.81 732.17 380.05 732.23 385.24 731.98C384.73 748.42 384.86 764.89 385.14 781.16C385.58 807.57 384.56 841.08 397.45 865.2C424.72 916.16 489.71 771.28 495.67 757.81C507.09 732.01 515.5 699.8 511.97 670.7C521.61 661.28 538.54 645.39 537 630.7C535.55 616.81 530.19 603.13 526.36 589.73C522.74 577.08 519.15 564.41 515.55 551.75C526.05 550.45 536.13 546.76 545.07 541.33C545.15 541.33 545.23 541.35 545.32 541.35C571.74 541.36 598.13 546.13 624.29 549.43C639.71 551.38 666.16 558.47 678.53 544.97C689.91 532.54 671.25 511.82 664.12 502.83Z" fill="#2D2D2C"/>
<path d="M607.48 964.18C594.9 973.19 581.21 979.97 566.91 984.7C575.87 979.05 584.29 972.62 592.01 966.61C614.07 949.4 631.51 927.36 642.08 901.43C653.9 872.43 655.63 840.2 652.88 809.36C650.71 785.09 641.77 760.82 641.62 736.5C652.77 767.1 664.27 797.55 666.71 827.17C671.09 880.31 651.3 932.8 607.48 964.18ZM507.73 992.84C528.79 984.3 548.63 970.34 564.84 957.43C593.49 934.63 615.89 906.88 626.19 871.43C636.84 834.74 631.99 796.65 625.82 759.67C621.86 735.89 616.81 712.08 615.8 687.93C615.29 675.73 616.24 663.61 618.52 651.62C618.64 650.99 618.81 650.38 618.96 649.76C620.72 676.15 629.51 702.94 639.15 729.67C636.48 748.03 642.28 768.01 645.61 785.62C651.49 816.74 651.43 849.36 644.09 880.21C636.95 910.21 620.17 935.18 597.74 955.9C583.83 968.73 566.99 981.01 548.97 989.48C535.44 992.28 521.58 993.35 507.73 992.84ZM616.64 599.04C599.66 614.99 588.73 635.56 584.22 659.3C577.17 696.34 586.63 734.13 589.7 771.03C593.46 816.36 583.44 858.19 557.67 895.79C549.92 907.09 540.72 917.71 530.46 927.39C552.44 901 567.73 868.81 575.39 832.38C590.75 759.39 536.55 640.03 616.64 599.04ZM585.15 685.49C585.27 649.66 597.95 619.91 622.89 596.17C624.61 595.44 626.43 594.76 628.26 594.09C628.22 594.17 628.19 594.26 628.16 594.34C607.74 611.6 600.31 639.25 597.79 665.35C594.37 700.89 600.52 736.46 604.05 771.73C606.55 796.76 607.59 821.98 602.55 846.77C597.61 871.11 584.02 892.58 568.07 911.2C541.89 941.74 501.9 971.21 461.49 980.4C477.57 972.83 492.14 963.49 505.18 952.63C521.52 941.76 536.25 928.28 548.88 913.85C573.85 885.33 589.67 849.3 593.47 811.64C597.74 769.3 585 727.72 585.15 685.49ZM618.66 642.21C618.6 642.36 618.53 642.5 618.47 642.65C615.01 650.98 614.15 660.56 613.24 669.47C611.21 689.43 614.3 709.47 617.37 729.15C623.7 769.77 633.16 810.33 626.88 851.56C620.94 890.47 600.2 920.64 571.49 946.54C557.23 959.4 541.38 970.38 524.58 979.64C514.64 985.12 504.7 988.89 494.48 991.88C483.71 990.69 473.05 988.53 462.64 985.47C478.88 983.33 495.08 972.96 508.51 965.35C526.49 955.17 543.14 942.64 558.22 928.55C591.15 897.76 609.55 859.2 610.8 814.09C612.64 747.78 578.09 657.35 625.53 600.7C620.42 614.36 618.48 628.22 618.66 642.21ZM663.17 750.79C644.33 698.94 615.75 639.32 648.48 587.36C649.29 586.56 649.84 585.59 650.11 584.52C651.54 581.15 649.9 578.06 647.22 576.39C645.68 575.19 643.64 574.57 641.21 575.1C553.19 594.4 549.35 682.19 560.92 756.21C575.95 852.42 528.09 944.42 433.47 976.09C431.06 976.89 429.61 978.53 428.92 980.42C427.34 983.25 427.51 986.79 430.72 988.83C431.68 989.77 432.92 990.39 434.37 990.52C524.28 1029.37 636.24 997.89 671.98 901.45C690.32 851.96 680.59 798.75 663.17 750.79Z" fill="#2D2D2C"/>
<path d="M51.4999 209.73C46.2299 219.65 40.8499 229.52 36.2299 239.71C33.5899 214.95 29.8701 190.62 25.2201 166.38C8.32012 78.24 -2.9401 88.44 1.9999 170.67C3.7999 200.53 5.63989 230.39 8.72989 260.16C13.1899 303.26 12.6797 318.64 39.5497 284.27C43.9197 278.68 48.1201 272.99 52.2401 267.25C58.0201 310.94 63.0997 342.52 68.0897 370.43C82.1997 449.09 93.7298 443.29 89.6498 361.9C87.3098 315.42 83.4298 268.97 78.1498 222.68C73.9898 186.12 84.2299 148.21 51.4999 209.73Z" fill="#2D2D2C"/>
<path d="M224.54 952.36C215.12 939.18 230.24 924 243.76 927.27C246.97 928.05 249.41 929.45 251.2 931.24C252.99 933.27 254.29 935.76 254.92 938.67C255.62 942.68 254.88 947.15 253.1 951.2C247.35 960.92 232.09 962.91 224.54 952.36ZM268.19 934.5C267.97 933.79 267.78 933.06 267.51 932.36C264.99 924.66 259.39 917.91 250.32 914.48C225.25 905.01 195.86 931.87 209.53 957.62C223.79 984.49 262.67 979.39 268.9 949.63C270.01 944.33 269.63 939.26 268.23 934.65C268.22 934.6 268.2 934.55 268.19 934.5Z" fill="#2D2D2C"/>
<path d="M647.08 22.61C647.07 22.57 647.04 22.52 647.03 22.47C646.81 21.75 646.62 21.02 646.35 20.33C643.84 12.62 638.24 5.88 629.16 2.44C604.1 -7.03 574.7 19.84 588.37 45.59C602.63 72.46 641.51 67.35 647.75 37.6C648.86 32.29 648.48 27.23 647.08 22.61ZM603.39 40.33C593.96 27.14 609.08 11.96 622.6 15.24C625.82 16.02 628.25 17.42 630.04 19.21C631.83 21.24 633.13 23.7301 633.77 26.6401C634.46 30.6501 633.72 35.1201 631.94 39.1701C626.19 48.8801 610.93 50.88 603.39 40.33Z" fill="#2D2D2C"/>
</svg>
