<svg width="548" height="368" viewBox="0 0 548 368" fill="none" xmlns="http://www.w3.org/2000/svg">
<path d="M525.04 222.69C496.38 293.75 425.71 335.3 354.13 352.29C286.82 368.27 209.92 364.22 152.06 323.24C151.78 323.05 151.5 323.46 151.72 323.69C174.26 348.03 207.81 359.01 239.69 364.21C278.3 370.49 318.01 367.71 356.05 359.23C427.92 343.22 507.31 299.44 526.43 223.07C526.66 222.14 525.38 221.85 525.04 222.69Z" fill="#2D2D2C"/>
<path d="M349.75 305.53C280.72 325.55 200.86 317.41 148.75 266.78C169.71 275.3 195.16 277.96 213.9 280.19C255.67 285.17 297.41 282.77 338.06 272.21C379.67 261.41 420.11 242.56 455.82 218.78C466.02 212 478.47 203.15 489.08 192.72C465.94 251.74 415 286.59 349.75 305.53ZM198.71 130.45C196.96 148.28 201.45 166.95 209.74 184.59C228.4 224.32 269.04 246.51 312.01 243.6C358.11 240.47 391.17 211.89 404.63 168.67C413.54 140.04 408.89 108.12 393.46 83.02C433.46 95.52 469.16 121.88 498.92 157.42C498.67 158.82 498.4 160.23 498.12 161.62C466.78 214.67 397.21 243.54 341.33 260.48C276.76 280.08 194.2 279.83 132.62 248.51C132.1 247.83 131.58 247.17 131.07 246.48C137.02 200.03 163.34 160.14 198.71 130.45ZM281.69 84.6199C283.6 83.9999 285.5 83.45 287.4 82.9C287.79 86.8 288.59 90.7 289.37 94.5C290.59 100.48 292.06 106.41 293.5 112.33C290.85 113.22 288.35 114.44 286.04 115.96C284.16 113.97 282.29 111.97 280.46 109.93C274.93 103.77 269.74 97.2899 264.38 90.9699C270.11 88.6299 275.89 86.4899 281.69 84.6199ZM351.7 75.3C346.83 81.35 342.12 87.5199 337.28 93.4399C331.38 100.65 325.38 107.97 319.89 115.62C317.24 113.94 314.33 112.66 311.25 111.83C311.92 108.01 312.57 104.18 313.26 100.37C314.65 92.6399 316.91 84.55 317.7 76.5C329.27 75.01 340.61 74.63 351.7 75.3ZM236.07 104.65C248.34 113.36 261.09 122.11 274.21 129.96C273.64 131.27 273.19 132.62 272.8 134C267.14 133.84 261.49 133.72 255.87 133.42C244.05 132.79 230.5 129.14 218.05 129.55C218.99 123.58 220.88 117.71 223.78 112.05C227.81 109.47 231.91 107 236.07 104.65ZM358.76 75.89C363.95 80.11 368.42 84.84 372.13 90.01C363.85 95.41 356.3 102.25 348.52 108.04C341.72 113.1 334.69 117.8 328.13 123.05C326.52 121 324.67 119.14 322.61 117.54C329.57 109.42 336.21 100.99 342.96 92.79C347.6 87.15 352.5 81.5499 357.12 75.7399C357.67 75.7899 358.22 75.83 358.76 75.89ZM271.79 145.71C254.63 150.19 237.55 155.02 220.34 159.27C217.7 150.42 216.69 141.31 217.69 132.34C230.41 133.81 243.03 136.27 255.87 137.09C261.22 137.44 266.59 137.7 271.96 137.92C271.75 139.38 271.6 140.86 271.6 142.38C271.6 143.5 271.67 144.61 271.79 145.71ZM300.17 192.97C301.05 186.63 302.05 180.32 303.04 174.01C303.11 174.01 303.17 174.02 303.25 174.02C305.66 174.02 308 173.71 310.26 173.19C311.83 181.76 313.76 190.28 315.65 198.81C317.32 206.32 318.67 214.15 320.55 221.79C316.07 222.72 311.5 223.41 306.88 223.81C302.7 224.18 298.53 224.07 294.39 223.63C297.84 213.9 298.79 202.83 300.17 192.97ZM278.29 183.12C281.51 178.69 284.67 174.28 287.76 169.85C291.31 171.88 295.26 173.24 299.44 173.76C298.94 177.14 298.49 180.54 298.03 183.91C296.24 197.11 293.04 210.11 290.75 223.17C279.62 221.37 268.82 216.84 259.08 210.4C265.72 201.49 271.8 192.08 278.29 183.12ZM266.77 170.32C270.52 167.35 274.3 164.34 278.08 161.31C279.91 163.73 282.07 165.87 284.5 167.69C281.24 172.13 277.89 176.52 274.66 181C268.32 189.78 261.54 198.88 256.7 208.74C249.7 203.79 243.29 197.86 237.77 191.23C248.07 185.26 257.44 177.7 266.77 170.32ZM275.72 157.77C274.08 159.14 272.44 160.52 270.8 161.89C259.48 171.25 247.62 180.02 236.33 189.42C229.61 180.95 224.33 171.48 221.05 161.58C231.34 160.57 241.61 156.67 251.5 154.37C258.51 152.73 265.45 150.98 272.36 149.1C273.05 152.17 274.19 155.08 275.72 157.77ZM320.31 168.89C324.6 176.46 328.86 184.05 333.24 191.58C337.15 198.3 341.16 206.28 346.39 212.66C339.62 216.23 332.29 218.96 324.63 220.86C323.28 214.64 321.62 208.47 320.23 202.37C317.95 192.35 315.79 182.29 313.04 172.41C315.61 171.54 318.05 170.35 320.31 168.89ZM328.02 161.84C335.46 167.42 342.89 173 350.2 178.78C356.33 183.62 362.76 189.42 369.71 193.87C364.31 200.49 357.81 205.97 350.51 210.35C345.83 201.89 339.18 193.8 334.28 185.99C330.36 179.74 326.41 173.54 322.26 167.49C324.4 165.85 326.34 163.95 328.02 161.84ZM333.93 149.87C342.81 152.33 351.71 154.72 360.62 157.04C368.31 159.04 376.22 161.52 384.19 163.22C383.77 165.05 383.34 166.86 382.83 168.67C380.5 176.81 376.96 183.95 372.52 190.21C364.83 184.36 356.34 179.09 348.98 173.44C342.73 168.64 336.44 163.7 329.81 159.34C331.68 156.46 333.08 153.27 333.93 149.87ZM361.29 126.82C352.01 128.85 342.67 130.73 333.44 133.02C332.64 130.49 331.49 128.11 330.1 125.88C344.95 115.17 359.65 104.16 373.93 92.7199C379.54 101.32 383.3 110.93 385.29 121.05C377.2 122.57 369.08 125.12 361.29 126.82ZM385.2 158.34C377.4 156.36 369.42 154.85 361.75 152.95C352.72 150.72 343.63 148.75 334.45 147.34C334.71 145.72 334.89 144.07 334.89 142.38C334.89 139.94 334.58 137.58 334.04 135.29C341.94 133.86 349.82 132.25 357.7 130.7C366.66 128.93 376.74 127.76 385.96 125.09C387.57 135.93 387.25 147.21 385.2 158.34ZM294.86 104.89C292.85 97.18 291.29 89.7099 290.17 82.0799C298.61 79.7299 306.94 77.9999 315.16 76.8299C313.21 85.8799 310.24 94.8999 308.63 103.84C308.2 106.24 307.73 108.63 307.27 111.03C305.94 110.85 304.61 110.73 303.25 110.73C300.94 110.73 298.7 111.01 296.53 111.49C296.01 109.31 295.44 107.11 294.86 104.89ZM261.84 92C267.76 101.21 274.82 110.4 282.59 118.6C280.22 120.67 278.17 123.07 276.48 125.74C263.9 117.77 250.77 110.44 237.73 103.75C245.6 99.39 253.66 95.45 261.84 92ZM547.78 138.95C540.89 138.63 534.53 141.82 528.49 144.82C525.89 146.11 522.9 147.32 520.02 148.74C523.84 144.82 527.14 140.09 530.1 136.46C535.44 129.9 541.32 123.17 540.33 114.2C540.28 113.73 540 113.44 539.53 113.4C530.64 112.6 524.38 119.07 518.71 125.07C516.46 127.45 513.6 130.12 510.84 132.97C508.3 128.98 505.45 125.14 502.43 121.4C503.48 119.47 504.41 117.54 505.29 116.27C508.56 111.53 511.09 105.95 514.66 101.46C514.78 101.31 514.63 101.11 514.45 101.19C508.78 103.99 504.36 107.45 500.24 112.37C499.56 113.18 498.59 114.36 497.59 115.7C493.09 110.66 488.22 105.87 483.03 101.35C486.72 96.3499 489.59 90.7799 492.64 85.1999C496.81 77.5999 502.91 67.8399 500.84 58.9399C500.32 56.6999 497.55 54.98 495.32 55.8C487.68 58.62 483.36 66.63 479.23 73.31C475.8 78.88 472.14 84.4999 469.35 90.4499C465.79 87.8599 462.17 85.3499 458.46 82.9899C459.44 80.7099 460.26 78.3899 461.07 76.4399C464.12 69.0899 467.12 61.0799 467.93 53.1199C467.97 52.7899 467.55 52.72 467.35 52.88C461.49 57.57 458.82 65.08 455.9 71.76C454.89 74.06 453.4 76.4899 451.93 78.9799C445.95 75.4199 439.86 72.12 433.73 69.13C436.99 63.01 438.77 55.27 440.36 50.16C443.16 41.16 449.42 24.5 441.1 16.76C438.62 14.45 434.73 14.29 432.27 16.76C425.81 23.27 425.37 36.8299 422.79 45.3199C421.36 50.0499 418.49 55.88 416.9 61.66C414.03 60.51 411.18 59.42 408.36 58.41C406.03 57.58 403.69 56.8299 401.34 56.0999C402.36 46.2399 405.13 36.2499 406.67 26.4599C406.73 26.1099 406.29 25.8899 406.08 26.2199C400.89 34.0699 397.53 41.4099 395.41 50.7099C395.21 51.5499 394.93 52.8199 394.65 54.2299C390.39 53.1199 386.08 52.18 381.75 51.4C382.74 46.5 382.9 41.2999 382.96 36.8499C383.09 26.5799 382.68 9.60991 374.12 2.32991C370.89 -0.410093 366.09 0.580009 364.76 4.81001C362.26 12.75 364.62 23.07 365 31.27C365.28 37.37 364.3 43.2199 363.53 49.0699C353.3 48.2699 342.99 48.22 332.7 48.9C332.09 45.93 331.36 43.0099 331.02 40.3499C329.89 31.5399 329.27 22.91 325.33 14.81C325.21 14.55 324.76 14.6 324.71 14.89C323.06 24.44 323.73 33.9799 324.68 43.5699C324.86 45.4399 325 47.47 325.22 49.51C314.54 50.56 303.93 52.33 293.53 54.67C289.29 38.46 279.88 6.40999 273.96 9.03999C261.18 14.72 270.38 43.12 276.1 59.17C275.66 59.3 275.21 59.41 274.78 59.54C264.92 62.48 255.26 66.0299 245.86 70.1199C244.26 67.0999 242.57 64.12 241.37 61.27C238.74 55.02 236.15 48.85 231.58 43.75C231.43 43.59 231.1 43.6999 231.12 43.9399C231.9 51.2299 233.91 58.13 236.33 65.05C237.17 67.47 238.07 70.33 239.2 73.14C228.71 78.06 218.58 83.6799 208.93 89.9499C206.18 85.8599 203.36 82.2799 202.09 80.3199C196.22 71.3399 187.7 55.47 175.57 54.81C174.5 54.76 173.41 55.81 173.49 56.9C173.86 62.13 184.4 84.89 195.22 99.54C186.72 105.95 178.68 112.89 171.17 120.32C169.62 118.62 168.15 116.83 166.71 115.07C161.51 108.7 156.37 102.97 150.5 97.25C150.36 97.11 150.15 97.2899 150.23 97.4599C154.16 105.88 157.59 113.44 163.42 120.89C164.28 121.99 165.37 123.45 166.62 124.96C159.75 132.17 153.35 139.79 147.57 147.84C143.84 143.84 139.16 140.39 135.41 137.09C128.12 130.67 118.92 120.72 108.54 120.64C106.16 120.62 103.8 123.22 104.73 125.64C108.19 134.62 117.7 141.44 124.25 148.25C128.1 152.26 132.84 158.28 138.26 161.94C133.52 169.84 129.34 178.06 125.73 186.58C122.97 184.57 120.41 182.26 117.83 180.08C112.05 175.16 106.39 170.67 99.56 167.32C99.44 167.26 99.3198 167.4 99.4198 167.49C105.53 173.46 110.36 180.72 116.52 186.72C118.22 188.39 120.58 190.75 123.19 192.84C120.19 200.67 117.69 208.75 115.74 217.04C102.35 207.18 77.4999 192.09 73.9999 199.48C71.1199 205.55 83.0399 213.88 86.4499 217.21C93.2199 223.84 102.6 232.22 112.42 235.12C112.14 237.22 111.89 239.32 111.67 241.44C103.1 238.27 93.0798 237.72 84.4098 238.09C84.0798 238.1 84.03 238.54 84.33 238.65C92.71 241.44 101.75 246.67 110.81 248.16C110.49 249.74 110.63 251.53 111.48 253.54C125.74 287.37 163.52 314.66 197.13 327.38C243.69 345 293.06 344.18 341.23 333.99C427.1 315.83 521.36 254.82 520.41 157.44C523.57 155.94 526.61 153.95 529.59 152.33C536.15 148.77 543.47 145.4 547.88 139.12C547.93 139.04 547.86 138.95 547.78 138.95Z" fill="#2D2D2C"/>
<path d="M18.6999 124C9.27991 110.82 24.3999 95.6301 37.9199 98.9101C41.1299 99.6901 43.5701 101.09 45.3601 102.88C47.1501 104.91 48.45 107.4 49.08 110.31C49.77 114.32 49.03 118.79 47.26 122.84C41.51 132.55 26.2499 134.55 18.6999 124ZM62.3501 106.14C62.1301 105.42 61.9399 104.69 61.6599 104C59.1499 96.29 53.5599 89.55 44.4699 86.12C19.4099 76.64 -9.9901 103.51 3.6899 129.26C17.9499 156.13 56.83 151.02 63.06 121.27C64.17 115.96 63.7899 110.9 62.3899 106.28C62.3799 106.24 62.3601 106.19 62.3501 106.14Z" fill="#2D2D2C"/>
</svg>
