<svg width="226" height="226" viewBox="0 0 226 226" fill="none" xmlns="http://www.w3.org/2000/svg">
<path fill-rule="evenodd" clip-rule="evenodd" d="M112.99 4.63193C52.9453 4.63193 4.25 53.3208 4.25 113.386C4.25 161.427 35.4073 202.191 78.6215 216.578C84.0625 217.572 86.0453 214.214 86.0453 211.33C86.0453 208.747 85.9519 201.91 85.8985 192.837C55.6492 199.407 49.2668 178.257 49.2668 178.257C44.3199 165.693 37.1898 162.348 37.1898 162.348C27.3159 155.605 37.9376 155.739 37.9376 155.739C48.8529 156.506 54.5943 166.948 54.5943 166.948C64.2947 183.564 80.0502 178.764 86.2456 175.98C87.2337 168.957 90.0443 164.164 93.1487 161.446C69.0013 158.696 43.6122 149.37 43.6122 107.697C43.6122 95.8207 47.8515 86.1204 54.808 78.5164C53.6864 75.7658 49.9545 64.71 55.8762 49.7356C55.8762 49.7356 65.0023 46.8114 85.7783 60.8779C94.4505 58.4678 103.757 57.2662 113.003 57.2194C122.243 57.2662 131.543 58.4678 140.228 60.8779C160.991 46.8114 170.104 49.7356 170.104 49.7356C176.039 64.71 172.307 75.7658 171.192 78.5164C178.162 86.1204 182.368 95.8207 182.368 107.697C182.368 149.476 156.939 158.669 132.718 161.36C136.617 164.718 140.095 171.354 140.095 181.501C140.095 196.035 139.961 207.765 139.961 211.33C139.961 214.241 141.924 217.626 147.439 216.564C190.619 202.151 221.75 161.42 221.75 113.386C221.75 53.3208 173.055 4.63193 112.99 4.63193" fill="white"/>
</svg>
