<svg width="608" height="619" viewBox="0 0 608 619" fill="none" xmlns="http://www.w3.org/2000/svg">
<path d="M216.95 5.73502C220.02 5.06502 223.68 4.13502 226.31 2.37502C226.67 2.13502 226.73 1.56502 226.31 1.33502C222.56 -0.674976 218.8 2.40501 216.68 5.38501C216.55 5.57501 216.77 5.77502 216.95 5.73502Z" fill="#2D2D2C"/>
<path d="M298.99 280.425C292.7 276.495 284.98 277.285 279.31 281.785C274.35 285.725 271.37 293.695 271.98 299.955C272.64 306.785 276.48 311.275 282.69 313.835C292.05 317.675 304.73 312.165 308.3 302.935C309.41 300.085 309.32 297.105 308.42 294.315C307.89 288.545 303.74 283.385 298.99 280.425Z" fill="#2D2D2C"/>
<path d="M253.12 172.685C263.11 191.675 289.55 191.935 304.72 179.925C321.07 166.985 329.7 142.005 315.81 124.146C303.52 108.355 282.41 106.925 265.88 116.775C249.09 126.775 244.62 147.825 249.92 164.015C250.61 167.015 251.68 169.935 253.12 172.685Z" fill="#2D2D2C"/>
<path d="M63.1803 138.475C74.5503 130.835 80.5501 114.485 72.7101 102.325C65.3001 90.825 50.9801 89.196 39.4601 95.005C21.8001 103.915 22.7003 129.496 36.1203 138.625C36.2103 138.685 36.29 138.735 36.38 138.796C36.58 138.935 36.7901 139.065 37.0001 139.185C44.6501 144.135 55.1603 143.855 63.1803 138.475Z" fill="#2D2D2C"/>
<path d="M344.3 215.835C344.96 213.895 344.72 211.805 343.89 209.955C343.81 208.975 343.66 208.015 343.4 207.085C341.91 201.875 337.25 198.035 332.07 196.835C319.68 193.965 308.41 204.675 312.93 217.225C315.75 225.055 322.18 229.755 330.58 228.545C337.06 227.625 342.3 221.705 344.3 215.835Z" fill="#2D2D2C"/>
<path d="M286.82 558.325C267.75 556.525 254.84 572.445 255.77 588.375C254.64 596.415 258.03 605.585 264.13 611.615C274.59 621.965 290.91 620.105 301.67 611.645C310.47 604.715 316.85 592.625 315.35 581.245C313.36 566.165 300.82 559.645 286.82 558.325Z" fill="#2D2D2C"/>
<path d="M383.82 569.715C346.77 550.245 335.61 497.185 332.57 459.525C329.45 420.835 335.7 378.305 357.77 345.695C383.91 307.075 472.24 288.575 505.59 328.505C445.99 315.585 403.68 351.125 391.13 407.705C379.69 459.315 387.51 525.695 435.54 555.715C454.15 567.335 473.76 571.195 492.59 569.235C468.12 594.735 409.55 583.235 383.82 569.715ZM406.86 120.975C394.06 69.515 358.98 45.335 310.63 37.346C309.49 36.555 308.06 36.065 306.32 36.046C304.84 36.025 303.4 36.055 301.95 36.085C298.47 35.665 294.93 35.305 291.33 35.025C237.28 30.846 184.68 56.246 164.48 107.546C141.89 164.905 136.81 232.575 140.88 294.095C135.82 295.025 130.82 296.215 125.91 297.695C125.47 226.635 123.59 141.255 162.61 79.446C190.42 35.405 247.63 17.746 296.38 16.825C350.72 15.796 413.19 24.075 443.38 74.135C480.34 135.385 474.71 223.055 475.77 293.035C458.63 289.305 439.65 289.705 421.65 292.905C423.37 235.595 420.74 176.715 406.86 120.975ZM183.19 292.075C182.56 292.025 181.93 291.955 181.3 291.915C172.71 291.375 163.98 291.425 155.3 292.175C157.18 241.885 156.72 192.075 168.92 142.715C180.21 97.096 203.42 70.446 240.01 58.155C182.88 106.646 184.54 223.505 183.19 292.075ZM245.32 367.355C268.66 428.015 263.46 509.765 212.93 554.725C201.31 560.485 189.26 563.495 177.01 564.475C124.57 556.625 116.35 488.505 115.74 444.355C115.03 393.755 130.26 314.225 193.19 311.485C193.3 311.485 193.41 311.465 193.52 311.455C218.4 319.245 234.98 340.485 245.32 367.355ZM69.18 487.305C58.47 440.785 60.9596 385.085 87.0496 343.995C100.44 322.905 123.82 314.215 147.48 310.475C82.2198 356.605 83.4298 505.945 130.75 560.215C126.9 559.315 123.07 558.315 119.26 557.225C85.6496 547.635 76.15 517.565 69.18 487.305ZM61.6097 351.555C39.2897 397.545 44.4099 461.765 55.8299 506.015C56.6299 509.135 57.4997 512.155 58.4397 515.065C18.9497 471.625 18.1997 390.685 61.6097 351.555ZM572.7 479.465C567.42 504.865 550.85 525.605 529.74 538.175C511.67 544.035 494.65 545.505 474.01 534.545C446.87 520.135 443.05 479.955 441.18 453.135C437.19 395.985 462.75 345.965 519.6 348.485C565.86 373.535 583.42 427.825 572.7 479.465ZM429.69 453.135C431.29 487.945 438.6 523.255 467.92 544.955C471.36 547.495 475.04 549.595 478.86 551.285C460.89 550.375 443.12 543.525 428.33 529.285C399.85 501.825 400.96 447.715 407.24 412.145C414.93 368.585 441.64 346.565 479.96 342.455C471.66 346.215 463.84 351.405 457.1 357.415C432.02 379.795 428.27 422.025 429.69 453.135ZM589.39 484.065C604.91 429.775 581.43 357.835 528.41 335.205C528.31 334.335 528.08 333.445 527.69 332.535C520.12 315.095 506.65 303.875 490.36 297.435C492.07 223.015 494.6 128.835 455.03 63.075C423.69 10.996 360.31 2.97499 304.45 1.02499C250.21 -0.865007 189.78 17.575 155.35 62.235C105.79 126.525 109.34 227.325 109.84 303.805C101.31 307.785 93.2896 312.825 86.0496 319.085C84.7096 320.235 83.4197 321.425 82.1697 322.645C-8.82028 334.835 -10.8603 526.665 75.3997 547.505C84.8897 559.065 97.5497 567.795 114.61 574.065C148.58 586.555 189.23 587.365 219.38 566.195C219.86 566.025 220.33 565.805 220.8 565.495C285.53 522.995 285.58 416.515 257.53 352.595C245.63 325.455 226.51 303.005 198.75 294.945C200.48 215.755 192.96 51.415 306.32 51.575C306.68 51.575 307.03 51.546 307.37 51.505C333.79 55.175 361.77 66.625 376.08 86.605C388.3 103.655 392.56 127.005 396.59 147.146C406.31 195.795 407.48 246.985 405.86 296.495C393.01 300.055 381.18 304.975 371.55 310.695C322.14 340.025 312.9 407.435 315.49 459.525C317.95 508.875 337.35 572.095 388.3 591.135C428.1 606.015 495.98 609.955 516.4 563.605C550.63 550.895 579.16 519.835 589.39 484.065Z" fill="#2D2D2C"/>
<path d="M465.87 267.395C471.42 228.205 464.35 186.175 457.79 147.446C453.09 119.765 445.98 70.396 418.29 54.815C417.5 54.375 416.38 55.315 416.97 56.135C460.71 117.496 453.22 196.445 464.1 267.395C464.24 268.265 465.74 268.275 465.87 267.395Z" fill="#2D2D2C"/>
<path d="M465.72 272.295C465.61 272.215 465.44 272.215 465.33 272.295C463.75 273.305 463.61 275.195 463.51 276.945C463.38 279.085 462.68 281.165 463.94 283.095C464.21 283.495 464.69 283.625 465.12 283.395C468.27 281.815 468.65 274.165 465.72 272.295Z" fill="#2D2D2C"/>
<path d="M163.27 494.055C151.76 490.045 147.52 469.845 145.93 459.365C143.99 446.615 140.93 427.575 148.72 416.155C148.96 415.815 149.65 415.775 149.74 416.295C151.79 429.955 148.86 443.865 151.62 457.805C153.11 465.285 154.82 473.135 158.4 479.955C160.66 484.295 163.63 487.915 164.59 492.735C164.74 493.475 164.1 494.345 163.27 494.055ZM148.03 403.075C148.15 400.335 148.42 397.375 150.16 395.195C151.28 393.805 153.49 394.715 153.94 396.195C154.89 399.285 153.6 405.785 150.04 406.765C148.51 407.175 147.99 403.935 148.03 403.075ZM188.51 359.465C159.75 338.615 138.47 387.515 134.98 406.995C128.82 439.725 129.25 493.015 161.18 513.785C186.7 530.385 204.44 487.405 209.41 470.655C219.11 437.975 219.3 381.765 188.51 359.465Z" fill="#2D2D2C"/>
<path d="M518.11 530.015C500.21 527.595 487.04 527.595 474.37 512.805C467.97 505.335 463.48 496.305 459.99 487.175C457.5 480.675 456.86 472.235 452.73 466.675C452.35 466.155 451.64 466.235 451.41 466.845C445.93 481.285 459.1 507.955 468.31 518.875C480.05 532.785 501.48 544.825 518.43 532.475C519.24 531.885 519.4 530.185 518.11 530.015Z" fill="#2D2D2C"/>
<path d="M533.64 521.885C531.75 522.285 530.02 523.165 528.41 524.205C526.83 525.225 525.08 525.915 523.73 527.245C522.45 528.505 522.93 531.135 524.84 531.485C529.43 532.335 534.9 528.855 536.06 524.315C536.45 522.795 535.1 521.575 533.64 521.885Z" fill="#2D2D2C"/>
<path d="M485.26 363.215C484.86 363.695 485.06 364.695 485.84 364.615C496.55 363.425 504.92 359.855 516.04 362.685C528.15 365.775 534.34 375.475 543.68 382.445C544.45 383.005 545.35 382.085 545.17 381.305C540.2 360.405 500.55 345.145 485.26 363.215Z" fill="#2D2D2C"/>
<path d="M432.23 606.585C411.2 603.535 392.19 600.745 373.02 590.975C353.97 581.265 341.47 565.865 326.6 551.285C326.24 550.935 325.7 551.385 325.92 551.805C343.85 587.095 392.99 613.705 432.23 607.835C432.85 607.745 432.85 606.675 432.23 606.585Z" fill="#2D2D2C"/>
<path d="M103.58 192.405C106.77 154.346 109.42 116.875 126.9 82.165C144.86 46.505 175.72 27.215 209.95 9.48498C210.66 9.12498 210.16 8.00497 209.41 8.21497C130.27 30.765 96.6699 116.615 102.28 192.405C102.34 193.245 103.51 193.235 103.58 192.405Z" fill="#2D2D2C"/>
<path d="M385.4 138.696C378.5 114.035 366.49 78.535 340.09 68.885C339.59 68.696 339.31 69.455 339.74 69.715C366.92 86.005 377.93 120.175 385.34 149.315C394.52 185.415 393.08 222.185 395.73 258.955C395.8 259.945 397.2 259.945 397.27 258.955C399.97 219.345 396.1 176.955 385.4 138.696Z" fill="#2D2D2C"/>
<path d="M395.99 264.285C395.01 267.405 395.05 271.455 396.08 274.565C396.22 274.975 396.78 274.975 396.91 274.565C397.95 271.455 397.99 267.405 397.01 264.285C396.85 263.775 396.14 263.775 395.99 264.285Z" fill="#2D2D2C"/>
<path d="M210.32 578.275C189.62 585.855 168.55 591.175 146.37 590.595C117.69 589.835 97.0099 575.555 72.9799 562.305C72.6999 562.155 72.4801 562.485 72.6601 562.715C103.84 601.265 170.88 603.885 210.86 579.545C211.52 579.145 211.09 577.995 210.32 578.275Z" fill="#2D2D2C"/>
<path d="M227.54 567.505C223.21 569.565 220.03 572.705 216.7 576.025C216.51 576.225 216.71 576.515 216.96 576.465C219.31 575.985 220.61 575.435 222.6 573.915C224.76 572.265 226.48 570.475 228.24 568.415C228.67 567.905 228.14 567.225 227.54 567.505Z" fill="#2D2D2C"/>
<path d="M49.3502 329.125C49.6202 328.895 49.2701 328.545 49.0001 328.675C3.75005 348.905 -6.70977 411.075 4.43023 454.315C4.70023 455.365 6.47017 455.175 6.37017 454.045C4.22017 430.545 2.93005 408.175 9.00005 385.075C15.3401 360.895 30.8202 344.685 49.3502 329.125Z" fill="#2D2D2C"/>
<path d="M563.44 341.725C563.22 341.585 563.04 341.885 563.19 342.065C576.75 359.375 588.43 374.445 595.82 395.565C602.75 415.365 605.1 436.615 604.4 457.495C603.01 499.275 585.28 539.255 546.66 558.375C546.12 558.645 546.5 559.505 547.07 559.345C587.32 548.035 603.94 502.025 607.29 464.455C610.82 424.815 599.86 365.165 563.44 341.725Z" fill="#2D2D2C"/>
</svg>
