<svg width="448" height="355" viewBox="0 0 448 355" fill="none" xmlns="http://www.w3.org/2000/svg">
<path d="M313.097 50.8849C287.697 50.7049 259.326 57.8149 240.906 61.8249C202.306 70.2149 165.336 69.5049 126.316 70.9849C96.7164 72.1149 75.8566 84.8149 63.5566 110.295C62.7366 110.345 61.8966 110.365 61.0566 110.415C32.9566 112.245 13.7462 126.155 4.15622 152.445C-4.74378 176.855 3.78649 202.125 20.9365 220.235C30.1665 229.995 42.6162 235.245 55.9062 238.135C69.0962 305.965 161.727 305.845 216.347 304.485C274.027 303.065 367.287 304.695 393.377 239.825C396.777 231.385 397.846 222.185 397.246 212.915C422.506 201.665 439.906 183.905 446.026 155.665C451.606 129.915 441.036 100.015 417.276 87.6349C402.676 80.0249 384.836 81.0049 367.406 83.8249C360.916 58.5649 338.487 51.0749 313.097 50.8849ZM311.557 65.2349C331.367 65.3449 347.496 70.5849 352.276 86.5749C345.756 87.8649 339.477 89.1249 333.627 89.9849C283.207 97.3949 231.807 101.105 181.057 105.855C147.207 109.015 113.567 108.275 79.8466 109.515C95.1866 87.1748 119.476 84.8448 147.906 85.2648C171.536 85.6048 194.157 85.0249 217.627 81.6649C235.357 79.1349 278.547 65.0449 311.557 65.2349ZM289.746 147.735C311.576 147.925 333.806 150.295 351.686 159.605C384.296 176.585 388.487 229.465 365.217 254.325C330.197 291.755 255.617 287.315 209.347 288.485C163.637 289.645 90.5061 289.915 71.7461 240.575C79.1161 241.295 86.4562 241.565 93.4062 241.705C93.8762 243.635 94.4061 245.565 94.9961 247.445C97.1061 254.165 108.496 253.295 107.776 245.705C104.076 206.655 111.176 176.365 150.816 161.665C182.056 150.085 219.026 149.945 251.936 148.735C263.696 148.295 276.646 147.615 289.746 147.735Z" fill="#2D2D2C"/>
<path d="M352.956 244.105C338.366 256.735 316.266 264.365 297.806 268.815C286.846 271.445 275.507 272.085 264.377 273.635C252.077 275.345 240.056 277.415 227.606 276.835C227.436 276.825 227.406 277.095 227.566 277.135C238.636 280.135 249.636 278.805 260.956 278.155C273.986 277.415 286.626 277.425 299.516 274.995C319.686 271.195 341.886 261.895 353.816 244.775C354.196 244.225 353.396 243.715 352.956 244.105Z" fill="#2D2D2C"/>
<path d="M361.066 232.945C358.236 234.695 356.897 238.765 355.627 241.675C355.557 241.835 355.696 241.985 355.856 241.905C358.946 240.455 362.707 236.985 361.587 233.165C361.527 232.945 361.256 232.815 361.066 232.945Z" fill="#2D2D2C"/>
</svg>
