<svg width="455" height="477" viewBox="0 0 455 477" fill="none" xmlns="http://www.w3.org/2000/svg">
<path d="M424.16 21.7099C418.92 22.0999 414.27 24.68 411.71 29.39C408.8 34.72 409.21 40.8 410.23 46.55C410.67 49.07 412.43 51.01 414.63 52.14C416.72 54.59 419.56 56.3799 422.71 56.8699C434.31 58.6299 446.75 47.0199 443.02 35.0999C440.62 27.4299 432.38 21.0899 424.16 21.7099Z" fill="#2D2D2C"/>
<path d="M385.88 374.54C385.62 373.97 386.06 373.19 386.76 373.41C387.97 373.78 390.37 374.09 391.62 374.08C393.3 374.06 394.45 373.55 396.06 374.2C396.61 374.43 396.85 374.85 396.76 375.44C396.31 378.37 393.25 378.66 390.78 378.42C388.1 378.15 386.91 376.81 385.88 374.54ZM325.92 373.66C325.14 374.8 323.56 373.83 324.11 372.59C341.75 332.33 385.01 298.92 425.21 282.74C426.36 282.28 427.21 283.96 426.38 284.75C411.25 298.91 392.66 308.73 376.27 321.33C356.91 336.2 339.83 353.51 325.92 373.66ZM352.51 371.56C350.01 376.79 345.07 380.5 340.85 384.26C338.16 386.64 335.81 388.85 332.19 388.99C331.94 389 331.71 388.76 331.71 388.51C331.92 384.64 334.89 382.24 337.68 379.68C341.71 375.97 345.98 371.66 351.42 370.15C352.3 369.91 352.87 370.83 352.51 371.56ZM310.81 318.53C313.21 303.25 325.31 291.95 337.86 284.09C338.86 283.46 339.66 284.8 339.03 285.6C330.06 296.93 318.98 306.03 312.47 319.23C311.97 320.23 310.66 319.47 310.81 318.53ZM306.84 426.94C282.31 366.96 277.07 297.74 275.22 233.51C273.38 169.47 268.92 100.08 278.48 36.61C278.54 36.24 279.17 36.24 279.23 36.61C288.08 97.1 279.58 161.38 281.84 222.5C284.41 292.1 295.39 358.15 310.36 425.97C310.89 428.33 307.71 429.08 306.84 426.94ZM278.54 413.3C274.21 416.63 267.26 414.7 262.41 413.28C256.43 411.53 251.66 409.23 246.76 405.46C246.19 405.03 246.51 404.2 247.23 404.32C252.88 405.27 258.23 406.96 263.83 408.13C268.56 409.11 274.31 408.44 278.54 410.89C279.53 411.47 279.34 412.69 278.54 413.3ZM204.04 384.77C202.36 384.73 200.92 384.58 199.29 384.17C198.51 383.97 198.08 383.19 197.49 382.7C197.31 382.54 197.31 382.17 197.49 382.02C199.82 380.09 202.01 379.85 205.09 379.92C206.51 379.95 209.09 380.42 209.09 382.36C209.09 384.78 205.59 384.8 204.04 384.77ZM191.87 374.68C187.99 372.1 185.16 369.35 182.89 365.26C182.59 364.71 183.24 363.91 183.81 364.34C186.99 366.75 190.46 369.2 194.08 370.89C197.24 372.35 201.11 373.05 203.64 375.53C204.06 375.93 204.01 376.76 203.46 377.03C199.73 378.8 195.09 376.83 191.87 374.68ZM167.69 289.68C182.96 309.78 195.31 330.53 214.31 347.82C232.64 364.5 252.81 378.68 273.56 392.18C275.42 393.4 273.81 395.92 271.86 395.09C246.76 384.43 224.31 366.78 205.31 347.36C190.09 331.84 170.96 312.25 166.37 290.24C166.19 289.4 167.21 289.05 167.69 289.68ZM231.13 311.11C237.52 317.59 242.08 325.3 247.94 332.22C254.34 339.78 262.08 345.1 270.04 350.88C270.61 351.3 270.52 352.52 269.62 352.41C250.28 349.86 238.09 327.61 230.07 311.93C229.73 311.26 230.57 310.55 231.13 311.11ZM175.83 149.67C175.66 149.2 176.31 148.87 176.64 149.2C188.52 160.99 200.31 171.64 215.37 179.31C227.66 185.56 241.08 189.46 253.04 196.29C254.41 197.07 253.92 199.63 252.19 199.43C225.78 196.39 185.22 176.23 175.83 149.67ZM244.09 161.31C244.53 159.49 246.84 159.46 247.78 160.83C249.66 163.55 250.66 167.09 252.17 170.05C252.96 171.57 253.88 173.03 254.49 174.63C254.86 175.56 254.58 176.35 254.81 177.08C254.92 177.48 254.51 177.92 254.08 177.79C252.99 177.43 251.92 177.55 250.56 176.61C249.04 175.56 247.61 173.78 246.72 172.17C244.92 168.88 243.17 165.12 244.09 161.31ZM252.33 66.22C252.51 65.51 253.37 65.3801 253.86 65.8101C257.59 69.1601 258.96 75.15 260.61 79.73C262.53 85.06 264.73 90.45 264.19 96.2C264.12 96.88 263.24 97.23 262.86 96.57C259.76 91.29 257.91 85.22 255.49 79.62C253.66 75.38 251.24 70.88 252.33 66.22ZM342.58 223.04C340.98 226.13 336.46 227.36 333.22 227.51C332.21 227.57 331.96 226.37 332.47 225.71C334.51 223.11 338.16 219.58 341.78 221.06C342.61 221.4 343.02 222.2 342.58 223.04ZM339.33 215.13C336.42 217.6 333.27 219.87 329.48 220.58C328.21 220.81 327.14 219.34 328.16 218.33C331.07 215.46 334.46 213.14 337.31 210.2C339.46 207.99 341.18 205.03 344.51 204.79C345.2 204.75 345.58 205.36 345.66 205.95C346.16 209.77 341.92 212.93 339.33 215.13ZM293.73 235.55C304.07 199.8 337.16 167.37 367.22 147.02C368.86 145.9 370.72 148.39 369.31 149.73C355.46 162.91 340.72 175.39 328.19 189.89C315.66 204.4 305.94 220.54 294.71 235.96C294.36 236.42 293.56 236.16 293.73 235.55ZM295.74 72.71C297.51 69.66 299.46 66.72 300.66 63.36C301.57 60.79 302.47 57.13 304.71 55.39C305.31 54.93 306.09 54.93 306.53 55.62C308.66 59.02 306.51 64.24 305.01 67.49C303.46 70.83 301.43 74.17 297.81 75.4C296.24 75.93 294.98 74.04 295.74 72.71ZM299.01 81.47C299.62 80.69 299.81 79.34 300.37 78.45C301.02 77.44 302.22 76.6401 303.09 75.8101C305.29 73.7101 308.57 76.99 306.43 79.15C305.41 80.17 304.43 81.42 303.09 81.98C301.72 82.56 300.77 82.2 299.37 82.37C298.86 82.44 298.76 81.78 299.01 81.47ZM310.79 173.81C308.96 177.89 306.37 181.21 304.09 185.03C301.78 188.9 300.29 193.25 297.78 196.98C297.52 197.36 296.96 197.3 296.81 196.85C293.96 187.91 302.02 176.81 308.96 171.96C310.17 171.1 311.28 172.71 310.79 173.81ZM387.58 365.78C386.7 365.79 386.45 364.63 387.15 364.17C390.6 361.93 394.58 360.32 397.76 357.63C400.42 355.36 402.56 352.62 405.61 350.84C406.16 350.52 406.95 350.92 406.91 351.59C406.55 359.94 395.01 365.75 387.58 365.78ZM440.35 345.09C475.46 259.49 439.91 227.26 387.68 253.63C366.18 264.49 355.71 239.71 365.43 219.04C370.01 209.29 380.25 190.85 390.58 172.82C431.71 101.11 370.17 91.5201 329.41 128.91C310.98 145.81 319.62 105.74 322.08 98.3001C344.52 30.3101 299.78 -11.22 263.01 10.12C242.67 21.93 223.49 45.7 236.63 110.36C234.67 129.71 229.04 137.55 208.01 128.18C207.97 128.16 207.93 128.15 207.89 128.13C156.82 100.64 112.56 149.31 162.49 191.87C184.54 210.67 212.17 226.1 227.58 247.61C227.61 247.63 227.63 247.65 227.66 247.68C237.74 265.81 235.81 283.41 208.71 270.89C148.41 236.43 102.26 272.59 130.32 325.64C229.16 512.42 375.28 503.62 440.35 345.09Z" fill="#2D2D2C"/>
<path d="M379.91 220.17C379.81 220.7 380.56 221.1 380.83 220.56C391.43 199.04 451.26 129.99 412.48 110.06C411.92 109.77 411.3 110.5 411.8 110.97C443.51 141.12 386.15 189.21 379.91 220.17Z" fill="#2D2D2C"/>
<path d="M450.73 352.36C442.17 364.81 436.07 379.14 428.06 392.02C419.42 405.88 409.6 418.85 398.42 430.77C373.55 457.33 341.77 470.06 306.41 475.54C305.82 475.63 305.99 476.53 306.54 476.53C340.61 477.09 370.91 462.18 395.53 439.35C419.25 417.38 442.16 383.73 451.66 352.75C451.83 352.17 451.05 351.9 450.73 352.36Z" fill="#2D2D2C"/>
<path d="M125.73 343.51C114.16 319.44 113.42 294.54 115.51 268.51C115.57 267.66 114.26 267.52 114.03 268.31C100.56 316.81 127.34 370.67 164.56 401.28C165.21 401.82 165.99 401.01 165.46 400.36C150.87 382.01 135.96 364.8 125.73 343.51Z" fill="#2D2D2C"/>
<path d="M170.29 403.74C170.13 403.54 169.86 403.8 169.96 404C170.69 405.65 170.96 406.97 172.08 408.46C172.91 409.59 173.84 410.65 174.77 411.7C177.03 414.23 179.32 415.94 182.22 417.62C182.68 417.89 183.12 417.28 182.77 416.9C178.73 412.46 174.09 408.39 170.29 403.74Z" fill="#2D2D2C"/>
<path d="M141.67 123.55C157.81 104.55 176.92 107.3 198.72 112.53C199.32 112.67 199.61 111.9 199.12 111.56C180.86 98.9901 151.51 102.19 141.11 123.11C140.93 123.46 141.41 123.88 141.67 123.55Z" fill="#2D2D2C"/>
<path d="M220.97 69.53C220.43 54.7 221.81 40.7199 228.91 27.4399C236.22 13.7799 248.76 8.11 261.76 1.4C262.33 1.11 262.09 0.0700048 261.42 0.150005C229.51 3.68 213.01 41.3999 219.83 69.6899C219.99 70.3199 220.99 70.19 220.97 69.53Z" fill="#2D2D2C"/>
<path d="M328.68 89.9301C328.56 90.4201 329.29 90.7701 329.51 90.2801C339.29 68.4001 345.28 28.65 323.11 11.85C322.88 11.68 322.56 12.02 322.71 12.25C339.42 36.89 335.56 62.4401 328.68 89.9301Z" fill="#2D2D2C"/>
<path d="M62.6098 188.8C76.9098 173.98 102.06 163.91 92.9101 193.06C85.7701 215.86 63.9599 221.02 43.9599 215.24C48.7099 205.57 55.0698 196.61 62.6098 188.8ZM159.54 41.35C154.27 39.86 149.13 37.93 144.01 35.97C143.58 35.45 143.07 35.01 142.49 34.66C144.76 29.99 147.27 25.44 149.63 20.82C152.24 15.72 146.98 10.18 141.81 12.98C132.44 18.05 120.74 21.71 110.47 25.88C109.01 26.07 107.56 26.86 106.46 28.62C102.98 34.18 99.9897 39.84 97.5097 45.82C57.1397 66.97 21.69 112.1 7.87004 148.43C0.180036 168.64 -4.50993 195.48 11.9101 213.08C15.6201 217.06 19.8098 220.5 24.3398 223.38C22.1598 230.38 20.5698 237.66 19.5898 245.17C13.9098 288.69 38.1598 322.51 68.1098 350C66.1598 351.85 64.2898 353.79 62.6098 355.85C61.4098 357.33 60.9398 359.74 62.6098 361.16C70.9898 368.29 81.4097 372.1 91.0097 377.24C93.5297 378.59 96.8898 376.93 96.8398 373.88C96.6298 362.57 94.0302 351.6 92.4902 340.43C92.1702 338.11 89.2299 336.86 87.2099 337.43C85.8599 337.81 84.58 338.3 83.37 338.88C81.66 339.1 80.0598 340.07 78.5898 341.2C78.5698 341.17 78.5597 341.15 78.5297 341.13C59.0197 319.7 43.0701 302.5 36.3901 273.27C33.0301 258.6 33.9398 243.84 38.1098 230.01C52.4398 234.92 68.3599 234.74 82.4599 228.17C116.28 212.42 119.99 135.89 74.8798 160.7C54.1698 172.09 39.1898 188.92 29.8798 208.99C-3.9302 186.71 31.17 132.69 49.06 110.33C63.78 91.93 82.6401 73.27 104.16 60.66C113.86 64.07 123.46 68.41 133.28 64.46C142.03 60.93 150.79 57.38 159.54 53.85C165.18 51.57 166.22 43.23 159.54 41.35Z" fill="#2D2D2C"/>
<path d="M1.0201 131.03C15.3801 101.27 36.3699 80.13 61.8599 59.71C62.4299 59.26 61.7099 58.4 61.1099 58.73C34.8199 73.45 7.33006 100.54 0.230059 130.7C0.120059 131.15 0.810099 131.48 1.0201 131.03Z" fill="#2D2D2C"/>
<path d="M67.7299 55.6999C70.4899 53.9299 73.0599 51.93 75.6899 50C76.4099 49.47 76.01 48.12 75.04 48.46C71.61 49.65 68.2599 51.63 67.2699 55.34C67.2099 55.6 67.4899 55.8499 67.7299 55.6999Z" fill="#2D2D2C"/>
<path d="M48.1097 256.19C48.0197 255.52 47.1099 255.51 47.0399 256.19C44.5399 280.18 60.7099 308.25 74.7899 326.47C75.1299 326.92 76.0399 326.69 75.8099 326.05C72.1099 316.36 66.4596 307.69 61.5096 298.6C54.0196 284.84 49.9397 271.67 48.1097 256.19Z" fill="#2D2D2C"/>
<path d="M41.7101 173.61C41.3301 174.17 42.1202 174.64 42.5802 174.28C50.3902 168.07 57.2602 161.18 65.8102 155.88C74.2202 150.65 83.66 148.44 93.11 145.96C93.73 145.79 93.5601 144.91 92.9601 144.87C73.3301 143.7 52.2801 157.7 41.7101 173.61Z" fill="#2D2D2C"/>
</svg>
