<svg width="520" height="473" viewBox="0 0 520 473" fill="none" xmlns="http://www.w3.org/2000/svg">
<path d="M498.65 67.64C504.99 70.12 515.04 67.01 517.87 60.59C518.12 60.01 518.34 59.41 518.52 58.81C521.5 53.42 518.74 47.03 515.16 42.65C510.88 37.41 503.68 36.04 497.8 39.21C492.71 41.95 490.21 47.88 489.67 53.33C489.02 59.78 492.76 65.33 498.65 67.64Z" fill="#2D2D2C"/>
<path d="M458.67 18.78C457.18 13.56 452.52 9.73004 447.34 8.53004C434.95 5.65004 423.69 16.36 428.2 28.91C431.02 36.75 437.45 41.44 445.86 40.23C452.33 39.31 457.58 33.39 459.57 27.53C460.23 25.59 459.99 23.49 459.16 21.64C459.09 20.67 458.93 19.71 458.67 18.78Z" fill="#2D2D2C"/>
<path d="M456.68 300.74C433.25 334.19 395.42 339.65 357.96 342.34C358.28 335.75 358.38 329.19 358.43 322.82C358.47 317.23 358.52 311.63 358.57 306.02C415.65 320.87 456.03 266.76 446.49 210.76C439.15 167.68 405.16 107.4 356.12 133.01C355.47 122.43 354.67 111.89 353.72 101.39C386.66 97.71 414.62 98.26 441.05 122.35C465.02 144.21 476.61 177.69 479.63 209.23C482.7 241.45 475.31 274.14 456.68 300.74ZM333.47 386.22C310.22 435.23 226.41 441.78 179.99 444.08C152.73 445.43 125.23 443.38 98.6601 437.13C62.7901 428.7 51.6798 396.65 43.3998 364.35C34.1398 328.22 34.3601 289.06 33.1801 252.03C31.4801 198.43 30.7198 144.38 31.5698 90.65C38.8598 94.65 47.1098 97.36 52.0698 98.85C126.22 121.12 211.39 110.69 285.69 94.45C295.53 92.3 321.37 88.11 336.72 78.29C341.89 148.49 342.97 219.09 343.45 289.43C343.67 320.96 347.33 356.99 333.47 386.22ZM80.2299 46.14C109.24 37.73 139.79 34.57 169.81 32.59C210.44 29.91 254.19 30.35 294.43 37.5C307.22 41.41 320.35 44.79 330.85 53.59C338.33 59.85 321.11 67.52 306.67 72.49C231.32 38.1 141.89 68.08 66.6699 86.45C63.1699 85.63 59.6799 84.76 56.2099 83.82C11.1399 71.52 63.3999 51.02 80.2299 46.14ZM357.02 149.56C398.62 129.3 420.56 169.89 428.72 205.92C440.67 258.66 410.79 296.27 358.71 289.98C359.09 243.53 359.28 196.33 357.02 149.56ZM352.22 86.27C351.15 76.25 349.92 66.27 348.5 56.35C348.37 55.46 348.07 54.71 347.66 54.07C342.12 34.68 315.54 27.89 297.92 24.84C229.3 9.62004 154.36 13.51 86.1401 28.61C63.1301 33.71 32.7202 42.65 19.4702 63.88C15.7002 69.92 16.0599 75.15 18.7099 79.63C17.0499 150.77 15.9301 221.79 19.6601 292.95C21.9601 336.89 26.4202 382.29 49.2402 420.96C73.6202 462.28 138.65 460.37 179.99 459.23C229.94 457.86 287.4 448.74 327.73 417.25C346.88 402.29 354.01 380.37 356.72 357.55C445.02 370.13 503.17 291.42 497.1 209.23C491.84 138.09 429.76 58.58 352.22 86.27Z" fill="#2D2D2C"/>
<path d="M276.42 207.96C267.26 208.04 258.77 204.09 249.5 204.41C240.88 204.71 232.3 207.15 224.29 210.29C223.75 210.5 223.2 209.77 223.53 209.3C234.28 194.03 264.84 190.32 277.41 205.58C278.16 206.48 277.72 207.95 276.42 207.96ZM169.61 342.83C166.55 345.89 161.6 337.87 160.22 336.09C158.73 334.17 160.95 331.95 162.87 333.44C164.65 334.82 172.67 339.77 169.61 342.83ZM154.96 330.39C118.68 314.09 85.97 247.13 107.88 210.47C108.07 210.16 108.64 210.27 108.6 210.66C106.05 237.15 107.54 260.58 121.71 284.1C131.63 300.55 146.25 313.08 156.14 329.2C156.63 330.01 155.69 330.72 154.96 330.39ZM190.62 217.99C149.12 140.35 78.3902 194.29 90.3302 258.49C97.0301 294.43 124.53 330.34 155.39 352C183.65 371.84 204.19 367.72 226.19 348.86C268.01 313 312.62 259.09 291.09 207.59C269.77 156.6 212.57 179.74 190.62 217.99Z" fill="#2D2D2C"/>
<path d="M149.75 426.2C136.42 418.65 120.88 417.81 106.42 413.38C80.3798 405.41 72.0898 383.34 59.3998 362.22C59.1498 361.81 58.5099 361.98 58.4999 362.46C58.0599 408.84 109.14 432.22 149.24 428.09C150.18 427.99 150.69 426.74 149.75 426.2Z" fill="#2D2D2C"/>
<path d="M171.1 424.89C168.03 423.86 165.71 423.88 162.49 423.97C159.79 424.03 157.09 423.31 154.67 424.8C153.8 425.33 153.8 426.33 154.37 427.07C156.28 429.53 159.62 429.5 162.49 429.66C166.23 429.87 168.74 429.26 171.63 426.9C172.38 426.29 171.87 425.15 171.1 424.89Z" fill="#2D2D2C"/>
<path d="M304.85 100.88C270.02 109 235.53 113.13 200.24 118.37C198.95 118.55 199.46 120.3 200.52 120.44C235.33 125.02 274.76 120.02 305.7 102.9C306.83 102.28 306.05 100.6 304.85 100.88Z" fill="#2D2D2C"/>
<path d="M331.18 311.18C329.6 323.9 330.2 336.17 327.11 348.8C324.08 361.17 317.95 372.5 314.66 384.82C314.47 385.52 315.43 386.19 315.94 385.57C331.24 366.93 343.12 334.16 332.35 310.86C332.06 310.23 331.25 310.64 331.18 311.18Z" fill="#2D2D2C"/>
<path d="M443.74 85.31C443.49 85.16 443.19 85.53 443.42 85.73C469.8 107.74 491 131.55 501.92 164.75C513.28 199.29 508.75 235.38 500.42 269.98C500.22 270.81 501.37 271.09 501.67 270.33C527.05 204.47 506.82 122.24 443.74 85.31Z" fill="#2D2D2C"/>
<path d="M17.1003 46.85C56.9503 19.49 109.78 11.46 156.8 6.98998C200.91 2.78998 249.11 1.19001 292.7 10.65C293.34 10.79 293.6 9.84998 292.97 9.67998C248.27 -2.97002 198.53 -0.659996 152.82 3.58C107.04 7.83 52.9702 15.59 16.6902 46.33C16.4002 46.57 16.7803 47.07 17.1003 46.85Z" fill="#2D2D2C"/>
<path d="M89.1202 465.99C73.1902 460.91 57.7603 454.43 45.7003 442.54C30.5703 427.63 23.17 406.53 17.92 386.46C-1.03999 313.98 9.85032 239.05 2.74032 165.54C2.72032 165.33 2.40999 165.32 2.39999 165.54C-0.17001 208.5 0.689912 252.54 2.81991 295.51C4.52991 329.81 7.61026 364.83 17.1803 397.95C27.6103 434.03 50.3403 462.12 88.9903 466.93C89.5503 467 89.6102 466.14 89.1202 465.99Z" fill="#2D2D2C"/>
<path d="M315.26 445.05C271.72 459.58 229.46 470.64 183.09 469.72C182.61 469.71 182.48 470.5 182.97 470.57C225.17 476.66 278.49 467.01 315.66 445.97C316.15 445.69 315.81 444.87 315.26 445.05Z" fill="#2D2D2C"/>
<path d="M332.41 435.58C330.43 436.59 328.46 437.57 326.6 438.8C324.95 439.88 323.17 441.38 321.41 442.21C321.1 442.36 321.33 442.81 321.63 442.74C323.53 442.29 325.13 442.2 326.97 441.42C329.53 440.34 331.49 438.87 333.43 436.9C334.12 436.2 333.25 435.16 332.41 435.58Z" fill="#2D2D2C"/>
</svg>
