<svg width="494" height="315" viewBox="0 0 494 315" fill="none" xmlns="http://www.w3.org/2000/svg">
<path d="M311.29 80.81C311.95 79.61 311.48 78.98 311.29 80.81Z" fill="#2D2D2C"/>
<path d="M7.70974 201.27C8.96974 166.2 14.55 130.93 14.18 95.86C14.18 95.62 13.8298 95.5801 13.7698 95.8101C5.22979 133.14 1.63001 173.75 0.740009 212C0.170009 236.64 0.389814 269.75 26.5398 281.18C27.1498 281.45 27.7798 280.73 27.2698 280.22C6.19979 259.05 6.71974 229.23 7.70974 201.27Z" fill="#2D2D2C"/>
<path d="M381.75 304.11C360.81 309.2 339.49 310.53 320.01 300.25C319.83 300.15 319.59 300.36 319.73 300.53C335.14 321.4 362.68 316.62 382.19 305.12C382.74 304.78 382.35 303.96 381.75 304.11Z" fill="#2D2D2C"/>
<path d="M101.09 197.1L98.7999 221.76C98.4399 225.8 98.1199 227.96 97.8599 229.09C96.2699 229.11 94.0801 228.88 91.5201 228.44C91.2201 228.4 90.9101 228.34 90.6001 228.29C91.1101 208.23 92.93 187.78 94.71 167.77C96.16 151.55 97.6502 134.81 98.4502 118.05C100.97 117.8 103.5 117.48 106.11 117.13C106.05 143.69 103.53 170.81 101.09 197.1ZM118.37 80.49C118.11 80.49 117.88 80.49 117.59 80.48C114.32 80.35 111.05 80.3801 107.78 80.5401C94.8098 81.2801 78.89 85.3701 64.73 84.7701C63.76 127.59 56.9698 170.36 56.2798 213.19C56.1698 219.78 54.08 233.4 61.67 236.96C70.22 240.95 79.9101 241.25 89.0601 242.82C108.65 246.16 111.82 239.73 113.32 223.07C113.81 217.78 114.31 212.49 114.8 207.2C118.08 171.41 121.9 134.94 120.31 98.98C120.04 92.96 120.06 86.4 118.37 80.49Z" fill="#2D2D2C"/>
<path d="M457.9 268.53C457.8 268.68 457.73 268.77 457.63 268.91C457.53 269.17 457.42 269.44 457.3 269.71C456.64 270.92 455.82 271.97 454.82 272.87C448.28 278.98 437.63 278.24 432.85 270.27C428.18 262.48 432.34 252.2 440.98 249.66C443.59 248.9 446.17 248.75 448.82 249.45C452.99 251.16 453.25 251.26 449.59 249.76C449.75 249.79 449.9 249.81 450.07 249.83C453.4 250.34 455.93 253.08 457.77 255.63C455.72 252.99 455.78 253.05 457.96 255.83C460.2 259.56 460.03 264.82 457.9 268.53ZM420.72 112.7C419.47 91.84 418.39 70.9801 417.13 50.1301C416.51 40.0201 415.66 30.71 422.3 22.45C425.29 18.73 430.53 19.0901 434.38 20.7601C443.54 24.7301 444.11 37.8 444.67 46.61C445.95 66.82 447.13 87.0401 448.22 107.25C450.36 146.79 450.01 186.53 452.72 226C453.51 237.51 434.64 240.42 432.51 228.95C425.41 190.75 423.05 151.42 420.72 112.7ZM375.47 113.94C366.09 115.28 356.94 116.79 348.87 118.14L346.82 118.48C346.82 118.48 346.14 110.62 345.86 107.24C349.27 105.07 353.55 102.98 358.84 100.91C362.5 106.49 368.35 110.66 375.02 112.36C375.16 112.89 375.31 113.42 375.47 113.94ZM402.22 251.47C374.4 260.06 307.44 285.72 300.48 239.74C294.26 198.71 291.1 157.09 287.4 115.78C286.34 103.87 281.25 85.8901 284.71 74.0201C289.31 58.2901 311.09 49.53 324.62 43.83C340.37 37.19 369.36 25.21 385.1 37.95C399.52 49.61 392.31 75.3901 390.31 90.9001C388.66 103.54 370.29 99.4601 369.32 88.2801C368.66 80.7401 368.84 73.14 368.14 65.61C367.24 55.81 362.44 58.8601 352.73 61.7901C339.42 65.8001 321.78 71.27 311.27 81.2C311.21 81.95 311.2 82.98 311.32 84.48C311.71 89.46 312.12 94.4301 312.55 99.4101C313.67 112.25 314.83 125.09 316.05 137.93C340.03 134.91 363.68 129.91 387.68 126.96C395.34 126.03 400.73 133.62 401.28 140.28C403.96 173.17 407.29 205.88 411.83 238.58C412.64 244.4 407.32 249.9 402.22 251.47ZM259.39 268.74C247.63 222.67 243.17 174.11 239.23 126C234.09 140.83 228.85 155.62 223.02 170.2C218.31 181.93 201.74 183.92 197.43 170.46C193.65 158.64 190.41 146.66 187.29 134.66C182.76 175.86 178.87 217.23 173.99 258.3C172.5 270.87 153.92 271.97 153.71 258.51C153.23 225.4 159.15 192.38 161.43 159.36C163.6 127.94 165.4 96.57 169.62 65.33C171.49 51.44 191.04 54.08 194.87 65.07C201.62 84.44 206.66 104.3 211.86 124.11C219.22 103.02 226.24 81.81 234.3 60.97C239.78 46.81 258.68 48.98 260.4 64.23C267.89 130.73 279.24 198.76 280.27 265.7C280.47 277.64 262.39 280.5 259.39 268.74ZM138.98 226.84C135.49 255.19 125.42 272.86 93.0199 269.19C72.6899 266.9 46.4898 265.23 35.4398 245.2C23.7798 224.07 31.9299 189.54 33.7299 166.85C36.1699 136.2 37.46 104.32 43.58 74.0301C41.95 68.4501 44.34 62.0001 51.37 59.6401C63.41 55.6101 77.6899 55.98 90.2499 54.86C101.43 53.86 117.39 50.5901 128.27 55.0001C143.52 61.1801 145.8 75.39 146.75 90.57C149.57 135.57 144.49 182.17 138.98 226.84ZM490.1 267.56C489.79 267.04 489.44 266.54 489.07 266.08C488.55 265.39 488.02 264.74 487.51 264.11C486 262.29 484.4 260.74 482.7 259.44C485.8 255.05 487.28 249.76 486.91 244.24C485.43 222.88 484.87 200.92 484.31 179.4C483.86 161.83 483.38 143.65 482.42 125.7C481.32 105.44 480.14 85.1801 478.86 64.9301L478.81 64.24C478.16 53.69 476.93 34.05 459.84 26.62C458.62 26.1 457.34 25.6601 455.95 25.2901C452.96 16.6501 447.66 10.6301 440.2 7.39007C436.47 5.77007 432.45 4.94002 428.58 4.97002C421.46 5.05002 415.2 8.01011 410.94 13.3101C405.04 20.6501 402.93 28.4201 402.35 35.8801C400.21 32.3301 397.5 29.23 394.27 26.61C386.86 20.62 377.4 17.6301 366.16 17.7501C348.5 17.9301 330.01 25.7301 318.95 30.4001L317.77 30.9001C305.24 36.1701 286.81 43.93 276.65 57.98C275.68 57.62 274.68 57.3101 273.66 57.0501C270.01 44.9001 259.43 36.7701 246.92 36.9001C235.19 37.0201 225.15 44.23 220.71 55.71C219.46 58.96 218.22 62.2201 217 65.5001C214.6 63.9301 211.95 62.71 209.16 61.87C208.99 61.33 208.82 60.8001 208.63 60.2701C204.69 48.9501 193.08 41.1401 180.41 41.2701C167.68 41.4001 157.86 49.5101 155.46 61.6301C155.39 61.6001 155.31 61.5601 155.25 61.5301C150.7 52.1701 143.48 45.43 133.74 41.49C128.04 39.18 121.35 38.1001 113.29 38.1801C107.06 38.2501 100.93 38.9701 95.35 39.6401C93.1 39.9101 90.9401 40.16 88.9501 40.35C85.8401 40.62 82.63 40.8 79.35 40.99C68.61 41.58 57.5001 42.21 46.7401 45.82C34.5701 49.9 27.1099 61.6601 28.7299 74.0301C24.0799 98.2501 22.29 123.16 20.56 147.29C20.12 153.46 19.6798 159.6 19.1898 165.69C18.8398 170.14 18.1999 175.27 17.5199 180.78C14.6999 203.34 11.1898 231.42 22.6698 252.24C27.1898 260.44 33.8799 267.04 42.5399 271.89C56.6799 296.97 85.95 300.17 107.35 302.51L111.02 302.92C114.64 303.32 118.15 303.51 121.46 303.48C138.32 303.3 151.27 297.33 160.03 285.69C163.2 295.46 172.03 302.09 182.9 301.98C195.96 301.85 206.55 292.28 208.11 279.25C210.84 256.28 213.29 232.9 215.66 210.08C219.71 212.42 224.39 213.65 229.3 213.6C230.77 213.59 232.25 213.45 233.72 213.19C236.87 234.9 240.66 254.3 245.26 272.35C247.67 281.76 255.21 288.63 264.6 290.34C264.69 290.76 264.8 291.17 264.9 291.58C267.75 302.74 277.49 310.17 289.14 310.05C296.12 309.98 302.84 307.15 307.58 302.28C312.15 297.6 314.6 291.36 314.49 284.7C314.48 284.04 314.47 283.37 314.45 282.7C321.53 292.06 334.2 300.42 356.88 300.19C378.39 299.97 402.85 292.1 419.05 286.89C421.63 286.06 424.01 285.3 426.17 284.63H426.18C429.35 287.37 433.1 289.38 437.14 290.48C437.81 292.77 438.77 294.96 439.99 297C445.21 305.71 454.4 310.84 464.58 310.74C471.95 310.66 478.93 307.87 484.19 302.95C486.42 300.95 488.28 298.59 489.73 295.95C489.88 295.66 490.11 295.2 490.2 295C494.97 286.64 494.93 275.61 490.1 267.56Z" fill="#2D2D2C"/>
<path d="M395.58 12.5601C396.1 12.8401 396.66 12.27 396.37 11.75C382.65 -13.2 334.33 8.46001 318.25 20.5C318.06 20.65 318.16 21.01 318.43 20.92C344.86 12.07 368.07 -1.75994 395.58 12.5601Z" fill="#2D2D2C"/>
<path d="M356.71 221.49C355.76 213 354.89 204.56 354.06 196.29C357.76 195.73 361.44 195.15 365.1 194.56C366.02 202.77 366.97 210.81 367.96 218.72C364.06 219.76 360.33 220.68 356.71 221.49ZM318.56 164.58C320.57 185.49 322.67 206.39 325.36 227.2C327.15 241.09 328.12 240.92 343.69 238.75C357.38 236.84 370.78 233.25 384.03 229.28C380.76 204.79 378.06 180.26 375.76 155.66C356.68 158.56 337.72 162.1 318.56 164.58Z" fill="#2D2D2C"/>
</svg>
