<svg width="494" height="416" viewBox="0 0 494 416" fill="none" xmlns="http://www.w3.org/2000/svg">
<path d="M310.864 131.514C311.054 129.684 311.524 130.314 310.864 131.514V131.514Z" fill="#2D2D2C"/>
<path d="M7.28395 251.974C8.54395 216.904 14.1242 181.634 13.7542 146.564C13.7542 146.324 13.404 146.284 13.344 146.514C4.80401 183.844 1.20423 224.454 0.314228 262.704C-0.255772 287.344 -0.0359669 320.454 26.114 331.884C26.724 332.154 27.354 331.434 26.844 330.924C5.77401 309.754 6.29395 279.934 7.28395 251.974Z" fill="#2D2D2C"/>
<path d="M381.324 354.814C360.384 359.904 339.064 361.234 319.584 350.954C319.404 350.854 319.164 351.064 319.304 351.234C334.714 372.104 362.254 367.324 381.764 355.824C382.314 355.484 381.924 354.664 381.324 354.814Z" fill="#2D2D2C"/>
<path d="M100.664 247.804L98.3741 272.464C98.0141 276.504 97.6941 278.664 97.4341 279.794C95.8441 279.814 93.6543 279.584 91.0943 279.144C90.7943 279.104 90.4844 279.044 90.1744 278.994C90.6844 258.934 92.5042 238.484 94.2842 218.474C95.7342 202.254 97.2245 185.514 98.0245 168.754C100.544 168.504 103.074 168.184 105.684 167.834C105.624 194.394 103.104 221.514 100.664 247.804ZM117.944 131.194C117.684 131.194 117.454 131.194 117.164 131.184C113.894 131.054 110.624 131.084 107.354 131.244C94.384 131.984 78.4642 136.074 64.3042 135.474C63.3342 178.294 56.5441 221.064 55.8541 263.894C55.7441 270.484 53.6542 284.104 61.2442 287.664C69.7942 291.654 79.4843 291.954 88.6343 293.524C108.224 296.864 111.394 290.434 112.894 273.774C113.384 268.484 113.884 263.194 114.374 257.904C117.654 222.114 121.474 185.644 119.884 149.684C119.614 143.664 119.634 137.104 117.944 131.194Z" fill="#2D2D2C"/>
<path d="M457.474 319.234C457.374 319.384 457.304 319.474 457.204 319.614C457.104 319.874 456.994 320.144 456.874 320.414C456.214 321.624 455.394 322.674 454.394 323.574C447.854 329.684 437.204 328.944 432.424 320.974C427.754 313.184 431.914 302.904 440.554 300.364C443.164 299.604 445.744 299.454 448.394 300.154C452.564 301.864 452.824 301.964 449.164 300.464C449.324 300.494 449.474 300.514 449.644 300.534C452.974 301.044 455.504 303.784 457.344 306.334C455.294 303.694 455.354 303.754 457.534 306.534C459.774 310.264 459.604 315.524 457.474 319.234ZM420.294 163.404C419.044 142.544 417.964 121.684 416.704 100.834C416.084 90.724 415.234 81.414 421.874 73.154C424.864 69.434 430.104 69.794 433.954 71.464C443.114 75.434 443.684 88.504 444.244 97.314C445.524 117.524 446.704 137.744 447.794 157.954C449.934 197.494 449.584 237.234 452.294 276.704C453.084 288.214 434.214 291.124 432.084 279.654C424.984 241.454 422.624 202.124 420.294 163.404ZM375.044 164.644C365.664 165.984 356.514 167.494 348.444 168.844L346.394 169.184C346.394 169.184 345.714 161.324 345.434 157.944C348.844 155.774 353.124 153.684 358.414 151.614C362.074 157.194 367.924 161.364 374.594 163.064C374.734 163.594 374.884 164.124 375.044 164.644ZM401.794 302.174C373.974 310.764 307.014 336.424 300.054 290.444C293.834 249.414 290.674 207.794 286.974 166.484C285.914 154.574 280.824 136.594 284.284 124.724C288.884 108.994 310.664 100.234 324.194 94.534C339.944 87.894 368.934 75.914 384.674 88.654C399.094 100.314 391.884 126.094 389.884 141.604C388.234 154.244 369.864 150.164 368.894 138.984C368.234 131.444 368.414 123.844 367.714 116.314C366.814 106.514 362.014 109.564 352.304 112.494C338.994 116.504 321.354 121.974 310.844 131.904C310.784 132.654 310.774 133.684 310.894 135.184C311.284 140.164 311.694 145.134 312.124 150.114C313.244 162.954 314.404 175.794 315.624 188.634C339.604 185.614 363.254 180.614 387.254 177.664C394.914 176.734 400.304 184.324 400.854 190.984C403.534 223.874 406.864 256.584 411.404 289.284C412.214 295.104 406.894 300.604 401.794 302.174ZM258.964 319.444C247.204 273.374 242.744 224.814 238.804 176.704C233.664 191.534 228.424 206.324 222.594 220.904C217.884 232.634 201.314 234.624 197.004 221.164C193.224 209.344 189.984 197.364 186.864 185.364C182.334 226.564 178.444 267.934 173.564 309.004C172.074 321.574 153.494 322.674 153.284 309.214C152.804 276.104 158.724 243.084 161.004 210.064C163.174 178.644 164.974 147.274 169.194 116.034C171.064 102.144 190.614 104.784 194.444 115.774C201.194 135.144 206.234 155.004 211.434 174.814C218.794 153.724 225.814 132.514 233.874 111.674C239.354 97.514 258.254 99.684 259.974 114.934C267.464 181.434 278.814 249.464 279.844 316.404C280.044 328.344 261.964 331.204 258.964 319.444ZM138.554 277.544C135.064 305.894 124.994 323.564 92.5941 319.894C72.2641 317.604 46.0641 315.934 35.0141 295.904C23.3541 274.774 31.5041 240.244 33.3041 217.554C35.7441 186.904 37.0342 155.024 43.1542 124.734C41.5242 119.154 43.9142 112.704 50.9442 110.344C62.9842 106.314 77.2641 106.684 89.8241 105.564C101.004 104.564 116.964 101.294 127.844 105.704C143.094 111.884 145.374 126.094 146.324 141.274C149.144 186.274 144.064 232.874 138.554 277.544ZM489.674 318.264C489.364 317.744 489.014 317.244 488.644 316.784C488.124 316.094 487.594 315.444 487.084 314.814C485.574 312.994 483.974 311.444 482.274 310.144C485.374 305.754 486.854 300.464 486.484 294.944C485.004 273.584 484.444 251.624 483.884 230.104C483.434 212.534 482.954 194.354 481.994 176.404C480.894 156.144 479.714 135.884 478.434 115.634L478.384 114.944C477.734 104.394 476.504 84.754 459.414 77.324C458.194 76.804 456.914 76.3641 455.524 75.9941C452.534 67.3541 447.234 61.334 439.774 58.094C436.044 56.474 432.024 55.644 428.154 55.674C421.034 55.754 414.774 58.7141 410.514 64.0141C404.614 71.3541 402.504 79.124 401.924 86.584C399.784 83.034 397.074 79.934 393.844 77.314C386.434 71.324 376.974 68.334 365.734 68.454C348.074 68.634 329.584 76.4341 318.524 81.1041L317.344 81.6041C304.814 86.8741 286.384 94.634 276.224 108.684C275.254 108.324 274.254 108.014 273.234 107.754C269.584 95.6041 259.004 87.4741 246.494 87.6041C234.764 87.7241 224.724 94.934 220.284 106.414C219.034 109.664 217.794 112.924 216.574 116.204C214.174 114.634 211.524 113.414 208.734 112.574C208.564 112.034 208.394 111.504 208.204 110.974C204.264 99.6541 192.654 91.8441 179.984 91.9741C167.254 92.1041 157.434 100.214 155.034 112.334C154.964 112.304 154.884 112.264 154.824 112.234C150.274 102.874 143.054 96.134 133.314 92.194C127.614 89.884 120.924 88.8041 112.864 88.8841C106.634 88.9541 100.504 89.674 94.9242 90.344C92.6742 90.614 90.5143 90.864 88.5243 91.054C85.4143 91.324 82.2042 91.504 78.9242 91.694C68.1842 92.284 57.0744 92.914 46.3144 96.524C34.1444 100.604 26.6841 112.364 28.3041 124.734C23.6541 148.954 21.8642 173.864 20.1342 197.994C19.6942 204.164 19.2541 210.304 18.7641 216.394C18.4141 220.844 17.7741 225.974 17.0941 231.484C14.2741 254.044 10.764 282.124 22.244 302.944C26.764 311.144 33.4542 317.744 42.1142 322.594C56.2542 347.674 85.5242 350.874 106.924 353.214L110.594 353.624C114.214 354.024 117.724 354.214 121.034 354.184C137.894 354.004 150.844 348.034 159.604 336.394C162.774 346.164 171.604 352.794 182.474 352.684C195.534 352.554 206.124 342.984 207.684 329.954C210.414 306.984 212.864 283.604 215.234 260.784C219.284 263.124 223.964 264.354 228.874 264.304C230.344 264.294 231.824 264.154 233.294 263.894C236.444 285.604 240.234 305.004 244.834 323.054C247.244 332.464 254.784 339.334 264.174 341.044C264.264 341.464 264.374 341.874 264.474 342.284C267.324 353.444 277.064 360.874 288.714 360.754C295.694 360.684 302.414 357.854 307.154 352.984C311.724 348.304 314.174 342.064 314.064 335.404C314.054 334.744 314.044 334.074 314.024 333.404C321.104 342.764 333.774 351.124 356.454 350.894C377.964 350.674 402.424 342.804 418.624 337.594C421.204 336.764 423.584 336.004 425.744 335.334H425.754C428.924 338.074 432.674 340.084 436.714 341.184C437.384 343.474 438.344 345.664 439.564 347.704C444.784 356.414 453.974 361.544 464.154 361.444C471.524 361.364 478.504 358.574 483.764 353.654C485.994 351.654 487.854 349.294 489.304 346.654C489.454 346.364 489.684 345.904 489.774 345.704C494.544 337.344 494.504 326.314 489.674 318.264Z" fill="#2D2D2C"/>
<path d="M395.154 63.264C395.674 63.544 396.234 62.974 395.944 62.454C382.224 37.504 333.904 59.164 317.824 71.204C317.634 71.354 317.734 71.714 318.004 71.624C344.434 62.774 367.644 48.944 395.154 63.264Z" fill="#2D2D2C"/>
<path d="M356.284 272.194C355.334 263.704 354.464 255.264 353.634 246.994C357.334 246.434 361.014 245.854 364.674 245.264C365.594 253.474 366.544 261.514 367.534 269.424C363.634 270.464 359.904 271.384 356.284 272.194ZM318.134 215.284C320.144 236.194 322.244 257.094 324.934 277.904C326.724 291.794 327.694 291.624 343.264 289.454C356.954 287.544 370.354 283.954 383.604 279.984C380.334 255.494 377.634 230.964 375.334 206.364C356.254 209.264 337.294 212.804 318.134 215.284Z" fill="#2D2D2C"/>
</svg>
