<svg width="410" height="539" viewBox="0 0 410 539" fill="none" xmlns="http://www.w3.org/2000/svg">
<path d="M302.28 317.709C254.12 341.499 222.93 302.059 217.32 265.099C208.06 204.229 218.25 131.279 240.41 100.159C277.98 47.369 339.35 103.169 352.76 158.389C355.85 171.119 357.38 183.399 357.77 193.249C359.39 233.669 348.32 294.969 302.28 317.709ZM192.93 265.099C187.31 302.059 156.13 341.499 107.97 317.709C61.93 294.969 50.86 233.669 52.48 193.249C52.88 183.399 54.39 171.119 57.49 158.389C70.9 103.169 132.27 47.369 169.84 100.159C192 131.279 202.19 204.229 192.93 265.099ZM404.93 160.549C398.49 129.119 385.89 101.229 367.49 77.919C373.61 67.719 380.19 57.759 386.93 48.179C394.72 37.109 402.74 24.859 399.97 10.829C398.77 4.70903 391.56 1.24903 385.88 2.82903C370.25 7.16903 356.84 15.029 343.81 24.529C337.32 29.259 330.6 33.659 324.49 38.739C318.21 34.649 311.59 30.859 304.62 27.429C254.63 2.74903 195.21 -3.21097 141.16 9.59903C122.53 14.009 105.42 21.789 89.96 32.019C67.24 11.109 25.74 -16.831 20.2 14.179C17.45 29.569 26.62 46.609 33.11 59.949C35.78 65.459 38.79 71.739 42.25 77.779C35.65 86.659 29.68 96.039 24.47 105.819C23.41 108.009 22.3401 110.199 21.2801 112.389C21.2101 112.519 21.1101 112.609 21.0401 112.739C-29.3999 209.049 16.5201 338.929 112.91 385.819C118.91 388.749 125.04 391.299 131.26 393.559C130.97 405.499 130.84 417.449 130.51 429.339C129.8 454.849 123.52 487.059 127.43 513.509C120.34 514.279 113.46 515.529 106.51 517.159C94.86 519.899 98.6101 535.669 109.16 536.699C115.62 537.339 121.83 537.429 128.3 536.849C135.6 536.209 143.68 536.869 150.02 532.839C154.97 529.699 155.89 500.669 156.31 491.949C157.18 474.119 156.13 455.649 156.53 438.999C156.83 426.399 157.26 413.719 157.42 401.029C179.27 405.659 201.75 406.589 223.92 404.189C222.92 432.389 222.85 460.689 223.08 488.879C223.17 499.629 226.15 529.949 229.7 531.849C239.77 540.849 265.45 539.859 274.58 535.509C281.21 532.339 281.2 521.179 274.58 517.999C267.18 514.459 258.82 515.029 250.86 513.889C250.26 513.809 249.72 513.709 249.2 513.589C249.81 475.819 250.76 437.739 249.7 399.859C298.48 388.709 343.72 361.429 374.34 321.689C409.43 276.149 416.17 215.369 404.93 160.549Z" fill="#2D2D2C"/>
<path d="M148.19 175.469C144.19 179.529 140.05 183.509 135.94 187.529C133.17 184.549 130.36 181.609 127.44 178.789C118.06 169.719 105.62 183.049 113.45 192.779C116.11 196.079 118.73 199.419 121.36 202.749C117.87 206.779 114.58 210.969 111.67 215.479C105.27 225.429 119.46 235.599 127.62 227.789C130.3 225.219 132.93 222.589 135.54 219.929C138.23 222.739 141.13 225.289 144.36 227.139C153.07 232.139 164.44 221.889 158.57 212.939C156.34 209.549 153.58 206.479 150.73 203.489C154.7 198.939 158.61 194.329 162.34 189.619C170.15 179.769 157.48 166.039 148.19 175.469Z" fill="#2D2D2C"/>
<path d="M288.39 175.469C284.39 179.529 280.25 183.509 276.14 187.529C273.37 184.549 270.56 181.609 267.64 178.789C258.27 169.719 245.82 183.049 253.65 192.779C256.31 196.079 258.93 199.419 261.56 202.749C258.07 206.779 254.78 210.969 251.87 215.479C245.47 225.429 259.66 235.599 267.82 227.789C270.5 225.219 273.13 222.589 275.74 219.929C278.43 222.739 281.33 225.289 284.56 227.139C293.27 232.139 304.64 221.889 298.77 212.939C296.54 209.549 293.79 206.479 290.93 203.489C294.91 198.939 298.81 194.329 302.54 189.619C310.35 179.769 297.68 166.039 288.39 175.469Z" fill="#2D2D2C"/>
<path d="M49.7399 469.429C40.3099 456.249 55.4399 441.069 68.9599 444.339C72.1699 445.119 74.61 446.519 76.4 448.309C78.19 450.329 79.4899 452.829 80.1199 455.739C80.8099 459.749 80.07 464.219 78.29 468.269C72.55 477.979 57.2899 479.979 49.7399 469.429ZM93.39 451.569C93.16 450.859 92.9699 450.119 92.6999 449.429C90.1899 441.719 84.59 434.979 75.51 431.549C50.45 422.069 21.0499 448.939 34.7199 474.689C48.9799 501.559 87.8699 496.459 94.0999 466.699C95.2099 461.399 94.83 456.329 93.43 451.719C93.42 451.669 93.4 451.619 93.39 451.569Z" fill="#2D2D2C"/>
</svg>
