<svg width="663" height="480" viewBox="0 0 663 480" fill="none" xmlns="http://www.w3.org/2000/svg">
<path d="M182.42 286.95C163.49 293.05 145.21 299.25 126.78 306.79C126.25 307.01 125.79 306.19 126.22 305.83C141.18 293.38 162.47 284.59 182.01 283.93C183.8 283.87 184.03 286.44 182.42 286.95ZM189.14 272.85C169.21 269.38 148.52 282.01 131.85 291.21C123.27 295.67 114.43 301.25 110.91 310.69C107.49 319.84 117.37 325.52 124.57 327.13C146.02 331.92 178.5 326.91 196.87 314.98C213.65 304.08 209.29 276.36 189.14 272.85Z" fill="#2D2D2C"/>
<path d="M161.57 248.32C164.93 250.81 171.56 253.72 175.15 250.33C175.59 249.91 175.56 249.19 175.15 248.76C172.21 245.72 165.68 245.99 161.8 246.57C160.88 246.71 161 247.9 161.57 248.32Z" fill="#2D2D2C"/>
<path d="M87.6999 341.24C81.5899 340.39 74.4601 339 68.5601 341.25C68.1301 341.42 67.8599 342.16 68.4099 342.39C74.0599 344.81 80.77 346.76 86.97 346.61C88.08 346.59 89.4201 345.81 89.6001 344.61C89.6301 344.41 89.7099 344.06 89.6999 343.88C89.5899 342.78 88.9499 341.42 87.6999 341.24Z" fill="#2D2D2C"/>
<path d="M74.71 335.28C79.13 336.54 84.2801 336.59 88.5701 334.95C89.4901 334.59 89.9299 333.47 89.1599 332.7C85.2799 328.78 77.7699 330.18 74.4399 334.23C74.1499 334.59 74.23 335.14 74.71 335.28Z" fill="#2D2D2C"/>
<path d="M192.47 337.48C188.43 338.37 186.23 341.69 183.86 344.79C180.96 348.61 179.54 352.48 177.69 356.78C177.29 357.68 178.33 358.67 179.12 357.88C182.29 354.69 185.82 352.07 188.79 348.59C191.31 345.63 194.03 342.89 194.18 338.78C194.21 337.86 193.3 337.29 192.47 337.48Z" fill="#2D2D2C"/>
<path d="M102.52 389.74C101.86 389.8 101.69 390.72 102.36 390.92C109.95 393.23 115.72 395.83 121.48 401.49C127.1 407.01 131.29 414.86 133.95 422.24C134.08 422.62 134.76 422.59 134.7 422.14C132.91 407.82 118.86 388.31 102.52 389.74Z" fill="#2D2D2C"/>
<path d="M629.25 313.06C610.35 311.27 597.5 326.94 598.25 342.73C597 350.84 600.39 360.17 606.57 366.28C617.02 376.63 633.35 374.76 644.1 366.3C652.9 359.38 659.28 347.29 657.78 335.91C655.79 320.81 643.23 314.38 629.25 313.06Z" fill="#2D2D2C"/>
<path d="M591.03 176.11C595.34 174.13 598.86 170.8 603.17 168.74C608.25 166.31 614.02 165.93 618.92 163.11C619.59 162.73 619.41 161.76 618.71 161.53C609.58 158.59 592.44 165.38 590.33 175.57C590.24 176.01 590.65 176.29 591.03 176.11Z" fill="#2D2D2C"/>
<path d="M595.45 182.41C594.9 182.89 595.49 183.65 596.1 183.53C598.61 183.04 600.84 182.27 603.27 181.46C606.13 180.49 609.09 180.03 611.67 178.37C612.17 178.05 612.14 177.2 611.5 177.06C606.13 175.87 599.42 178.88 595.45 182.41Z" fill="#2D2D2C"/>
<path d="M631.28 221.02C625.42 216.65 615.64 218.16 610.77 223.36C610.21 223.95 610.77 224.79 611.51 224.65C617.88 223.43 625.05 225.15 631.05 222.78C631.86 222.46 631.97 221.54 631.28 221.02Z" fill="#2D2D2C"/>
<path d="M615.04 227.74C613.77 228.2 613.77 229.87 615.04 230.33C618.26 231.49 622.18 231.81 625.12 229.86C625.74 229.45 625.74 228.61 625.12 228.2C622.18 226.26 618.26 226.58 615.04 227.74Z" fill="#2D2D2C"/>
<path d="M562.78 227.64C562.18 230.65 562.59 233.67 562.56 236.73C562.53 239.88 561.46 243.09 563.38 245.88C563.72 246.38 564.28 246.41 564.74 246.06C567.31 244.04 567.19 240.95 567.23 237.93C567.29 234.33 567.1 230.51 565.33 227.3C564.77 226.29 563.02 226.44 562.78 227.64Z" fill="#2D2D2C"/>
<path d="M594.68 300.55C592.35 301.46 590.21 302.46 587.95 303.57C585.68 304.67 583.28 305.27 581.22 306.76C580.74 307.11 580.93 307.77 581.51 307.84C586.4 308.39 592.24 305.16 595.25 301.52C595.57 301.12 595.28 300.32 594.68 300.55Z" fill="#2D2D2C"/>
<path d="M518.93 126C524.51 118.4 527.25 108.99 532.14 100.91C535.07 96.0699 538.4 91.6099 542.36 87.5599C545.3 84.5399 549.43 82.4599 551.25 78.5299C551.4 78.1999 551.26 77.8899 550.93 77.7499C542.28 74.1799 533.19 87.3499 528.95 92.9899C522.54 101.52 514.68 114.6 516.91 125.74C517.11 126.77 518.41 126.7 518.93 126Z" fill="#2D2D2C"/>
<path d="M544.42 112.35C539.39 113.59 536.27 116.14 533.04 120.12C529.75 124.18 528.36 127.49 528.53 132.62C528.55 133.39 529.45 133.54 529.88 132.99C534.82 126.35 541.02 120.65 545.34 113.55C545.72 112.92 545.1 112.18 544.42 112.35Z" fill="#2D2D2C"/>
<path d="M528.22 173.39C528.8 173.32 529.35 172.56 528.77 172.08C523.47 167.78 515.29 165.76 508.52 166.71C507.8 166.81 507.75 167.89 508.32 168.2C514.09 171.29 521.66 174.18 528.22 173.39Z" fill="#2D2D2C"/>
<path d="M405.09 0.789978C505.36 5.29998 619.44 58.7 659.11 156.17C659.28 156.59 659.93 156.44 659.81 155.97C646.46 107.72 604.02 71.4499 562.84 46.3199C516.43 17.9899 459.85 -1.36007 405.09 0.119934C404.66 0.129934 404.66 0.779978 405.09 0.789978Z" fill="#2D2D2C"/>
<path d="M318.11 399.77C300.55 391.33 279.05 398.29 267.7 413.67C260.55 423.36 260.23 434.25 264.12 443.74C265.84 450.71 269.2 457.6 274.11 463.61C282.79 474.24 295.76 481.35 309.72 479.38C326.29 477.04 339.75 460.88 342.52 445C345.76 426.46 334.76 407.77 318.11 399.77Z" fill="#2D2D2C"/>
<path d="M402.52 226.44C402.2 227.01 401.52 227.42 400.86 227.39C397.94 227.26 395.36 227.17 392.57 226.26C391.79 226 391.79 224.94 392.57 224.68C395.36 223.77 397.94 223.68 400.86 223.55C401.52 223.52 402.2 223.93 402.52 224.5C402.99 225.34 402.99 225.6 402.52 226.44ZM385.39 226.54C373.91 231.25 361.43 232.97 349.92 237.75C337.24 243.02 327.09 250.7 315.44 257.59C314.96 257.87 314.22 257.4 314.44 256.83C319.21 244.73 333.08 237.87 344.5 233.2C357.11 228.06 371.54 222.41 385.39 224.4C386.61 224.58 386.25 226.18 385.39 226.54ZM411.54 217.48C375.87 204.66 334.33 220.21 309 245.77C308.91 245.84 308.81 245.86 308.72 245.93C286.64 265.86 297.96 286.45 325.42 289.11C356.85 292.16 397.22 285.72 422.93 266.66C446.35 249.29 434.56 225.75 411.54 217.48Z" fill="#2D2D2C"/>
<path d="M255.79 192.04C254.01 195.04 250.76 196.43 247.4 196.77C246.98 196.81 246.77 196.29 246.94 195.97C248.58 192.92 251.46 190.5 255.09 190.81C255.69 190.86 256.14 191.47 255.79 192.04ZM240.86 201.24C235.87 207.2 229.74 211.96 224.53 217.71C219.09 223.73 214.07 230.64 209.39 237.28C209.04 237.77 208.32 237.46 208.42 236.87C211.38 220.96 224.25 205.64 238.88 198.67C240.59 197.86 242.07 199.8 240.86 201.24ZM260.88 181.72C235.82 185.45 209.87 205.23 200.02 228.53C200.01 228.55 200 228.55 199.99 228.57C185.4 252.65 207.47 262.3 228.45 257.28C251.73 251.71 279.28 235.76 292.54 215.72C307.73 192.75 279.94 178.88 260.88 181.72Z" fill="#2D2D2C"/>
<path d="M528.22 216.24C528.18 216.71 527.88 217.01 527.41 217.06C524.6 217.31 522.65 214.03 521.69 211.82C521.56 211.54 521.71 211.27 522.02 211.24C524.68 210.96 528.48 213.26 528.22 216.24ZM515.36 208.71C506.54 210.09 498.16 206.28 489.29 206.15C479.57 206 470.09 207.68 460.48 208.88C460.11 208.93 460.07 208.43 460.31 208.26C474.29 198.34 502.22 194.54 515.78 207.1C516.27 207.55 516.07 208.59 515.36 208.71ZM528.75 196.89C510.6 182.31 485.25 183.14 464.88 192.26C446.18 200.62 440.19 220.82 455.07 235.42C455.29 235.75 455.41 236.09 455.71 236.39C475 255.87 510.24 260.84 533.46 245.82C553.62 232.78 543.93 209.08 528.75 196.89Z" fill="#2D2D2C"/>
<path d="M362.25 129.25C362.96 129.52 363.1 130.39 362.46 130.83C356.61 134.88 350.63 135.17 343.91 137.28C337.68 139.24 332.64 142.99 326.9 145.93C326.57 146.09 326.07 145.89 326.1 145.47C327.1 130.79 351.01 124.95 362.25 129.25ZM379.16 124.03C362.49 111.93 340.99 113.88 326.87 128.57C315.86 140.03 308.37 159.56 316.68 174.39C335.29 217.02 433.28 163.34 379.16 124.03Z" fill="#2D2D2C"/>
<path d="M637.61 253.98C627.51 265.48 602.72 268.88 588.71 272.78C543.1 285.46 511.44 323.03 465.93 334.26C448.04 338.67 435.4 357.53 434.86 375.32C434.42 389.8 436.66 404.11 436.57 418.59C436.44 438.45 411.18 452.84 400.2 433.11C395.66 424.95 393.97 415.31 392.66 406.21C392.59 405.7 392.45 405.23 392.27 404.8C388.28 360.8 365.37 329.85 318.84 327.61C273.25 325.41 222.96 349.84 202.88 391.85C197.49 403.13 200.77 415.7 195.34 427.21C191.06 436.26 180.19 442 170.49 437.63C159.71 432.77 161.03 415.24 160.62 406.06C159.83 388.44 150 357.96 127.12 359C95.9001 360.42 65.5301 370.76 34.3701 373.53C9.57011 375.74 24.4701 359.59 35.5701 347.44C51.7501 329.74 70.1501 313.69 87.3401 296.97C147.24 238.76 206.86 180.21 268.43 123.76C280.12 113.05 291.95 102.52 303.92 92.1199C309.69 87.1099 304.7 74.3399 304.26 68.3799C301.01 23.9099 356.97 20.74 389.44 21.54C470.08 23.53 555.41 61.4699 609.66 120.77C632.23 145.44 644.88 176.64 646.6 209.8C647.35 224.54 647.89 242.3 637.61 253.98ZM606.13 95.4699C556.54 45.9199 483.64 18.62 415.47 8.55997C375.34 2.63997 303.5 0.869884 289.65 50.2199C286.97 59.7999 288.3 70.5599 289.39 80.2199C290.28 88.1199 268.96 101.61 263.33 106.67C232.84 134.09 203.14 162.4 173.53 190.78C143.3 219.77 113.31 249 83.28 278.19C57.11 303.64 22.2999 328.83 4.69994 361.33C-13.8301 395.53 41.6099 389.41 57.6999 386.77C71.7199 384.48 85.6599 381.73 99.6399 379.23C121.22 375.37 141.37 383.16 144.33 406.06C145.08 411.93 144.28 418.02 145.48 423.86C148.47 438.44 157.34 455.25 174.63 455.55C190.13 455.82 201.01 447.97 209.41 435.43C215.02 427.05 215.79 416.12 216 406.4C216.47 385.62 242.76 367.79 257.92 358.26C276.85 346.36 301.4 343.16 323.42 344.08C359.14 345.57 374.84 374.13 379.53 406.16C379.41 406.73 379.37 407.34 379.44 408.01C381.7 428.97 388.56 450.79 407.38 462.36C424.91 473.15 444.78 448.7 448.49 434.28C458.33 395.93 432.4 356.13 487.47 344.57C510.71 339.69 532.74 316.66 552.45 304.24C588.22 281.69 651.54 287.72 660.44 237.13C669.96 182.99 643.27 132.59 606.13 95.4699Z" fill="#2D2D2C"/>
<path d="M510.76 129.18C486.08 114.36 459.86 105.79 432.25 98.3299C399.7 89.5299 365.32 79.0499 331.29 83.3599C329.95 83.5299 329.91 85.3499 331.29 85.4699C386.18 90.3899 441.81 103.4 491.3 128.27C536.25 150.84 587.44 189.79 601.43 240.77C601.93 242.6 605.06 242.3 604.83 240.31C599.02 189.17 552.2 154.06 510.76 129.18Z" fill="#2D2D2C"/>
<path d="M452.01 318.13C438.47 321.75 420.48 338.69 424.96 354.35C425.14 354.98 425.94 355.03 426.29 354.52C430.36 348.54 432.45 341.7 437.03 335.92C441.6 330.14 447.84 325.21 453.17 320.14C454.06 319.29 453.15 317.83 452.01 318.13Z" fill="#2D2D2C"/>
<path d="M255.17 328.71C235.68 334.3 213.52 348.85 202.34 366.03C201.88 366.74 202.81 367.72 203.53 367.22C212.13 361.08 219.86 353.87 228.59 347.86C237.49 341.73 247.04 336.59 255.84 330.29C256.6 329.75 256.17 328.42 255.17 328.71Z" fill="#2D2D2C"/>
<path d="M276.33 321.66C270.88 319.32 263.97 321.89 260.06 325.99C259.68 326.38 259.92 327.2 260.53 327.14C265.81 326.63 271.55 325.42 276.33 323.07C276.84 322.82 276.88 321.9 276.33 321.66Z" fill="#2D2D2C"/>
<path d="M365.42 80.0399C366.16 80.6799 367.12 80.2099 367.23 79.2899C368.07 72.2499 365.42 65.0498 365.71 57.8298C366.03 50.1598 369.02 42.7298 370.74 35.3198C370.84 34.8598 370.29 34.4898 369.93 34.8498C360.77 44.1298 353.97 70.1599 365.42 80.0399Z" fill="#2D2D2C"/>
<path d="M434.78 81.8799C438.74 76.0199 440.5 70.0399 442.93 63.4499C445.99 55.1599 451.01 49.35 455.38 41.92C455.91 41.02 455.04 40.0099 454.07 40.2299C439.21 43.5499 432.7 68.5499 432.81 81.3399C432.81 82.4399 434.2 82.7199 434.78 81.8799Z" fill="#2D2D2C"/>
<path d="M446.23 83.1199C446 83.9199 446.96 84.7899 447.71 84.2599C451.29 81.7299 453.38 78.2798 455.86 74.7198C459.16 69.9698 462.45 65.1999 465.79 60.4799C466.56 59.4099 465.02 57.8299 463.95 58.6399C459.71 61.8399 456.48 65.3399 453.52 69.7399C450.67 73.9599 447.6 78.1699 446.23 83.1199Z" fill="#2D2D2C"/>
<path d="M260.48 268.69C256.4 266.89 251.5 267.82 247.16 268.29C243.67 268.66 240.45 269.9 238.32 272.75C238 273.17 238.36 273.73 238.78 273.88C241.98 275.01 245.29 274.9 248.63 274.66C252.62 274.37 256.77 275.14 260.48 273.48C262.29 272.67 262.3 269.49 260.48 268.69Z" fill="#2D2D2C"/>
<path d="M244.32 279.81C242.81 280.14 237.93 282.02 240.05 284.38C241.5 285.99 243.87 285.48 245.79 285.14C248.58 284.64 252.23 285.01 254.63 283.46C256.08 282.52 256.34 280.13 254.63 279.26C251.59 277.71 247.51 279.11 244.32 279.81Z" fill="#2D2D2C"/>
<path d="M325.51 203.86C324.19 204.38 322.84 204.84 321.55 205.46C320.4 206.01 319.57 207.07 318.57 207.81C318.09 208.17 317.98 209.19 318.77 209.31C321.76 209.74 323.95 209.82 326.96 209.1C329.9 208.4 333.18 207.55 335.21 205.22C336.4 203.85 335.65 201.61 333.7 201.59C330.83 201.56 328.17 202.82 325.51 203.86Z" fill="#2D2D2C"/>
<path d="M292.73 157.7C296.32 156.71 293.07 150.82 292.36 148.93C290.98 145.28 289.85 141.72 286.81 139.16C286.24 138.67 285.24 138.95 285.25 139.8C285.34 143.49 286.4 146.74 287.5 150.27C288.19 152.44 289.18 158.67 292.73 157.7Z" fill="#2D2D2C"/>
<path d="M285.94 163.2C286.62 163.31 287.11 162.83 287 162.13C286.2 157.11 280.75 153 275.91 152.37C275.29 152.29 275.01 153.07 275.24 153.52C277.37 157.59 281.13 162.44 285.94 163.2Z" fill="#2D2D2C"/>
<path d="M428.58 176.64C425.07 176 422.41 178.64 419.91 180.82C417.02 183.35 415.29 186.13 414.24 189.74C413.95 190.75 415.11 191.64 416.01 191.09C418.38 189.66 420.45 188.2 422.66 186.46C424.06 185.34 425.41 184.26 426.95 183.3C428.32 182.45 429.37 181.95 430.13 180.46C430.82 179.08 430.32 176.96 428.58 176.64Z" fill="#2D2D2C"/>
<path d="M423 196.05C422.88 196.61 423.42 196.99 423.92 196.75C428.58 194.56 433.7 193.14 437.52 189.61C438 189.17 437.71 188.43 437.16 188.25C431.31 186.26 424.37 189.94 423 196.05Z" fill="#2D2D2C"/>
<path d="M455.59 278.01C457.66 276.95 459.77 275.96 461.77 274.79C463.96 273.5 464.62 272.49 466.27 270.67C466.77 270.12 466.44 269.2 465.66 269.19C461.55 269.18 459.06 270.11 455.43 272.27C451.83 274.41 448.38 276.55 445.66 279.8C445.29 280.24 445.49 281.08 446.17 281.04C449.59 280.81 452.59 279.58 455.59 278.01Z" fill="#2D2D2C"/>
<path d="M465.94 278.27C461.69 277.31 457.82 281.31 454.76 283.77C454.11 284.29 454.67 285.33 455.4 285.33C459.36 285.34 465.75 284.19 466.68 279.57C466.79 279.03 466.53 278.4 465.94 278.27Z" fill="#2D2D2C"/>
<path d="M469.5 165.35C470.04 165.45 470.51 165.2 470.69 164.67C471.71 161.64 469.3 158.8 468.03 156.16C466.43 152.85 464.76 150.01 462.13 147.43C461.55 146.85 460.56 147.43 460.77 148.22C461.7 151.75 462.8 155.02 464.25 158.38C465.41 161.06 466.25 164.7 469.5 165.35Z" fill="#2D2D2C"/>
<path d="M481.31 154.2C480.04 150.58 475.49 148.26 471.98 147.4C471.53 147.29 471.08 147.7 471.21 148.17C472.16 151.57 475.49 155.6 479.01 156.49C480.31 156.82 481.8 155.59 481.31 154.2Z" fill="#2D2D2C"/>
<path d="M426.95 134.72C420.18 133.23 413.75 138.53 409.63 143.26C408.92 144.08 409.79 145.1 410.74 144.69C416.23 142.34 423.39 141.23 427.4 136.41C427.85 135.87 427.75 134.9 426.95 134.72Z" fill="#2D2D2C"/>
<path d="M305.98 301.19C302.18 300.9 297.91 300.25 294.17 301.11C293.49 301.26 293.44 302.18 293.98 302.52C297.04 304.39 301.11 305 304.63 305.46C308.19 305.92 312.54 307 315.6 304.62C316.01 304.3 315.99 303.51 315.6 303.19C312.95 301.04 309.21 301.43 305.98 301.19Z" fill="#2D2D2C"/>
<path d="M230.26 177.6C231.49 176.71 233.16 176.24 234.45 175.41C236.1 174.34 237.75 173.29 239.36 172.16C242.16 170.21 245.6 168.41 246.2 164.71C246.33 163.97 245.91 163.38 245.14 163.31C241.39 163.01 238.43 165.6 235.58 167.65C234.02 168.76 232.68 170.02 231.37 171.42C229.99 172.89 229.71 174.51 228.88 176.21C228.49 177.04 229.37 178.25 230.26 177.6Z" fill="#2D2D2C"/>
<path d="M372.5 301.2C371.82 301.1 371.41 301.78 371.85 302.33C374.26 305.33 377.04 307.55 380.18 309.76C384.06 312.49 388.01 315.5 392.19 317.75C394.93 319.23 398.1 315.51 395.61 313.31C389.45 307.87 380.71 302.46 372.5 301.2Z" fill="#2D2D2C"/>
<path d="M394.1 300.97C393.38 300.85 392.59 301.58 393.08 302.31C395.14 305.46 400.34 310.42 404.45 309.21C405.17 309 405.43 308.36 405.33 307.67C404.72 303.41 397.66 301.56 394.1 300.97Z" fill="#2D2D2C"/>
<path d="M574.17 309.76C561.94 313.59 548.75 318.42 537.92 325.35C524.79 333.75 515.64 347.19 500.66 352.86C486.94 358.04 466.2 358.76 464.13 377.01C464.08 377.46 464.78 377.63 464.98 377.24C474.28 358.43 495.46 361.27 511.52 351.73C521.94 345.54 530.16 335.89 539.88 328.7C550.31 320.99 563.81 318.16 574.63 310.86C575.18 310.49 574.85 309.55 574.17 309.76Z" fill="#2D2D2C"/>
<path d="M24.76 317.71C63.61 283.15 99.9099 245.46 136.95 208.99C178.64 167.96 222.7 128.27 261.65 84.5699C262.09 84.0899 261.43 83.4299 260.94 83.8599C218.06 122.02 178.31 164.07 137.38 204.28C99.4998 241.5 59.7499 277.68 24.3899 317.34C24.1599 317.59 24.51 317.94 24.76 317.71Z" fill="#2D2D2C"/>
<path d="M315.78 350.04C315.48 350.09 315.48 350.6 315.78 350.64C333.11 353.58 344.47 359.73 353.94 375.03C361.1 386.59 364.93 399.92 370.81 412.14C371.06 412.66 371.89 412.29 371.73 411.75C364.55 386.66 349.27 344.67 315.78 350.04Z" fill="#2D2D2C"/>
<path d="M278.83 359.18C260.69 366.2 237.48 379.01 227.2 396.23C226.88 396.77 227.59 397.25 228.03 396.87C236.27 389.74 244.12 382.64 253.22 376.54C261.77 370.79 270.89 366.13 279.14 359.93C279.48 359.67 279.3 359 278.83 359.18Z" fill="#2D2D2C"/>
<path d="M296.52 352.89C292.8 352.12 287.93 354.29 285.68 357.27C285.36 357.69 285.97 358.2 286.37 357.96C289.6 356.09 293.91 356.18 296.76 353.81C297.08 353.55 296.91 352.97 296.52 352.89Z" fill="#2D2D2C"/>
</svg>
