<svg width="347" height="797" viewBox="0 0 347 797" fill="none" xmlns="http://www.w3.org/2000/svg">
<path d="M183.64 50.15C178.56 52.89 176.06 58.81 175.51 64.27C174.86 70.71 178.59 76.2599 184.49 78.5699C190.84 81.0599 200.89 77.95 203.7 71.53C203.96 70.95 204.18 70.36 204.36 69.76C207.35 64.36 204.58 57.9699 201 53.5799C196.72 48.3399 189.53 46.97 183.64 50.15Z" fill="#2D2D2C"/>
<path d="M236.78 9.7099C231.54 10.0999 226.89 12.68 224.32 17.39C221.41 22.72 221.83 28.8 222.85 34.56C223.29 37.07 225.04 39.01 227.25 40.15C229.34 42.59 232.18 44.3899 235.33 44.8699C246.93 46.6399 259.37 35.0199 255.64 23.0999C253.24 15.4299 245 9.0899 236.78 9.7099Z" fill="#2D2D2C"/>
<path d="M41.9399 327.24C36.7099 327.63 32.05 330.21 29.49 334.92C26.58 340.25 27 346.33 28.01 352.09C28.46 354.6 30.21 356.54 32.42 357.67C34.51 360.12 37.34 361.92 40.5 362.4C52.09 364.17 64.53 352.55 60.8 340.63C58.41 332.96 50.1699 326.62 41.9399 327.24Z" fill="#2D2D2C"/>
<path d="M40.5401 409.35C40.2301 409.54 40.4201 410.08 40.8001 409.96C43.0901 409.23 45.47 408.7 47.83 408.29C50.92 407.75 54.23 407.88 57.24 406.97C57.65 406.85 57.66 406.26 57.24 406.14C52.07 404.71 44.9901 406.52 40.5401 409.35Z" fill="#2D2D2C"/>
<path d="M333.57 750.01C322 798.15 251.32 790.85 214.05 795.1C213.84 795.13 213.84 795.41 214.05 795.44C245.84 798.84 334.25 799.08 334.57 750.14C334.57 749.58 333.71 749.45 333.57 750.01Z" fill="#2D2D2C"/>
<path d="M305.73 642.77C305.4 644.15 303.45 643.76 303.37 642.45C300.53 593.78 296.4 538.47 302.6 490.15C302.65 489.71 303.37 489.5 303.45 490.03C310.5 537.61 316.97 595.67 305.73 642.77ZM286.98 725.11C286.28 722.04 285.08 718.12 287.87 715.76C288.12 715.55 288.52 715.41 288.81 715.63C291.35 717.57 291.61 720.71 292.35 723.64C293.24 727.13 287.78 728.61 286.98 725.11ZM277.56 664.67C277.23 665.06 276.54 665.03 276.2 664.67C273.61 661.88 274.02 656.54 274.64 653.03C274.77 652.34 275.63 652.42 275.97 652.86C278.27 655.89 280.35 661.41 277.56 664.67ZM264.6 586.71C264.49 583.24 264.16 580.36 264.83 576.93C264.92 576.44 265.56 576.45 265.8 576.8C268 580.06 268.78 582.79 269.11 586.71C269.36 589.57 264.69 589.63 264.6 586.71ZM262.32 541.68C261.96 541.86 261.69 541.98 261.27 541.97C260.32 541.94 259.51 541.34 259.24 540.42C258.25 537.04 256.99 533.64 256.59 530.15C256.48 529.18 257.79 528.81 258.39 529.4C261.02 531.96 262.53 535.74 263.29 539.31C263.48 540.19 263.19 541.24 262.32 541.68ZM251.93 541.66C251.55 541.94 250.96 541.73 250.75 541.35C249.79 539.68 249.89 538.31 249.88 536.46C249.86 534.85 249.59 533.29 249.67 531.68C249.7 530.87 250.53 530.39 251.26 530.77C254.96 532.72 255.26 539.28 251.93 541.66ZM246.72 729.22C246.46 729.54 246 729.5 245.67 729.35C241.57 727.52 242.97 722.15 242.55 718.61C242.5 718.18 243.1 717.99 243.37 718.26C246.02 721.05 249.75 725.38 246.72 729.22ZM240.58 635.9C240.36 636.2 239.94 636.38 239.58 636.15C237.21 634.65 237.03 632.34 236.08 629.86C235.22 627.6 234.51 625.65 234.47 623.22C234.46 622.39 235.39 622.18 235.95 622.61C239.14 625.1 243.34 632.04 240.58 635.9ZM239.82 729.93C239.5 732.73 235.8 732.73 235.47 729.93C235.03 726.1 235.15 721.64 236.85 718.14C237.14 717.55 238.14 717.55 238.43 718.14C240.14 721.64 240.27 726.1 239.82 729.93ZM232.08 641.09C228.91 642.37 228.92 636.86 228.82 635.25C228.57 631.54 226.46 626.64 227.82 623.05C227.92 622.75 228.24 622.5 228.58 622.62C231.95 623.79 232.73 627.92 233.24 631.05C233.67 633.72 235.46 639.72 232.08 641.09ZM226.7 688.22C226.44 685.02 226.02 681.54 227.08 678.45C227.23 678.04 227.72 677.88 228.06 678.2C230.74 680.77 231.5 684.65 231.61 688.22C231.72 691.42 226.95 691.34 226.7 688.22ZM218.42 580.19C214.28 580.19 215.6 571.11 217.11 569.06C217.39 568.66 217.89 568.66 218.19 569.06C219.29 570.57 221.83 580.19 218.42 580.19ZM214.05 517.7C213.68 515.05 212.65 511.53 213.94 509.01C214.11 508.69 214.62 508.53 214.93 508.75C216.48 509.89 217.09 511.95 217.47 513.78C217.96 516.15 219.07 518.91 218.43 521.31C218.27 521.88 217.78 522.42 217.18 522.55C214.53 523.12 214.29 519.39 214.05 517.7ZM186.94 475C189.05 460.19 191.56 444.15 193.43 427.77C207.49 428.39 221.53 429.33 235.49 430.74C256.24 432.84 278.61 435.82 297.91 444.26C301.61 445.88 306.78 448.29 308.99 451.42C309.88 452.68 310.01 452.55 306.84 455.29C295.32 465.24 274.07 467.1 259.85 469.39C235.69 473.29 211.31 474 186.94 475ZM181.67 750.7C181.15 751.42 180.29 751.39 179.76 750.7C177.69 747.96 177.89 744.46 178.16 741.11C178.43 737.81 179.23 735.65 180.99 732.93C181.31 732.43 182.02 732.65 182.07 733.22C182.31 736.62 182.8 739.98 182.97 743.41C183.1 746.31 183.43 748.31 181.67 750.7ZM174.38 236.54C175.95 229.29 178.56 222.43 181.91 215.9C194.83 247.75 207.92 276.6 209.93 311.06C202.4 320.44 195.45 330.27 191.19 341.34C178.13 307.07 166.23 273.93 174.38 236.54ZM156.83 248.76C154.04 245.57 151.02 242.58 147.82 239.74C145.64 223.45 142.07 207.75 142.07 190.99C142.06 173.65 146.68 156.98 148.87 140.01C162.13 154.72 173.39 170.75 179.93 189.77C166.32 208.15 159.05 228.17 156.83 248.76ZM87.1102 280.77C110.72 283.56 140.21 280.97 156.18 269.25C156.61 278.88 158.02 288.54 160.24 298.13C132.78 297.09 107.9 291.95 87.1102 280.77ZM32.9302 211.98C32.9302 211.97 32.9302 211.97 32.9202 211.96C52.8202 232.87 100.48 244.09 125.02 232.1C135.1 241.57 145.63 250.63 156.12 259.6C156.11 259.84 156.12 260.07 156.12 260.3C154.25 261.4 152.39 262.58 150.25 263.8C139.6 269.93 126.35 272.04 114.37 273.37C100.2 274.93 86.5602 272.65 72.7302 271.51C55.0502 258.05 41.3102 238.83 32.9302 211.98ZM26.2502 137.41C31.7802 145.11 39.3901 152.03 44.9501 156.97C53.2701 164.35 67.5202 176.01 80.2802 178.63C90.7202 196.31 104.12 211.78 118.81 226.15C104.4 226.54 90.8201 229.07 75.4401 225.81C57.8101 222.07 45.6302 211.91 30.7402 203.82C25.1102 181.9 24.0602 159.6 26.2502 137.41ZM47.9401 51.89C46.7901 87.33 57.8602 127.68 69.2902 156.43C71.1702 161.16 73.3201 165.7 75.6001 170.14C74.3101 169.62 73.0302 169.09 71.7702 168.47C63.4802 164.41 55.8902 158.97 48.7802 153.13C41.7202 147.33 35.6302 140.43 30.3602 132.98C29.2502 131.42 28.3002 129.76 27.3802 128.09C30.9502 102.16 38.5601 76.5 47.9401 51.89ZM56.6202 30.4C56.8002 29.97 56.9902 29.5499 57.1702 29.1199C61.5802 43.0699 68.7102 55.38 77.4002 66.78C70.4302 80.7 65.4402 101.6 65.3602 120.29C57.8602 91 55.5002 59.14 56.6202 30.4ZM104.25 96.2499C95.0002 122.13 87.8202 159.83 96.2602 188.22C90.5602 179.71 85.4302 170.81 80.7902 161.85C78.6602 157.76 76.7402 153.49 74.9302 149.13C75.1202 135.28 72.0702 121.76 73.3802 107.57C74.5102 95.2999 78.6002 83.77 81.5502 72.04C88.4802 80.48 96.2202 88.4399 104.25 96.2499ZM145.22 136.04C133.5 163.36 130.3 204.3 140.17 233.35C135.17 229.34 130.05 225.43 125.18 221.35C118.92 216.1 113.25 210.19 107.99 203.9C103.49 185.88 99.0202 169.68 100.01 150.34C100.89 133.26 106.01 116.69 107.92 99.79C120.43 111.77 133.46 123.49 145.22 136.04ZM194.05 197.04C195.1 196.26 195.95 195.25 196.46 194.02C205.22 183.17 215.36 173.28 225.01 164.05C226.44 162.68 227.91 161.3 229.37 159.93C232.71 179.02 237.07 197.87 239.46 217.14C242.39 240.7 237.96 261.89 231.47 283.83C227.03 289.92 222.3 295.97 217.26 302.08C217.36 287.84 210.51 272.3 205.82 260.15C199.94 244.92 195.98 224.32 183.92 212.21C186.9 206.95 190.31 201.89 194.05 197.04ZM263.73 126.63C267.61 138.71 271.89 150.15 273.33 163.61C274.72 176.65 272.76 188.95 271.28 201.49C269.2 207.72 267.11 213.88 265.06 219.9C259.12 237.35 251.67 252.58 242.73 267.02C251.76 231.88 242.21 190.88 232.63 156.85C243.19 146.96 253.91 137.09 263.73 126.63ZM291.35 88.9C290.17 100.45 290.38 112.31 289.53 123.85C288.25 141.11 284.25 158.73 279.24 176.06C279.01 171.65 278.63 167.41 278.32 163.61C277.32 151.7 275.23 133.88 267.83 122.15C277.03 111.88 285.18 100.96 291.35 88.9ZM299.96 76.7499C306.73 92.9199 312.79 109.35 317.64 126.02C314.69 133.76 311.83 141.39 307.08 148.67C302.64 155.45 297.1 161.49 291.45 167.26C290.49 168.24 289.5 169.15 288.54 170.02C295.58 139.5 299.32 108.38 299.96 76.7499ZM328.52 182.66C319.89 195.8 310.98 207.6 298.56 218.62C290.19 226.04 281.03 232.53 271.69 238.67C269.52 240.11 267.22 241.38 264.94 242.68C266.42 239.38 267.97 236.12 269.28 232.72C276.21 214.78 281.85 196.58 286.45 178.19C295.59 173.26 303.05 162.24 308.79 154.5C312.91 148.96 317.23 142.08 320.07 134.85C324.21 150.59 327.15 166.54 328.52 182.66ZM324.21 249.13C323.64 251.62 322.91 253.92 322.23 256.28C310.57 264.67 299.72 274.19 286.48 280.96C268.7 290.04 251.82 292.34 233.51 296.67C243.63 282.11 253.13 267.18 261.01 251.27C275.86 246.85 291.57 231.33 302.21 222.28C311.09 214.72 321.85 204.75 329.18 193.57C329.88 211.88 328.5 230.42 324.21 249.13ZM201.6 341.37C210.69 328.35 220.12 315.59 229.27 302.67C246.11 308.07 270.03 295.68 284.78 288.93C293.14 285.11 306.4 278.98 317.11 271.13C297.09 318.63 252.91 337.98 201.6 341.37ZM176.25 686.83C175.75 687.52 174.93 687.49 174.42 686.83C172.78 684.68 172.66 682.92 172.31 680.24C172.04 678.11 171.74 676.12 172.8 674.18C173.08 673.65 173.87 673.41 174.38 673.76C176.35 675.12 176.95 677.28 177.3 679.57C177.75 682.46 177.98 684.43 176.25 686.83ZM170.83 475.76C169.07 475.86 167.33 475.94 165.58 476.05C134.23 472.9 102.73 473.04 71.7502 466.66C61.3102 464.51 40.4002 461.3 34.7402 450.66C34.7402 450.69 34.8301 450.74 34.8201 450.75C35.5601 449.12 36.8502 448.1 38.2302 446.92C43.3502 442.54 50.9602 440.37 57.2302 438.41C81.7402 430.74 108.11 428.83 133.61 427.66C147.43 427.02 161.32 426.96 175.21 427.21C174.35 443.34 173.07 459.48 170.83 475.72C170.83 475.73 170.83 475.75 170.83 475.76ZM164.96 687.29C161.87 686.37 163.57 681.13 164 679.08C164.64 676.07 165.29 673.4 167.92 671.62C168.59 671.17 169.29 671.79 169.37 672.45C169.67 675 169.45 688.64 164.96 687.29ZM165.61 535.47C168.23 533.97 168.94 538.55 169.08 539.97C169.3 542.1 170.34 547.09 167.34 547.93C164.53 548.73 164.34 544.24 164.36 542.6C164.39 540.51 163.39 536.74 165.61 535.47ZM161.32 614.96C159.25 611.53 160.32 606.02 161.98 602.61C162.37 601.83 163.68 601.83 164.06 602.61C165.72 606.02 166.8 611.53 164.73 614.96C163.96 616.24 162.09 616.24 161.32 614.96ZM155.2 547.45C155.36 545.11 155.32 542.17 156.09 539.93C156.79 537.91 157.68 536.33 158.68 534.47C158.9 534.06 159.65 534.11 159.74 534.6C160.05 536.56 160.73 538.5 160.53 540.53C160.3 542.84 160.13 545.13 160.1 547.45C160.07 550.63 154.99 550.59 155.2 547.45ZM137.15 766.41C133.61 765.83 131.25 765.05 129.32 762.05C129.07 761.65 129.32 761.11 129.75 760.99C131.27 760.54 132.39 760 134.11 760.13C136.05 760.26 137.96 760.63 139.9 760.74C141.98 760.86 146.24 761.18 145.77 764.32C145.2 768.08 139.56 766.81 137.15 766.41ZM114.82 578.22C114.95 575.73 115.35 574.02 116.68 571.89C117.27 570.97 118.73 571.33 118.74 572.45C118.77 574.38 118.91 576.29 118.93 578.22C118.94 578.9 118.55 579.7 117.91 579.99C117.01 580.42 116.74 580.43 115.83 579.99C115.22 579.71 114.78 578.89 114.82 578.22ZM110.82 694.37C111.17 693.89 111.8 693.87 112.15 694.37C114.84 698.23 114.11 704.89 111.29 708.41C110.93 708.87 110.29 708.62 110.01 708.25C107.26 704.62 108.17 697.98 110.82 694.37ZM99.3602 536.68C99.0502 534.1 100.13 531.03 101.18 528.67C101.96 526.94 102.6 525.27 104.24 524.22C104.54 524.03 104.91 524.17 105.1 524.45C106.27 526.2 106.1 528.57 105.68 530.57C105.17 533.04 104.98 535.65 103.71 537.86C102.45 540.05 99.6102 538.85 99.3602 536.68ZM100.13 612.88C100.4 612.28 101.18 612.57 101.36 613.04C102.93 617.01 102.73 622.84 98.8002 625.43C98.3802 625.7 97.7902 625.43 97.6702 624.96C96.6202 621.04 98.5802 616.43 100.13 612.88ZM88.3501 617.69C89.4401 615.03 90.0802 612.16 92.2402 610.13C92.7202 609.68 93.6601 609.69 93.9801 610.36C95.3701 613.32 94.2802 616.11 93.2602 619.05C92.3902 621.52 91.6501 625.15 88.7001 625.82C88.3501 625.91 87.8702 625.85 87.6202 625.54C85.6602 623.08 87.3101 620.24 88.3501 617.69ZM81.4501 669.17C81.8301 671.45 82.7502 686.23 78.1402 684.96C75.3102 684.19 76.7101 679.74 77.0801 677.89C77.7401 674.63 78.4802 671.9 80.0502 668.98C80.3502 668.44 81.3401 668.5 81.4501 669.17ZM78.3201 516.21C77.8501 516.59 77.1402 516.6 76.8102 516.02C74.7102 512.28 76.9801 505.89 79.4701 502.75C79.7901 502.33 80.4701 502.6 80.5901 503.04C81.6801 506.75 81.5601 513.61 78.3201 516.21ZM70.8702 575.69C71.3802 575.19 72.4001 575.52 72.3501 576.3C72.2401 577.8 71.8401 590.85 67.9701 588.58C63.7701 586.12 68.6102 577.91 70.8702 575.69ZM120.72 763.08C53.6301 768.98 40.9002 708.54 39.1702 656.23C38.0602 622.13 37.7702 587.88 39.0602 553.78C39.6702 537.48 36.0601 510.8 44.1901 496.08C44.3801 495.73 44.8501 495.85 44.9701 496.18C50.1801 510.45 45.9102 531.95 46.1102 547.01C46.4502 573.86 46.7202 600.73 47.9302 627.56C49.0302 651.85 49.6401 676.72 53.8201 700.73C60.3601 738.18 89.9601 747.4 121.09 760.34C122.54 760.94 122.34 762.93 120.72 763.08ZM324.94 664.52C324.96 595.48 324.32 526.44 323.65 457.4C324.86 454.2 325.05 450.69 323.59 447.06C319.1 435.87 305.86 430.88 295.38 427.18C274.08 419.67 250.88 417.03 228.55 414.74C217.38 413.59 206.17 412.89 194.93 412.36C196.49 393.19 196.73 374.01 193.97 356.29C255.92 362.02 310.01 331.02 333.97 272.26C362.62 201.95 338.99 111.33 302.39 48.51C302.28 48.17 302.05 47.8999 301.88 47.5999C301.86 47.5699 301.85 47.54 301.83 47.52C301.82 47.51 301.81 47.4999 301.81 47.4899C301.46 46.9099 301.04 46.4099 300.5 45.9899C298.25 43.7899 295.27 43.7299 292.94 45.1299C291.34 45.8499 290.02 47.13 289.54 49.16C276.23 105.46 227.92 135.05 191.6 175.52C162.61 109.11 83.3202 79.1599 65.8802 5.5799C65.4002 3.5499 64.0801 2.26999 62.4701 1.54999C60.1401 0.149992 57.1702 0.209968 54.9102 2.39997C54.3802 2.81997 53.9601 3.32998 53.6001 3.90998C53.6001 3.91998 53.5901 3.92 53.5901 3.93C53.5701 3.96 53.5602 3.97995 53.5402 4.00995C53.3602 4.31995 53.1502 4.58 53.0302 4.93C15.1402 69.95 -4.55988 156.02 21.4501 228.67C43.0401 288.96 102.85 318.99 164.14 312.4C167.71 323.63 172.34 334.65 177.8 345.33C176.96 367.55 176.7 389.61 175.89 411.65C159.17 411.34 142.45 411.61 125.82 412.4C101.43 413.56 76.4902 416.11 53.0002 423.07C41.6302 426.44 27.1901 431.66 21.0901 442.73C17.9701 448.39 18.2602 453.41 20.4802 457.77C19.4202 533.35 17.9501 608.93 18.5701 684.51C18.8101 714.65 18.8701 759.16 53.4401 770.2C102.31 785.82 159.05 783.28 209.46 781.24C235.58 780.19 292.68 781.86 312.86 760.43C333.69 738.3 324.94 692.57 324.94 664.52Z" fill="#2D2D2C"/>
<path d="M332.56 300.08C309.51 341.45 262.06 363.78 217.06 370.4C216.81 370.44 216.81 370.88 217.06 370.91C239.55 374.25 263.87 363.21 283 352.52C304.04 340.78 325.26 323.82 333.57 300.51C333.78 299.91 332.86 299.55 332.56 300.08Z" fill="#2D2D2C"/>
<path d="M337.94 466.05C335.68 540.4 335.43 614.99 336.8 689.37C336.81 689.81 337.47 689.81 337.48 689.37C338.85 614.95 338.4 540.48 338.38 466.05C338.38 465.76 337.95 465.77 337.94 466.05Z" fill="#2D2D2C"/>
<path d="M149.47 325.55C150.59 325.21 150.43 323.29 149.18 323.42C114.39 327.22 83.8801 319.59 56.8201 296.81C29.5701 273.86 15.6801 242.26 3.95008 209.59C3.89008 209.42 3.60013 209.43 3.62013 209.63C11.7501 274.77 79.2201 346.63 149.47 325.55Z" fill="#2D2D2C"/>
<path d="M32.59 412.99C32.92 412.92 32.8101 412.45 32.5101 412.42C8.57006 410.31 5.01002 453.15 3.22002 468.66C-0.829979 503.82 1.53005 539.17 3.25005 574.38C3.28005 574.96 4.14009 574.96 4.17009 574.38C5.36009 545.74 3.81003 517.07 5.10003 488.44C6.02003 468.01 5.33002 418.27 32.59 412.99Z" fill="#2D2D2C"/>
<path d="M264.73 73.3399C264.91 72.8799 264.17 72.58 263.94 73C257.41 85.31 249.77 96.63 240.61 107.14C232.35 116.62 222.42 124.38 213.87 133.55C213.67 133.76 213.93 134.14 214.18 133.97C235.7 119.43 255.19 97.5899 264.73 73.3399Z" fill="#2D2D2C"/>
</svg>
