<svg width="666" height="797" viewBox="0 0 666 797" fill="none" xmlns="http://www.w3.org/2000/svg">
<path d="M342.668 50.15C337.588 52.89 335.088 58.81 334.538 64.27C333.888 70.71 337.618 76.2599 343.518 78.5699C349.868 81.0599 359.918 77.95 362.728 71.53C362.988 70.95 363.208 70.36 363.388 69.76C366.378 64.36 363.608 57.9699 360.028 53.5799C355.748 48.3399 348.558 46.97 342.668 50.15Z" fill="#2D2D2C"/>
<path d="M395.808 9.7099C390.568 10.0999 385.917 12.68 383.347 17.39C380.437 22.72 380.858 28.8 381.878 34.56C382.318 37.07 384.068 39.01 386.278 40.15C388.368 42.59 391.207 44.3899 394.357 44.8699C405.957 46.6399 418.397 35.0199 414.667 23.0999C412.267 15.4299 404.028 9.0899 395.808 9.7099Z" fill="#2D2D2C"/>
<path d="M200.968 327.24C195.738 327.63 191.078 330.21 188.518 334.92C185.608 340.25 186.028 346.33 187.038 352.09C187.488 354.6 189.238 356.54 191.448 357.67C193.538 360.12 196.368 361.92 199.528 362.4C211.118 364.17 223.558 352.55 219.828 340.63C217.438 332.96 209.198 326.62 200.968 327.24Z" fill="#2D2D2C"/>
<path d="M199.568 409.35C199.258 409.54 199.448 410.08 199.828 409.96C202.118 409.23 204.498 408.7 206.858 408.29C209.948 407.75 213.258 407.88 216.268 406.97C216.678 406.85 216.688 406.26 216.268 406.14C211.098 404.71 204.018 406.52 199.568 409.35Z" fill="#2D2D2C"/>
<path d="M492.598 750.01C481.028 798.15 410.348 790.85 373.078 795.1C372.868 795.13 372.868 795.41 373.078 795.44C404.868 798.84 493.278 799.08 493.598 750.14C493.598 749.58 492.738 749.45 492.598 750.01Z" fill="#2D2D2C"/>
<path d="M464.758 642.77C464.428 644.15 462.478 643.76 462.398 642.45C459.558 593.78 455.428 538.47 461.628 490.15C461.678 489.71 462.397 489.5 462.477 490.03C469.527 537.61 475.998 595.67 464.758 642.77ZM446.008 725.11C445.308 722.04 444.108 718.12 446.898 715.76C447.148 715.55 447.548 715.41 447.838 715.63C450.378 717.57 450.638 720.71 451.378 723.64C452.268 727.13 446.808 728.61 446.008 725.11ZM436.588 664.67C436.258 665.06 435.567 665.03 435.227 664.67C432.637 661.88 433.047 656.54 433.667 653.03C433.797 652.34 434.657 652.42 434.997 652.86C437.297 655.89 439.378 661.41 436.588 664.67ZM423.628 586.71C423.518 583.24 423.188 580.36 423.858 576.93C423.948 576.44 424.588 576.45 424.828 576.8C427.028 580.06 427.808 582.79 428.138 586.71C428.388 589.57 423.718 589.63 423.628 586.71ZM421.348 541.68C420.988 541.86 420.718 541.98 420.298 541.97C419.348 541.94 418.538 541.34 418.268 540.42C417.278 537.04 416.018 533.64 415.618 530.15C415.508 529.18 416.817 528.81 417.417 529.4C420.047 531.96 421.558 535.74 422.318 539.31C422.508 540.19 422.218 541.24 421.348 541.68ZM410.957 541.66C410.577 541.94 409.988 541.73 409.778 541.35C408.818 539.68 408.917 538.31 408.907 536.46C408.887 534.85 408.617 533.29 408.697 531.68C408.727 530.87 409.558 530.39 410.288 530.77C413.988 532.72 414.287 539.28 410.957 541.66ZM405.747 729.22C405.487 729.54 405.027 729.5 404.697 729.35C400.597 727.52 401.998 722.15 401.578 718.61C401.528 718.18 402.128 717.99 402.398 718.26C405.048 721.05 408.777 725.38 405.747 729.22ZM399.608 635.9C399.388 636.2 398.968 636.38 398.608 636.15C396.238 634.65 396.057 632.34 395.107 629.86C394.247 627.6 393.537 625.65 393.497 623.22C393.487 622.39 394.417 622.18 394.977 622.61C398.167 625.1 402.368 632.04 399.608 635.9ZM398.848 729.93C398.528 732.73 394.827 732.73 394.497 729.93C394.057 726.1 394.177 721.64 395.877 718.14C396.167 717.55 397.167 717.55 397.457 718.14C399.167 721.64 399.298 726.1 398.848 729.93ZM391.107 641.09C387.937 642.37 387.947 636.86 387.847 635.25C387.597 631.54 385.487 626.64 386.847 623.05C386.947 622.75 387.267 622.5 387.607 622.62C390.977 623.79 391.758 627.92 392.268 631.05C392.698 633.72 394.487 639.72 391.107 641.09ZM385.727 688.22C385.467 685.02 385.047 681.54 386.107 678.45C386.257 678.04 386.748 677.88 387.088 678.2C389.768 680.77 390.527 684.65 390.637 688.22C390.747 691.42 385.977 691.34 385.727 688.22ZM377.448 580.19C373.308 580.19 374.627 571.11 376.137 569.06C376.417 568.66 376.917 568.66 377.217 569.06C378.317 570.57 380.858 580.19 377.448 580.19ZM373.078 517.7C372.708 515.05 371.677 511.53 372.967 509.01C373.137 508.69 373.648 508.53 373.958 508.75C375.508 509.89 376.117 511.95 376.497 513.78C376.987 516.15 378.098 518.91 377.458 521.31C377.298 521.88 376.808 522.42 376.208 522.55C373.558 523.12 373.318 519.39 373.078 517.7ZM345.967 475C348.077 460.19 350.588 444.15 352.458 427.77C366.518 428.39 380.558 429.33 394.518 430.74C415.268 432.84 437.637 435.82 456.937 444.26C460.637 445.88 465.808 448.29 468.018 451.42C468.908 452.68 469.038 452.55 465.868 455.29C454.348 465.24 433.098 467.1 418.878 469.39C394.718 473.29 370.337 474 345.967 475ZM340.698 750.7C340.178 751.42 339.318 751.39 338.788 750.7C336.718 747.96 336.918 744.46 337.188 741.11C337.458 737.81 338.258 735.65 340.018 732.93C340.338 732.43 341.047 732.65 341.097 733.22C341.337 736.62 341.827 739.98 341.997 743.41C342.127 746.31 342.458 748.31 340.698 750.7ZM333.408 236.54C334.978 229.29 337.588 222.43 340.938 215.9C353.858 247.75 366.948 276.6 368.958 311.06C361.428 320.44 354.477 330.27 350.217 341.34C337.157 307.07 325.258 273.93 333.408 236.54ZM315.857 248.76C313.067 245.57 310.047 242.58 306.847 239.74C304.667 223.45 301.097 207.75 301.097 190.99C301.087 173.65 305.708 156.98 307.898 140.01C321.158 154.72 332.418 170.75 338.958 189.77C325.348 208.15 318.077 228.17 315.857 248.76ZM246.137 280.77C269.747 283.56 299.238 280.97 315.208 269.25C315.638 278.88 317.048 288.54 319.268 298.13C291.808 297.09 266.927 291.95 246.137 280.77ZM191.958 211.98C191.958 211.97 191.958 211.97 191.948 211.96C211.848 232.87 259.508 244.09 284.048 232.1C294.128 241.57 304.658 250.63 315.148 259.6C315.138 259.84 315.148 260.07 315.148 260.3C313.278 261.4 311.418 262.58 309.278 263.8C298.628 269.93 285.378 272.04 273.398 273.37C259.228 274.93 245.587 272.65 231.757 271.51C214.077 258.05 200.338 238.83 191.958 211.98ZM185.278 137.41C190.808 145.11 198.417 152.03 203.977 156.97C212.297 164.35 226.548 176.01 239.308 178.63C249.748 196.31 263.148 211.78 277.838 226.15C263.428 226.54 249.847 229.07 234.467 225.81C216.837 222.07 204.658 211.91 189.768 203.82C184.138 181.9 183.088 159.6 185.278 137.41ZM206.967 51.89C205.817 87.33 216.888 127.68 228.318 156.43C230.198 161.16 232.347 165.7 234.627 170.14C233.337 169.62 232.058 169.09 230.798 168.47C222.508 164.41 214.918 158.97 207.808 153.13C200.748 147.33 194.657 140.43 189.387 132.98C188.277 131.42 187.328 129.76 186.408 128.09C189.978 102.16 197.587 76.5 206.967 51.89ZM215.648 30.4C215.828 29.97 216.018 29.5499 216.198 29.1199C220.608 43.0699 227.738 55.38 236.428 66.78C229.458 80.7 224.468 101.6 224.388 120.29C216.888 91 214.528 59.14 215.648 30.4ZM263.278 96.2499C254.028 122.13 246.848 159.83 255.288 188.22C249.588 179.71 244.458 170.81 239.818 161.85C237.688 157.76 235.768 153.49 233.958 149.13C234.148 135.28 231.098 121.76 232.408 107.57C233.538 95.2999 237.628 83.77 240.578 72.04C247.508 80.48 255.248 88.4399 263.278 96.2499ZM304.247 136.04C292.527 163.36 289.328 204.3 299.198 233.35C294.198 229.34 289.078 225.43 284.208 221.35C277.948 216.1 272.278 210.19 267.018 203.9C262.518 185.88 258.048 169.68 259.038 150.34C259.918 133.26 265.038 116.69 266.948 99.79C279.458 111.77 292.487 123.49 304.247 136.04ZM353.078 197.04C354.128 196.26 354.977 195.25 355.487 194.02C364.247 183.17 374.388 173.28 384.038 164.05C385.468 162.68 386.938 161.3 388.398 159.93C391.738 179.02 396.097 197.87 398.487 217.14C401.417 240.7 396.987 261.89 390.497 283.83C386.057 289.92 381.328 295.97 376.288 302.08C376.388 287.84 369.537 272.3 364.847 260.15C358.967 244.92 355.008 224.32 342.948 212.21C345.928 206.95 349.338 201.89 353.078 197.04ZM422.757 126.63C426.637 138.71 430.918 150.15 432.358 163.61C433.748 176.65 431.788 188.95 430.308 201.49C428.228 207.72 426.138 213.88 424.088 219.9C418.148 237.35 410.697 252.58 401.757 267.02C410.787 231.88 401.238 190.88 391.658 156.85C402.218 146.96 412.937 137.09 422.757 126.63ZM450.378 88.9C449.198 100.45 449.408 112.31 448.558 123.85C447.278 141.11 443.278 158.73 438.268 176.06C438.038 171.65 437.658 167.41 437.348 163.61C436.348 151.7 434.258 133.88 426.858 122.15C436.058 111.88 444.208 100.96 450.378 88.9ZM458.987 76.7499C465.757 92.9199 471.817 109.35 476.667 126.02C473.717 133.76 470.858 141.39 466.108 148.67C461.668 155.45 456.127 161.49 450.477 167.26C449.517 168.24 448.528 169.15 447.568 170.02C454.608 139.5 458.347 108.38 458.987 76.7499ZM487.548 182.66C478.918 195.8 470.008 207.6 457.588 218.62C449.218 226.04 440.057 232.53 430.717 238.67C428.547 240.11 426.247 241.38 423.967 242.68C425.447 239.38 426.998 236.12 428.308 232.72C435.238 214.78 440.877 196.58 445.477 178.19C454.617 173.26 462.078 162.24 467.818 154.5C471.938 148.96 476.258 142.08 479.098 134.85C483.238 150.59 486.178 166.54 487.548 182.66ZM483.237 249.13C482.667 251.62 481.938 253.92 481.258 256.28C469.598 264.67 458.748 274.19 445.508 280.96C427.728 290.04 410.848 292.34 392.538 296.67C402.658 282.11 412.158 267.18 420.038 251.27C434.888 246.85 450.597 231.33 461.237 222.28C470.117 214.72 480.877 204.75 488.207 193.57C488.907 211.88 487.527 230.42 483.237 249.13ZM360.627 341.37C369.717 328.35 379.148 315.59 388.298 302.67C405.138 308.07 429.058 295.68 443.808 288.93C452.168 285.11 465.428 278.98 476.138 271.13C456.118 318.63 411.937 337.98 360.627 341.37ZM335.278 686.83C334.778 687.52 333.958 687.49 333.448 686.83C331.808 684.68 331.688 682.92 331.338 680.24C331.068 678.11 330.768 676.12 331.828 674.18C332.108 673.65 332.898 673.41 333.408 673.76C335.378 675.12 335.978 677.28 336.328 679.57C336.778 682.46 337.008 684.43 335.278 686.83ZM329.857 475.76C328.097 475.86 326.357 475.94 324.607 476.05C293.257 472.9 261.758 473.04 230.778 466.66C220.338 464.51 199.428 461.3 193.768 450.66C193.768 450.69 193.857 450.74 193.847 450.75C194.587 449.12 195.877 448.1 197.257 446.92C202.377 442.54 209.987 440.37 216.257 438.41C240.767 430.74 267.137 428.83 292.637 427.66C306.457 427.02 320.347 426.96 334.237 427.21C333.377 443.34 332.097 459.48 329.857 475.72C329.857 475.73 329.857 475.75 329.857 475.76ZM323.987 687.29C320.897 686.37 322.598 681.13 323.028 679.08C323.668 676.07 324.318 673.4 326.948 671.62C327.618 671.17 328.318 671.79 328.398 672.45C328.698 675 328.477 688.64 323.987 687.29ZM324.637 535.47C327.257 533.97 327.967 538.55 328.107 539.97C328.327 542.1 329.367 547.09 326.367 547.93C323.557 548.73 323.367 544.24 323.387 542.6C323.417 540.51 322.417 536.74 324.637 535.47ZM320.347 614.96C318.277 611.53 319.347 606.02 321.007 602.61C321.397 601.83 322.708 601.83 323.088 602.61C324.748 606.02 325.827 611.53 323.757 614.96C322.987 616.24 321.117 616.24 320.347 614.96ZM314.227 547.45C314.387 545.11 314.347 542.17 315.117 539.93C315.817 537.91 316.708 536.33 317.708 534.47C317.928 534.06 318.678 534.11 318.768 534.6C319.078 536.56 319.758 538.5 319.558 540.53C319.328 542.84 319.157 545.13 319.127 547.45C319.097 550.63 314.017 550.59 314.227 547.45ZM296.178 766.41C292.638 765.83 290.277 765.05 288.347 762.05C288.097 761.65 288.348 761.11 288.778 760.99C290.298 760.54 291.417 760 293.137 760.13C295.077 760.26 296.988 760.63 298.928 760.74C301.008 760.86 305.268 761.18 304.798 764.32C304.228 768.08 298.588 766.81 296.178 766.41ZM273.847 578.22C273.977 575.73 274.378 574.02 275.708 571.89C276.298 570.97 277.758 571.33 277.768 572.45C277.798 574.38 277.938 576.29 277.958 578.22C277.968 578.9 277.578 579.7 276.938 579.99C276.038 580.42 275.767 580.43 274.857 579.99C274.247 579.71 273.807 578.89 273.847 578.22ZM269.847 694.37C270.197 693.89 270.828 693.87 271.178 694.37C273.868 698.23 273.138 704.89 270.318 708.41C269.958 708.87 269.318 708.62 269.038 708.25C266.288 704.62 267.197 697.98 269.847 694.37ZM258.387 536.68C258.077 534.1 259.158 531.03 260.208 528.67C260.988 526.94 261.628 525.27 263.268 524.22C263.568 524.03 263.937 524.17 264.127 524.45C265.297 526.2 265.128 528.57 264.708 530.57C264.198 533.04 264.007 535.65 262.737 537.86C261.477 540.05 258.637 538.85 258.387 536.68ZM259.158 612.88C259.428 612.28 260.207 612.57 260.387 613.04C261.957 617.01 261.758 622.84 257.828 625.43C257.408 625.7 256.818 625.43 256.698 624.96C255.648 621.04 257.608 616.43 259.158 612.88ZM247.377 617.69C248.467 615.03 249.108 612.16 251.268 610.13C251.748 609.68 252.687 609.69 253.007 610.36C254.397 613.32 253.308 616.11 252.288 619.05C251.418 621.52 250.677 625.15 247.727 625.82C247.377 625.91 246.898 625.85 246.648 625.54C244.688 623.08 246.337 620.24 247.377 617.69ZM240.477 669.17C240.857 671.45 241.778 686.23 237.168 684.96C234.338 684.19 235.737 679.74 236.107 677.89C236.767 674.63 237.508 671.9 239.078 668.98C239.378 668.44 240.367 668.5 240.477 669.17ZM237.347 516.21C236.877 516.59 236.168 516.6 235.838 516.02C233.738 512.28 236.007 505.89 238.497 502.75C238.817 502.33 239.497 502.6 239.617 503.04C240.707 506.75 240.587 513.61 237.347 516.21ZM229.898 575.69C230.408 575.19 231.427 575.52 231.377 576.3C231.267 577.8 230.867 590.85 226.997 588.58C222.797 586.12 227.638 577.91 229.898 575.69ZM279.747 763.08C212.657 768.98 199.928 708.54 198.198 656.23C197.088 622.13 196.798 587.88 198.088 553.78C198.698 537.48 195.087 510.8 203.217 496.08C203.407 495.73 203.877 495.85 203.997 496.18C209.207 510.45 204.938 531.95 205.138 547.01C205.478 573.86 205.748 600.73 206.958 627.56C208.058 651.85 208.667 676.72 212.847 700.73C219.387 738.18 248.987 747.4 280.117 760.34C281.567 760.94 281.367 762.93 279.747 763.08ZM483.967 664.52C483.987 595.48 483.347 526.44 482.677 457.4C483.887 454.2 484.078 450.69 482.618 447.06C478.128 435.87 464.887 430.88 454.407 427.18C433.107 419.67 409.908 417.03 387.578 414.74C376.408 413.59 365.198 412.89 353.958 412.36C355.518 393.19 355.757 374.01 352.997 356.29C414.947 362.02 469.037 331.02 492.997 272.26C521.647 201.95 498.017 111.33 461.417 48.51C461.307 48.17 461.077 47.8999 460.907 47.5999C460.887 47.5699 460.878 47.54 460.858 47.52C460.848 47.51 460.838 47.4999 460.838 47.4899C460.488 46.9099 460.068 46.4099 459.528 45.9899C457.278 43.7899 454.297 43.7299 451.967 45.1299C450.367 45.8499 449.048 47.13 448.568 49.16C435.258 105.46 386.947 135.05 350.627 175.52C321.637 109.11 242.348 79.1599 224.908 5.5799C224.428 3.5499 223.107 2.26999 221.497 1.54999C219.167 0.149992 216.198 0.209968 213.938 2.39997C213.408 2.81997 212.987 3.32998 212.627 3.90998C212.627 3.91998 212.617 3.92 212.617 3.93C212.597 3.96 212.588 3.97995 212.568 4.00995C212.388 4.31995 212.178 4.58 212.058 4.93C174.168 69.95 154.467 156.02 180.477 228.67C202.067 288.96 261.878 318.99 323.168 312.4C326.738 323.63 331.368 334.65 336.828 345.33C335.988 367.55 335.728 389.61 334.918 411.65C318.198 411.34 301.477 411.61 284.847 412.4C260.457 413.56 235.518 416.11 212.028 423.07C200.658 426.44 186.217 431.66 180.117 442.73C176.997 448.39 177.287 453.41 179.507 457.77C178.447 533.35 176.977 608.93 177.597 684.51C177.837 714.65 177.897 759.16 212.467 770.2C261.337 785.82 318.077 783.28 368.487 781.24C394.607 780.19 451.708 781.86 471.888 760.43C492.718 738.3 483.967 692.57 483.967 664.52Z" fill="#2D2D2C"/>
<path d="M491.588 300.08C468.538 341.45 421.088 363.78 376.088 370.4C375.838 370.44 375.838 370.88 376.088 370.91C398.578 374.25 422.898 363.21 442.028 352.52C463.068 340.78 484.288 323.82 492.598 300.51C492.808 299.91 491.888 299.55 491.588 300.08Z" fill="#2D2D2C"/>
<path d="M496.968 466.05C494.708 540.4 494.458 614.99 495.828 689.37C495.838 689.81 496.498 689.81 496.508 689.37C497.878 614.95 497.427 540.48 497.407 466.05C497.407 465.76 496.978 465.77 496.968 466.05Z" fill="#2D2D2C"/>
<path d="M308.497 325.55C309.617 325.21 309.458 323.29 308.208 323.42C273.418 327.22 242.907 319.59 215.847 296.81C188.597 273.86 174.707 242.26 162.977 209.59C162.917 209.42 162.627 209.43 162.647 209.63C170.777 274.77 238.247 346.63 308.497 325.55Z" fill="#2D2D2C"/>
<path d="M191.618 412.99C191.948 412.92 191.838 412.45 191.538 412.42C167.598 410.31 164.038 453.15 162.248 468.66C158.198 503.82 160.558 539.17 162.278 574.38C162.308 574.96 163.168 574.96 163.198 574.38C164.388 545.74 162.838 517.07 164.128 488.44C165.048 468.01 164.358 418.27 191.618 412.99Z" fill="#2D2D2C"/>
<path d="M423.758 73.3399C423.938 72.8799 423.198 72.58 422.968 73C416.438 85.31 408.798 96.63 399.638 107.14C391.378 116.62 381.448 124.38 372.898 133.55C372.698 133.76 372.958 134.14 373.208 133.97C394.728 119.43 414.218 97.5899 423.758 73.3399Z" fill="#2D2D2C"/>
</svg>
