<svg width="98" height="97" viewBox="0 0 98 97" fill="none" xmlns="http://www.w3.org/2000/svg">
<rect y="0.25" width="98" height="96.3478" rx="10" fill="black"/>
<path d="M49 72.5978C36.9741 72.5978 24 65.03 24 48.4239C24 31.8179 36.9741 24.25 49 24.25C55.681 24.25 61.8448 26.4555 66.4138 30.4773C71.3707 34.8883 74 41.1155 74 48.4239C74 55.7323 71.3707 61.9163 66.4138 66.3273C61.8448 70.3491 55.6379 72.5978 49 72.5978Z" fill="url(#paint0_radial_406_1334)"/>
<path d="M69.6422 34.0537C71.9396 37.7728 73.1378 42.2011 73.1378 47.1267C73.1378 54.435 70.5085 60.6191 65.5516 65.0301C60.9827 69.0518 54.7758 71.3006 48.1378 71.3006C40.3534 71.3006 32.1723 68.1221 27.3706 61.3802C32.0085 69.0172 40.7284 72.5979 48.9999 72.5979C55.6378 72.5979 61.8447 70.3492 66.4137 66.3274C71.3706 61.9164 73.9999 55.7324 73.9999 48.424C73.9999 42.9146 72.5042 38.0193 69.6422 34.0537Z" fill="#EB8F00"/>
<path opacity="0.8" d="M33.3317 58.9892C37.4976 58.9892 40.8748 55.601 40.8748 51.4214C40.8748 47.2418 37.4976 43.8535 33.3317 43.8535C29.1657 43.8535 25.7886 47.2418 25.7886 51.4214C25.7886 55.601 29.1657 58.9892 33.3317 58.9892Z" fill="url(#paint1_radial_406_1334)"/>
<path opacity="0.8" d="M65.0123 58.9892C69.1783 58.9892 72.5554 55.601 72.5554 51.4214C72.5554 47.2418 69.1783 43.8535 65.0123 43.8535C60.8464 43.8535 57.4692 47.2418 57.4692 51.4214C57.4692 55.601 60.8464 58.9892 65.0123 58.9892Z" fill="url(#paint2_radial_406_1334)"/>
<path d="M41.9226 36.6232C42.9183 36.6362 43.2071 35.2696 42.1511 35.0448C41.3623 34.8848 40.4959 34.8631 39.6382 34.9713C37.2373 35.235 35.1683 36.4762 33.8192 38.0935C33.1468 38.9238 34.2459 39.7974 34.9787 39.179C36.8537 37.6524 39.3278 36.6448 41.9226 36.6232Z" fill="#422B0D"/>
<path d="M56.0864 36.9168C55.0994 37.0292 54.677 35.6973 55.7028 35.3686C56.4744 35.1351 57.3321 35.027 58.1942 35.0486C60.608 35.0746 62.789 36.1038 64.2933 37.5828C65.0433 38.3439 64.0347 39.3212 63.2459 38.7763C61.2287 37.44 58.6683 36.6833 56.0864 36.9168Z" fill="#422B0D"/>
<path d="M49.1726 62.8256C53.8278 62.8256 56.845 59.4093 57.664 57.8092C57.9657 57.2038 57.9657 56.6848 57.7071 56.4686C57.4916 56.2956 57.1898 56.2956 56.8019 56.4686C56.6726 56.5118 56.5433 56.5983 56.414 56.6848C54.345 58.1552 51.8019 59.0633 49.1726 59.0633C46.5433 59.0633 44.0002 58.1552 41.9312 56.7281C41.8019 56.6416 41.6726 56.5551 41.5433 56.5118C41.1553 56.3389 40.8536 56.3389 40.6381 56.5118C40.3795 56.7713 40.3795 57.247 40.6812 57.8524C41.5002 59.4093 44.5174 62.8256 49.1726 62.8256Z" fill="#422B0D"/>
<path d="M43.8279 47.7887L43.7417 47.7023C43.6986 47.659 43.5693 47.5293 43.5262 47.486C43.44 47.3995 43.3538 47.3563 43.2245 47.2266C43.0951 47.1401 42.9658 47.0103 42.7934 46.9238C42.621 46.8374 42.4486 46.7076 42.2762 46.6211C42.1038 46.5346 41.8882 46.4482 41.6727 46.3617C41.4572 46.2752 41.2417 46.2319 41.0262 46.1887C40.8107 46.1454 40.5951 46.1454 40.3365 46.1454H40.2503H40.121C39.9917 46.1454 39.9917 46.1454 39.9486 46.1454C39.8624 46.1454 39.7331 46.1887 39.6469 46.1887C39.4313 46.2319 39.2158 46.2752 39.0003 46.3617C38.7848 46.4482 38.5693 46.4914 38.3969 46.6211C38.2244 46.7076 38.052 46.7941 37.8796 46.9238C37.5779 47.1401 37.3193 47.3563 37.1469 47.486C36.9744 47.659 36.8882 47.7455 36.8882 47.7455L36.802 47.832C36.2848 48.3509 35.4227 48.3509 34.8193 47.9185C34.3882 47.5725 34.2589 46.9671 34.4744 46.5346L34.5176 46.4049C34.5607 46.3184 34.6038 46.1887 34.69 46.0589C34.8624 45.7562 35.1641 45.3238 35.6382 44.8481C35.8538 44.6319 36.1555 44.3724 36.4572 44.1562C36.7589 43.9399 37.1469 43.7237 37.5348 43.5507C37.9227 43.3778 38.3969 43.2048 38.8279 43.1183C39.0434 43.075 39.302 43.0318 39.5607 42.9886C39.69 42.9886 39.8624 42.9453 39.9055 42.9453H40.2503C40.7244 42.9453 41.1986 42.9886 41.6727 43.075C42.1469 43.1615 42.5779 43.3345 42.9658 43.5075C43.3538 43.6805 43.7417 43.8967 44.0434 44.1129C44.3882 44.3292 44.6469 44.5454 44.8624 44.8048C45.0779 45.0211 45.2934 45.2373 45.4227 45.4535C45.5089 45.54 45.552 45.6697 45.6382 45.7562C45.6813 45.8427 45.7676 45.9292 45.8107 46.0157C45.94 46.1887 45.94 46.2752 45.9831 46.3617C46.0262 46.4482 46.0262 46.4482 46.0262 46.4482C46.3279 47.0968 45.9831 47.832 45.2503 48.0915C44.8624 48.3077 44.2158 48.1779 43.8279 47.7887Z" fill="#422B0D"/>
<path d="M61.4614 47.6332C61.4614 47.6332 61.4312 47.6029 61.3752 47.5467C61.3278 47.4991 61.22 47.378 61.1554 47.3305C61.0735 47.2613 60.9743 47.1791 60.8579 47.084C60.7329 46.9888 60.5907 46.8851 60.4355 46.7769C60.276 46.6775 60.1036 46.5737 59.9183 46.4829C59.7373 46.3834 59.5304 46.3142 59.3235 46.2364C59.1166 46.1629 58.8967 46.1239 58.6769 46.0764C58.4571 46.0418 58.2286 46.0245 58.0002 46.0245H58.0605H58.0562H58.0476H58.0304H57.9959H57.9269L57.7933 46.0288C57.6812 46.0288 57.664 46.0375 57.6209 46.0418C57.5519 46.0418 57.4269 46.0634 57.3192 46.0807C57.0993 46.1283 56.8795 46.1672 56.6726 46.2407C56.47 46.3185 56.2631 46.3877 56.0821 46.4872C55.8967 46.5823 55.7243 46.6818 55.5648 46.7813C55.2545 46.9888 55.0002 47.1964 54.8321 47.3521C54.6597 47.5078 54.5605 47.6029 54.5605 47.6029L54.4528 47.711C53.9312 48.217 53.0519 48.2473 52.4829 47.7846C52.0347 47.417 51.9226 46.8505 52.1467 46.3791C52.1467 46.3791 52.1683 46.3358 52.2114 46.2494C52.2545 46.1672 52.3062 46.0375 52.401 45.8861C52.5778 45.5791 52.8709 45.1466 53.3364 44.6925C53.5692 44.4677 53.8407 44.2298 54.164 44.0136C54.4786 43.7887 54.845 43.5855 55.2502 43.4082C55.6554 43.2352 56.095 43.0838 56.5605 42.9887C56.7976 42.9454 57.0174 42.9022 57.3062 42.8763C57.4398 42.8633 57.5993 42.8503 57.6683 42.846L58.0002 42.833C58.4873 42.8417 58.97 42.8936 59.4398 42.9844C59.9054 43.0795 60.345 43.2309 60.7502 43.4038C61.151 43.5811 61.5217 43.7844 61.8364 44.0093C62.1597 44.2255 62.4269 44.459 62.6597 44.6882C62.8924 44.9131 63.0778 45.138 63.2329 45.3412C63.3062 45.445 63.3752 45.5401 63.4398 45.631C63.5002 45.7304 63.5605 45.8212 63.6079 45.9034C63.7243 46.085 63.7329 46.1542 63.776 46.2364C63.8062 46.3056 63.8235 46.3445 63.8235 46.3445C64.1123 46.9888 63.7631 47.7197 63.0433 47.9792C62.4786 48.1824 61.845 48.0267 61.4614 47.6332Z" fill="#422B0D"/>
<defs>
<radialGradient id="paint0_radial_406_1334" cx="0" cy="0" r="1" gradientUnits="userSpaceOnUse" gradientTransform="translate(49 48.4239) scale(24.5516 24.6322)">
<stop offset="0.5" stop-color="#FDE030"/>
<stop offset="0.9188" stop-color="#F7C02B"/>
<stop offset="1" stop-color="#F4A223"/>
</radialGradient>
<radialGradient id="paint1_radial_406_1334" cx="0" cy="0" r="1" gradientUnits="userSpaceOnUse" gradientTransform="translate(33.3319 51.4208) scale(8.20604 7.82095)">
<stop stop-color="#ED7770"/>
<stop offset="0.9" stop-color="#ED7770" stop-opacity="0"/>
</radialGradient>
<radialGradient id="paint2_radial_406_1334" cx="0" cy="0" r="1" gradientUnits="userSpaceOnUse" gradientTransform="translate(65.0134 51.4208) scale(8.20604 7.82095)">
<stop stop-color="#ED7770"/>
<stop offset="0.9" stop-color="#ED7770" stop-opacity="0"/>
</radialGradient>
</defs>
</svg>
