<svg width="597" height="732" viewBox="0 0 597 732" fill="none" xmlns="http://www.w3.org/2000/svg">
<mask id="path-1-outside-1_10_19" maskUnits="userSpaceOnUse" x="74.3538" y="0.900818" width="448" height="731" fill="black">
<rect fill="white" x="74.3538" y="0.900818" width="448" height="731"/>
<path d="M424.182 473.146C438.352 476.074 454.495 471.08 467.375 463.999C484.885 454.36 500.295 437.306 507.632 417.9C508.58 424.696 508.879 431.499 508.401 438.189C506.001 451.71 498.741 466.293 488.661 477.121C484.187 480.484 479.364 483.419 474.264 486.147C456.717 495.508 442.128 492.103 428.635 478.197C427.068 476.58 425.614 474.87 424.182 473.146ZM393.093 721.558C393.101 721.58 393.101 721.594 393.101 721.615C393.087 721.601 393.079 721.587 393.072 721.565C393.079 721.565 393.086 721.558 393.093 721.558ZM282.43 544.1C287.823 543.687 293.223 543.132 298.609 542.362C299.086 565.942 300.86 592.251 312.109 613.117C312.244 613.366 312.621 613.195 312.55 612.925C306.744 589.345 303.674 565.864 303.496 541.628C304.486 541.472 305.469 541.279 306.452 541.108C306.331 546.679 306.815 552.314 309.181 557.401C309.266 557.579 309.587 557.501 309.558 557.301C308.832 551.752 308.269 546.323 308.297 540.788C315.286 539.534 322.239 538.009 329.142 536.207C334.706 581.465 349.132 629.509 375.882 666.654C375.954 666.747 376.096 666.661 376.039 666.554C364.982 645.368 355.016 624.309 347.921 601.405C341.196 579.692 336.472 557.522 333.537 535.01C335.788 534.376 338.04 533.742 340.277 533.058C341.032 539.741 342.286 546.359 344.822 552.628C344.879 552.77 345.078 552.72 345.057 552.564C343.953 545.874 342.741 539.235 341.965 532.51C348.889 530.344 355.743 527.95 362.468 525.258C373.731 557.899 382.465 591.824 386.169 626.161C386.183 626.296 386.39 626.303 386.383 626.161C385.243 590.819 378.404 556.681 367.041 523.32C374.016 520.378 380.855 517.186 387.508 513.717C396.47 538.408 402.761 564.19 406.266 590.207C406.301 590.434 406.672 590.37 406.665 590.15C406.173 563.128 400.509 536.948 391.597 511.523C396.271 508.987 400.88 506.358 405.354 503.565C420.62 524.168 432.589 545.568 439.955 570.16C432.852 565.444 425.849 560.749 417.814 557.543C415.627 556.674 413.867 559.524 414.914 561.319C425.486 579.392 429.162 603.535 426.562 624.523C420.955 620.113 415.263 615.91 409.044 612.333C407.192 611.272 404.599 613.024 405.311 615.197C411.252 633.179 405.076 652.684 400.004 670.138C396.022 683.809 389.781 699.182 390.835 713.829C384.018 701.155 370.867 691.652 360.366 682.455C346.574 670.373 330.396 656.937 325.78 638.372C325.26 636.292 322.16 635.829 321.142 637.774C317.779 644.185 315.179 650.853 312.785 657.642C299.371 641.307 289.562 618.973 288.792 598.057C288.692 595.364 285.472 594.723 284.005 596.753C279.046 603.614 275.755 611.208 272.379 618.838C265.504 594.367 264.15 570.131 265.874 544.841C269.935 544.806 274.01 544.67 278.092 544.435C277.002 556.546 275.25 570.01 280.514 580.831C280.614 581.031 280.97 580.945 280.942 580.717C279.41 568.657 281.198 556.247 282.43 544.1ZM243.954 492.651C243.277 487.65 242.301 482.671 241.204 477.712C292.902 481.73 349.274 464.476 390.636 433.523C392.011 437.469 393.45 441.395 395.017 445.263C399.534 456.412 406.786 470.845 416.296 482.393C369.207 518.212 303.731 538.024 244.602 532.944C246.625 519.487 245.649 505.189 243.954 492.651ZM126.331 416.689C130.662 399.869 143.243 373.496 161.872 369.158C146.712 390.444 140.137 419.538 137.145 444.529C135.243 460.38 135.357 476.466 137.166 492.317C138.149 500.901 139.168 511.815 142.673 520.827C137.073 517.029 131.887 512.548 127.136 507.505C123.46 493.919 121.7 479.786 121.13 466.734C120.404 449.922 122.135 432.988 126.331 416.689ZM89.2222 218.501C85.7243 213.251 87.6265 207.06 92.1288 200.684C94.3158 207.402 99.5519 213.899 103.527 218.765C106.526 222.44 112.987 229.272 119.078 231.331C118.993 234.957 118.95 238.583 118.9 242.217C109.34 234.216 96.5242 229.465 89.2222 218.501ZM122.192 171.647C120.767 189.727 119.762 207.865 119.235 226.038C118.608 225.732 117.981 225.425 117.383 225.076C113.265 222.661 109.867 219.099 106.719 215.573C101.846 210.13 98.8465 203.241 94.6577 197.386C102.245 188.189 114.149 178.892 122.192 171.647ZM172.793 26.8529C201.31 -3.10329 238.262 25.8911 265.639 56.8446C252.168 75.0178 229.001 85.2762 208.306 92.4429C189.213 99.0682 161.608 106.142 141.961 96.8313C146.741 70.5724 155.297 45.2255 172.793 26.8529ZM272.735 65.144C276.532 69.7318 280.072 74.2342 283.307 78.5014C268.247 100.436 240.577 112.661 216.306 120.989C193.723 128.739 160.511 137.117 138.099 124.38C138.698 118.752 139.396 113.06 140.23 107.375C160.804 116.016 186.863 110.182 207.087 104.233C230.091 97.4582 257.789 85.3689 272.735 65.144ZM165.434 368.617C180.245 367.847 191.686 390.58 197.762 400.931C209.845 421.526 219.134 443.738 226.194 466.507C230.86 481.538 233.81 496.897 234.137 512.378C224.969 529.931 203.989 534.982 184.633 534.504C171.204 534.184 158.916 530.422 147.98 524.139C137.807 501.001 138 471.536 140.265 447.229C141.669 432.091 144.96 417.13 149.662 402.683C153.63 390.508 159.436 379.687 165.434 368.617ZM133.989 526.846C150.395 538.864 171.995 544.25 191.992 543.908C206.974 543.659 223.124 538.757 233.496 528.499C233.168 531.612 232.727 534.732 232.15 537.846C227.875 560.77 206.746 568.151 185.887 567.089C170.271 564.204 154.705 555.655 145.095 545.618C140.692 539.89 137.017 533.564 133.989 526.846ZM410.319 286.292C398.786 285.466 388.242 289.548 380.669 301.687C370.61 317.809 373.994 343.412 375.526 361.115C377.307 381.732 381.047 402.348 386.995 422.238C386.696 422.409 386.404 422.58 386.105 422.808C345.791 454.089 289.362 471.158 238.383 466.45C232.577 445.697 223.779 425.544 214.176 406.637C206.005 390.544 193.31 364.378 174.289 358.501C160.062 354.112 148.479 360.851 139.154 370.64C134.466 340.292 131.859 309.915 130.876 279.517C129.793 238.954 131.638 198.255 135.1 157.983C135.713 150.788 136.311 143.229 137.017 135.493C160.568 146.791 191.636 139.753 215.123 132.757C241.432 124.928 273.412 111.022 289.996 87.4918C292.71 91.2176 295.097 94.5801 297.07 97.3584C339.457 157.036 377.029 221.058 410.319 286.292ZM370.19 137.616C370.304 137.673 370.404 137.73 370.511 137.787C370.66 141.178 369.627 144.362 368.217 147.639C365.709 153.474 361.592 159.992 356.655 164.843C347.258 149.463 337.541 134.303 327.461 119.478C341.737 125.434 356.284 130.805 370.19 137.616ZM365.553 179.647C363.073 175.458 360.566 171.291 358.037 167.13C363.002 164.359 366.6 159.037 369.527 154.257C371.508 151.03 374.201 145.766 374.927 140.843C384.687 150.318 372.128 166.226 365.553 179.647ZM398.23 419.944C388.57 388.207 378.924 344.117 389.069 311.319C390.6 306.368 393.286 303.176 396.684 301.267C421.276 313.37 439.349 335.369 453.526 358.572C461.113 370.996 467.653 384.225 472.917 397.796C478.025 410.954 483.126 423.407 484.757 437.234C480.29 442.513 475.112 447.357 469.149 451.739C453.462 463.272 431.741 469.684 414.601 459.418C407.391 447.108 402.34 433.437 398.23 419.944ZM480.098 351.035C489.245 364.428 497.758 380.72 503.066 397.839C500.694 410.84 495.814 422.495 488.383 432.661C487.108 421.013 480.932 408.724 476.999 398.9C471.186 384.353 464.482 370.326 456.439 356.869C443.217 334.756 424.232 309.865 399.17 300.155C412.022 295.575 432.289 305.42 441.985 311.169C457.665 320.466 470.003 336.238 480.098 351.035ZM482.691 334.457C472.255 320.509 448.383 298.275 425.173 289.705C425.159 289.676 425.151 289.641 425.137 289.612C408.438 256.436 390.764 222.946 371.743 190.176C378.924 182.304 383.462 168.213 386.946 159.151C389.617 152.184 392.075 143.493 386.639 137.06C380.327 129.601 370.34 126.096 361.542 122.456C347.593 116.7 333.438 110.466 318.727 106.862C309.715 94.0601 300.411 81.5291 290.787 69.3614C266.359 38.4791 214.09 -21.6683 170.057 13.7163C133.697 42.9387 129.045 100.892 124.707 143.714C124.158 149.149 123.645 154.592 123.161 160.042C107.167 173.178 75.4229 190.881 77.4461 215.024C78.8353 231.687 104.168 247.901 118.836 254.477C118.886 297.37 121.957 340.22 129.337 382.38C129.358 382.515 129.408 382.622 129.437 382.758C127.677 385.279 126.017 387.801 124.471 390.223C113.308 407.77 110.537 430.716 109.433 450.998C107.132 493.492 117.518 549.849 160.219 569.362C160.468 569.576 160.696 569.811 161.046 569.96C179.504 578.131 213.67 581.957 229.549 565.921C235.726 559.673 239.715 552.044 242.201 543.773C247.445 544.293 252.731 544.592 258.045 544.734C254.227 573.786 258.273 605.423 267.997 632.588C268.895 635.102 271.98 634.931 272.941 632.588C276.119 624.8 279.168 617.042 283.307 609.804C286.263 631.433 297.063 652.634 311.218 668.798C312.558 670.33 314.923 669.376 315.493 667.666C317.594 661.39 319.724 655.149 322.36 649.094C328.237 664.275 340.327 676.129 352.188 687.043C366.984 700.664 381.353 714 394.49 729.259C394.518 729.295 394.554 729.288 394.583 729.309C394.618 729.331 394.654 729.345 394.689 729.366C394.832 729.452 394.974 729.516 395.138 729.502C395.466 729.523 395.736 729.359 395.886 729.06C395.922 729.01 395.95 728.967 395.972 728.917C395.979 728.896 396.007 728.889 396.007 728.86C398.885 709.327 403.573 690.662 408.809 671.641C413.176 655.776 417.201 638.807 413.953 622.478C419.388 626.154 424.517 630.243 429.625 634.397C430.936 635.458 433.579 635.373 433.907 633.264C437.205 611.999 435.011 588.205 425.871 568.329C433.429 572.283 440.311 577.419 447.278 582.37C449.244 583.766 451.496 581.48 451.04 579.471C444.643 551.061 430.943 521.895 411.865 499.319C416.061 496.52 420.164 493.634 424.14 490.628C429.668 495.636 435.752 499.462 442.363 501.186C449.052 502.931 455.898 502.824 462.609 501.421C463.656 501.221 464.696 500.986 465.743 500.709C465.765 500.701 465.801 500.694 465.822 500.687C467.347 500.281 468.85 499.811 470.338 499.241C470.566 499.163 470.78 499.063 470.994 498.977C471.713 498.7 472.426 498.422 473.124 498.108C487.194 492.203 499.789 481.103 507.668 469.406C507.896 469.078 507.981 468.736 508.074 468.401C535.373 426.107 509.641 370.447 482.691 334.457Z"/>
</mask>
<path d="M424.182 473.146C438.352 476.074 454.495 471.08 467.375 463.999C484.885 454.36 500.295 437.306 507.632 417.9C508.58 424.696 508.879 431.499 508.401 438.189C506.001 451.71 498.741 466.293 488.661 477.121C484.187 480.484 479.364 483.419 474.264 486.147C456.717 495.508 442.128 492.103 428.635 478.197C427.068 476.58 425.614 474.87 424.182 473.146ZM393.093 721.558C393.101 721.58 393.101 721.594 393.101 721.615C393.087 721.601 393.079 721.587 393.072 721.565C393.079 721.565 393.086 721.558 393.093 721.558ZM282.43 544.1C287.823 543.687 293.223 543.132 298.609 542.362C299.086 565.942 300.86 592.251 312.109 613.117C312.244 613.366 312.621 613.195 312.55 612.925C306.744 589.345 303.674 565.864 303.496 541.628C304.486 541.472 305.469 541.279 306.452 541.108C306.331 546.679 306.815 552.314 309.181 557.401C309.266 557.579 309.587 557.501 309.558 557.301C308.832 551.752 308.269 546.323 308.297 540.788C315.286 539.534 322.239 538.009 329.142 536.207C334.706 581.465 349.132 629.509 375.882 666.654C375.954 666.747 376.096 666.661 376.039 666.554C364.982 645.368 355.016 624.309 347.921 601.405C341.196 579.692 336.472 557.522 333.537 535.01C335.788 534.376 338.04 533.742 340.277 533.058C341.032 539.741 342.286 546.359 344.822 552.628C344.879 552.77 345.078 552.72 345.057 552.564C343.953 545.874 342.741 539.235 341.965 532.51C348.889 530.344 355.743 527.95 362.468 525.258C373.731 557.899 382.465 591.824 386.169 626.161C386.183 626.296 386.39 626.303 386.383 626.161C385.243 590.819 378.404 556.681 367.041 523.32C374.016 520.378 380.855 517.186 387.508 513.717C396.47 538.408 402.761 564.19 406.266 590.207C406.301 590.434 406.672 590.37 406.665 590.15C406.173 563.128 400.509 536.948 391.597 511.523C396.271 508.987 400.88 506.358 405.354 503.565C420.62 524.168 432.589 545.568 439.955 570.16C432.852 565.444 425.849 560.749 417.814 557.543C415.627 556.674 413.867 559.524 414.914 561.319C425.486 579.392 429.162 603.535 426.562 624.523C420.955 620.113 415.263 615.91 409.044 612.333C407.192 611.272 404.599 613.024 405.311 615.197C411.252 633.179 405.076 652.684 400.004 670.138C396.022 683.809 389.781 699.182 390.835 713.829C384.018 701.155 370.867 691.652 360.366 682.455C346.574 670.373 330.396 656.937 325.78 638.372C325.26 636.292 322.16 635.829 321.142 637.774C317.779 644.185 315.179 650.853 312.785 657.642C299.371 641.307 289.562 618.973 288.792 598.057C288.692 595.364 285.472 594.723 284.005 596.753C279.046 603.614 275.755 611.208 272.379 618.838C265.504 594.367 264.15 570.131 265.874 544.841C269.935 544.806 274.01 544.67 278.092 544.435C277.002 556.546 275.25 570.01 280.514 580.831C280.614 581.031 280.97 580.945 280.942 580.717C279.41 568.657 281.198 556.247 282.43 544.1ZM243.954 492.651C243.277 487.65 242.301 482.671 241.204 477.712C292.902 481.73 349.274 464.476 390.636 433.523C392.011 437.469 393.45 441.395 395.017 445.263C399.534 456.412 406.786 470.845 416.296 482.393C369.207 518.212 303.731 538.024 244.602 532.944C246.625 519.487 245.649 505.189 243.954 492.651ZM126.331 416.689C130.662 399.869 143.243 373.496 161.872 369.158C146.712 390.444 140.137 419.538 137.145 444.529C135.243 460.38 135.357 476.466 137.166 492.317C138.149 500.901 139.168 511.815 142.673 520.827C137.073 517.029 131.887 512.548 127.136 507.505C123.46 493.919 121.7 479.786 121.13 466.734C120.404 449.922 122.135 432.988 126.331 416.689ZM89.2222 218.501C85.7243 213.251 87.6265 207.06 92.1288 200.684C94.3158 207.402 99.5519 213.899 103.527 218.765C106.526 222.44 112.987 229.272 119.078 231.331C118.993 234.957 118.95 238.583 118.9 242.217C109.34 234.216 96.5242 229.465 89.2222 218.501ZM122.192 171.647C120.767 189.727 119.762 207.865 119.235 226.038C118.608 225.732 117.981 225.425 117.383 225.076C113.265 222.661 109.867 219.099 106.719 215.573C101.846 210.13 98.8465 203.241 94.6577 197.386C102.245 188.189 114.149 178.892 122.192 171.647ZM172.793 26.8529C201.31 -3.10329 238.262 25.8911 265.639 56.8446C252.168 75.0178 229.001 85.2762 208.306 92.4429C189.213 99.0682 161.608 106.142 141.961 96.8313C146.741 70.5724 155.297 45.2255 172.793 26.8529ZM272.735 65.144C276.532 69.7318 280.072 74.2342 283.307 78.5014C268.247 100.436 240.577 112.661 216.306 120.989C193.723 128.739 160.511 137.117 138.099 124.38C138.698 118.752 139.396 113.06 140.23 107.375C160.804 116.016 186.863 110.182 207.087 104.233C230.091 97.4582 257.789 85.3689 272.735 65.144ZM165.434 368.617C180.245 367.847 191.686 390.58 197.762 400.931C209.845 421.526 219.134 443.738 226.194 466.507C230.86 481.538 233.81 496.897 234.137 512.378C224.969 529.931 203.989 534.982 184.633 534.504C171.204 534.184 158.916 530.422 147.98 524.139C137.807 501.001 138 471.536 140.265 447.229C141.669 432.091 144.96 417.13 149.662 402.683C153.63 390.508 159.436 379.687 165.434 368.617ZM133.989 526.846C150.395 538.864 171.995 544.25 191.992 543.908C206.974 543.659 223.124 538.757 233.496 528.499C233.168 531.612 232.727 534.732 232.15 537.846C227.875 560.77 206.746 568.151 185.887 567.089C170.271 564.204 154.705 555.655 145.095 545.618C140.692 539.89 137.017 533.564 133.989 526.846ZM410.319 286.292C398.786 285.466 388.242 289.548 380.669 301.687C370.61 317.809 373.994 343.412 375.526 361.115C377.307 381.732 381.047 402.348 386.995 422.238C386.696 422.409 386.404 422.58 386.105 422.808C345.791 454.089 289.362 471.158 238.383 466.45C232.577 445.697 223.779 425.544 214.176 406.637C206.005 390.544 193.31 364.378 174.289 358.501C160.062 354.112 148.479 360.851 139.154 370.64C134.466 340.292 131.859 309.915 130.876 279.517C129.793 238.954 131.638 198.255 135.1 157.983C135.713 150.788 136.311 143.229 137.017 135.493C160.568 146.791 191.636 139.753 215.123 132.757C241.432 124.928 273.412 111.022 289.996 87.4918C292.71 91.2176 295.097 94.5801 297.07 97.3584C339.457 157.036 377.029 221.058 410.319 286.292ZM370.19 137.616C370.304 137.673 370.404 137.73 370.511 137.787C370.66 141.178 369.627 144.362 368.217 147.639C365.709 153.474 361.592 159.992 356.655 164.843C347.258 149.463 337.541 134.303 327.461 119.478C341.737 125.434 356.284 130.805 370.19 137.616ZM365.553 179.647C363.073 175.458 360.566 171.291 358.037 167.13C363.002 164.359 366.6 159.037 369.527 154.257C371.508 151.03 374.201 145.766 374.927 140.843C384.687 150.318 372.128 166.226 365.553 179.647ZM398.23 419.944C388.57 388.207 378.924 344.117 389.069 311.319C390.6 306.368 393.286 303.176 396.684 301.267C421.276 313.37 439.349 335.369 453.526 358.572C461.113 370.996 467.653 384.225 472.917 397.796C478.025 410.954 483.126 423.407 484.757 437.234C480.29 442.513 475.112 447.357 469.149 451.739C453.462 463.272 431.741 469.684 414.601 459.418C407.391 447.108 402.34 433.437 398.23 419.944ZM480.098 351.035C489.245 364.428 497.758 380.72 503.066 397.839C500.694 410.84 495.814 422.495 488.383 432.661C487.108 421.013 480.932 408.724 476.999 398.9C471.186 384.353 464.482 370.326 456.439 356.869C443.217 334.756 424.232 309.865 399.17 300.155C412.022 295.575 432.289 305.42 441.985 311.169C457.665 320.466 470.003 336.238 480.098 351.035ZM482.691 334.457C472.255 320.509 448.383 298.275 425.173 289.705C425.159 289.676 425.151 289.641 425.137 289.612C408.438 256.436 390.764 222.946 371.743 190.176C378.924 182.304 383.462 168.213 386.946 159.151C389.617 152.184 392.075 143.493 386.639 137.06C380.327 129.601 370.34 126.096 361.542 122.456C347.593 116.7 333.438 110.466 318.727 106.862C309.715 94.0601 300.411 81.5291 290.787 69.3614C266.359 38.4791 214.09 -21.6683 170.057 13.7163C133.697 42.9387 129.045 100.892 124.707 143.714C124.158 149.149 123.645 154.592 123.161 160.042C107.167 173.178 75.4229 190.881 77.4461 215.024C78.8353 231.687 104.168 247.901 118.836 254.477C118.886 297.37 121.957 340.22 129.337 382.38C129.358 382.515 129.408 382.622 129.437 382.758C127.677 385.279 126.017 387.801 124.471 390.223C113.308 407.77 110.537 430.716 109.433 450.998C107.132 493.492 117.518 549.849 160.219 569.362C160.468 569.576 160.696 569.811 161.046 569.96C179.504 578.131 213.67 581.957 229.549 565.921C235.726 559.673 239.715 552.044 242.201 543.773C247.445 544.293 252.731 544.592 258.045 544.734C254.227 573.786 258.273 605.423 267.997 632.588C268.895 635.102 271.98 634.931 272.941 632.588C276.119 624.8 279.168 617.042 283.307 609.804C286.263 631.433 297.063 652.634 311.218 668.798C312.558 670.33 314.923 669.376 315.493 667.666C317.594 661.39 319.724 655.149 322.36 649.094C328.237 664.275 340.327 676.129 352.188 687.043C366.984 700.664 381.353 714 394.49 729.259C394.518 729.295 394.554 729.288 394.583 729.309C394.618 729.331 394.654 729.345 394.689 729.366C394.832 729.452 394.974 729.516 395.138 729.502C395.466 729.523 395.736 729.359 395.886 729.06C395.922 729.01 395.95 728.967 395.972 728.917C395.979 728.896 396.007 728.889 396.007 728.86C398.885 709.327 403.573 690.662 408.809 671.641C413.176 655.776 417.201 638.807 413.953 622.478C419.388 626.154 424.517 630.243 429.625 634.397C430.936 635.458 433.579 635.373 433.907 633.264C437.205 611.999 435.011 588.205 425.871 568.329C433.429 572.283 440.311 577.419 447.278 582.37C449.244 583.766 451.496 581.48 451.04 579.471C444.643 551.061 430.943 521.895 411.865 499.319C416.061 496.52 420.164 493.634 424.14 490.628C429.668 495.636 435.752 499.462 442.363 501.186C449.052 502.931 455.898 502.824 462.609 501.421C463.656 501.221 464.696 500.986 465.743 500.709C465.765 500.701 465.801 500.694 465.822 500.687C467.347 500.281 468.85 499.811 470.338 499.241C470.566 499.163 470.78 499.063 470.994 498.977C471.713 498.7 472.426 498.422 473.124 498.108C487.194 492.203 499.789 481.103 507.668 469.406C507.896 469.078 507.981 468.736 508.074 468.401C535.373 426.107 509.641 370.447 482.691 334.457Z" fill="#2D2D2C"/>
<path d="M424.182 473.146C438.352 476.074 454.495 471.08 467.375 463.999C484.885 454.36 500.295 437.306 507.632 417.9C508.58 424.696 508.879 431.499 508.401 438.189C506.001 451.71 498.741 466.293 488.661 477.121C484.187 480.484 479.364 483.419 474.264 486.147C456.717 495.508 442.128 492.103 428.635 478.197C427.068 476.58 425.614 474.87 424.182 473.146ZM393.093 721.558C393.101 721.58 393.101 721.594 393.101 721.615C393.087 721.601 393.079 721.587 393.072 721.565C393.079 721.565 393.086 721.558 393.093 721.558ZM282.43 544.1C287.823 543.687 293.223 543.132 298.609 542.362C299.086 565.942 300.86 592.251 312.109 613.117C312.244 613.366 312.621 613.195 312.55 612.925C306.744 589.345 303.674 565.864 303.496 541.628C304.486 541.472 305.469 541.279 306.452 541.108C306.331 546.679 306.815 552.314 309.181 557.401C309.266 557.579 309.587 557.501 309.558 557.301C308.832 551.752 308.269 546.323 308.297 540.788C315.286 539.534 322.239 538.009 329.142 536.207C334.706 581.465 349.132 629.509 375.882 666.654C375.954 666.747 376.096 666.661 376.039 666.554C364.982 645.368 355.016 624.309 347.921 601.405C341.196 579.692 336.472 557.522 333.537 535.01C335.788 534.376 338.04 533.742 340.277 533.058C341.032 539.741 342.286 546.359 344.822 552.628C344.879 552.77 345.078 552.72 345.057 552.564C343.953 545.874 342.741 539.235 341.965 532.51C348.889 530.344 355.743 527.95 362.468 525.258C373.731 557.899 382.465 591.824 386.169 626.161C386.183 626.296 386.39 626.303 386.383 626.161C385.243 590.819 378.404 556.681 367.041 523.32C374.016 520.378 380.855 517.186 387.508 513.717C396.47 538.408 402.761 564.19 406.266 590.207C406.301 590.434 406.672 590.37 406.665 590.15C406.173 563.128 400.509 536.948 391.597 511.523C396.271 508.987 400.88 506.358 405.354 503.565C420.62 524.168 432.589 545.568 439.955 570.16C432.852 565.444 425.849 560.749 417.814 557.543C415.627 556.674 413.867 559.524 414.914 561.319C425.486 579.392 429.162 603.535 426.562 624.523C420.955 620.113 415.263 615.91 409.044 612.333C407.192 611.272 404.599 613.024 405.311 615.197C411.252 633.179 405.076 652.684 400.004 670.138C396.022 683.809 389.781 699.182 390.835 713.829C384.018 701.155 370.867 691.652 360.366 682.455C346.574 670.373 330.396 656.937 325.78 638.372C325.26 636.292 322.16 635.829 321.142 637.774C317.779 644.185 315.179 650.853 312.785 657.642C299.371 641.307 289.562 618.973 288.792 598.057C288.692 595.364 285.472 594.723 284.005 596.753C279.046 603.614 275.755 611.208 272.379 618.838C265.504 594.367 264.15 570.131 265.874 544.841C269.935 544.806 274.01 544.67 278.092 544.435C277.002 556.546 275.25 570.01 280.514 580.831C280.614 581.031 280.97 580.945 280.942 580.717C279.41 568.657 281.198 556.247 282.43 544.1ZM243.954 492.651C243.277 487.65 242.301 482.671 241.204 477.712C292.902 481.73 349.274 464.476 390.636 433.523C392.011 437.469 393.45 441.395 395.017 445.263C399.534 456.412 406.786 470.845 416.296 482.393C369.207 518.212 303.731 538.024 244.602 532.944C246.625 519.487 245.649 505.189 243.954 492.651ZM126.331 416.689C130.662 399.869 143.243 373.496 161.872 369.158C146.712 390.444 140.137 419.538 137.145 444.529C135.243 460.38 135.357 476.466 137.166 492.317C138.149 500.901 139.168 511.815 142.673 520.827C137.073 517.029 131.887 512.548 127.136 507.505C123.46 493.919 121.7 479.786 121.13 466.734C120.404 449.922 122.135 432.988 126.331 416.689ZM89.2222 218.501C85.7243 213.251 87.6265 207.06 92.1288 200.684C94.3158 207.402 99.5519 213.899 103.527 218.765C106.526 222.44 112.987 229.272 119.078 231.331C118.993 234.957 118.95 238.583 118.9 242.217C109.34 234.216 96.5242 229.465 89.2222 218.501ZM122.192 171.647C120.767 189.727 119.762 207.865 119.235 226.038C118.608 225.732 117.981 225.425 117.383 225.076C113.265 222.661 109.867 219.099 106.719 215.573C101.846 210.13 98.8465 203.241 94.6577 197.386C102.245 188.189 114.149 178.892 122.192 171.647ZM172.793 26.8529C201.31 -3.10329 238.262 25.8911 265.639 56.8446C252.168 75.0178 229.001 85.2762 208.306 92.4429C189.213 99.0682 161.608 106.142 141.961 96.8313C146.741 70.5724 155.297 45.2255 172.793 26.8529ZM272.735 65.144C276.532 69.7318 280.072 74.2342 283.307 78.5014C268.247 100.436 240.577 112.661 216.306 120.989C193.723 128.739 160.511 137.117 138.099 124.38C138.698 118.752 139.396 113.06 140.23 107.375C160.804 116.016 186.863 110.182 207.087 104.233C230.091 97.4582 257.789 85.3689 272.735 65.144ZM165.434 368.617C180.245 367.847 191.686 390.58 197.762 400.931C209.845 421.526 219.134 443.738 226.194 466.507C230.86 481.538 233.81 496.897 234.137 512.378C224.969 529.931 203.989 534.982 184.633 534.504C171.204 534.184 158.916 530.422 147.98 524.139C137.807 501.001 138 471.536 140.265 447.229C141.669 432.091 144.96 417.13 149.662 402.683C153.63 390.508 159.436 379.687 165.434 368.617ZM133.989 526.846C150.395 538.864 171.995 544.25 191.992 543.908C206.974 543.659 223.124 538.757 233.496 528.499C233.168 531.612 232.727 534.732 232.15 537.846C227.875 560.77 206.746 568.151 185.887 567.089C170.271 564.204 154.705 555.655 145.095 545.618C140.692 539.89 137.017 533.564 133.989 526.846ZM410.319 286.292C398.786 285.466 388.242 289.548 380.669 301.687C370.61 317.809 373.994 343.412 375.526 361.115C377.307 381.732 381.047 402.348 386.995 422.238C386.696 422.409 386.404 422.58 386.105 422.808C345.791 454.089 289.362 471.158 238.383 466.45C232.577 445.697 223.779 425.544 214.176 406.637C206.005 390.544 193.31 364.378 174.289 358.501C160.062 354.112 148.479 360.851 139.154 370.64C134.466 340.292 131.859 309.915 130.876 279.517C129.793 238.954 131.638 198.255 135.1 157.983C135.713 150.788 136.311 143.229 137.017 135.493C160.568 146.791 191.636 139.753 215.123 132.757C241.432 124.928 273.412 111.022 289.996 87.4918C292.71 91.2176 295.097 94.5801 297.07 97.3584C339.457 157.036 377.029 221.058 410.319 286.292ZM370.19 137.616C370.304 137.673 370.404 137.73 370.511 137.787C370.66 141.178 369.627 144.362 368.217 147.639C365.709 153.474 361.592 159.992 356.655 164.843C347.258 149.463 337.541 134.303 327.461 119.478C341.737 125.434 356.284 130.805 370.19 137.616ZM365.553 179.647C363.073 175.458 360.566 171.291 358.037 167.13C363.002 164.359 366.6 159.037 369.527 154.257C371.508 151.03 374.201 145.766 374.927 140.843C384.687 150.318 372.128 166.226 365.553 179.647ZM398.23 419.944C388.57 388.207 378.924 344.117 389.069 311.319C390.6 306.368 393.286 303.176 396.684 301.267C421.276 313.37 439.349 335.369 453.526 358.572C461.113 370.996 467.653 384.225 472.917 397.796C478.025 410.954 483.126 423.407 484.757 437.234C480.29 442.513 475.112 447.357 469.149 451.739C453.462 463.272 431.741 469.684 414.601 459.418C407.391 447.108 402.34 433.437 398.23 419.944ZM480.098 351.035C489.245 364.428 497.758 380.72 503.066 397.839C500.694 410.84 495.814 422.495 488.383 432.661C487.108 421.013 480.932 408.724 476.999 398.9C471.186 384.353 464.482 370.326 456.439 356.869C443.217 334.756 424.232 309.865 399.17 300.155C412.022 295.575 432.289 305.42 441.985 311.169C457.665 320.466 470.003 336.238 480.098 351.035ZM482.691 334.457C472.255 320.509 448.383 298.275 425.173 289.705C425.159 289.676 425.151 289.641 425.137 289.612C408.438 256.436 390.764 222.946 371.743 190.176C378.924 182.304 383.462 168.213 386.946 159.151C389.617 152.184 392.075 143.493 386.639 137.06C380.327 129.601 370.34 126.096 361.542 122.456C347.593 116.7 333.438 110.466 318.727 106.862C309.715 94.0601 300.411 81.5291 290.787 69.3614C266.359 38.4791 214.09 -21.6683 170.057 13.7163C133.697 42.9387 129.045 100.892 124.707 143.714C124.158 149.149 123.645 154.592 123.161 160.042C107.167 173.178 75.4229 190.881 77.4461 215.024C78.8353 231.687 104.168 247.901 118.836 254.477C118.886 297.37 121.957 340.22 129.337 382.38C129.358 382.515 129.408 382.622 129.437 382.758C127.677 385.279 126.017 387.801 124.471 390.223C113.308 407.77 110.537 430.716 109.433 450.998C107.132 493.492 117.518 549.849 160.219 569.362C160.468 569.576 160.696 569.811 161.046 569.96C179.504 578.131 213.67 581.957 229.549 565.921C235.726 559.673 239.715 552.044 242.201 543.773C247.445 544.293 252.731 544.592 258.045 544.734C254.227 573.786 258.273 605.423 267.997 632.588C268.895 635.102 271.98 634.931 272.941 632.588C276.119 624.8 279.168 617.042 283.307 609.804C286.263 631.433 297.063 652.634 311.218 668.798C312.558 670.33 314.923 669.376 315.493 667.666C317.594 661.39 319.724 655.149 322.36 649.094C328.237 664.275 340.327 676.129 352.188 687.043C366.984 700.664 381.353 714 394.49 729.259C394.518 729.295 394.554 729.288 394.583 729.309C394.618 729.331 394.654 729.345 394.689 729.366C394.832 729.452 394.974 729.516 395.138 729.502C395.466 729.523 395.736 729.359 395.886 729.06C395.922 729.01 395.95 728.967 395.972 728.917C395.979 728.896 396.007 728.889 396.007 728.86C398.885 709.327 403.573 690.662 408.809 671.641C413.176 655.776 417.201 638.807 413.953 622.478C419.388 626.154 424.517 630.243 429.625 634.397C430.936 635.458 433.579 635.373 433.907 633.264C437.205 611.999 435.011 588.205 425.871 568.329C433.429 572.283 440.311 577.419 447.278 582.37C449.244 583.766 451.496 581.48 451.04 579.471C444.643 551.061 430.943 521.895 411.865 499.319C416.061 496.52 420.164 493.634 424.14 490.628C429.668 495.636 435.752 499.462 442.363 501.186C449.052 502.931 455.898 502.824 462.609 501.421C463.656 501.221 464.696 500.986 465.743 500.709C465.765 500.701 465.801 500.694 465.822 500.687C467.347 500.281 468.85 499.811 470.338 499.241C470.566 499.163 470.78 499.063 470.994 498.977C471.713 498.7 472.426 498.422 473.124 498.108C487.194 492.203 499.789 481.103 507.668 469.406C507.896 469.078 507.981 468.736 508.074 468.401C535.373 426.107 509.641 370.447 482.691 334.457Z" stroke="#2D2D2C" stroke-width="4" mask="url(#path-1-outside-1_10_19)"/>
<path d="M330.624 271.076C328.75 284.177 322.731 296.366 310.791 306.175C291.1 322.361 262.825 325.759 239.886 314.931C214.261 302.834 204.316 274.146 203.704 247.524C203.134 223.06 212.48 201.368 228.502 184.299C230.753 183.223 233.062 182.226 235.398 181.286C247.089 177.296 259.712 176.413 271.659 179.676C310.776 190.34 333.402 232.735 330.624 271.076ZM296.009 328.11C270.462 342.386 233.795 340.527 211.875 320.537C199.194 308.968 192.726 291.308 189.085 274.994C188.758 273.512 188.523 272.009 188.259 270.506C185.588 250.701 186.777 230.768 197.021 212.624C201.381 204.908 207.387 198.148 214.397 192.67C215.871 191.587 217.389 190.561 218.942 189.578C187.589 227.385 192.64 297.356 239.331 319.711C263.552 331.301 292.831 325.823 313.59 309.801C316.639 307.45 319.354 304.843 321.776 302.072C316.07 312.551 307.606 321.627 296.009 328.11ZM190.282 200.663C177.787 218.451 174.161 238.448 175.864 258.573C176.042 266.067 176.939 273.647 178.599 281.149C183.664 304.081 196.038 325.153 215.978 337.905C245.108 356.534 286.641 350.158 313.377 330.653C373.809 286.57 335.889 189.328 274.886 167.978C244.189 157.235 208.156 175.216 190.282 200.663Z" fill="#2D2D2C"/>
<path d="M309.85 483.689C329.078 478.859 348.206 471.8 365.054 461.235C365.438 460.993 365.104 460.43 364.698 460.629C329.491 477.805 289.02 490.557 249.468 487.543C249.347 487.536 249.325 487.736 249.439 487.757C269.365 492.395 290.288 488.605 309.85 483.689Z" fill="#2D2D2C"/>
<path d="M372.74 456.975C372.933 456.561 372.555 456.198 372.149 456.383C370.646 457.053 368.352 457.915 367.54 459.447C367.461 459.596 367.518 459.824 367.711 459.86C369.634 460.23 371.964 458.684 372.74 456.975Z" fill="#2D2D2C"/>
<path d="M252.602 496.263C252.488 496.249 252.474 496.427 252.574 496.448C281.055 503.181 312.97 494.974 338.716 482.386C338.951 482.272 338.788 481.873 338.545 481.958C310.534 492.117 282.687 499.989 252.602 496.263Z" fill="#2D2D2C"/>
<path d="M253.478 506.536C253.379 506.529 253.365 506.671 253.457 506.693C270.419 511.48 288.906 509.036 305.44 503.501C305.761 503.394 305.626 502.96 305.305 503.01C287.695 505.474 271.338 508.573 253.478 506.536Z" fill="#2D2D2C"/>
<path d="M309.202 501.962C309.002 502.019 309.059 502.283 309.252 502.304C312.044 502.668 314.659 502.091 316.91 500.409C317.102 500.267 316.988 500.003 316.76 500.032C314.16 500.424 311.717 501.193 309.202 501.962Z" fill="#2D2D2C"/>
<path d="M145.43 183.487C145.758 173.008 145.387 162.087 146.57 151.678C146.591 151.536 146.363 151.515 146.335 151.643C139.937 178.443 140.778 207.181 140.913 234.565C141.106 273.605 142.103 313.242 151.001 351.377C151.172 352.103 152.198 351.776 152.098 351.07C146.612 312.644 144.739 273.348 144.575 234.565C144.504 217.539 144.896 200.506 145.43 183.487Z" fill="#2D2D2C"/>
<path d="M395.145 280.451C382.386 249.996 366.671 220.011 347.785 192.905C347.714 192.805 347.557 192.89 347.621 192.997C363.7 221.956 377.414 252.361 394.454 280.75C394.668 281.106 395.316 280.857 395.145 280.451Z" fill="#2D2D2C"/>
<path d="M345.862 189.884C345.377 188.174 344.359 186.678 343.454 185.161C342.307 183.245 341.117 181.378 339.813 179.569C339.657 179.362 339.336 179.54 339.457 179.768C341.217 183.095 342.62 187.555 345.455 190.119C345.634 190.276 345.933 190.126 345.862 189.884Z" fill="#2D2D2C"/>
<path d="M339.864 626.318C329.513 601.811 321.641 578.317 317.843 551.901C317.822 551.752 317.573 551.794 317.58 551.944C318.15 577.611 325.523 604.853 339.322 626.624C339.543 626.973 340.013 626.674 339.864 626.318Z" fill="#2D2D2C"/>
<path d="M358.949 558.662C361.463 571.763 362.304 585.683 366.878 598.257C366.999 598.584 367.554 598.563 367.519 598.178C366.251 584.864 364.847 570.794 359.198 558.555C359.134 558.405 358.927 558.519 358.949 558.662Z" fill="#2D2D2C"/>
<path d="M367.76 601.384C368.053 603.037 368.309 604.668 368.851 606.25C368.936 606.492 369.299 606.456 369.306 606.193C369.313 604.44 368.672 602.916 368.024 601.313C367.953 601.156 367.725 601.213 367.76 601.384Z" fill="#2D2D2C"/>
<path d="M389.04 561.568C390.372 553.846 388.449 545.796 384.787 538.964C384.737 538.872 384.595 538.936 384.616 539.035C386.247 546.537 387.209 554.017 388.47 561.568C388.513 561.86 388.99 561.86 389.04 561.568Z" fill="#2D2D2C"/>
<path d="M409.692 545.589C409.578 536.314 408.367 527.317 403.231 519.409C403.152 519.288 402.981 519.395 403.038 519.516C406.992 527.737 406.472 537.069 409.058 545.675C409.158 546.024 409.699 545.96 409.692 545.589Z" fill="#2D2D2C"/>
<path d="M387.544 635.159C387.907 632.88 387.088 630.799 386.503 628.619C386.475 628.519 386.304 628.533 386.311 628.64C386.575 630.821 386.824 633.008 387.237 635.159C387.259 635.316 387.522 635.316 387.544 635.159Z" fill="#2D2D2C"/>
<path d="M379.693 672.168C379.892 672.332 380.192 672.125 380.057 671.89C379.301 670.522 378.24 669.155 377.2 667.993C377.136 667.922 377.022 668.001 377.043 668.086C377.335 669.625 378.518 671.164 379.693 672.168Z" fill="#2D2D2C"/>
<path d="M345.156 635.722C344.85 633.186 342.627 631.113 341.131 629.16C341.067 629.075 340.946 629.146 340.989 629.239C341.979 631.476 343.012 634.183 344.857 635.85C344.957 635.936 345.178 635.886 345.156 635.722Z" fill="#2D2D2C"/>
<path d="M364.826 554.487C363.707 549.016 361.791 543.502 358.763 538.786C358.685 538.665 358.528 538.772 358.578 538.893C360.765 544.058 362.076 549.479 364.063 554.694C364.248 555.164 364.925 554.986 364.826 554.487Z" fill="#2D2D2C"/>
<path d="M209.688 631.626C200.911 633.143 192.127 634.582 183.336 635.993C180.294 629.281 177.202 622.578 173.99 615.945C167.243 601.997 163.852 599.247 159.578 616.75C157.64 624.679 155.888 632.666 154.221 640.666C144.525 642.233 134.844 643.829 125.169 645.539C112.204 647.818 106.961 651.423 122.448 659.573C130.89 664.011 139.339 668.464 147.731 673.037C145.273 685.29 142.794 697.586 141.02 709.961C139.218 722.47 142.445 723.004 149.775 715.289C158.118 706.505 165.883 697.187 173.683 687.898C183.543 693.875 193.189 700.201 202.464 707.054C214.454 715.916 214.774 707.702 211.953 700.614C206.888 687.891 200.968 675.395 195.397 662.978C201.645 656.118 208.028 649.379 214.603 642.832C220.452 637.004 228.524 628.362 209.688 631.626Z" fill="#2D2D2C"/>
<path d="M251.213 691.495C244.503 682.106 255.274 671.292 264.905 673.629C267.199 674.177 268.93 675.174 270.206 676.457C271.481 677.896 272.407 679.677 272.863 681.743C273.354 684.607 272.827 687.791 271.559 690.676C267.463 697.593 256.599 699.018 251.213 691.495ZM282.309 678.779C282.153 678.266 282.017 677.746 281.825 677.255C280.037 671.762 276.047 666.953 269.579 664.51C251.726 657.763 230.782 676.898 240.52 695.243C250.679 714.392 278.384 710.751 282.822 689.558C283.613 685.775 283.342 682.163 282.345 678.879C282.338 678.843 282.317 678.815 282.309 678.779Z" fill="#2D2D2C"/>
<path d="M97.728 607.632C95.0565 606.983 93.012 605.836 91.4305 604.383C89.6282 602.502 88.3316 600.102 87.719 597.288C87.0778 593.384 87.9611 589.045 89.9059 585.241C95.4269 577.284 108.435 575.987 114.996 585.17C123.417 596.967 109.817 610.574 97.728 607.632ZM77.7455 588.219C76.6056 593.391 77.1896 598.285 78.9421 602.559C81.008 608.615 85.4819 613.886 92.7127 616.622C112.938 624.259 137.002 602.709 125.868 581.765C114.213 559.837 83.0314 564.19 77.7455 588.219Z" fill="#2D2D2C"/>
</svg>
