<svg width="623" height="1063" viewBox="0 0 623 1063" fill="none" xmlns="http://www.w3.org/2000/svg">
<path d="M488.04 702.859C507.93 706.969 530.59 699.959 548.67 690.019C573.25 676.489 594.88 652.549 605.18 625.309C606.51 634.849 606.93 644.399 606.26 653.789C602.89 672.769 592.7 693.239 578.55 708.439C572.27 713.159 565.5 717.279 558.34 721.109C533.71 734.249 513.23 729.469 494.29 709.949C492.09 707.679 490.05 705.279 488.04 702.859ZM444.4 1051.56C444.41 1051.59 444.41 1051.61 444.41 1051.64C444.39 1051.62 444.38 1051.6 444.37 1051.57C444.38 1051.57 444.39 1051.56 444.4 1051.56ZM289.06 802.459C296.63 801.879 304.21 801.099 311.77 800.019C312.44 833.119 314.93 870.049 330.72 899.339C330.91 899.689 331.44 899.449 331.34 899.069C323.19 865.969 318.88 833.009 318.63 798.989C320.02 798.769 321.4 798.499 322.78 798.259C322.61 806.079 323.29 813.989 326.61 821.129C326.73 821.379 327.18 821.269 327.14 820.989C326.12 813.199 325.33 805.579 325.37 797.809C335.18 796.049 344.94 793.909 354.63 791.379C362.44 854.909 382.69 922.349 420.24 974.49C420.34 974.62 420.54 974.5 420.46 974.35C404.94 944.61 390.95 915.049 380.99 882.899C371.55 852.419 364.92 821.299 360.8 789.699C363.96 788.809 367.12 787.919 370.26 786.959C371.32 796.339 373.08 805.629 376.64 814.429C376.72 814.629 377 814.559 376.97 814.339C375.42 804.949 373.72 795.629 372.63 786.189C382.35 783.149 391.97 779.789 401.41 776.009C417.22 821.829 429.48 869.449 434.68 917.649C434.7 917.839 434.99 917.849 434.98 917.649C433.38 868.039 423.78 820.119 407.83 773.289C417.62 769.159 427.22 764.679 436.56 759.809C449.14 794.469 457.97 830.659 462.89 867.179C462.94 867.499 463.46 867.409 463.45 867.099C462.76 829.169 454.81 792.419 442.3 756.729C448.86 753.169 455.33 749.479 461.61 745.559C483.04 774.479 499.84 804.519 510.18 839.039C500.21 832.419 490.38 825.829 479.1 821.329C476.03 820.109 473.56 824.109 475.03 826.629C489.87 851.999 495.03 885.889 491.38 915.349C483.51 909.159 475.52 903.259 466.79 898.239C464.19 896.749 460.55 899.209 461.55 902.259C469.89 927.5 461.22 954.88 454.1 979.38C448.51 998.57 439.75 1020.15 441.23 1040.71C431.66 1022.92 413.2 1009.58 398.46 996.67C379.1 979.71 356.39 960.85 349.91 934.79C349.18 931.87 344.83 931.22 343.4 933.95C338.68 942.95 335.03 952.31 331.67 961.84C312.84 938.91 299.07 907.559 297.99 878.199C297.85 874.419 293.33 873.519 291.27 876.369C284.31 885.999 279.69 896.659 274.95 907.369C265.3 873.019 263.4 838.999 265.82 803.499C271.52 803.449 277.24 803.259 282.97 802.929C281.44 819.929 278.98 838.829 286.37 854.019C286.51 854.299 287.01 854.179 286.97 853.859C284.82 836.929 287.33 819.509 289.06 802.459ZM235.05 730.239C234.1 723.219 232.73 716.229 231.19 709.269C303.76 714.909 382.89 690.689 440.95 647.239C442.88 652.779 444.9 658.289 447.1 663.719C453.44 679.369 463.62 699.629 476.97 715.839C410.87 766.119 318.96 793.929 235.96 786.799C238.8 767.909 237.43 747.839 235.05 730.239ZM69.9401 623.609C76.0201 599.999 93.6802 562.979 119.83 556.889C98.5502 586.769 89.3203 627.609 85.1203 662.689C82.4503 684.939 82.6101 707.519 85.1501 729.769C86.5301 741.819 87.96 757.139 92.88 769.789C85.02 764.459 77.74 758.169 71.07 751.089C65.91 732.019 63.4403 712.179 62.6403 693.859C61.6203 670.259 64.0501 646.489 69.9401 623.609ZM17.8503 345.409C12.9403 338.039 15.6103 329.349 21.9303 320.399C25.0003 329.829 32.3503 338.949 37.9303 345.779C42.1403 350.939 51.2099 360.529 59.7599 363.419C59.6399 368.509 59.5799 373.599 59.5099 378.699C46.0899 367.469 28.1003 360.799 17.8503 345.409ZM64.13 279.639C62.13 305.019 60.7201 330.479 59.9801 355.989C59.1001 355.559 58.22 355.129 57.38 354.639C51.6 351.249 46.8303 346.249 42.4103 341.299C35.5703 333.659 31.3601 323.989 25.4801 315.769C36.1301 302.859 52.84 289.809 64.13 279.639ZM135.16 76.389C175.19 34.339 227.06 75.039 265.49 118.489C246.58 143.999 214.06 158.399 185.01 168.459C158.21 177.759 119.46 187.689 91.88 174.619C98.59 137.759 110.6 102.179 135.16 76.389ZM275.45 130.139C280.78 136.579 285.75 142.899 290.29 148.889C269.15 179.679 230.31 196.839 196.24 208.529C164.54 219.409 117.92 231.169 86.4601 213.289C87.3001 205.389 88.2804 197.399 89.4504 189.419C118.33 201.549 154.91 193.359 183.3 185.009C215.59 175.499 254.47 158.529 275.45 130.139ZM124.83 556.129C145.62 555.049 161.68 586.959 170.21 601.489C187.17 630.399 200.21 661.579 210.12 693.539C216.67 714.639 220.81 736.199 221.27 757.929C208.4 782.569 178.95 789.659 151.78 788.989C132.93 788.539 115.68 783.259 100.33 774.439C86.0502 741.959 86.3202 700.599 89.5002 666.479C91.4702 645.229 96.0901 624.229 102.69 603.949C108.26 586.859 116.41 571.669 124.83 556.129ZM80.6901 778.239C103.72 795.109 134.04 802.669 162.11 802.189C183.14 801.839 205.81 794.959 220.37 780.559C219.91 784.929 219.29 789.309 218.48 793.679C212.48 825.859 182.82 836.219 153.54 834.729C131.62 830.679 109.77 818.679 96.2799 804.589C90.0999 796.549 84.9401 787.669 80.6901 778.239ZM468.58 440.569C452.39 439.409 437.59 445.139 426.96 462.179C412.84 484.809 417.59 520.749 419.74 545.599C422.24 574.539 427.49 603.479 435.84 631.399C435.42 631.639 435.01 631.879 434.59 632.199C378 676.109 298.79 700.069 227.23 693.459C219.08 664.329 206.73 636.039 193.25 609.499C181.78 586.909 163.96 550.179 137.26 541.929C117.29 535.769 101.03 545.229 87.9401 558.969C81.3601 516.369 77.7 473.729 76.32 431.059C74.8 374.119 77.3902 316.989 82.2502 260.459C83.1102 250.359 83.9501 239.749 84.9401 228.889C118 244.749 161.61 234.869 194.58 225.049C231.51 214.059 276.4 194.539 299.68 161.509C303.49 166.739 306.84 171.459 309.61 175.359C369.11 259.129 421.85 348.999 468.58 440.569ZM412.25 231.869C412.41 231.949 412.55 232.029 412.7 232.109C412.91 236.869 411.46 241.339 409.48 245.939C405.96 254.129 400.18 263.279 393.25 270.089C380.06 248.499 366.42 227.219 352.27 206.409C372.31 214.769 392.73 222.309 412.25 231.869ZM405.74 290.869C402.26 284.989 398.74 279.139 395.19 273.299C402.16 269.409 407.21 261.939 411.32 255.229C414.1 250.699 417.88 243.309 418.9 236.399C432.6 249.699 414.97 272.029 405.74 290.869ZM451.61 628.179C438.05 583.629 424.51 521.739 438.75 475.699C440.9 468.749 444.67 464.269 449.44 461.589C483.96 478.579 509.33 509.459 529.23 542.029C539.88 559.469 549.06 578.039 556.45 597.089C563.62 615.559 570.78 633.039 573.07 652.449C566.8 659.859 559.53 666.659 551.16 672.809C529.14 688.999 498.65 697.999 474.59 683.589C464.47 666.309 457.38 647.119 451.61 628.179ZM566.53 531.449C579.37 550.249 591.32 573.119 598.77 597.149C595.44 615.399 588.59 631.759 578.16 646.029C576.37 629.679 567.7 612.429 562.18 598.639C554.02 578.219 544.61 558.529 533.32 539.639C514.76 508.599 488.11 473.659 452.93 460.029C470.97 453.599 499.42 467.419 513.03 475.489C535.04 488.539 552.36 510.679 566.53 531.449ZM570.17 508.179C555.52 488.599 522.01 457.389 489.43 445.359C489.41 445.319 489.4 445.269 489.38 445.229C465.94 398.659 441.13 351.649 414.43 305.649C424.51 294.599 430.88 274.819 435.77 262.099C439.52 252.319 442.97 240.119 435.34 231.089C426.48 220.619 412.46 215.699 400.11 210.589C380.53 202.509 360.66 193.759 340.01 188.699C327.36 170.729 314.3 153.139 300.79 136.059C266.5 92.709 193.13 8.27901 131.32 57.949C80.28 98.969 73.7503 180.319 67.6603 240.429C66.8903 248.059 66.1704 255.699 65.4904 263.349C43.0404 281.789 -1.52002 306.639 1.31998 340.529C3.26998 363.919 38.8301 386.679 59.4201 395.909C59.4901 456.119 63.8003 516.269 74.1603 575.449C74.1903 575.639 74.26 575.789 74.3 575.979C71.83 579.519 69.5002 583.059 67.3302 586.459C51.6602 611.089 47.7704 643.299 46.2204 671.769C42.9904 731.419 57.5699 810.529 117.51 837.919C117.86 838.219 118.18 838.549 118.67 838.759C144.58 850.229 192.54 855.599 214.83 833.089C223.5 824.319 229.1 813.609 232.59 801.999C239.95 802.729 247.37 803.149 254.83 803.349C249.47 844.129 255.15 888.539 268.8 926.67C270.06 930.2 274.39 929.96 275.74 926.67C280.2 915.739 284.48 904.849 290.29 894.689C294.44 925.05 309.6 954.81 329.47 977.5C331.35 979.65 334.67 978.31 335.47 975.91C338.42 967.1 341.41 958.34 345.11 949.84C353.36 971.15 370.33 987.79 386.98 1003.11C407.75 1022.23 427.92 1040.95 446.36 1062.37C446.4 1062.42 446.45 1062.41 446.49 1062.44C446.54 1062.47 446.59 1062.49 446.64 1062.52C446.84 1062.64 447.04 1062.73 447.27 1062.71C447.73 1062.74 448.11 1062.51 448.32 1062.09C448.37 1062.02 448.41 1061.96 448.44 1061.89C448.45 1061.86 448.49 1061.85 448.49 1061.81C452.53 1034.39 459.11 1008.19 466.46 981.49C472.59 959.22 478.24 935.4 473.68 912.479C481.31 917.639 488.51 923.379 495.68 929.21C497.52 930.7 501.23 930.58 501.69 927.62C506.32 897.769 503.24 864.369 490.41 836.469C501.02 842.019 510.68 849.229 520.46 856.179C523.22 858.139 526.38 854.929 525.74 852.109C516.76 812.229 497.53 771.289 470.75 739.599C476.64 735.669 482.4 731.619 487.98 727.399C495.74 734.429 504.28 739.799 513.56 742.219C522.95 744.669 532.56 744.519 541.98 742.549C543.45 742.269 544.91 741.939 546.38 741.549C546.41 741.539 546.46 741.529 546.49 741.519C548.63 740.949 550.74 740.289 552.83 739.489C553.15 739.379 553.45 739.239 553.75 739.119C554.76 738.729 555.76 738.339 556.74 737.899C576.49 729.609 594.17 714.029 605.23 697.609C605.55 697.149 605.67 696.669 605.8 696.199C644.12 636.829 608 558.699 570.17 508.179Z" fill="#2D2D2C"/>
<path d="M356.71 419.209C354.08 437.599 345.63 454.709 328.87 468.479C301.23 491.199 261.54 495.969 229.34 480.769C193.37 463.789 179.41 423.519 178.55 386.149C177.75 351.809 190.87 321.359 213.36 297.399C216.52 295.889 219.76 294.489 223.04 293.169C239.45 287.569 257.17 286.329 273.94 290.909C328.85 305.879 360.61 365.389 356.71 419.209ZM308.12 499.269C272.26 519.309 220.79 516.699 190.02 488.639C172.22 472.399 163.14 447.609 158.03 424.709C157.57 422.629 157.24 420.519 156.87 418.409C153.12 390.609 154.79 362.629 169.17 337.159C175.29 326.329 183.72 316.839 193.56 309.149C195.63 307.629 197.76 306.189 199.94 304.809C155.93 357.879 163.02 456.099 228.56 487.479C262.56 503.749 303.66 496.059 332.8 473.569C337.08 470.269 340.89 466.609 344.29 462.719C336.28 477.429 324.4 490.169 308.12 499.269ZM159.71 320.369C142.17 345.339 137.08 373.409 139.47 401.659C139.72 412.179 140.98 422.819 143.31 433.349C150.42 465.539 167.79 495.119 195.78 513.019C236.67 539.169 294.97 530.219 332.5 502.839C417.33 440.959 364.1 304.459 278.47 274.489C235.38 259.409 184.8 284.649 159.71 320.369Z" fill="#2D2D2C"/>
<path d="M327.55 717.659C354.54 710.879 381.39 700.969 405.04 686.139C405.58 685.799 405.11 685.009 404.54 685.289C355.12 709.399 298.31 727.299 242.79 723.069C242.62 723.059 242.59 723.339 242.75 723.369C270.72 729.879 300.09 724.559 327.55 717.659Z" fill="#2D2D2C"/>
<path d="M415.83 680.159C416.1 679.579 415.57 679.069 415 679.329C412.89 680.269 409.67 681.479 408.53 683.629C408.42 683.839 408.5 684.159 408.77 684.209C411.47 684.729 414.74 682.559 415.83 680.159Z" fill="#2D2D2C"/>
<path d="M247.19 735.309C247.03 735.289 247.01 735.539 247.15 735.569C287.13 745.019 331.93 733.499 368.07 715.829C368.4 715.669 368.17 715.109 367.83 715.229C328.51 729.489 289.42 740.539 247.19 735.309Z" fill="#2D2D2C"/>
<path d="M248.42 749.729C248.28 749.719 248.26 749.919 248.39 749.949C272.2 756.669 298.15 753.239 321.36 745.469C321.81 745.319 321.62 744.709 321.17 744.779C296.45 748.239 273.49 752.589 248.42 749.729Z" fill="#2D2D2C"/>
<path d="M326.64 743.309C326.36 743.389 326.44 743.759 326.71 743.789C330.63 744.299 334.3 743.489 337.46 741.129C337.73 740.929 337.57 740.559 337.25 740.599C333.6 741.149 330.17 742.229 326.64 743.309Z" fill="#2D2D2C"/>
<path d="M96.7502 296.259C97.2102 281.549 96.6903 266.219 98.3503 251.609C98.3803 251.409 98.0602 251.379 98.0202 251.559C89.0402 289.179 90.2203 329.519 90.4103 367.959C90.6803 422.759 92.08 478.399 104.57 531.929C104.81 532.949 106.25 532.489 106.11 531.499C98.41 477.559 95.78 422.399 95.55 367.959C95.45 344.059 96.0002 320.149 96.7502 296.259Z" fill="#2D2D2C"/>
<path d="M447.28 432.369C429.37 389.619 407.31 347.529 380.8 309.479C380.7 309.339 380.48 309.459 380.57 309.609C403.14 350.259 422.39 392.939 446.31 432.789C446.61 433.289 447.52 432.939 447.28 432.369Z" fill="#2D2D2C"/>
<path d="M378.1 305.239C377.42 302.839 375.99 300.739 374.72 298.609C373.11 295.919 371.44 293.299 369.61 290.759C369.39 290.469 368.94 290.719 369.11 291.039C371.58 295.709 373.55 301.969 377.53 305.569C377.78 305.789 378.2 305.579 378.1 305.239Z" fill="#2D2D2C"/>
<path d="M369.68 917.869C355.15 883.469 344.1 850.489 338.77 813.409C338.74 813.199 338.39 813.259 338.4 813.469C339.2 849.499 349.55 887.739 368.92 918.299C369.23 918.789 369.89 918.369 369.68 917.869Z" fill="#2D2D2C"/>
<path d="M396.47 822.899C400 841.289 401.18 860.829 407.6 878.479C407.77 878.939 408.55 878.909 408.5 878.369C406.72 859.679 404.75 839.929 396.82 822.749C396.73 822.539 396.44 822.699 396.47 822.899Z" fill="#2D2D2C"/>
<path d="M408.84 882.869C409.25 885.189 409.61 887.479 410.37 889.699C410.49 890.039 411 889.989 411.01 889.619C411.02 887.159 410.12 885.019 409.21 882.769C409.11 882.549 408.79 882.629 408.84 882.869Z" fill="#2D2D2C"/>
<path d="M438.71 826.979C440.58 816.139 437.88 804.839 432.74 795.249C432.67 795.119 432.47 795.209 432.5 795.349C434.79 805.879 436.14 816.379 437.91 826.979C437.97 827.389 438.64 827.389 438.71 826.979Z" fill="#2D2D2C"/>
<path d="M467.7 804.549C467.54 791.529 465.84 778.899 458.63 767.799C458.52 767.629 458.28 767.779 458.36 767.949C463.91 779.489 463.18 792.589 466.81 804.669C466.95 805.159 467.71 805.069 467.7 804.549Z" fill="#2D2D2C"/>
<path d="M436.61 930.28C437.12 927.08 435.97 924.16 435.15 921.099C435.11 920.959 434.87 920.979 434.88 921.129C435.25 924.19 435.6 927.26 436.18 930.28C436.21 930.5 436.58 930.5 436.61 930.28Z" fill="#2D2D2C"/>
<path d="M425.59 982.23C425.87 982.46 426.29 982.17 426.1 981.84C425.04 979.92 423.55 978 422.09 976.37C422 976.27 421.84 976.38 421.87 976.5C422.28 978.66 423.94 980.82 425.59 982.23Z" fill="#2D2D2C"/>
<path d="M377.11 931.07C376.68 927.51 373.56 924.6 371.46 921.859C371.37 921.739 371.2 921.839 371.26 921.969C372.65 925.11 374.1 928.91 376.69 931.25C376.83 931.37 377.14 931.3 377.11 931.07Z" fill="#2D2D2C"/>
<path d="M404.72 817.039C403.15 809.359 400.46 801.619 396.21 794.999C396.1 794.829 395.88 794.979 395.95 795.149C399.02 802.399 400.86 810.009 403.65 817.329C403.91 817.989 404.86 817.739 404.72 817.039Z" fill="#2D2D2C"/>
<path d="M186.95 925.32C174.63 927.45 162.3 929.47 149.96 931.45C145.69 922.029 141.35 912.619 136.84 903.309C127.37 883.729 122.61 879.869 116.61 904.439C113.89 915.569 111.43 926.78 109.09 938.01C95.4798 940.21 81.8901 942.45 68.3101 944.85C50.1101 948.05 42.7502 953.11 64.4902 964.55C76.3402 970.78 88.2 977.03 99.98 983.45C96.53 1000.65 93.0501 1017.91 90.5601 1035.28C88.0301 1052.84 92.5601 1053.59 102.85 1042.76C114.56 1030.43 125.46 1017.35 136.41 1004.31C150.25 1012.7 163.79 1021.58 176.81 1031.2C193.64 1043.64 194.09 1032.11 190.13 1022.16C183.02 1004.3 174.71 986.76 166.89 969.33C175.66 959.7 184.62 950.24 193.85 941.05C202.06 932.87 213.39 920.739 186.95 925.32Z" fill="#2D2D2C"/>
<path d="M245.24 1009.36C235.82 996.18 250.94 981 264.46 984.28C267.68 985.05 270.11 986.45 271.9 988.25C273.69 990.27 274.99 992.77 275.63 995.67C276.32 999.69 275.58 1004.16 273.8 1008.21C268.05 1017.92 252.8 1019.92 245.24 1009.36ZM288.89 991.51C288.67 990.79 288.48 990.06 288.21 989.37C285.7 981.66 280.1 974.91 271.02 971.48C245.96 962.01 216.56 988.87 230.23 1014.62C244.49 1041.5 283.38 1036.39 289.61 1006.64C290.72 1001.33 290.34 996.26 288.94 991.65C288.93 991.6 288.9 991.56 288.89 991.51Z" fill="#2D2D2C"/>
<path d="M29.79 891.639C26.04 890.729 23.1702 889.119 20.9502 887.079C18.4202 884.439 16.6002 881.069 15.7402 877.119C14.8402 871.639 16.08 865.549 18.81 860.209C26.56 849.039 44.8197 847.219 54.0297 860.109C65.8497 876.669 46.76 895.769 29.79 891.639ZM1.7402 864.389C0.140197 871.649 0.959885 878.519 3.41988 884.519C6.31988 893.019 12.6 900.419 22.75 904.259C51.14 914.979 84.92 884.729 69.29 855.329C52.93 824.549 9.1602 830.659 1.7402 864.389Z" fill="#2D2D2C"/>
<path d="M34.8598 0.889101C25.4198 -1.221 19.3199 8.559 15.4999 19.9891C7.63994 43.579 6.28988 93.729 10.1899 114.989C11.7099 123.349 14.6598 131.149 19.8598 137.499C27.2298 146.519 39.1101 143.919 43.6601 134.549C50.6701 120.009 48.5699 99.109 48.4999 83.439C48.4199 68.149 46.71 52.879 47.1 37.579C47.39 26.549 49.2098 4.129 34.8598 0.889101Z" fill="#2D2D2C"/>
</svg>
