<svg width="345" height="362" viewBox="0 0 345 362" fill="none" xmlns="http://www.w3.org/2000/svg">
<path d="M343.73 50.698C343.59 50.318 342.97 50.118 342.77 50.578C341.26 53.988 340.53 57.908 340.99 61.608C341.08 62.328 342.19 62.638 342.36 61.798C343.07 58.228 345.03 54.348 343.73 50.698Z" fill="#2D2D2C"/>
<path d="M247.62 342.758C234.65 336.808 232.84 324.148 234.76 312.098C242.94 303.908 248.27 296.688 261.55 297.658C272.48 298.458 280.35 307.538 279.87 318.178C279.21 332.668 262.31 349.508 247.62 342.758ZM270.62 282.978C255.45 277.678 232.84 284.028 224.78 298.928C210.05 317.118 219.7 343.918 237.58 355.828C260.97 371.398 285.86 350.058 294.22 328.458C301.88 308.658 289.35 289.508 270.62 282.978Z" fill="#2D2D2C"/>
<path d="M156.27 151.358C200.28 124.738 245.4 122.108 293.57 133.848C291.72 143.498 289.91 153.158 288.15 162.828C235.14 136.478 141.18 181.218 117.08 233.278C108.09 225.978 99.0599 218.718 89.9999 211.508C106.52 186.228 130.57 166.888 156.27 151.358ZM127.61 244.818C160.96 191.738 229.9 159.918 290.4 180.788C294.38 183.018 299.94 182.148 300.95 176.458C303.7 161.068 306.47 145.688 309.37 130.328C309.43 130.008 309.47 129.688 309.49 129.378C310.15 126.528 309.25 123.468 305.94 121.918C229.63 86.008 108.73 130.778 74.0898 209.518C71.9798 212.128 71.62 215.798 75.06 218.548C88.23 229.088 101.31 239.728 114.37 250.408C119.99 255.008 127.46 250.138 127.61 244.818Z" fill="#2D2D2C"/>
<path d="M178.84 281.368C171.23 275.008 163.61 268.658 155.96 262.338C182.24 225.268 243.73 197.098 287.85 213.138C286.16 223.028 284.5 232.908 282.86 242.798C247.06 228.828 200.12 250.798 178.84 281.368ZM297.26 202.178C248.97 172.878 166.06 213.518 141.63 259.048C138.44 261.628 137.17 266.268 141.22 269.618C152.4 278.878 163.55 288.188 174.67 297.518C180.06 302.048 187.22 297.648 187.86 292.508C209.62 262.398 248.83 247.898 284.42 258.708C288.42 261.858 295.04 261.438 296.08 255.138C298.47 240.538 300.9 225.948 303.39 211.368C304.21 206.578 300.93 203.168 297.26 202.178Z" fill="#2D2D2C"/>
<path d="M311.39 53.138C308.45 64.548 305.77 76.018 303.07 87.488C211.56 45.368 94.6197 89.708 51.8197 181.908C41.9397 174.728 32.11 167.508 22.1 160.508C64.96 50.038 207.48 -15.122 311.39 53.138ZM303.99 105.778C306.88 107.228 309.66 106.878 311.83 105.558C312.88 105.058 313.79 104.268 314.42 103.158C315.76 101.298 316.4 98.978 315.95 96.818C318.64 81.918 321.79 67.078 325.07 52.298C325.93 49.978 325.73 47.238 323.74 45.158C279.53 -1.39199 202.32 3.59801 146.7 22.288C85.4301 42.878 19.8201 94.148 7.97009 161.208C7.54009 163.628 8.20003 165.598 9.41003 166.988C9.82003 167.558 10.3298 168.088 10.9598 168.558C23.8398 178.178 36.72 187.918 49.1 198.178C54.5 202.658 60.3898 199.028 61.4598 194.228C112.55 108.708 208.18 57.828 303.99 105.778Z" fill="#2D2D2C"/>
<path d="M341.31 69.198C336.96 84.258 336.55 101.128 334.2 116.618C331.19 136.388 327.85 156.098 324.48 175.808C318.38 211.398 310.68 247.128 307.6 283.148C307.55 283.638 308.34 283.738 308.44 283.268C316.26 248.058 321.64 212.218 327.54 176.648C330.82 156.918 333.99 137.158 336.92 117.368C339.19 102.068 343.49 84.788 342.07 69.308C342.03 68.888 341.44 68.758 341.31 69.198Z" fill="#2D2D2C"/>
<path d="M76.5601 239.038C76.1901 238.728 75.6501 239.228 76.0201 239.578C111.91 272.788 152.92 304.008 194.58 329.618C194.98 329.858 195.3 329.258 194.94 328.988C155.09 299.728 114.94 270.208 76.5601 239.038Z" fill="#2D2D2C"/>
<path d="M58.9502 50.078C86.8802 26.078 121.95 15.168 156.41 4.33801C156.95 4.16801 156.72 3.41799 156.18 3.49799C119.63 9.50799 85.1702 24.038 56.4102 47.528C32.3202 67.208 0.94002 101.658 0.52002 134.688C0.52002 135.138 1.14979 135.198 1.27979 134.788C11.9398 100.778 31.9802 73.278 58.9502 50.078Z" fill="#2D2D2C"/>
<path d="M162.45 3.48802C166.24 3.77802 170.12 3.048 173.43 1.218C173.85 0.988002 173.62 0.458005 173.22 0.408005C169.49 -0.0219955 165.23 0.498004 162.21 2.908C161.96 3.118 162.19 3.46802 162.45 3.48802Z" fill="#2D2D2C"/>
</svg>
