<svg width="438" height="353" viewBox="0 0 438 353" fill="none" xmlns="http://www.w3.org/2000/svg">
<path d="M249.82 4.89002C254.06 4.31002 258.89 4.23001 262.77 2.34001C263.04 2.21001 262.99 1.74001 262.68 1.68001C258.35 0.91001 253.39 2.24002 249.58 4.32002C249.24 4.51002 249.5 4.94002 249.82 4.89002Z" fill="#2D2D2C"/>
<path d="M436.96 258.27C436.9 257.74 436.18 257.43 435.88 257.98C434.35 260.8 433.62 263.85 432.99 266.98C432.81 267.87 433.88 268.26 434.4 267.57C436.41 264.91 437.33 261.59 436.96 258.27Z" fill="#2D2D2C"/>
<path d="M94.3702 49.69C76.8102 41.26 55.3002 48.2 43.9502 63.59C36.8102 73.28 36.4799 84.17 40.3799 93.66C42.0899 100.62 45.4602 107.52 50.3702 113.53C59.0502 124.16 72.02 131.27 85.98 129.3C102.55 126.95 116.01 110.8 118.78 94.92C122.02 76.38 111.02 57.69 94.3702 49.69Z" fill="#2D2D2C"/>
<path d="M168.77 48.7C167.29 43.48 162.63 39.64 157.45 38.44C145.06 35.57 133.79 46.29 138.3 58.83C141.12 66.67 147.55 71.36 155.96 70.16C162.43 69.23 167.68 63.31 169.68 57.44C170.33 55.51 170.1 53.41 169.27 51.56C169.19 50.59 169.04 49.62 168.77 48.7Z" fill="#2D2D2C"/>
<path d="M431.44 271.69C418.91 296.08 400.28 308.66 374.38 316.65C351.28 323.78 326.33 323.38 303.47 330.67C303.03 330.81 303.12 331.45 303.58 331.47C329.31 332.43 358.28 326.41 382.57 318.4C404.46 311.19 428.26 296.57 432.8 272.26C432.95 271.48 431.85 270.89 431.44 271.69Z" fill="#2D2D2C"/>
<path d="M78.4201 176.47C81.7301 177.31 86.1401 175.56 88.6301 173.35C88.9601 173.06 88.7002 172.48 88.2702 172.49C85.1302 172.58 80.9202 173.67 78.2702 175.38C77.8502 175.65 77.8901 176.34 78.4201 176.47Z" fill="#2D2D2C"/>
<path d="M199.68 87.86C203.7 73.86 203.23 58.73 205.81 44.39C209.95 21.38 223.22 12.9 243.64 5.04999C244.03 4.89999 244 4.28998 243.54 4.28998C201.5 4.33998 197.64 56.72 198.59 87.72C198.61 88.34 199.5 88.47 199.68 87.86Z" fill="#2D2D2C"/>
<path d="M133.91 329.99C104.82 333.75 60.9098 344.48 37.4598 324.35C71.7798 328.27 108.11 321.25 141.99 316.82C177.59 312.16 213.1 306.81 248.55 301.15C288.51 294.78 328.45 287.93 367.97 279.18C375.26 277.56 389.79 275.94 401.51 271.99C379.47 297.65 331.84 300.46 299.59 305.77C244.53 314.84 189.26 322.84 133.91 329.99ZM24.58 303.92C24.47 303.57 24.3797 303.21 24.2797 302.85C94.9497 307.43 169.46 293.84 239.01 283.39C294.26 275.08 361.43 269.81 413.09 244.78C412.23 252.23 410.1 258.66 406.97 264.23C391.85 271.48 370.34 273.5 355.99 276.59C319.97 284.36 283.57 290.4 247.2 296.27C175.92 307.8 104.93 318.53 32.7299 319.51C29.3099 315.33 26.53 310.2 24.58 303.92ZM21.6898 288.86C18.5898 251.33 44.9198 213.05 78.9598 200.8C79.5698 201.22 80.27 201.58 81.1 201.82C118.38 212.52 132.36 245.04 138.52 280.5C99.7199 284.26 60.8298 286.91 21.6898 288.86ZM113.2 185.26C119.31 183.24 128.65 190.24 133.16 193.69C138.68 197.93 145.65 204.7 144.62 212.26C144.3 214.58 140.86 215.22 139.42 213.63C137.21 211.19 136.32 208 134.37 205.34C131.99 202.11 129.02 199.42 125.83 197.02C122 194.14 114.36 190.82 112.79 185.98C112.69 185.67 112.91 185.36 113.2 185.26ZM146.36 177.04C153.63 175.76 161.14 181.1 166.09 185.94C170.18 189.93 179.57 198.77 175.82 205.11C175.1 206.33 173.58 207 172.2 206.59C169.24 205.7 168.31 203.41 166.77 200.93C164.81 197.75 162.51 194.82 159.79 192.23C155.28 187.95 150.03 184.85 145.36 180.82C144.13 179.76 144.72 177.32 146.36 177.04ZM178.73 167.47C179.05 166.86 179.75 166.5 180.43 166.49C186.43 166.46 191.28 171.07 194.86 175.44C198.24 179.57 202.97 185.8 203.12 191.34C203.2 194.06 199.72 195.38 197.86 193.52C193.71 189.37 192.31 182.69 188.34 178.17C186.24 175.78 184.04 173.47 181.35 171.74C180.06 170.91 178.4 169.84 178.47 168.14C178.48 167.88 178.61 167.7 178.73 167.47ZM209.21 153.8C216.03 153.72 221.2 160.71 224.65 165.81C227.84 170.52 233.15 177.17 229.65 182.89C229.36 183.36 228.78 183.63 228.24 183.47C222.33 181.65 220.93 174.51 217.84 169.79C214.74 165.06 209.66 160.53 208.37 154.89C208.25 154.34 208.63 153.8 209.21 153.8ZM239.63 138.2C239.77 138.94 239.91 139.68 240.06 140.42C239.27 140.8 238.49 141.17 237.7 141.54C238.38 140.45 239.02 139.34 239.63 138.2ZM355.79 205.55C355.04 205.81 354.29 206.06 353.53 206.32C353.65 206.16 353.77 206 353.88 205.85C354.52 205.74 355.15 205.64 355.79 205.55ZM307.39 59.75C334.97 52.44 353.18 74.45 355.58 99.66C360.83 154.76 283.9 167.41 270.67 114.57C270.65 114.51 270.63 114.46 270.62 114.4C269.3 89.16 281.91 66.5 307.39 59.75ZM344.89 13.87C376.75 5.83999 389.78 56.33 388.2 78.68C388.14 79.62 386.91 79.78 386.6 78.9C382.34 67.18 381.63 54.54 376.98 42.92C370.38 26.41 360.91 20.98 344.89 15.44C344.16 15.19 344.06 14.08 344.89 13.87ZM389.23 87.25C391.13 89.59 392.67 93.61 391.16 96.45C390.96 96.83 390.4 96.89 390.11 96.58C388.13 94.54 387.94 90.56 387.84 87.83C387.81 87.16 388.78 86.69 389.23 87.25ZM428.64 215.57C426.72 186.48 420.99 157.39 415.79 128.75C409.6 94.65 404.63 57.92 391.99 25.51C383.43 3.58999 363.31 -0.499997 342.12 1.24C313.22 3.6 282.57 7.26 254.81 15.72C233.93 21.3 222.37 33.29 216.21 53.87C208.72 78.91 221.82 112.1 204.41 134.13C189.24 153.31 154.39 160.39 132.4 167.45C108.33 175.18 83.09 180.81 59.85 190.9C25.73 205.72 9.57977 246.37 6.62977 281.2C3.03977 323.72 32.0397 350.549 72.7797 352.129C118.03 353.9 166.99 341.72 211.55 335.29C262.32 327.95 313.5 321.01 363.66 310.2C414.06 299.33 431.83 263.72 428.64 215.57Z" fill="#2D2D2C"/>
<path d="M71.9397 178.02C72.3697 177.87 72.3396 177.12 71.8196 177.17C37.0996 180.61 4.25 211.16 0.990001 246.4C0.950001 246.86 1.61977 246.9 1.74977 246.51C7.20977 230.17 13.5999 216.4 25.6399 203.8C38.2899 190.56 55.1097 184.07 71.9397 178.02Z" fill="#2D2D2C"/>
</svg>
