<svg width="504" height="407" viewBox="0 0 504 407" fill="none" xmlns="http://www.w3.org/2000/svg">
<path d="M287.603 5.22729C292.502 4.55722 298.082 4.46479 302.564 2.28131C302.876 2.13112 302.819 1.58813 302.461 1.51882C297.458 0.629248 291.728 2.16579 287.326 4.56878C286.933 4.78829 287.234 5.28505 287.603 5.22729Z" fill="#2D2D2C"/>
<path d="M503.804 297.953C503.734 297.341 502.902 296.983 502.556 297.618C500.788 300.876 499.945 304.4 499.217 308.016C499.009 309.044 500.245 309.494 500.846 308.697C503.168 305.624 504.231 301.789 503.804 297.953Z" fill="#2D2D2C"/>
<path d="M108.015 56.984C87.7282 47.245 62.8781 55.2626 49.7657 73.0425C41.5169 84.2372 41.1353 96.8182 45.6409 107.782C47.6165 115.823 51.5101 123.794 57.1825 130.737C67.2104 143.018 82.1942 151.232 98.322 148.956C117.465 146.241 133.015 127.583 136.215 109.238C139.958 87.8186 127.25 66.2263 108.015 56.984Z" fill="#2D2D2C"/>
<path d="M193.968 55.8402C192.258 49.8097 186.874 45.3734 180.89 43.987C166.576 40.6714 153.556 53.056 158.766 67.5432C162.024 76.6007 169.452 82.019 179.168 80.6326C186.643 79.5582 192.709 72.7189 195.019 65.9374C195.77 63.7077 195.504 61.2816 194.545 59.1443C194.453 58.0237 194.28 56.9031 193.968 55.8402Z" fill="#2D2D2C"/>
<path d="M497.426 313.457C482.951 341.634 461.428 356.168 431.506 365.399C404.819 373.636 375.995 373.174 349.585 381.596C349.077 381.757 349.18 382.497 349.712 382.52C379.437 383.629 412.906 376.674 440.967 367.42C466.257 359.091 493.752 342.2 498.997 314.116C499.171 313.214 497.9 312.533 497.426 313.457Z" fill="#2D2D2C"/>
<path d="M89.5881 203.451C93.4121 204.421 98.5068 202.4 101.383 199.846C101.765 199.511 101.465 198.841 100.968 198.853C97.3402 198.957 92.4764 200.216 89.4149 202.192C88.9297 202.504 88.9758 203.301 89.5881 203.451Z" fill="#2D2D2C"/>
<path d="M229.678 101.081C234.322 84.9072 233.779 67.4277 236.76 50.861C241.542 24.2779 256.873 14.4811 280.464 5.41208C280.915 5.23879 280.88 4.53406 280.348 4.53406C231.78 4.59182 227.321 65.1056 228.418 100.919C228.441 101.636 229.47 101.786 229.678 101.081Z" fill="#2D2D2C"/>
<path d="M153.695 380.81C120.088 385.154 69.3588 397.55 42.2674 374.294C81.9167 378.823 123.888 370.713 163.03 365.595C204.158 360.211 245.181 354.031 286.136 347.492C332.301 340.133 378.444 332.219 424.101 322.11C432.523 320.239 449.308 318.367 462.848 313.804C437.386 343.448 382.36 346.695 345.102 352.829C281.492 363.308 217.64 372.55 153.695 380.81ZM27.3875 350.692C27.2604 350.287 27.1561 349.872 27.0405 349.456C108.684 354.747 194.765 339.047 275.115 326.974C338.944 317.373 416.545 311.285 476.226 282.368C475.233 290.975 472.773 298.404 469.157 304.839C451.689 313.214 426.839 315.548 410.26 319.118C368.647 328.094 326.595 335.072 284.577 341.854C202.228 355.174 120.214 367.571 36.8029 368.703C32.8518 363.874 29.6403 357.947 27.3875 350.692ZM24.0485 333.293C20.4672 289.935 50.8858 245.711 90.2117 231.559C90.9164 232.044 91.7252 232.46 92.6841 232.737C135.753 245.099 151.904 282.669 159.02 323.635C114.195 327.979 69.2663 331.04 24.0485 333.293ZM129.769 213.606C136.828 211.272 147.618 219.359 152.828 223.345C159.205 228.243 167.258 236.065 166.068 244.799C165.698 247.479 161.724 248.218 160.06 246.381C157.507 243.562 156.479 239.877 154.226 236.804C151.477 233.072 148.045 229.965 144.36 227.192C139.935 223.865 131.109 220.029 129.295 214.438C129.179 214.08 129.434 213.721 129.769 213.606ZM168.078 204.109C176.477 202.631 185.153 208.8 190.871 214.391C195.597 219.001 206.445 229.214 202.112 236.538C201.28 237.948 199.525 238.722 197.931 238.248C194.511 237.22 193.436 234.574 191.657 231.709C189.393 228.035 186.736 224.65 183.593 221.658C178.383 216.714 172.318 213.132 166.922 208.476C165.501 207.252 166.183 204.433 168.078 204.109ZM205.474 193.053C205.844 192.349 206.653 191.933 207.439 191.921C214.37 191.886 219.973 197.212 224.109 202.261C228.014 207.032 233.479 214.23 233.652 220.63C233.744 223.772 229.724 225.297 227.575 223.148C222.78 218.354 221.163 210.637 216.576 205.415C214.15 202.654 211.609 199.985 208.501 197.986C207.011 197.027 205.093 195.791 205.174 193.827C205.186 193.527 205.336 193.319 205.474 193.053ZM240.687 177.261C248.566 177.168 254.539 185.244 258.525 191.136C262.21 196.577 268.345 204.26 264.301 210.868C263.966 211.411 263.297 211.723 262.673 211.538C255.845 209.435 254.227 201.187 250.657 195.734C247.076 190.269 241.207 185.036 239.717 178.52C239.578 177.884 240.017 177.261 240.687 177.261ZM275.831 159.238C275.993 160.093 276.155 160.948 276.328 161.803C275.415 162.242 274.514 162.669 273.602 163.097C274.387 161.838 275.126 160.555 275.831 159.238ZM410.029 237.047C409.162 237.347 408.296 237.636 407.418 237.936C407.556 237.751 407.695 237.566 407.822 237.393C408.562 237.266 409.29 237.15 410.029 237.047ZM354.113 68.6061C385.976 60.161 407.014 85.5888 409.786 114.714C415.852 178.37 326.975 192.984 311.691 131.939C311.668 131.869 311.645 131.812 311.634 131.742C310.109 102.583 324.677 76.4043 354.113 68.6061ZM397.436 15.6017C434.244 6.32477 449.297 64.6551 447.472 90.4757C447.403 91.5616 445.981 91.7465 445.623 90.7298C440.702 77.1899 439.881 62.5871 434.509 49.1627C426.884 30.089 415.944 23.8158 397.436 17.4155C396.593 17.1267 396.478 15.8443 397.436 15.6017ZM448.662 100.376C450.857 103.08 452.636 107.724 450.891 111.005C450.66 111.444 450.013 111.513 449.678 111.155C447.391 108.798 447.171 104.2 447.056 101.046C447.021 100.272 448.142 99.7295 448.662 100.376ZM494.191 248.622C491.973 215.015 485.353 181.408 479.346 148.321C472.195 108.926 466.453 66.492 451.85 29.0492C441.961 3.72539 418.717 -0.999713 394.236 1.01048C360.849 3.73695 325.439 7.96528 293.368 17.739C269.246 24.1855 255.891 38.0373 248.774 61.8131C240.121 90.7414 255.256 129.085 235.142 154.536C217.617 176.695 177.355 184.874 151.95 193.03C124.142 201.961 94.9831 208.465 68.1343 220.122C28.7161 237.243 10.058 284.205 6.64989 324.444C2.50242 373.566 36.0055 404.562 83.0718 406.387C135.348 408.433 191.911 394.362 243.391 386.933C302.044 378.453 361.172 370.436 419.121 357.947C477.347 345.389 497.877 304.249 494.191 248.622Z" fill="#2D2D2C"/>
<path d="M82.1014 205.242C82.5981 205.068 82.5633 204.202 81.9626 204.26C41.8511 208.234 3.90054 243.528 0.134311 284.24C0.0880997 284.771 0.861869 284.818 1.01206 284.367C7.31991 265.49 14.7023 249.581 28.6119 235.025C43.2263 219.729 62.6579 212.231 82.1014 205.242Z" fill="#2D2D2C"/>
</svg>
