<svg width="435" height="482" viewBox="0 0 435 482" fill="none" xmlns="http://www.w3.org/2000/svg">
<path d="M30.75 77.205C33.09 82.25 40.25 83.46 44.7 80.865C49.65 77.965 50.9401 71.835 48.3501 66.925C46.3401 63.085 44.37 59.215 42.51 55.295C40.65 51.365 35.3899 49.695 31.4299 50.785C26.6999 52.085 22.5801 57.885 24.5701 62.855C26.5101 67.695 28.56 72.485 30.75 77.205Z" fill="#2D2D2C"/>
<path d="M280.85 31.705C286.42 33.235 291.17 29.835 293.06 24.765C294.63 20.565 296.25 14.9351 295.83 10.4651C295.41 5.98506 293.08 2.08504 288.49 0.825041C284.3 -0.334959 279.28 1.48501 277.19 5.41501C274.57 10.345 273.77 16.625 273.56 22.125C273.4 26.515 276.71 30.565 280.85 31.705Z" fill="#2D2D2C"/>
<path d="M233.91 283.94C167.93 287.21 109.41 254.12 70.76 204.19C92.9 159.32 126.94 125.32 172.38 110.21C170.58 141.74 171.62 179.02 181.52 208.1C188.39 228.28 206.9 242.72 228.62 240.06C250.26 237.41 265.66 220.27 271.77 200.23C276.69 184.1 275.75 164.9 276.44 148.23C276.97 135.44 277.17 122.64 277.37 109.84C288.18 113.25 298.72 117.61 308.78 122.92C343.97 141.49 363.11 171.02 386.35 201.52C350.87 249.79 296.74 280.84 233.91 283.94ZM211.79 102.25C220.49 103.76 228.83 119.88 230.4 124.51C232.45 130.57 233.05 137.1 233.5 143.46C234.27 154.31 234 165.45 232.14 176.17C230.35 186.44 224.66 199.9 211.97 196.8C207.36 195.67 204.28 191.79 202.15 186.94C200.73 182.1 199.38 177.29 198.27 172.37C197.8 169.4 197.48 166.65 197.22 164.48C196.46 158.25 195.53 150.58 195.13 142.58C195.01 129.29 196.62 114.29 203.9 105.65C205.18 104.13 206.49 103.19 207.82 102.65C209.14 102.51 210.45 102.36 211.79 102.25ZM413.66 152.06C409.85 161.67 405.44 170.89 400.48 179.68C392.6 161.99 381 146.34 366.88 132.93C372.81 123.77 378.77 114.41 383.25 104.71C388.56 93.17 373.27 83.89 366.1 94.69C360.84 102.61 354.79 110.33 349.56 118.46C336.9 109.14 322.95 101.29 308.36 94.99C311.96 84.41 312.08 71.872 314.21 61.332C316.69 48.972 298.8 43.792 295.2 56.092C293.32 62.542 291.92 68.972 290.71 75.572C290 79.532 288.98 83.45 288.09 87.38C272.19 82.25 255.9 78.892 239.95 77.442C240.63 59.222 237.49 40.202 236.82 22.172C236.35 9.38199 217.23 9.33199 216.93 22.172C216.51 39.992 216.23 58.692 217.69 76.682C199.73 77.112 181.96 80.252 165.01 85.78C161.86 74.092 157.88 62.642 154.82 50.932C151.58 38.532 133.5 43.862 135.86 56.162C138.27 68.782 142.12 81.06 145.17 93.52C127.78 101.46 111.65 112 97.5701 124.74C93.9201 118.23 90.33 111.69 86.94 105.04C80.96 93.33 63.6999 103.61 69.3999 115.29C73.4999 123.7 77.9801 131.89 82.6101 140.01C71.6601 152.65 62.5401 166.88 55.8001 182.42C50.2401 173.25 45.28 163.67 41.01 153.77C36.42 143.1 19.6299 150.81 22.6299 161.53C48.2299 252.98 141.14 311.37 233.91 309.8C323.16 308.28 412.6 245.97 433.65 157.58C436.81 144.29 418.48 139.89 413.66 152.06Z" fill="#2D2D2C"/>
<path d="M405.2 245.73C366.57 298.8 297.42 324.42 233.91 328.09C200.82 330.01 167.47 325.43 136.36 313.91C103.62 301.78 80.4102 280.04 56.8702 255.24C56.6802 255.03 56.4201 255.29 56.5101 255.51C69.4101 285.32 100.52 306.34 129.52 318.46C162.48 332.24 198.37 337.13 233.91 335.61C298.99 332.84 373.65 306.69 406.35 246.4C406.76 245.64 405.7 245.05 405.2 245.73Z" fill="#2D2D2C"/>
<path d="M122.21 428.65C115.3 422.51 108.41 416.35 101.57 410.13C104.31 404.31 107.11 398.52 110.01 392.78C119.71 373.59 116.69 370.96 97.71 382.31C92.4 385.48 87.07 388.59 81.72 391.7C77.45 387.64 73.2201 383.54 69.0301 379.41C57.2001 367.7 48.2 361.5 49.91 390.48C50.29 396.88 50.7501 403.27 51.2601 409.67C46.7301 412.43 42.2201 415.23 37.7701 418.11C15.4701 432.55 28.4501 434.99 41.0201 437.31C45.3201 438.11 49.63 438.9 53.93 439.66C54.45 445 54.9801 450.33 55.5001 455.67C58.9801 491.33 64.3301 486.75 77.0601 462.3C79.3201 457.98 81.5101 453.64 83.5501 449.25C84.2001 447.85 84.85 446.44 85.49 445.04C94.71 446.53 103.93 447.96 113.16 449.32C134.35 452.45 146.39 450.15 122.21 428.65Z" fill="#2D2D2C"/>
<path d="M42.6298 352.4C68.2498 343.65 70.87 305.42 44.28 295.37C19.22 285.9 -10.1801 312.76 3.48994 338.51C17.7499 365.38 56.6401 360.28 62.8701 330.52C67.9901 306.07 42.8699 286.01 20.4799 297.51C15.1099 300.26 18.85 308.96 24.56 307.19C36.69 303.43 49.28 310.31 49.34 323.51C49.42 340.07 27.93 346.43 18.51 333.25C9.07996 320.07 24.2099 304.89 37.7299 308.16C55.4699 312.47 50.0899 335.29 38.4599 342.52C33.4099 345.66 36.6498 354.45 42.6298 352.4Z" fill="#2D2D2C"/>
<path d="M228.62 374.94C228.21 384.61 238.9 388.9 250.84 390.63C275.43 394.21 325.04 386.69 345.29 379.11C353.24 376.14 360.4 371.87 365.74 365.62C373.31 356.77 368.66 345.54 358.63 342.72C343.08 338.38 322.88 344.13 307.47 346.96C292.43 349.74 277.7 354.12 262.57 356.43C251.67 358.08 229.28 360.25 228.62 374.94Z" fill="#2D2D2C"/>
</svg>
