<svg width="226" height="226" viewBox="0 0 226 226" fill="none" xmlns="http://www.w3.org/2000/svg">
<path fill-rule="evenodd" clip-rule="evenodd" d="M113.424 86.753C113.424 60.8412 134.424 39.8372 160.323 39.8372C175.528 39.8372 187.669 47.0295 195.804 57.467C204.544 55.6795 212.762 52.4461 220.196 48.0348C217.265 57.1995 211.062 64.9045 202.975 69.7798C202.981 69.7952 202.987 69.8106 202.994 69.8259C210.926 68.8634 218.473 66.7543 225.5 63.6405L225.483 63.6658C220.427 71.2373 214.071 77.9211 206.766 83.3663C207.158 86.0112 207.357 88.6735 207.357 91.3205C207.357 146.615 165.233 210.927 87.742 210.927C64.0096 210.927 41.9052 203.974 23.2994 192.036C19.8131 189.8 18.8003 185.16 21.0371 181.674C21.2364 181.363 21.4548 181.072 21.6898 180.801C23.0182 178.608 25.5441 177.273 28.2564 177.592C41.9854 179.21 55.7107 177.537 67.8083 172.252C55.8094 166.96 46.4949 156.705 42.456 144.105C41.7293 141.838 42.2507 139.355 43.8282 137.572C43.8828 137.51 43.9385 137.45 43.9951 137.39C34.3841 128.932 28.3214 116.54 28.3214 102.73V102.223C28.3214 99.8307 29.5872 97.6175 31.6487 96.4047C32.3261 96.0062 33.0561 95.7352 33.8052 95.5923C30.5078 89.2318 28.6428 82.0063 28.6428 74.3523C28.6428 67.3334 28.683 58.4874 33.6253 50.5208C34.7326 48.7358 36.5371 47.6471 38.4683 47.3883C41.3109 46.4938 44.5364 47.3536 46.5345 49.8039C62.904 69.8776 86.5335 83.7461 113.428 87.4027C113.426 87.1865 113.424 86.97 113.424 86.753Z" fill="white"/>
</svg>
