<svg width="844" height="758" viewBox="0 0 844 758" fill="none" xmlns="http://www.w3.org/2000/svg">
<path d="M825.07 463.15C821.79 476.17 814.15 494.27 797.86 495.82C791.62 496.42 784.76 495.16 778.54 494.7C765.71 493.74 752.46 484.97 747.09 472.47C758.67 466.01 767.83 454.19 773.48 442.58C782.17 424.74 782.19 403.9 768.35 389.34C785.35 384.01 796.75 392.37 811.15 404.03C830.88 420.01 830.73 440.63 825.07 463.15ZM706.41 441.76C707.82 442.42 709.23 443.08 710.64 443.78C711.27 444.09 711.9 444.28 712.52 444.42C724.01 448.53 734.87 442.81 740.62 432.02C743.72 426.2 744.44 419.8 743.35 413.38C742.12 406.1 736.22 401.65 730.45 397.93C729.39 397.3 728.3 396.74 727.21 396.13C737.31 385.53 754.54 393.08 762.07 404.53C767.72 413.11 764.73 424.72 761.6 433.54C757.73 444.45 749.51 454.08 739.68 459.92C727.44 467.2 702.33 458.87 706.41 441.76ZM637 411.06C637.43 404.42 635.84 397.3 632.38 391.61C639.32 390.71 646.31 390.36 653.28 390.52C656.7 396.23 655.32 404.51 653.02 411.61C647.72 411.13 642.38 410.93 637 411.06ZM611.21 396.1C615.49 394.81 619.84 393.79 624.2 392.94C628.43 397.78 630.2 404.91 629.53 411.45C624.51 411.85 619.45 412.54 614.36 413.52C613.54 407.7 612.49 401.88 611.21 396.1ZM588.21 460.15C587.97 445.86 587.29 431.59 586.36 417.46C585.25 400.48 583.06 383.11 572.08 370.18C577.44 368.99 582.73 367.61 587.9 365.94C593.47 384.17 597.79 402.69 600.25 421.61C601.11 428.15 601.39 434.71 601.23 441.3C601.06 448.37 594.65 454.75 588.21 460.15ZM571.45 518.02C568.95 535.79 549.13 534.7 535.27 537.84C516.99 541.96 499.36 548.33 483.42 558.25C458.19 573.95 456.8 596.34 454.57 623.19C453.16 640.04 452.24 656.94 451.25 673.82C450.31 690.02 436.55 688 421.89 688.26C411.68 688.44 393.51 689.96 392.74 677.47C391.73 661.17 390.82 644.86 389.62 628.57C387.73 602.84 388.08 578.44 365.26 561.83C351.28 551.64 335.79 545.46 319.29 540.59C306.2 536.73 278.9 537.62 273.45 522.83C264.93 499.67 270.12 465.33 270.81 440.89C271.4 420.13 269.74 391.91 285.84 376.6C307.29 380.49 329.65 381.28 349.68 381.97C407.47 383.96 466.4 382.25 523.98 376.94C533.93 376.02 544.43 374.97 554.97 373.37C555.36 374.03 555.84 374.67 556.55 375.26C573.1 389.32 571.79 414.29 572.71 434.26C573.98 461.71 575.28 490.77 571.45 518.02ZM490.09 643.66C497.54 645.26 507.17 644.04 505.49 654.03C503.83 663.89 494.54 659 487.44 657.67C480.65 656.39 473.85 654.98 467.01 653.9C467.32 648.89 467.64 643.89 467.98 638.89C475.39 640.27 482.74 642.08 490.09 643.66ZM517.2 596.28C532.9 602.62 540.04 664.78 540.21 670C540.67 683.8 539.35 697.67 537.21 711.28C534.91 725.89 526.56 734.84 517.32 734.87C496.71 723.66 494.59 696.82 494.76 673.78C495.81 673.98 496.86 674.2 497.91 674.39C509.13 676.44 517.04 668.17 519.55 657.9C521.79 648.71 518.76 635.41 508.35 632.61C505.19 631.76 501.97 630.95 498.74 630.17C502.25 615.69 508.71 604.63 517.2 596.28ZM626.36 576.39C643.15 578.86 656.07 584.78 665.89 593.12C621.51 582.98 568.51 579.35 527.6 595.88C526.03 594.18 524.36 592.71 522.62 591.52C548.81 571 589.89 571.02 626.36 576.39ZM686.42 623.66C688.29 628.83 689.7 634.27 690.75 639.89C643.14 634.66 592.82 632.08 545.54 638.71C544.57 632.96 543.17 627.4 541.47 622.04C585.3 609.42 641.13 616.64 686.42 623.66ZM675.25 602.92C678.32 606.91 680.92 611.24 683.12 615.82C637.29 608.83 582.74 602.34 539.02 615.15C538.09 612.84 537.17 610.53 536.05 608.37C534.92 606.17 533.64 603.99 532.26 601.92C575.05 585.8 631.13 591.44 675.25 602.92ZM693.06 664.89C646.39 672.22 594.64 672.16 547.83 666.99C547.76 659.99 547.34 652.9 546.49 645.86C593.71 639.11 644.36 642.01 691.93 647.31C692.65 653.05 693 658.94 693.06 664.89ZM691.31 693.54C645.34 703.14 592.63 700.32 546.64 694.74C546.71 693.74 546.79 692.79 546.87 691.92C547.37 686.35 547.69 680.38 547.81 674.28C594.67 679.44 646.15 679.39 693 672.23C692.79 679.33 692.2 686.48 691.31 693.54ZM689.79 703.83C688.8 709.76 687.26 714.66 685.26 718.8C640.46 728.81 587.99 727.64 543.77 718.98C544.98 713.22 545.64 707.26 546.08 701.96C591.93 707.55 644.06 710.3 690.2 701.2C690.07 702.08 689.94 702.96 689.79 703.83ZM641.55 741.17C618.6 743.77 595.23 743.33 572.19 742.59C559.48 742.19 546.36 741.91 533.73 739.82C537.5 736.52 540.11 731.61 541.92 726.03C585.18 734.5 635.07 736.06 679.45 727.44C670.93 736.46 658.04 739.3 641.55 741.17ZM325.08 735.25C317.75 735.07 310.98 729.44 307.76 717.46C304.31 704.6 303.93 690.64 303.54 677.39C303.13 663.13 304.59 648.85 307.14 634.83C308.4 627.91 316.42 597.91 328.16 596.03C336.61 605.23 342.04 617.07 345.13 630.51C342.36 631.1 339.6 631.71 336.82 632.23C325.96 634.3 322.36 646.83 323.95 656.34C325.62 666.25 332.93 675.8 343.92 674.65C345.63 674.47 347.32 674.16 349.02 673.89C349.26 697.74 347.42 723.57 325.08 735.25ZM207.92 741.69C189.01 740.29 174.73 737.72 165.2 727.62C209.49 736.08 259.18 734.44 302.24 725.96C304.38 731.42 307.39 736.26 311.58 739.92C298.71 742.67 284.12 742.11 271.58 742.59C250.36 743.41 229.1 743.25 207.92 741.69ZM304.29 615.03C259.83 602.16 204.25 609.1 158.06 616.21C160.33 611.53 163.22 607.29 166.58 603.45C210.93 591.64 267.95 585.58 311.36 601.87C310.96 602.44 310.56 603.01 310.17 603.59C307.84 607.11 305.93 610.97 304.29 615.03ZM298.19 638.7C250.45 632.02 199.62 634.71 151.61 640.04C152.35 634.98 153.26 630.04 154.54 625.44C154.67 624.95 154.86 624.5 155.01 624.02C200.54 616.92 257.31 609.26 301.84 621.92C300.2 627.29 299.03 632.94 298.19 638.7ZM153.98 703.83C153.79 702.98 153.65 702.06 153.48 701.19C199.52 710.28 251.52 707.57 297.3 702.01C297.79 707.67 298.6 713.48 300.02 718.98C256.01 727.59 203.8 728.81 159.13 718.95C156.99 714.76 155.27 709.79 153.98 703.83ZM296.24 666.96C249.08 672.19 196.87 672.24 149.89 664.77C149.87 658.93 150.17 653.12 150.72 647.43C198.62 642.06 249.7 639.06 297.31 645.87C296.59 652.95 296.3 660.08 296.24 666.96ZM150.1 672.13C197.22 679.4 249.09 679.47 296.25 674.25C296.29 677.86 296.37 681.37 296.47 684.71C296.56 687.82 296.66 691.22 296.83 694.77C250.79 700.34 198.06 703.13 152.11 693.46C151.07 686.63 150.4 679.43 150.1 672.13ZM298.42 578.55C308 581.09 315.93 585.25 322.47 590.68C320.28 591.96 318.18 593.76 316.18 595.89C275.31 579.37 222.39 582.97 178.05 593.08C189.64 584.7 203.75 579.29 217.4 576.39C243.1 570.92 273.14 571.86 298.42 578.55ZM376.78 653.91C370.78 654.87 364.81 656.08 358.85 657.19C352.25 658.43 341.39 664.03 338.65 655.56C335.41 645.58 343.45 645.8 350.96 644.23C359.29 642.5 367.6 640.41 375.98 638.86C376.25 643.88 376.51 648.9 376.78 653.91ZM243.15 441.55C240.98 436.37 242.48 428.4 242.86 423.04C244.16 404.39 248.67 385.69 253.98 367.7C259.06 369.74 264.29 371.48 269.65 372.94C261.38 384.32 259.04 398.47 257.75 412.98C256.48 427.31 255.92 441.72 255.79 456.14C250.57 451.77 245.4 446.9 243.15 441.55ZM208.72 406.96C207.71 400.12 207.93 391.73 211.83 387.5C218.95 388.45 226.01 389.95 232.95 392.06C231.77 397.82 230.76 403.62 229.93 409.45C222.79 408.05 215.71 407.23 208.72 406.96ZM104.01 455.73C93.6 451.03 86.3701 439.51 82.0901 429.35C78.1801 420.06 77.0601 409.57 81.6201 400.34C87.8401 387.74 106.55 382.3 116.4 391.98C115.35 392.57 114.27 393.13 113.24 393.74C107.35 397.53 103.05 401.2 100.66 407.93C98.5599 413.85 99.95 421.06 102.5 426.58C108.09 438.69 120.46 445.27 133.05 439.59C134.47 438.89 135.89 438.22 137.3 437.55C142.17 455.83 116.14 461.21 104.01 455.73ZM76 489.05C53.79 498.28 30.0401 487.98 21.1001 466.51C12.4701 445.81 10.51 422.06 27.22 404.64C41.08 390.18 56.56 379.73 75.28 385.22C61.5 399.77 61.54 420.58 70.21 438.39C75.86 449.98 84.99 461.76 96.53 468.23C92.56 476.62 83.68 485.86 76 489.05ZM138.7 421.02C133.47 415.01 130.85 407.5 133.79 399.43C139.39 396.85 145.15 394.67 151.01 392.84C148.91 400.18 149.85 408.46 152.96 415.6C148.18 417.22 143.43 419.03 138.7 421.02ZM120.59 406.33C122.24 405.36 123.92 404.45 125.6 403.54C124.85 411 127.15 418.06 131.78 424.1C129.75 425.04 127.72 426 125.7 427C121.16 429.05 117.46 423.84 115.66 420.46C112.25 414.07 115.25 409.77 120.59 406.33ZM160.07 413.36C156.69 406.06 155.71 397.06 159.98 390.35C166.6 388.74 173.33 387.57 180.1 386.92C177.47 393.51 177.99 401.56 179.49 408.85C172.96 409.94 166.48 411.47 160.07 413.36ZM203.7 386.65C200.93 392.42 200.51 400.1 201.31 406.86C196.4 406.94 191.52 407.26 186.67 407.83C185.03 400.42 184.41 391.93 188.87 386.37C193.81 386.2 198.76 386.29 203.7 386.65ZM223.21 324.74C237.09 318.11 249.2 308.21 263.13 301.67C283.9 327.86 319.97 341.22 356.35 335.6C398.56 329.08 414.67 283.48 412.5 246.09C410.8 216.75 397.25 185.4 372.8 168.93C384.24 155.61 392.21 140.03 386.3 122.29C381.6 108.19 370.75 94.46 363.54 81.48C356.72 69.21 349.43 57.41 341.01 46.26C370.38 40.88 401.05 40.13 429.3 40.22C453.31 40.29 478.65 41.37 503.29 45.52C485.51 68.61 470.83 95.54 457.85 121.41C449.52 138.04 459.56 155.63 470.94 168.88C446.51 185.33 434.06 216.6 431.29 246.09C427.59 285.44 446.6 326.53 487.45 335.6C525.26 343.99 562.95 327.02 583.26 297.66C596.19 307.69 609.94 316.58 623.34 325.95C619.35 331.41 614.33 336.37 607.92 340.6C572.16 364.19 519.49 363.46 478.55 365.45C416.1 368.48 349.98 372.86 288.13 361.55C258.55 356.14 236.74 343.79 223.21 324.74ZM115.74 251.13C113.63 243.9 112.43 236.23 112.08 228.45C136.64 241.12 166.39 235.44 193.66 235.77C193.31 245 192.99 254.07 192.54 262.86C192.27 271.65 192.61 280.25 193.67 288.57C162.45 288.83 125.78 285.46 115.74 251.13ZM134.31 164.44C136.76 176.97 143.82 186.82 160.05 188.49C182.12 190.76 189.59 164.88 189.62 148.17C189.62 147.67 189.62 147.17 189.62 146.67C194.24 146.57 198.87 146.55 203.49 146.57C197.44 170.56 195.42 196.21 194.26 221.22C168.15 221.06 134.38 229.02 112.71 211.96C112.7 211.95 112.69 211.95 112.68 211.94C114.84 194.04 121.94 176.87 134.31 164.44ZM165.61 15.47C167.71 15.56 170.41 20.48 171.47 22.71C174.43 28.93 174.29 36.54 174.35 43.24C174.56 64.47 174.74 85.69 174.88 106.92C174.99 122.4 183.09 172.34 160.05 173.91C139.33 175.33 149.41 125.92 150.16 114.86C151.83 90.2 153.36 65.54 154.94 40.87C155.37 34.37 156.47 15.08 165.61 15.47ZM394.28 281.97C388.7 291.35 380.98 298.04 367.14 302.32C341.74 310.19 315.02 296.47 296.68 279.98C275.55 260.97 268.44 220.98 282.63 193.99C299.28 175.91 323.74 166.63 352.2 174.52C381.83 182.73 395.35 218.69 397.92 246.09C399.04 257.99 397.93 270.53 394.28 281.97ZM259.8 247.78C260.79 236.35 263.76 225.38 268.38 215.48C265.44 242.51 277.01 272.08 296.65 289.75C316.6 307.69 343.13 314.21 369.08 309.35C373.66 308.49 377.69 307.12 381.27 305.33C375.81 311.41 369.01 316.35 360.6 319.45C312.51 337.22 259 296.92 259.8 247.78ZM269.47 73.66C288.47 60.68 310.31 52.72 333.14 47.82C345.64 63.69 355.1 81.35 364.92 98.94C372.59 112.69 386.4 128.81 378.74 146.42C375.79 153.18 371.34 159.47 366.43 165.12C360.94 162.23 355.03 159.98 348.61 158.67C290.48 146.86 249.82 194.8 245.22 247.78C245.17 248.37 245.18 248.92 245.25 249.43C245.27 267.13 250.28 282.78 258.83 295.76C245.23 302.61 233.19 312.41 219.31 318.64C210.65 303.64 206.44 285.07 207.12 262.86C210.6 195.43 206.92 116.4 269.47 73.66ZM474.7 309.35C500.34 317.3 527.23 305.14 547.13 289.75C568.19 273.46 578.65 243.25 575.24 215.8C580.01 225.93 583.05 236.91 583.99 247.78C584.83 299.66 531.82 333.73 483.19 319.45C472.97 316.45 465.29 310.38 459.59 302.64C463.82 305.28 468.77 307.51 474.7 309.35ZM445.87 246.09C447.54 217.22 462.87 184.66 491.59 174.52C520.13 164.44 545.07 175.43 561.88 195.02C575.46 221.9 566.34 259.78 547.1 279.98C532.44 295.38 511.56 303.36 490.69 304.14C469.92 304.91 457.78 295.41 449.48 281.29C446.18 269.7 445.22 257.21 445.87 246.09ZM579.89 73.82C636.74 111.9 627.41 191.2 634.77 250.33C637.74 274.17 638.43 299.75 627.26 319.83C613.84 310.46 600.03 301.65 587.16 291.55C594.35 279.1 598.49 264.78 598.55 249.44C598.61 248.92 598.62 248.37 598.57 247.78C593.98 194.8 553.31 146.86 495.19 158.67C488.72 159.99 482.85 162.21 477.43 165.03C462.47 146.86 461.58 128.45 475.08 105.56C486.81 85.69 496.84 65.13 511.28 46.99C535.77 51.86 559.34 60.05 579.89 73.82ZM654.22 146.67C654.73 166.66 660.19 186.88 683.74 188.49C699.05 189.54 706.89 177.51 709.64 164.53C722.57 177.39 728.91 194.36 730.63 212.27C708.48 229.24 674.01 220.71 647.85 221.24C646.27 205.54 644.42 189.86 642.91 174.51C641.94 164.75 640.41 155.48 638.41 146.58C643.68 146.55 648.95 146.56 654.22 146.67ZM672.32 22.71C673.34 20.31 676.09 15.74 678.18 15.47C687.16 14.28 688.46 35.06 688.84 40.87C690.29 63.36 691.71 85.85 693.19 108.32C694.13 122.49 705.45 171.68 683.74 173.91C661.96 176.15 668.8 125.67 668.87 113.41C669 90.02 669.21 66.63 669.43 43.24C669.5 36.36 669.58 29.17 672.32 22.71ZM650.82 288.57C651.2 283.81 651.36 278.99 651.29 274.13C651.14 261.5 650.33 248.66 649.22 235.79C676.45 235.32 706.28 241.17 730.95 228.87C730.59 236.38 729.6 243.88 728.05 251.13C720.71 285.4 680.74 288.76 650.82 288.57ZM717.99 431.19C715.58 430 713.15 428.86 710.72 427.75C714.88 421.96 717.66 414.54 717.72 407.52C719.53 408.49 721.33 409.47 723.1 410.52C728.74 414.16 730.53 417.27 728.37 423.88C727.14 427.66 722.51 433.23 717.99 431.19ZM692.19 396.87C698.23 398.74 704.16 400.98 709.93 403.63C711.49 410.49 708.57 419.16 704 424.82C698.6 422.56 693.16 420.56 687.69 418.8C690.51 412.09 692.92 403.88 692.19 396.87ZM660.21 412.44C662.29 405.29 663.36 397.49 661.45 390.94C669.15 391.57 676.81 392.82 684.32 394.69C686.82 400.45 683.66 410 680.69 416.72C673.93 414.85 667.1 413.41 660.21 412.44ZM821.46 393.72C799.98 374.32 781.12 366.63 754.58 379.27C754.45 379.33 754.35 379.42 754.22 379.48C739.9 373.36 723.61 376.2 713.86 389.43C680.7 374.79 642.53 371.47 607.73 381.92C605.81 374.79 603.74 367.77 601.65 361.01C601.61 360.89 601.56 360.8 601.51 360.69C608.95 357.33 615.98 353.26 622.31 348.21C637.3 336.25 645.18 320.47 648.78 303.11C687.42 303.36 729.83 296.97 742.11 255.01C753.43 216.31 742.81 170.65 710.44 146.2C707.67 111.13 705.69 75.98 703.42 40.87C702.46 26.12 698.36 0.0199658 678.18 0.889966C658.22 1.75997 655 28.39 654.85 43.24C654.57 72.86 654.32 102.48 654.22 132.1C647.66 131.95 641.09 132 634.52 132.02C620.56 87.18 590.78 55.18 539.24 39.2C482.66 21.66 417.37 22.33 359.23 29.32C317.54 34.33 275.66 46.84 243.88 75.32C226.19 91.16 214.98 110.67 207.75 132.01C201.69 131.98 195.63 131.97 189.56 132.1C189.5 102.48 189.22 72.86 188.93 43.24C188.77 26.92 185.53 3.52997 165.61 0.889966C158.24 -0.0800342 151.92 5.56996 147.95 11.01C141.82 19.39 141.02 30.91 140.37 40.87C138.15 75.37 136.06 109.89 133.49 144.37C133.45 144.97 133.43 145.57 133.39 146.17C99.3099 171.81 93.0999 214.92 101.69 255.01C110.86 297.84 159.55 303.45 196.38 303.09C201.5 323.43 212.1 341.43 230.92 355.17C234.04 357.45 237.33 359.46 240.69 361.36C239.08 366.8 237.58 372.29 236.2 377.81C201.33 367.27 163.06 370.57 129.84 385.24C120.09 372.01 103.8 369.18 89.47 375.29C89.34 375.22 89.2501 375.14 89.1101 375.07C61.6101 361.98 44.94 371.15 22.23 389.52C-4.81001 411.41 -2.99996 439.65 7.04004 470.38C17.13 501.28 35.2599 507.3 65.1499 505.09C84.6699 503.64 103.26 491.69 110.54 472.92C113.87 473.34 117.32 473.34 120.9 472.72C141.92 469.07 155.99 451.79 150.49 431.87C175.42 422.2 201.23 418.25 228.3 423.96C228.17 425.39 228.02 426.81 227.92 428.24C226.41 449.94 238.61 459.9 254.16 473.65C254.7 474.13 255.26 474.48 255.83 474.77C255.93 482.55 256.09 490.31 256.32 498.06C256.73 511.9 256.06 534.73 270.57 542.78C285.44 551.02 304.86 551.54 321.08 556.32C341.74 562.42 368.1 574.16 372 597.65C373.45 606.44 374.37 615.37 375.04 624.33C369.78 625.19 364.54 626.22 359.32 627.37C344.97 563.43 279.61 552.6 221.22 561.2C190.14 565.77 163.12 579.7 146.68 607.16C131.17 633.05 134.11 673.02 138.84 701.27C143.38 728.38 151.93 745.67 179.41 752.29C209.05 759.45 241.36 758.14 271.58 757.17C292.31 756.51 313.91 756.57 333.08 747.8C361.93 734.59 363.93 698.7 363.55 671.2C368.12 670.22 372.7 669.31 377.3 668.52C377.29 677.47 377.35 687.41 382.7 693.86C390.54 703.3 411.11 702.65 421.89 702.84C434 703.05 449.37 702.24 459.59 695C467.13 689.66 466.18 677.33 466.25 668.41C470.91 669.13 475.57 669.96 480.22 670.89C479.81 699.3 481.91 727.86 506.88 745.62C523.35 757.34 547.94 756.13 567.19 756.98C597.93 758.34 629.07 758.33 659.49 753.27C689.71 748.24 700.04 730.45 704.92 701.27C715.64 637.28 700.2 577.21 630.24 562.33C570.9 549.71 499.54 561.79 484.52 627.04C479.36 626 474.2 625.11 469.07 624.33C469.64 617.41 470.24 610.49 471 603.58C474.02 575.95 498.36 564.3 522.69 556.32C537.55 551.46 556.71 551.91 570.38 544.33C584.26 536.64 586.01 521.99 587.07 507.38C587.76 497.9 588.11 488.35 588.24 478.78C588.68 478.52 589.11 478.22 589.53 477.85C603.39 465.59 615.45 456.32 615.91 437.14C615.98 434.14 615.92 431.11 615.78 428.07C642.7 422.49 668.39 426.44 693.2 436.06C687.7 455.99 701.77 473.27 722.8 476.91C726.37 477.54 729.81 477.53 733.15 477.12C740.45 495.97 759 507.65 778.54 509.28C810.36 511.93 824.13 504.63 836.65 474.58C849.48 443.77 846.08 415.95 821.46 393.72Z" fill="#2D2D2C"/>
<path d="M509.35 484.08C495.77 487.92 479.44 486.58 465.5 486.91C443.47 487.42 421.42 487.41 399.38 487.23C382.57 487.09 365.73 486.79 348.94 485.82C337.6 485.17 326.8 483.45 317.85 475.69C309.12 468.12 304.67 448.12 315.5 439.91C316.68 439.01 317.98 438.26 319.32 437.56C322.07 450.49 326.7 466.26 340.36 471.13C364.22 479.65 391.84 479.11 416.78 478.8C441.89 478.49 471.26 480.02 495.87 474.5C516.15 469.95 523.16 459.26 531.6 442.73C544.16 456.35 524.19 479.9 509.35 484.08ZM442.34 424.03C461.19 424.47 480.27 425.46 498.84 428.87C507.59 430.48 516.01 433.94 524.08 437.57C524.61 437.81 525.09 438.07 525.58 438.32C515.81 456.25 504.67 467.07 481.49 468.68C465.78 469.78 449.96 470.18 434.23 470.93C416.8 471.76 399.41 471.8 381.99 470.86C354.08 469.35 332.99 464.94 326.2 434.63C328.7 433.72 331.22 432.89 333.58 432C366.36 419.94 408.06 423.24 442.34 424.03ZM495.12 413.52C466.22 408.93 436.41 408.88 407.23 409.32C382.33 409.7 353.47 409.2 329.71 417.94C304.06 427.54 289.49 438.71 297.12 468.1C303.33 492.07 327.2 498.92 348.94 500.4C376.94 502.31 405.19 501.99 433.23 501.89C457.32 501.8 482.91 503.24 506.78 499.23C530.83 495.18 556.18 473.73 548.7 445.92C542.68 423.57 515.5 416.75 495.12 413.52Z" fill="#2D2D2C"/>
</svg>
