<svg width="393" height="322" viewBox="0 0 393 322" fill="none" xmlns="http://www.w3.org/2000/svg">
<path d="M230.428 113.5C230.813 113.58 231.202 113.64 231.596 113.7L233.756 118.73C232.645 116.99 231.539 115.25 230.428 113.5ZM350.813 178.65C336.434 182.25 322.145 186.28 307.918 190.56C314.604 206.8 321.011 223.04 327.095 239.16C331.209 250.06 313.802 257.1 308.464 247.01C299.984 230.98 292.03 214.55 284.357 197.93C277.85 200.03 271.359 202.17 264.877 204.36C271.036 214.6 276.664 225.05 281.115 235.82C285.605 246.68 268.108 253.42 262.523 243.66C256.363 232.9 249.905 222.29 243.361 211.73C227.549 217.24 211.798 222.88 196.1 228.51C190.681 230.45 185.238 232.4 179.78 234.35C179.367 244.67 178.992 255 178.446 265.26C177.759 278.22 158.686 278.32 158.25 265.26C157.993 257.64 157.822 250.02 157.718 242.4C124.927 254.53 92.2681 267.85 62.4281 285.46C52.2781 291.46 39.65 281.65 42.759 270.34C57.085 218.31 85.298 171.23 110.97 123.79C83.28 131.09 55.552 138.51 27.568 144.3C14.831 146.94 9.97205 129.16 22.225 124.9C57.911 112.49 94.983 103.36 131.395 93.28C139.557 91.02 150.016 99.36 146.396 108.28C127.119 155.79 98.124 198.75 79.19 246.25C104.521 233.98 131.105 223.77 157.623 214.23C157.87 168.96 159.948 123.58 161.42 78.47C161.771 67.68 175.163 65.67 180.127 72.53C180.63 73.06 181.104 73.65 181.526 74.34C197.272 100.19 213.928 125.54 230.144 151.1C236.774 161.55 243.987 172.03 251.067 182.68C258.812 180.33 266.58 178.07 274.367 175.88C259.357 142.06 245.178 107.74 230.277 74.2C226.741 75.92 223.401 77.53 220.335 78.92C208.666 84.2 198.553 68.07 210.104 61.42C246.274 40.58 312.91 8.34998 345.835 50.6C377.834 91.66 324.419 137.7 296.225 160.89C295.993 161.08 295.751 161.21 295.513 161.37C296.662 164.01 297.839 166.62 298.968 169.26C314.325 165.32 329.752 161.72 345.28 158.59C358.311 155.96 363.925 175.36 350.813 178.65ZM392.103 185.78C390.737 174.67 382.65 165.98 372.22 163.8C371.223 159.43 369.097 155.39 366.084 152.08C393.821 118.17 397.423 87.57 376.771 61.08C372.053 55.02 366.544 49.92 360.38 45.9C359.44 44.48 358.439 43.05 357.333 41.63C343.737 24.18 324.641 15.34 300.577 15.34C273.855 15.34 241.88 26.28 202.829 48.78C196.94 52.17 192.948 57.29 191.283 63.13C186.709 57.38 179.448 53.97 171.812 53.97C158.027 53.97 147.298 64.3 146.851 77.99L146.737 81.41C142.827 79.42 138.504 78.33 134.218 78.33C131.922 78.33 129.663 78.63 127.509 79.23C118.928 81.6 110.32 83.92 101.669 86.26C73.8941 93.74 45.174 101.48 17.432 111.13C5.67305 115.22 -1.12295 126.5 0.91705 138.56C2.69305 149.09 10.47 156.89 20.488 158.72C22.799 170.45 32.575 178.58 44.505 178.58C46.313 178.58 48.144 178.39 49.962 178.02C55.329 176.9 60.896 175.69 67.022 174.28C52.776 201.55 37.894 233.08 28.702 266.47C26.396 274.85 28.109 283.65 33.405 290.59C37.107 295.45 42.374 299.02 48.206 300.72C49.151 304.08 50.7261 307.25 52.8421 310.02C58.2191 317.09 66.624 321.3 75.327 321.3C80.196 321.3 85.017 319.97 89.279 317.46C107.748 306.55 128.757 296.49 155.217 285.88C157.775 287.47 160.585 288.58 163.546 289.13C165.705 300.71 175.471 309.03 187.662 309.03C201.296 309.03 211.717 299.12 212.444 285.47C212.818 278.4 213.113 271.3 213.397 264.2L220.459 261.67C230.282 258.14 240.138 254.63 250.009 251.14C253.197 256.57 258.389 260.46 264.502 262.09C266.111 264.81 267.719 267.56 269.309 270.34C273.627 277.89 281.519 282.4 290.421 282.4C299.144 282.4 307.434 278.1 312.061 271.18C312.417 270.65 312.749 270.1 313.057 269.54C313.713 270.79 314.367 272.03 315.017 273.27C319.203 281.18 327.114 285.9 336.182 285.9C344.71 285.9 352.934 281.67 357.642 274.86C362.003 268.55 362.923 260.75 360.171 253.44C355.914 242.17 351.467 230.76 346.931 219.44C356.337 216.76 365.168 214.38 373.795 212.22C386.114 209.14 393.646 198.27 392.103 185.78Z" fill="#2D2D2C"/>
<path d="M35.9111 210.78C35.9481 210.33 35.2471 210.14 35.0571 210.55C24.8111 233.2 -1.20893 273.29 19.6191 296.26C20.0371 296.72 20.8631 296.24 20.6691 295.65C10.6701 265.6 33.3011 239.61 35.9111 210.78Z" fill="#2D2D2C"/>
<path d="M353.702 24.57C354.239 24.93 354.927 24.2001 354.585 23.6801C334.284 -7.85989 291.74 -2.93999 262.352 11.58C262.001 11.75 262.262 12.2301 262.599 12.1701C294.446 6.1201 326.141 5.16 353.702 24.57Z" fill="#2D2D2C"/>
<path d="M295.537 291.42C287.693 292.74 278.999 293.25 271.577 290.06C264.459 287 259.87 281 255.571 274.87C255.357 274.57 254.806 274.65 254.825 275.07C255.267 284.69 261.92 292.37 270.235 296.55C279.493 301.2 289.135 299.71 296.201 292.57C296.714 292.04 296.178 291.32 295.537 291.42Z" fill="#2D2D2C"/>
<path d="M182.072 114.69C182.068 145.07 181.664 175.58 180.777 206.01C183.548 205.03 186.334 204.05 189.091 203.08C202.454 198.37 215.888 193.82 229.395 189.47C222.613 178.79 215.803 168.13 209.065 157.47C200.063 143.21 191.008 128.98 182.072 114.69Z" fill="#2D2D2C"/>
<path d="M288.794 91.95C300.496 87.56 310.391 85.33 318.254 85.33C318.321 85.33 318.392 85.33 318.458 85.33C315.459 92.09 308.768 100.66 298.465 110.93C295.214 104.41 291.978 98.06 288.794 91.95ZM326.767 61.24C306.452 43 275.341 53.2601 249.003 65.2501C262.323 89.9301 274.918 115.52 286.72 141.55C307.03 123.27 353.494 85.24 326.767 61.24Z" fill="#2D2D2C"/>
</svg>
